<?xml version="1.0" encoding="utf-8"?>
<!-- Generator: Adobe Illustrator 21.0.0, SVG Export Plug-In . SVG Version: 6.00 Build 0)  -->
<svg version="1.1" id="Layer_1" xmlns="http://www.w3.org/2000/svg" xmlns:xlink="http://www.w3.org/1999/xlink" x="0px" y="0px"
	 viewBox="0 0 64.7 51" style="enable-background:new 0 0 64.7 51;" xml:space="preserve">
<style type="text/css">
	.st0{fill:#E4E3E3;}
	.st1{fill:#063F76;}
	.st2{fill:#5494D2;}
	.st3{fill:#FFFFFF;}
</style>
<title>Group 34</title>
<desc>Created with Sketch.</desc>
<g id="Page-1">
	<g id="CCGS_Homepage_Update_03_08_2017" transform="translate(-1174.000000, -1292.000000)">
		<g id="Group-4" transform="translate(100.000000, 693.000000)">
			<g id="Group-24" transform="translate(1044.500000, 569.000000)">
				<g id="Group-34" transform="translate(29.608577, 30.963346)">
					<rect id="Rectangle-20" x="9.1" y="1.5" class="st0" width="46.8" height="46.9"/>
					<path id="Rectangle-15" class="st1" d="M9.7,47.6h45.4V2.1H9.7V47.6z M9,0h46.9c0.7,0,1.3,0.6,1.3,1.3v47
						c0,0.7-0.6,1.3-1.3,1.3H9c-0.7,0-1.3-0.6-1.3-1.3v-47C7.7,0.6,8.2,0,9,0z"/>
					<g id="Group-32" transform="translate(9.073281, 10.558414)">
						<polygon id="Line" class="st2" points="7.7,1.5 39,1.5 39,0 7.7,0 						"/>
						<polygon id="Line_1_" class="st2" points="7.7,8.3 39,8.3 39,6.8 7.7,6.8 						"/>
						<polygon id="Line_2_" class="st2" points="7.7,15.1 39,15.1 39,13.6 7.7,13.6 						"/>
						<polygon id="Line_3_" class="st2" points="7.7,22 39,22 39,20.4 7.7,20.4 						"/>
						<polygon id="Line_4_" class="st2" points="7.7,28.8 39,28.8 39,27.3 7.7,27.3 						"/>
					</g>
					<polygon id="Path-3" class="st3" points="38.5,30 34.7,33.7 35.5,37.9 39.3,38.4 43.3,34.5 					"/>
					
						<rect id="Rectangle-19" x="35.9" y="20" transform="matrix(0.7071 -0.7071 0.7071 0.7071 -1.4735 42.1184)" class="st1" width="28.5" height="5.6"/>
					<path id="Rectangle-17" class="st1" d="M35.7,34.1l0,3.2l3.2,0l22.5-22.5l-3.2-3.2L35.7,34.1z M59,9.7l4.3,4.3
						c0.5,0.5,0.5,1.3,0,1.8L39.7,39.4l-6.1,0l0-6.1L57.2,9.7C57.7,9.2,58.5,9.2,59,9.7z"/>
					<polygon id="Rectangle-18" class="st1" points="37.6,35.5 37.7,37.4 36.7,38.6 34.5,36.4 35.6,35.4 					"/>
				</g>
			</g>
		</g>
	</g>
</g>
</svg>
