<?xml version="1.0" encoding="UTF-8"?>
<svg width="48px" height="85px" viewBox="0 0 48 85" version="1.1" xmlns="http://www.w3.org/2000/svg" xmlns:xlink="http://www.w3.org/1999/xlink">
    <!-- Generator: Sketch 47.1 (45422) - http://www.bohemiancoding.com/sketch -->
    <title>CCGS_cmyk_crest</title>
    <desc>Created with Sketch.</desc>
    <defs>
        <polygon id="path-1" points="0.0113425903 28.1556705 0.0113425903 0.192795455 48.0687632 0.192795455 48.0687632 14.174233 48.0687632 28.1556705 0.0113425903 28.1556705"></polygon>
    </defs>
    <g id="Page-1" stroke="none" stroke-width="1" fill="none" fill-rule="evenodd">
        <g id="CCGS_Video-page_concept" transform="translate(-141.000000, -21.000000)">
            <g id="Group-2" transform="translate(46.000000, 0.000000)">
                <g id="Logo" transform="translate(95.000000, 21.000000)">
                    <g id="CCGS_cmyk_crest">
                        <g id="Group-3">
                            <mask id="mask-2" fill="white">
                                <use xlink:href="#path-1"></use>
                            </mask>
                            <g id="Clip-2"></g>
                            <path d="M48.0687632,24.8839432 L46.1482737,24.0934432 C43.5888182,23.0782727 41.6237144,22.6256477 39.7771407,22.6256477 C38.5273763,22.6256477 37.4273341,22.8215341 36.1533722,23.0483295 C34.9251587,23.2668182 33.5328557,23.5146705 31.7066987,23.6307727 C30.8178177,23.687375 30.0894344,23.6649659 29.5168226,23.5635455 C29.9310162,21.7041705 31.2751132,15.7002727 31.878917,13.3610341 C32.1836546,12.1839773 31.8775937,11.0250795 30.9163092,9.71376136 C30.144824,8.663625 28.4468383,7.34805682 25.8671552,5.80144318 L25.8671552,5.68746591 L27.6159935,5.68746591 L27.6159935,1.97702273 L25.8671552,1.97702273 L25.8671552,0.192795455 L22.2380934,0.192795455 L22.2380934,1.97702273 L20.4913345,1.97702273 L20.4913345,5.68746591 L22.2380934,5.68746591 L22.2380934,5.80202273 C19.6425307,7.35617045 17.9417093,8.66942045 17.1800543,9.70719318 C16.2713238,10.9441364 15.9622382,12.1349091 16.2354056,13.3477045 C16.7269178,15.5335568 17.9044678,20.5815909 18.470463,23.0075682 L18.5978781,23.5546591 C18.0184608,23.6634205 17.2757102,23.6885341 16.364144,23.6307727 C14.537987,23.5146705 13.145684,23.2672045 11.9170925,23.0487159 C10.6431305,22.8223068 9.54289927,22.6266136 8.29408008,22.6266136 C6.44750639,22.6266136 4.4831588,23.0790455 1.91727584,24.0961477 L0,24.8864545 L1.62406988,26.1303523 L1.01629609,28.1552841 L3.15116062,27.4125 L3.17195536,27.4049659 C4.98582459,26.692125 6.96019147,26.2920455 8.73190406,26.2783295 L8.78426902,26.2781364 C9.7440412,26.2781364 11.0310471,26.4943068 12.3938593,26.7232273 C14.0315403,26.9983182 15.8877552,27.3101136 17.5793135,27.3101136 C20.2022875,27.3101136 21.9590657,26.5458864 22.9362298,24.9762841 L25.1355581,24.9762841 C26.1125332,26.5453068 27.8687443,27.3093409 30.490395,27.3093409 C32.1819532,27.3093409 34.0379791,26.9973523 35.6758491,26.7220682 C37.0386613,26.4929545 38.3258563,26.2765909 39.2852504,26.2765909 L39.3374263,26.2767841 C41.105358,26.2918523 43.0810482,26.6923182 44.9009668,27.4043864 L47.0551138,28.1556705 L46.4488523,26.1284205 L48.0687632,24.8839432" id="Fill-1" fill="#FFFFFE" mask="url(#mask-2)"></path>
                        </g>
                        <path d="M45.168652,70.6234091 L45.195307,69.9745114 L45.195307,69.9590568 C45.194929,69.8234432 45.1875563,69.693625 45.1760246,69.5670909 C45.1762137,69.5580114 45.1764027,69.5489318 45.1764027,69.5398523 L45.1728109,69.5398523 C44.8331003,66.021625 40.3864269,65.9785455 40.185474,65.9785455 L39.8586183,65.9802841 L39.8714733,71.3913068 L40.1701615,71.4177727 C40.82047,71.4755341 41.2112222,71.6679432 41.661334,72.1524432 C42.1127691,72.6437045 42.3218508,73.1326477 42.3142891,73.7137386 C39.0877003,76.429875 32.5294146,78.0833182 24.0644395,78.0833182 C15.6100508,78.0833182 9.05857066,76.4271705 5.83878738,73.7069773 C5.83330512,73.1283977 6.042954,72.6425455 6.49268771,72.1545682 C6.94261045,71.6679432 7.33317364,71.4747614 7.98480545,71.4162273 L8.28368271,71.389375 L8.29426912,66.3135227 L8.29143348,65.9777727 L7.9626874,65.9777727 C7.75908791,65.9777727 2.97194769,66.0229773 2.95984893,69.9598295 L2.99633426,70.8621818 C3.00124938,71.9264205 3.0008713,73.3998182 2.96967917,74.3207159 L2.96911204,74.3361705 L2.97005726,74.3520114 C2.98253411,74.5728182 3.00975632,74.8965909 3.01599475,74.9698068 C3.02469073,77.5379659 5.26352901,79.9316818 9.32247493,81.7106932 C13.2868993,83.4477841 18.5303897,84.4104091 24.0873137,84.4204545 L24.088448,84.4204545 C29.6451829,84.4104091 34.887161,83.4477841 38.8487497,81.7106932 C42.9046709,79.9316818 45.1418078,77.5387386 45.1503148,74.9701932 C45.1571203,74.8962045 45.1849097,74.5724318 45.1970084,74.351625 L45.1977646,74.3361705 L45.1971975,74.3203295 C45.1629807,73.3275682 45.1635478,71.6971136 45.168652,70.6234091" id="Fill-4" fill="#FFFFFE"></path>
                        <path d="M3.53680868,74.3272841 C3.54852936,74.5312841 3.57253784,74.819125 3.57991053,74.9077955 L3.58312426,74.9676818 C3.59087503,77.2905 5.70853663,79.4960568 9.546113,81.1780909 C13.4419147,82.8852386 18.6065741,83.8310568 24.0882589,83.8409091 C29.5691876,83.8310568 34.7319566,82.8852386 38.6253007,81.1780909 C42.4594743,79.49625 44.5752454,77.2908864 44.5831853,74.9680682 L44.5856428,74.9170682 C44.5918812,74.8469432 44.6181582,74.5442273 44.630068,74.3311477 C44.5964183,73.3279545 44.5960402,71.7635682 44.6015224,70.6205114 L44.6020896,70.5992614 L44.6281775,69.9636932 C44.6274214,69.8566705 44.6228843,69.7577614 44.6141883,69.6534432 L44.608517,69.5968409 C44.3559554,66.9830909 41.3225686,66.6172045 40.4270711,66.5662045 L40.4374685,70.8654659 C41.1066813,70.9620568 41.5791002,71.2222727 42.0726919,71.7531364 C42.6345283,72.36475 42.8906817,72.9893068 42.8812296,73.7212727 L42.8780159,73.9899886 L42.6749835,74.1609545 C39.2763654,77.0219773 32.4931183,78.6628636 24.0644395,78.6628636 C15.6440786,78.6628636 8.86952749,77.0192727 5.47733683,74.1538068 L5.27411543,73.9820682 L5.27165786,73.7127727 C5.26485231,72.9842841 5.52157294,72.3628182 6.08000646,71.7573864 C6.57359818,71.2230455 7.0465842,70.9616705 7.71768745,70.8643068 L7.72657248,66.5652386 C6.80215138,66.6170114 3.54512658,67.0093636 3.52697844,69.9493977 L3.56346377,70.8592841 C3.56837889,71.93125 3.56781176,73.4005909 3.53680868,74.3272841 Z M24.0895822,85 L24.0876918,85 C18.4549615,84.9897614 13.132451,84.0107159 9.0990259,82.2432955 C4.83232153,80.3732955 2.4719285,77.8005 2.44905428,74.9960795 C2.4386569,74.8726364 2.41521555,74.5869205 2.40387296,74.3852386 L2.40236062,74.3151136 C2.43355274,73.3967273 2.43411987,71.9412955 2.42920475,70.8753182 L2.39271941,69.9578977 C2.40387296,66.3585341 5.89909215,65.3982273 7.9626874,65.3982273 L8.85383691,65.3982273 L8.86139864,66.3086932 L8.84967796,71.9204318 L8.03433476,71.9934545 C7.52240586,72.039625 7.25850159,72.1700227 6.90499086,72.5525227 C6.62596314,72.8552386 6.47416147,73.1330341 6.42425408,73.4436705 C9.69110911,76.0268977 16.0904095,77.5037727 24.0644395,77.5037727 C32.0479216,77.5037727 38.4564851,76.0286364 41.7297676,73.4488864 C41.6809945,73.1349659 41.5288147,72.8548523 41.2478966,72.5490455 C40.8960873,72.1704091 40.632372,72.0403977 40.1210102,71.995 L39.305478,71.9229432 L39.2901655,65.4040227 L40.1822602,65.399 C41.9929157,65.399 45.0556041,66.1647727 45.6567614,68.9603068 L45.7399404,68.9603068 L45.7435322,69.5442955 C45.75582,69.6876364 45.7620585,69.8228636 45.7624366,69.9569318 L45.7620585,69.9986591 L45.7357815,70.6369318 C45.7314335,71.57425 45.7289759,73.2860341 45.7641379,74.2998523 L45.7648941,74.3241932 L45.7633818,74.3842727 C45.7518501,74.5927159 45.7268964,74.8902159 45.7172552,74.9980114 C45.6936248,77.8016591 43.3351222,80.3734886 39.0723878,82.2432955 C35.0417983,84.0107159 29.7206112,84.9897614 24.0895822,85 L24.0895822,85 Z" id="Fill-5" fill="#FFFFFE"></path>
                        <path d="M1.27698662,28.8501591 L1.38379601,30.3220114 C1.45279677,31.2340227 1.51537006,32.096 1.57265014,32.922625 L1.57435153,32.9434886 C2.0541431,39.5709773 2.37116849,43.94925 4.51246049,51.0054091 C6.35808897,57.0887045 8.93625973,62.0594659 12.3938593,66.2020568 C15.2425509,69.6175114 18.623777,72.4576705 23.357229,75.4104545 L24.0504503,75.8427955 L24.7483977,75.4104545 C29.4714523,72.4619205 32.8487085,69.6240795 35.6994795,66.2084318 C39.1646408,62.0565682 41.7477267,57.0784659 43.5956237,50.9903409 C45.7476912,43.9025 46.0618809,39.5222955 46.5371355,32.8936477 L46.5987635,32.0631591 C46.639975,31.5015795 46.6825097,30.9222273 46.7290143,30.3210455 L46.8375251,28.8501591 L1.27698662,28.8501591" id="Fill-6" fill="#FFFFFE"></path>
                        <polyline id="Fill-7" fill="#042849" points="25.3000257 2.55656818 25.3000257 0.772340909 22.8052229 0.772340909 22.8052229 2.55656818 21.058464 2.55656818 21.058464 5.10792045 22.8052229 5.10792045 22.8052229 6.89272727 25.3000257 6.89272727 25.3000257 5.10792045 27.048864 5.10792045 27.048864 2.55656818 25.3000257 2.55656818"></polyline>
                        <path d="M45.9431618,24.6337727 C39.1413885,21.936375 37.9545755,23.8141023 31.7420498,24.2091591 C28.8691607,24.3915227 27.5662752,23.7934318 27.3265684,22.2895114 L24.9187256,22.6866932 C25.9853071,29.4689205 35.2007836,25.6626591 39.3423414,25.6972386 C41.2590501,25.7134659 43.3162179,26.1637727 45.1038101,26.8632841 L46.1885399,27.2413409 L45.7900369,25.9093523 L46.924674,25.0377159 L45.9431618,24.6337727" id="Fill-8" fill="#042849"></path>
                        <polyline id="Fill-9" fill="#042849" points="45.9465646 24.9600568 45.1236597 25.5755341 45.4525948 26.9227841 45.9465646 24.9600568"></polyline>
                        <path d="M2.12938228,24.6337727 C8.92794183,21.9385 10.1151329,23.8141023 16.328982,24.2091591 C19.2028163,24.3915227 20.5074032,23.7934318 20.7435181,22.2898977 L23.1532514,22.6866932 C22.0866698,29.4689205 12.8702481,25.6642045 8.72736703,25.6987841 C6.81292684,25.7134659 4.75519192,26.1618409 2.96854491,26.8640568 L1.8838152,27.2413409 L2.28326342,25.9108977 L1.14522353,25.0392614 L2.12938228,24.6337727" id="Fill-10" fill="#042849"></path>
                        <path d="M44.8675062,69.9606023 C44.8555965,66.2858977 40.1873644,66.3135227 40.1873644,66.3135227 L40.198518,71.0841477 C40.934274,71.1490568 41.3932708,71.3777841 41.9006627,71.9229432 C42.5708207,72.6525909 42.7768778,73.4228068 42.5577767,74.3954773 L44.7459514,72.9348295 L44.8675062,69.9606023" id="Fill-11" fill="#F8C542"></path>
                        <path d="M40.5257517,70.7876136 C41.1762492,70.8952159 41.6467777,71.1637386 42.1382899,71.6920909 C42.7059866,72.3104659 42.9778306,72.9672841 42.9695127,73.7205 L44.4253342,72.7487955 L44.5395163,69.9542273 C44.5255271,67.1805227 41.5305161,66.7338864 40.5161105,66.6622159 L40.5257517,70.7876136 Z M42.0551109,75.1309205 L42.2379157,74.3203295 C42.4335754,73.4537159 42.261168,72.8050114 41.661334,72.1524432 C41.2112222,71.6679432 40.82047,71.4755341 40.1701615,71.4177727 L39.8714733,71.3913068 L39.8586183,65.9802841 L40.185474,65.9785455 C40.3941776,65.9785455 45.1828302,66.0233636 45.195307,69.9590568 L45.195307,69.9745114 L45.0665686,73.12125 L42.0551109,75.1309205 L42.0551109,75.1309205 Z" id="Fill-12" fill="#042849"></path>
                        <polyline id="Fill-13" fill="#042849" points="2.12560141 24.9600568 2.94737208 25.5755341 2.62051644 26.9239432 2.12560141 24.9600568"></polyline>
                        <path d="M3.28746074,69.9606023 C3.29918142,66.283 7.96627922,66.3131364 7.96627922,66.3131364 L7.95607089,71.0824091 C7.22182722,71.1482841 6.75961666,71.3781705 6.25430427,71.924875 C5.58395718,72.6520114 5.37695491,73.4228068 5.59511073,74.3950909 L3.40825933,72.9352159 L3.28746074,69.9606023" id="Fill-14" fill="#F8C542"></path>
                        <path d="M3.7286875,72.7487955 L5.18375279,73.7205 C5.17581298,72.9665114 5.44822419,72.3104659 6.01554274,71.6949886 C6.50592073,71.1645114 6.97644918,70.8948295 7.62883716,70.7860682 L7.63753315,66.6618295 C6.62218228,66.7335 3.62943984,67.1805227 3.61563969,69.9546136 L3.7286875,72.7487955 Z M6.09645322,75.1297614 L3.08764211,73.1216364 L2.95984893,69.9598295 C2.97194769,66.0229773 7.75908791,65.9777727 7.9626874,65.9777727 L8.29143348,65.9777727 L8.29426912,66.3135227 L8.28368271,71.389375 L7.98480545,71.4162273 C7.33317364,71.4747614 6.94261045,71.6679432 6.49268771,72.1545682 C5.89304277,72.8050114 5.72006827,73.4525568 5.91497177,74.3199432 L6.09645322,75.1297614 L6.09645322,75.1297614 Z" id="Fill-15" fill="#042849"></path>
                        <path d="M3.31581722,69.5398523 C3.31581722,69.5398523 3.35324777,72.7416477 3.29918142,74.3325 C3.31279253,74.5755227 3.345497,74.9549318 3.345497,74.9549318 C3.345497,79.9931136 12.716556,84.0632614 24.0876918,84.0835455 C35.4601509,84.0632614 44.8208125,79.9931136 44.8208125,74.9549318 C44.8208125,74.9549318 44.8544622,74.5755227 44.8678843,74.3325 C44.8130618,72.7416477 44.8469005,69.5398523 44.8469005,69.5398523 C44.8469005,74.5716591 37.247365,78.4202273 24.0644395,78.4202273 C10.999855,78.4202273 3.31581722,74.5716591 3.31581722,69.5398523" id="Fill-16" fill="#042849"></path>
                        <path d="M3.62887271,74.32825 C3.64267286,74.5637386 3.6734869,74.9218977 3.67386498,74.9251818 L3.67518829,74.9549318 C3.67518829,77.2425909 5.7731894,79.421875 9.58240929,81.0915455 C13.4664903,82.7940568 18.6181057,83.7367841 24.0876918,83.7466364 C29.5572779,83.7367841 34.707381,82.7940568 38.5890044,81.0915455 C42.3950106,79.4222614 44.4914993,77.2425909 44.4914993,74.9549318 L44.4928226,74.9247955 C44.4930117,74.921125 44.5245819,74.5637386 44.5380039,74.3286364 C44.5177763,73.7340227 44.5098365,72.9197614 44.507568,72.1315795 C43.6389146,73.7261023 41.9354466,75.1092841 39.4616277,76.2065568 C35.6998576,77.8750682 30.3756457,78.75675 24.0644395,78.75675 C17.8038968,78.75675 12.5035044,77.8760341 8.73549588,76.2096477 C6.27075102,75.1191364 4.53949366,73.7038864 3.65760727,72.0946818 C3.65647301,72.8940682 3.64928937,73.7245568 3.62887271,74.32825 Z M24.0876918,84.4204545 L24.0873137,84.4204545 C18.5303897,84.4104091 13.2868993,83.4477841 9.32247493,81.7106932 C5.26352901,79.9316818 3.02469073,77.5379659 3.01599475,74.9698068 C3.00975632,74.8965909 2.98253411,74.5728182 2.97005726,74.3520114 L2.96911204,74.3361705 L2.96967917,74.3207159 C3.01750709,72.906625 2.99293148,70.1889432 2.98744923,69.6518977 C2.98650401,69.6146136 2.98593688,69.5773295 2.98593688,69.5398523 L3.64531946,69.5357955 L3.64645372,69.6406932 C3.75780015,74.6904659 11.9630299,78.0833182 24.0644395,78.0833182 C36.1976083,78.0833182 44.4164492,74.6871818 44.516453,69.632 L44.5175873,69.5361818 L45.1764027,69.5398523 C45.1764027,69.5742386 45.1760246,69.6082386 45.1754575,69.6424318 C45.1705424,70.1794773 45.1482353,72.9016023 45.1971975,74.3203295 L45.1977646,74.3361705 L45.1970084,74.351625 C45.1849097,74.5724318 45.1571203,74.8962045 45.1503148,74.9701932 C45.1418078,77.5387386 42.9046709,79.9316818 38.8487497,81.7106932 C34.887161,83.4477841 29.6451829,84.4104091 24.088448,84.4204545 L24.0876918,84.4204545 L24.0876918,84.4204545 Z" id="Fill-17" fill="#042849"></path>
                        <path d="M24.0513955,74.2449886 C31.8781609,69.3613523 38.486732,63.1691023 42.3195823,50.5336591 C44.678274,42.7640795 44.7714723,38.47525 45.3956928,30.2136364 L2.71787367,30.2151818 C3.34020379,38.4764091 3.43094451,42.8276364 5.78963615,50.5993409 C9.61794941,63.2183636 16.1947613,69.3437727 24.0513955,74.2449886" id="Fill-18" fill="#042849"></path>
                        <path d="M28.6400404,45.8124886 L28.6400404,30.1894886 L19.4797645,30.2020455 L19.4797645,45.8219545 L4.21452845,45.8219545 L4.81455148,47.6065682 C4.81455148,47.6065682 5.26560848,48.9486023 5.77848261,50.4646932 C6.24107124,51.8407273 6.8692617,54.162 6.87606726,54.1846023 L7.14431952,55.1735 L19.4797645,55.1727273 L19.4780631,70.7706136 L20.0276116,71.1739773 C20.0661764,71.2016023 20.9692356,71.8603523 21.5771985,72.2803295 C21.9809947,72.5598636 22.3025571,72.7677273 22.6122098,72.9672841 C22.8509714,73.12125 23.098807,73.2808182 23.3976842,73.4809545 L24.1213415,73.9687386 L25.4091036,73.1025114 C25.8066613,72.8345682 26.1429691,72.6093182 26.6310786,72.2832273 C27.2014219,71.8995682 28.0214911,71.3161591 28.0572203,71.2923977 L28.6215142,70.8905795 L28.6309663,55.1632614 L40.9760525,55.1632614 L41.2514884,54.1905909 C41.2586721,54.168375 41.9182437,51.8407273 42.3846132,50.4583182 C42.887468,48.9603864 43.34741,47.6175795 43.3519471,47.6046364 L43.9636908,45.8124886 L28.6400404,45.8124886" id="Fill-19" fill="#FFFFFE"></path>
                        <path d="M27.2946201,47.1454432 L27.2946201,31.4803295 L20.808549,31.4685455 L20.808549,47.1454432 L5.5599487,47.158 L5.77526887,47.99525 C5.7924718,48.0609318 6.1826569,49.6021364 6.67398011,51.0556364 C7.13184267,52.4191136 7.51503317,53.3655114 7.53147993,53.4043409 L7.69840505,53.8169773 L20.808549,53.8169773 L20.8064695,70.9143409 L21.084741,71.1117727 C21.1701885,71.1739773 23.1381279,72.5867159 23.8067736,73.0352841 L24.1461061,73.2624659 L24.495647,73.0551818 C25.2170357,72.6280568 26.9764605,71.1932955 27.0507545,71.1328295 L27.2966996,70.9325 L27.2987791,53.8185227 L40.4297177,53.83475 L40.5871907,53.3941023 C40.5902154,53.3850227 40.9414576,52.3984432 41.3976188,51.0494545 C41.8791117,49.6063864 42.3305468,48.03775 42.3360291,48.0213295 L42.5961525,47.1477614 L27.2946201,47.1454432" id="Fill-20" fill="#CE2139"></path>
                        <polyline id="Fill-21" fill="#F8C542" points="24.6459363 39.5901023 23.4504273 39.5901023 23.4504273 40.4505341 24.6459363 40.4545909 24.6459363 39.5901023"></polyline>
                        <polyline id="Fill-22" fill="#F8C542" points="23.4504273 45.7906591 24.6459363 45.7906591 24.6459363 41.7943068 23.4504273 41.7914091 23.4504273 45.7906591"></polyline>
                        <path d="M6.05335138,38.706875 C6.05335138,35.2858182 8.77065791,32.5107614 12.1188015,32.510375 C15.4671342,32.510375 18.1823612,35.2842727 18.181227,38.7061023 C18.181227,42.1283182 15.4671342,44.9047273 12.1188015,44.9051136 C8.77065791,44.9051136 6.05335138,42.1298636 6.05335138,38.706875" id="Fill-23" fill="#F8C542"></path>
                        <path d="M14.805105,39.3551932 C15.032902,38.8956136 15.2094683,38.4827841 15.4304598,38.0798068 C15.6200701,37.7334318 15.5902013,37.3130682 15.6181797,36.9174318 L14.4540518,37.0240682 L15.5077784,36.2944205 C15.0820532,36.2414886 15.1009575,36.2173409 14.678068,36.2702727 C14.3045187,36.3166364 14.1697309,36.2414886 13.8165982,36.3713068 L14.4084924,35.8558977 C12.8702481,35.8558977 12.0760778,36.8830455 11.2603565,37.7919659 C10.5130688,38.6228409 10.132903,39.1620114 9.61284524,40.1275341 L9.58146407,40.126375 C8.15815804,40.1719659 11.424635,37.1998636 11.2486358,35.9291136 C10.9482462,33.7795795 8.90979369,34.51425 8.77992103,35.8151364 C8.77992103,35.8151364 8.32224751,36.4136136 8.32697359,36.4136136 C8.32697359,36.4136136 8.21373673,36.4789091 8.27063873,36.5762727 C8.32224751,36.6697727 8.53132926,36.5264318 8.53132926,36.5264318 L9.681846,35.8558977 C12.1240947,35.1824659 7.74188498,39.1150682 7.92998293,40.5745568 C8.28009089,43.2901136 15.5077784,44.6692386 16.482296,39.5302159 L15.5824505,39.6355 L16.5191594,38.8660568 C15.8370916,39.0144205 15.2699621,39.1822955 14.805105,39.3551932" id="Fill-24" fill="#1A1919"></path>
                        <path d="M10.1332811,35.7229886 C10.2958582,35.7229886 10.4030457,35.7724432 10.4514407,35.87 C10.5988944,36.1678864 10.1569115,36.8086705 9.42342398,37.8290568 C8.71129836,38.8200795 7.90389498,39.9434318 7.98442737,40.5672159 C8.15040727,41.8551591 10.0340334,42.9429659 12.0972506,42.9429659 C14.3757879,42.9429659 15.9837891,41.6932727 16.4136733,39.5947386 L15.4002129,39.7133523 L16.3023269,38.9723068 C15.7576935,39.0990341 15.2612661,39.2452727 14.8238202,39.4079318 L14.6933805,39.4564205 L14.7561428,39.3296932 C14.8406451,39.1591136 14.9183418,38.9947159 14.9937701,38.8351477 C15.1219413,38.5635341 15.242929,38.3067955 15.3826319,38.052375 C15.5261156,37.7900341 15.5385925,37.4724432 15.5508803,37.1652841 C15.5533378,37.1028864 15.5557954,37.040875 15.5591982,36.9790568 L14.4587779,37.0798977 L14.4230487,36.9777045 L15.3567329,36.331125 C15.3353711,36.3282273 15.3155215,36.3255227 15.2968063,36.3228182 C15.0726011,36.2919091 15.0400856,36.2816705 14.6846845,36.3259091 C14.5427131,36.3434886 14.4338242,36.3440682 14.3376012,36.3444545 C14.1759693,36.3452273 14.0483652,36.3458068 13.8353135,36.4242386 L13.7810581,36.3286136 L14.2553674,35.9155909 C12.9464325,35.9766364 12.1985777,36.8191023 11.4745424,37.6347159 C11.4166952,37.7002045 11.3586589,37.7653068 11.3008117,37.8298295 C10.5601406,38.6533636 10.1769501,39.1963977 9.66105125,40.1545795 L9.64479354,40.1847159 L9.57957364,40.1823977 L9.54989387,40.1829773 L9.54970482,40.1829773 C9.36822338,40.1829773 9.24950427,40.1300455 9.19657218,40.0257273 C9.04552669,39.7278409 9.48108215,39.0980682 10.032332,38.3008068 C10.6140179,37.4596932 11.2732114,36.5063409 11.1943804,35.9370341 C11.0777408,35.1026818 10.6781035,34.6239773 10.0983081,34.6239773 C9.47805746,34.6239773 8.89939631,35.1722273 8.83455451,35.8209318 L8.83285312,35.8369659 L8.82321192,35.8497159 C8.67367877,36.0450227 8.45609008,36.3307386 8.39162636,36.4180568 L8.40070043,36.4354432 L8.35400677,36.4624886 C8.34493269,36.4678977 8.31657622,36.4893409 8.31052684,36.5131023 C8.30901449,36.5196705 8.30788023,36.5306818 8.31771048,36.5474886 C8.319979,36.5515455 8.32829689,36.5517386 8.33188871,36.5517386 C8.37839334,36.5517386 8.46024903,36.5076932 8.50089331,36.479875 L9.66766776,35.8018068 C9.85992467,35.748875 10.0122935,35.7229886 10.1332811,35.7229886 Z M12.0972506,43.0552045 C9.94518314,43.0552045 8.05134865,41.9457614 7.8755385,40.5818977 C7.78933481,39.9132955 8.61053835,38.7708182 9.33495178,37.7626023 C9.89697713,36.9807955 10.4780958,36.1723295 10.3535164,35.9206136 C10.29945,35.8118523 10.0735434,35.8068295 9.70301883,35.90825 L8.55855148,36.5753068 C8.54834315,36.5824545 8.4264103,36.6639773 8.33188871,36.6639773 C8.28292653,36.6639773 8.24417268,36.6427273 8.22281081,36.6037045 C8.20069275,36.5660341 8.19407624,36.5241136 8.20447362,36.4839318 C8.22243272,36.4155455 8.28330462,36.3747841 8.29786094,36.3660909 C8.34152992,36.2975114 8.45476678,36.1493409 8.72698894,35.7933068 C8.80525281,35.0970795 9.42947337,34.5119318 10.0983081,34.5119318 C10.7291452,34.5119318 11.179635,35.0387386 11.3030802,35.9211932 C11.3879606,36.5347386 10.7155341,37.5074091 10.1221275,38.3655227 C9.65594708,39.0397273 9.17369796,39.7369205 9.29411845,39.9741477 C9.32644484,40.0382841 9.41264852,40.0707386 9.54970482,40.0707386 L9.54989387,40.0707386 L9.58108599,40.0703523 C10.0937711,39.1218295 10.4803644,38.5762841 11.2199012,37.7541023 C11.2777484,37.6895795 11.3354066,37.6246705 11.3932538,37.559375 C12.1611472,36.6943068 12.9551285,35.799875 14.4084924,35.799875 L14.5576475,35.799875 L14.0383459,36.2521136 C14.1459114,36.2331818 14.2372193,36.2327955 14.3370341,36.2324091 C14.4347694,36.2318295 14.5359075,36.2314432 14.6714515,36.2146364 C15.0412199,36.1684659 15.081297,36.1796705 15.3115516,36.2117386 C15.3669413,36.2194659 15.4323502,36.2285455 15.514395,36.2387841 L15.6599582,36.25675 L14.6604869,36.9489205 L15.6775392,36.8556136 L15.6728131,36.9214886 C15.6671418,37.0033977 15.6637391,37.0864659 15.6605253,37.1697273 C15.6478594,37.4900227 15.6348155,37.8213295 15.4784767,38.1072386 C15.3404752,38.3587614 15.2200547,38.6137614 15.0924506,38.8838295 C15.0353596,39.0047614 14.9771343,39.1283977 14.9153171,39.2555114 C15.3873579,39.0878295 15.9221611,38.9385 16.5078168,38.8111932 L16.5535653,38.9099091 L15.7648772,39.5576477 L16.5503515,39.4656932 L16.5361733,39.5408409 C16.118955,41.7415682 14.4595341,43.0552045 12.0972506,43.0552045 L12.0972506,43.0552045 Z" id="Fill-25" fill="#1A1919"></path>
                        <path d="M3.54493754,31.0041364 C3.59125312,31.609375 3.6318974,32.198 3.67291977,32.765375 C4.1591388,39.4871364 4.45177763,43.5418295 6.52123322,50.3681023 C10.4038019,63.1532614 17.2116245,68.9977841 24.0513955,73.3227386 C30.893435,68.9962386 37.7020138,63.1478523 41.5855277,50.3553523 C43.6610327,43.5180682 43.9549948,39.4573864 44.4406467,32.7348523 C44.4828033,32.1742386 44.5217462,31.6002955 44.5665495,31.0018182 L3.54493754,31.0041364 Z M24.0513955,75.1643409 L23.6527035,74.9157159 C18.9767206,71.9988636 15.6361388,69.1961818 12.8254449,65.826125 C9.41850886,61.7443864 6.87606726,56.8385341 5.05406917,50.8336705 C2.92998011,43.8339205 2.6159794,39.4776705 2.13845635,32.8816705 C2.08098723,32.0538864 2.01822489,31.1905568 1.94922414,30.2773864 L1.8877851,29.4297045 L46.2259704,29.4297045 L46.1633971,30.2773864 C46.0940183,31.1774205 46.0325792,32.03225 45.9717073,32.8496023 C45.4983432,39.4498523 45.1813178,43.8118977 43.054015,50.8186023 C41.2289923,56.831 38.6825808,61.7412955 35.267894,65.8325 C32.4545535,69.2033295 29.1164292,72.0044659 24.4527342,74.9157159 L24.0513955,75.1643409 L24.0513955,75.1643409 Z" id="Fill-26" fill="#042849"></path>
                        <path d="M4.1508209,31.5388636 C4.1674567,31.7677841 4.18390346,31.9926477 4.19959404,32.2161591 C4.70396122,39.2607273 5.00983307,43.5124659 7.10405332,50.4583182 C10.0094578,60.0957727 15.3996457,67.1594659 24.0551764,72.6520114 C32.7831105,67.1156136 38.0145022,60.2536023 40.9887184,50.4532955 C43.1742465,43.2584318 43.5249216,38.9676705 44.0406314,31.5483295 L4.1508209,31.5388636 Z M24.0551764,74.224125 L23.7124411,74.0098864 C19.4703123,71.3648409 16.0631873,68.4520455 13.2971076,65.1026591 C9.96049563,61.06825 7.52448533,56.4058068 5.85088614,50.8537614 C3.71280788,43.7603182 3.4020209,39.4517841 2.8927386,32.3144886 C2.85984509,31.8618636 2.82676253,31.3951364 2.79103338,30.9189432 L2.73791224,30.1977955 L45.4497592,30.2080341 L45.3987175,30.9253182 C44.84501,38.8902045 44.5412177,43.27775 42.2399952,50.8506705 C40.544845,56.4398068 38.1041087,61.1111364 34.7856448,65.1318295 C32.0371462,68.4591932 28.638528,71.3648409 24.3973445,74.0098864 L24.0551764,74.224125 L24.0551764,74.224125 Z" id="Fill-27" fill="#F8C542"></path>
                        <path d="M24.0551764,5.87504545 C26.2730309,7.12280682 29.1514022,8.94180682 30.1487939,10.3031591 C30.8302946,11.2310114 31.2019534,12.1463068 30.9522274,13.1098977 C30.2298935,15.90775 28.4373861,23.997625 28.4373861,23.997625 L19.6880901,23.9980114 C19.6880901,23.9980114 17.8192093,16.0265568 17.1690898,13.1288295 C16.9454518,12.131625 17.2639895,11.2219318 17.945112,10.2933068 C18.9430709,8.93234091 21.8356205,7.12010227 24.0551764,5.87156818 L24.0551764,5.87504545" id="Fill-28" fill="#F8C542"></path>
                        <path d="M24.0538531,6.33153409 C21.1013768,8.00313636 18.996003,9.53043182 18.2598689,10.5340114 C17.594626,11.4381023 17.3692865,12.2349773 17.5500118,13.0405455 C18.1205441,15.5801136 19.6457444,22.1046364 19.9958524,23.5963864 L28.1248978,23.5963864 C28.4629069,22.0828068 29.9400903,15.4680682 30.5743301,13.0088636 C30.7667761,12.2610568 30.5421928,11.5006932 29.8372508,10.5438636 C29.0905303,9.52367045 26.9862907,7.99251136 24.0538531,6.33153409 Z M19.3801388,24.3967386 L19.3060338,24.0922841 C19.289398,24.0107614 17.432427,16.0839318 16.7881678,13.2178864 C16.5514858,12.1669773 16.8210613,11.1610795 17.6335689,10.0553068 C18.7515702,8.53168182 22.0193705,6.56142045 23.8670784,5.52345455 L24.5126608,5.67780682 C26.3813526,6.74088636 29.3833581,8.59234091 30.4627946,10.0616818 C31.3119766,11.22 31.5877906,12.2191364 31.3306918,13.2128636 C30.6183772,15.9718864 28.8362672,24.0032273 28.8198204,24.0839773 L28.7508197,24.3967386 L19.3801388,24.3967386 L19.3801388,24.3967386 Z" id="Fill-29" fill="#042849"></path>
                        <path d="M28.8956268,11.1321023 C28.292201,10.3122386 26.7906311,9.233125 24.3026339,7.83448864 L24.0619819,7.69926136 L23.8220861,7.83448864 C22.0651189,8.82415909 19.9467011,10.0914318 19.1833448,11.1301705 C18.5793519,11.9538977 18.5751929,12.582125 18.7859761,13.5238864 C19.2943132,15.8024659 20.7533483,22.0540227 20.7667704,22.1162273 L20.8561878,22.5087727 L27.2515183,22.5056818 L27.3369658,22.1079205 C27.3505769,22.0461023 28.71717,15.7957045 29.2793844,13.674375 C29.5648396,12.5937159 29.4625672,11.9052159 28.8956268,11.1321023" id="Fill-30" fill="#042849"></path>
                        <polyline id="Fill-31" fill="#F8C542" points="21.8341082 3.34977273 23.580678 3.34977273 23.580678 1.56535227 24.5240034 1.56535227 24.5240034 3.34977273 26.2715185 3.34977273 26.2715185 4.31529545 24.5240034 4.31529545 24.5240034 23.3591591 23.580678 23.3591591 23.580678 4.31529545 21.8341082 4.31529545 21.8341082 3.34977273"></polyline>
                        <polyline id="Fill-32" fill="#F8C542" points="19.214726 12.1360682 20.7395482 12.1360682 20.7395482 10.5794091 21.6836298 10.5794091 21.6819284 12.1360682 23.2071287 12.1360682 23.2071287 13.0992727 21.6819284 13.0992727 21.6819284 16.643 20.7395482 16.643 20.7395482 13.0992727 19.214726 13.0992727 19.214726 12.1360682"></polyline>
                        <polyline id="Fill-33" fill="#F8C542" points="24.898498 12.1360682 26.422375 12.1360682 26.422375 10.5794091 27.3647552 10.5794091 27.3647552 12.1360682 28.8912788 12.1360682 28.8912788 13.0992727 27.3647552 13.0992727 27.3647552 16.643 26.422375 16.643 26.422375 13.0992727 24.898498 13.0992727 24.898498 12.1360682"></polyline>
                        <path d="M2.38440151,25.2946477 C8.7088408,22.7369205 9.65330048,24.5273295 15.9193254,24.9600568 C18.6683912,25.1513068 20.7280166,24.7118182 21.3021407,22.9407273 L22.2498141,23.2641136 C20.6779201,28.1027386 11.9813671,25.1306364 8.66706226,24.9600568 C6.81425014,24.8657841 4.49998364,25.5434659 2.69783509,26.262875 L2.38440151,25.2946477" id="Fill-34" fill="#F8C542"></path>
                        <polyline id="Fill-35" fill="#042849" points="2.22730664 25.0396477 2.94737208 25.5755341 2.63923171 26.5827841 2.22730664 25.0396477"></polyline>
                        <path d="M45.6868193,25.2946477 C39.3620019,22.7369205 38.4181094,24.5261705 32.1532187,24.9600568 C29.4041529,25.1513068 27.3447166,24.7118182 26.7692692,22.9407273 L25.82273,23.2641136 C27.3929226,28.1019659 36.0906098,25.1306364 39.4035914,24.9600568 C41.2558364,24.8653977 43.5716152,25.5430795 45.3748981,26.2621023 L45.6868193,25.2946477" id="Fill-36" fill="#F8C542"></path>
                        <polyline id="Fill-37" fill="#042849" points="45.843347 25.0392614 45.1236597 25.5755341 45.4299096 26.5843295 45.843347 25.0392614"></polyline>
                        <polyline id="Fill-38" fill="#F8C542" points="22.2902693 53.0065795 21.5675573 52.2682386 25.7985325 47.9450227 26.5214336 48.68375 22.2902693 53.0065795"></polyline>
                        <polyline id="Fill-39" fill="#F8C542" points="25.7972092 53.0065795 26.5195431 52.2682386 22.2936721 47.9450227 21.5692587 48.68375 25.7972092 53.0065795"></polyline>
                        <path d="M4.73798899,76.5324545 C4.77258389,76.5830682 4.83213249,76.64875 4.87920424,76.7022614 C5.25010694,77.1195341 5.47166554,77.0957727 5.43896107,76.4748864 C5.41003747,75.9345568 5.18053906,75.4081364 4.83080919,75.0107614 C4.7432822,74.9116591 4.68335552,74.8535114 4.6491387,74.8253068 C4.68033083,75.5153523 4.69942419,75.8553523 4.73798899,76.5324545 Z M4.22643817,73.9302955 C4.37408089,74.066875 4.56747205,74.2739659 4.7682359,74.5044318 C5.10889169,74.8962045 5.33385307,75.2360114 5.51098652,75.6088523 C5.7039996,76.0156932 5.83519556,76.4603977 5.85939308,76.9238409 C5.88567008,77.4218636 5.77848261,77.6316591 5.62554668,77.6515568 C5.45635304,77.6739659 5.17222116,77.4579886 4.82041182,77.063125 C4.60962868,76.8268636 4.45518041,76.6340682 4.3544204,76.5019318 C4.30697056,75.6451705 4.26349063,74.7882159 4.22643817,73.9302955 L4.22643817,73.9302955 Z" id="Fill-40" fill="#F8C542"></path>
                        <path d="M7.44697763,78.2036705 C7.13978248,77.9958068 6.98476708,77.8920682 6.6726568,77.6822727 C6.68475557,77.9308977 6.69061591,78.0553068 6.70290371,78.3035455 C7.05017602,78.5413523 7.2222053,78.6586136 7.5628611,78.8937159 C7.57098995,79.0907614 7.5751489,79.1887045 7.58252159,79.38575 C7.0562254,79.0167727 6.79005261,78.8334432 6.24806584,78.4586705 C6.20401878,77.5885795 6.15997172,76.7181023 6.11819318,75.8480114 C6.64808119,76.1986364 6.90933885,76.3665114 7.42788427,76.701875 C7.43601313,76.8993068 7.44036112,76.9982159 7.44867902,77.1950682 C7.12106721,76.9804432 6.95584347,76.8724545 6.62388367,76.6535795 C6.63390295,76.8724545 6.63938521,76.9816023 6.64921545,77.1998977 C6.96264903,77.4083409 7.11766443,77.5109205 7.42599384,77.7156932 C7.4341227,77.9108068 7.43847069,78.0085568 7.44697763,78.2036705" id="Fill-41" fill="#F8C542"></path>
                        <path d="M8.26988255,77.1102614 C8.29256774,77.7297955 8.30391033,78.0390795 8.32716264,78.6574545 C8.34417652,79.1249545 8.50070427,79.4325 8.75250977,79.5555568 C9.01452361,79.6834432 9.15233608,79.5271591 9.13740167,79.0397614 C9.11793022,78.4111477 9.10753285,78.0968409 9.08768331,77.4670682 C9.28901429,77.5553523 9.38939621,77.5999773 9.58959293,77.6886477 C9.60793012,78.3101136 9.6166261,78.6205568 9.63345095,79.2416364 C9.65651421,80.0951136 9.32625579,80.3259659 8.75156455,80.038125 C8.19634476,79.7603295 7.85493279,79.2238636 7.82071598,78.3771477 C7.79632941,77.7821477 7.78385256,77.4840682 7.75946599,76.8875227 C7.96419975,76.9765795 8.06628306,77.0212045 8.26988255,77.1102614" id="Fill-42" fill="#F8C542"></path>
                        <path d="M10.0380033,79.953125 C10.1750596,80.0887386 10.3937826,80.2542955 10.6136398,80.3354318 C10.8501328,80.4225568 10.973578,80.3474091 10.9701752,80.1615682 C10.9673396,79.9846136 10.8548589,79.8430114 10.579612,79.6287727 C10.1958544,79.3306932 9.93724332,78.9872159 9.9266569,78.5821136 C9.91455814,78.1063068 10.2370658,77.8462841 10.7792416,78.0160909 C11.043713,78.0987727 11.2329452,78.2227955 11.3718919,78.3493295 C11.3286011,78.5428977 11.3072392,78.6391023 11.2645154,78.8318977 C11.1745309,78.746125 11.0051482,78.6095455 10.7830225,78.5371023 C10.557494,78.4636932 10.4510627,78.5583523 10.4544654,78.7009205 C10.4590025,78.8805795 10.5867957,79.0020909 10.8888866,79.2435682 C11.2968418,79.5690795 11.490233,79.9034773 11.4957152,80.3085795 C11.503277,80.7911477 11.2166875,81.083625 10.592656,80.8465909 C10.3327216,80.7486477 10.0748668,80.5647386 9.94442696,80.4308636 C9.98204655,80.2403864 10.0007618,80.1449545 10.0380033,79.953125" id="Fill-43" fill="#F8C542"></path>
                        <path d="M13.1086316,81.1390682 C13.1557033,81.1639886 13.2349124,81.1840795 13.2999432,81.2008864 C13.7997734,81.3310909 14.1334346,81.083625 14.1275742,80.3607386 C14.1213358,79.732125 13.815464,79.3264432 13.338319,79.2207727 C13.2188437,79.1948864 13.1366099,79.1894773 13.0893492,79.1925682 C13.0976671,79.974375 13.101637,80.3644091 13.1086316,81.1390682 Z M12.5386664,78.6027841 C12.738485,78.5987273 13.0006879,78.6296364 13.2757457,78.6870114 C13.7426824,78.7855341 14.0529022,78.9634545 14.2907185,79.2333295 C14.5498967,79.5267727 14.7154985,79.9396023 14.7204136,80.48225 C14.7249507,81.0662386 14.5548118,81.4265227 14.3215325,81.6069545 C14.0672695,81.8032273 13.6636623,81.8175227 13.189542,81.6933068 C12.9059773,81.6187386 12.703134,81.5443636 12.5709928,81.4889205 C12.5624858,80.5270682 12.5505761,79.5646364 12.5386664,78.6027841 L12.5386664,78.6027841 Z" id="Fill-44" fill="#F8C542"></path>
                        <path d="M15.5922807,79.1556705 C15.597763,79.8679318 15.6007877,80.2237727 15.606459,80.9304318 C15.6113741,81.4655455 15.7811349,81.7620795 16.0692367,81.8136591 C16.3671687,81.86775 16.5291787,81.6413409 16.5242636,81.0876818 C16.517458,80.3734886 16.5142443,80.01475 16.508762,79.2959205 C16.7348577,79.3314659 16.8477164,79.3494318 17.0743792,79.3865227 C17.0806176,80.0916364 17.0842094,80.444 17.091015,81.1454432 C17.1004672,82.1105795 16.7119834,82.4894091 16.0544913,82.3665455 C15.4200624,82.2483182 15.0476474,81.7574432 15.0387623,80.7867045 C15.0336582,80.1041932 15.0306335,79.7607159 15.0255293,79.0729886 C15.2527592,79.1054432 15.365618,79.1216705 15.5922807,79.1556705" id="Fill-45" fill="#F8C542"></path>
                        <path d="M18.8612152,82.7391932 C18.7659375,82.4992614 18.7186767,82.3789091 18.6233989,82.1393636 C18.5269869,81.9077386 18.4644136,81.7367727 18.3903087,81.5459091 C18.3878511,81.5451364 18.3861498,81.5451364 18.3833141,81.54475 C18.3326505,81.7213182 18.2700773,81.8781818 18.1899229,82.0872045 C18.1092015,82.3053068 18.0689353,82.4144545 17.988592,82.6310114 C17.725822,82.5985568 17.594626,82.5827159 17.3324231,82.5506477 C17.620714,81.9564205 17.7636306,81.65525 18.0504091,81.0488523 C17.7598497,80.3943523 17.6156098,80.0674886 17.327697,79.4185909 C17.590278,79.4435114 17.7218521,79.4562614 17.9840549,79.4819545 C18.0757409,79.7215 18.1209222,79.8418523 18.211852,80.0821705 C18.2895487,80.2828864 18.347774,80.444 18.4097802,80.628875 C18.4129939,80.628875 18.4146953,80.6296477 18.4175309,80.6300341 C18.4753781,80.4343409 18.5224499,80.2985341 18.584456,80.1215795 C18.667257,79.8988409 18.7088465,79.7875682 18.7924035,79.56425 C19.0538502,79.5912955 19.18429,79.6050114 19.4464929,79.6336023 C19.1680323,80.2260909 19.0292746,80.5214659 18.750436,81.1085455 C19.0604668,81.7922159 19.2154822,82.1347273 19.5266472,82.8238068 C19.2606635,82.7894205 19.127199,82.7724205 18.8612152,82.7391932" id="Fill-46" fill="#F8C542"></path>
                        <path d="M21.1798297,82.3920455 C21.2295481,82.4078864 21.3144285,82.4121364 21.3828621,82.4152273 C21.9118049,82.4407273 22.2573758,82.0962841 22.2435757,81.3270341 C22.2316659,80.6580455 21.9114268,80.2908068 21.4078158,80.2720682 C21.2824802,80.2670455 21.1947642,80.2784432 21.1450458,80.2908068 C21.1588459,81.1315341 21.1665967,81.5515114 21.1798297,82.3920455 Z M20.5597681,79.7574318 C20.7713074,79.7162841 21.0486338,79.7012159 21.338437,79.7120341 C21.829004,79.7294205 22.1522678,79.8588523 22.4014267,80.097625 C22.6732708,80.3584205 22.8505933,80.7579205 22.8611797,81.3318636 C22.8727113,81.9490795 22.6991697,82.3717614 22.4583287,82.6188409 C22.1953697,82.8879432 21.7739924,83.000375 21.2688691,82.977 C20.9667781,82.9627045 20.7488113,82.9290909 20.6075961,82.8985682 C20.5922836,81.8515227 20.5750806,80.8040909 20.5597681,79.7574318 L20.5597681,79.7574318 Z" id="Fill-47" fill="#F8C542"></path>
                        <path d="M24.3618044,82.48825 C24.7599293,82.4857386 24.9780851,82.0209432 24.9656083,81.389625 C24.9544547,80.8112386 24.7253344,80.3136023 24.3194587,80.3147614 C23.913394,80.3153409 23.6958053,80.807375 23.707526,81.4102955 C23.7194357,82.0193977 23.9629233,82.4909545 24.3574564,82.48825 L24.3618044,82.48825 Z M24.3413877,83.0705 C23.4965538,83.064125 23.1014536,82.1820568 23.0876534,81.440625 C23.0730971,80.6825795 23.4702768,79.74275 24.3202149,79.7373409 C25.1538953,79.7317386 25.5650642,80.6248182 25.5856699,81.3681818 C25.6068427,82.1370455 25.2274331,83.0637386 24.3455467,83.0705 L24.3413877,83.0705 L24.3413877,83.0705 Z" id="Fill-48" fill="#F8C542"></path>
                        <path d="M27.8384973,82.8012045 C27.7373593,82.8674659 27.4919812,82.9520795 27.1878108,82.9715909 C26.3216149,83.0268409 25.82273,82.2249432 25.8089299,81.4334773 C25.7947516,80.5931364 26.2919352,79.7095227 27.1965067,79.6735909 C27.4991649,79.662 27.7309318,79.7301932 27.8350946,79.7887273 C27.7878338,80.0199659 27.7636363,80.1354886 27.7169426,80.3671136 C27.6014372,80.3093523 27.4360244,80.2587386 27.2254303,80.2670455 C26.7652993,80.2852045 26.409331,80.6497386 26.4212407,81.3639318 C26.4322052,82.0023977 26.746773,82.3910795 27.2602143,82.3657727 C27.4388601,82.3566932 27.6286594,82.3049205 27.7454881,82.2378864 C27.7823515,82.4635227 27.8010668,82.5763409 27.8384973,82.8012045" id="Fill-49" fill="#F8C542"></path>
                        <path d="M28.7050712,80.2301477 C28.4275559,80.2550682 28.2889872,80.2678182 28.0116609,80.2938977 C28.0093924,80.050875 28.0084472,79.92975 28.0073129,79.6871136 C28.7994038,79.6140909 29.1952602,79.58125 29.9864059,79.5188523 C29.9850826,79.7595568 29.9848935,79.8801023 29.9839483,80.1204205 C29.7043534,80.1434091 29.5637053,80.155 29.2837324,80.1795341 C29.2867571,81.0330114 29.2937517,81.886875 29.30396,82.7415114 C29.0750287,82.7652727 28.9604686,82.7770568 28.7313482,82.8012045 C28.7194385,81.9438636 28.7103645,81.0871023 28.7050712,80.2301477" id="Fill-50" fill="#F8C542"></path>
                        <path d="M30.7894612,80.8081477 C30.8796348,80.7950114 30.924249,80.78825 31.0149898,80.7753068 C31.3010121,80.7341591 31.47134,80.5342159 31.4741756,80.2606705 C31.4768222,79.9776591 31.3197273,79.8497727 31.055634,79.8860909 C30.915553,79.9052159 30.8357768,79.9260795 30.7943764,79.9455909 C30.7911626,80.2908068 30.7904065,80.4637045 30.7894612,80.8081477 Z M30.2255455,79.5381705 C30.4123201,79.4697841 30.6858656,79.4039091 30.9968416,79.362375 C31.3764403,79.3117614 31.6411007,79.3521364 31.8199356,79.5053295 C31.9694687,79.634375 32.0517025,79.8401136 32.0481107,80.1267955 C32.0422503,80.5191477 31.8106725,80.8224432 31.5921386,80.9511023 L31.5921386,80.9652045 C31.7685158,81.0274091 31.8643607,81.2165341 31.926745,81.4906591 C32.0040636,81.8322045 32.0789247,82.2212727 32.128265,82.3317727 C31.8955528,82.3686705 31.7792913,82.3872159 31.5469572,82.4241136 C31.5091486,82.3385341 31.4431725,82.1013068 31.3732266,81.7307841 C31.3012011,81.3511818 31.1932575,81.2636705 30.9575206,81.2941932 C30.8900322,81.3044318 30.8561935,81.3096477 30.7888941,81.3198864 C30.7888941,81.8119205 30.7900284,82.0570682 30.7943764,82.5452386 C30.569415,82.5815568 30.4563672,82.5997159 30.2312168,82.6366136 C30.2196851,81.6038636 30.2187399,80.5705341 30.2255455,79.5381705 L30.2255455,79.5381705 Z" id="Fill-51" fill="#F8C542"></path>
                        <path d="M33.1318648,79.0698977 C33.1007466,80.0927955 33.0815461,81.1164659 33.0793391,82.13975 C32.8164898,82.1865 32.6851756,82.2102614 32.4229884,82.2573977 C32.4221056,81.228125 32.437775,80.1988523 32.4633758,79.1699659 C32.7315218,79.1292045 32.8646016,79.1091136 33.1318648,79.0698977" id="Fill-52" fill="#F8C542"></path>
                        <path d="M33.4370109,82.0570682 C33.4413588,81.0388068 33.4610193,80.0203523 33.4897539,79.0024773 C33.7549815,78.9400795 33.8873117,78.9099432 34.1532954,78.8477386 C34.3480099,79.2464659 34.4459343,79.4442841 34.6421611,79.8354773 C34.781864,80.1169432 34.9174079,80.4534659 35.0257297,80.7598523 C35.0285653,80.7590795 35.0298886,80.7586932 35.0329133,80.7579205 C35.0079596,80.3731023 35.0066363,79.9720568 35.0202474,79.5184659 C35.0293215,79.1699659 35.035749,78.9949432 35.0469025,78.6454773 C35.255039,78.5998864 35.3590128,78.5774773 35.5665822,78.5342045 C35.5334996,79.5203977 35.5072226,80.5067841 35.4928553,81.49375 C35.2554171,81.5571136 35.136887,81.5895682 34.900205,81.6540909 C34.6930137,81.2545909 34.5903632,81.0519432 34.3865747,80.6425909 C34.2447923,80.3551364 34.0871303,80.0108864 33.9776743,79.6822841 C33.9716249,79.6842159 33.9686003,79.6846023 33.9627399,79.6861477 C33.9706797,80.0895114 33.9678441,80.5164432 33.9597152,81.0100227 C33.9538549,81.3745568 33.9519645,81.5559545 33.9493178,81.9170114 C33.7436389,81.9747727 33.6417446,82.0008523 33.4370109,82.0570682" id="Fill-53" fill="#F8C542"></path>
                        <path d="M37.1165471,79.7124205 C37.0617246,79.4902614 37.0345024,79.3786023 36.980247,79.1545114 C36.945085,78.9962955 36.9082216,78.7926818 36.8772185,78.6371705 C36.8728705,78.6383295 36.8704129,78.6391023 36.8660649,78.6402614 C36.8288234,78.8212727 36.7834531,79.0517386 36.7426197,79.230625 C36.6772108,79.4950909 36.6439392,79.6276136 36.5790974,79.8932386 C36.7946066,79.8200227 36.9017941,79.7837045 37.1165471,79.7124205 Z M36.4881676,80.4101932 C36.4138737,80.7316477 36.3773883,80.8927614 36.3042286,81.215375 C36.0756754,81.2997955 35.9616824,81.3421023 35.7335073,81.4280682 C35.9976006,80.3675 36.2711461,79.3094432 36.5505519,78.2527386 C36.8367632,78.1658068 36.9793018,78.1233068 37.2640008,78.040625 C37.4868827,78.9039545 37.7167592,79.7641932 37.9545755,80.6232727 C37.7180825,80.7059545 37.5999305,80.7474886 37.3632485,80.8319091 C37.2927354,80.5674432 37.2577624,80.4343409 37.1891397,80.1675568 C36.9093558,80.263375 36.7687077,80.3116705 36.4881676,80.4101932 L36.4881676,80.4101932 Z" id="Fill-54" fill="#F8C542"></path>
                        <path d="M39.020779,77.4396364 C39.2234333,77.3486477 39.3247604,77.3038295 39.5264695,77.2143864 C39.5149378,77.9388182 39.5035953,78.66325 39.4943321,79.3876818 C39.8555936,79.2084091 40.0346175,79.1208977 40.3943667,78.9468409 C40.3924762,79.1454318 40.3917201,79.2445341 40.3903968,79.4438977 C39.8259139,79.7245909 39.5431053,79.8671591 38.9752196,80.1615682 C38.9867512,79.254 39.0028199,78.346625 39.020779,77.4396364" id="Fill-55" fill="#F8C542"></path>
                        <path d="M41.0596096,76.4555682 C41.0556397,77.0509545 41.0535602,77.3467159 41.0495903,77.9376591 C41.0469437,78.3839091 41.1832438,78.5148864 41.4180354,78.3549318 C41.6620902,78.189375 41.7964999,77.8901364 41.7980122,77.4396364 C41.7997136,76.8589318 41.8004698,76.5672273 41.8021712,75.9782159 C41.9859211,75.8601818 42.0777961,75.800875 42.2623022,75.6816818 C42.2617351,76.2548523 42.2617351,76.5370909 42.2609789,77.1000227 C42.2600337,77.8742955 41.9392275,78.4553864 41.4012106,78.8264886 C40.881909,79.1850341 40.5801961,79.033 40.5877578,78.2061818 C40.5919168,77.6256705 40.5951305,77.3355114 40.6000456,76.7521023 C40.7839847,76.6332955 40.8754815,76.5739886 41.0596096,76.4555682" id="Fill-56" fill="#F8C542"></path>
                        <path d="M43.4266191,76.9452841 C43.3682048,76.8355568 43.3387141,76.7801136 43.2799216,76.6686477 C43.2194278,76.5649091 43.180863,76.4801023 43.1358707,76.3887273 C43.1339803,76.3906591 43.132468,76.3922045 43.1307666,76.3945227 C43.0973059,76.5770795 43.0570397,76.752875 43.0039186,76.9860455 C42.9511756,77.2259773 42.9250876,77.3455568 42.8727226,77.5852955 C42.7057975,77.7777045 42.6229966,77.8739091 42.4568277,78.0674773 C42.6428461,77.347875 42.7362335,76.9920341 42.9220629,76.2710795 C42.7420938,75.9832386 42.6524874,75.8371932 42.4740306,75.5383409 C42.6401995,75.3467045 42.7237566,75.2505 42.8903037,75.0561591 C42.9468276,75.1776705 42.9753731,75.2383295 43.031708,75.3582955 C43.0797249,75.4575909 43.1160212,75.5398864 43.1542079,75.6376364 C43.1562874,75.6353182 43.1570436,75.6345455 43.158934,75.6326136 C43.1973098,75.4270682 43.2285019,75.2775455 43.2689571,75.0822386 C43.3232125,74.8320682 43.3506238,74.7059205 43.4058244,74.4513068 C43.5736947,74.2529091 43.6578189,74.1520682 43.8275797,73.9472955 C43.6423174,74.6856364 43.5508205,75.0395455 43.3682048,75.7417614 C43.5612179,76.0328864 43.6578189,76.1760341 43.8521553,76.4555682 C43.6810712,76.6526136 43.5965689,76.7501705 43.4266191,76.9452841" id="Fill-57" fill="#F8C542"></path>
                    </g>
                </g>
            </g>
        </g>
    </g>
</svg>