<svg xmlns="http://www.w3.org/2000/svg" xmlns:xlink="http://www.w3.org/1999/xlink" viewBox="0 0 305.11 87.57"><defs><style>.cls-1{fill:none;}.cls-2{isolation:isolate;}.cls-3{clip-path:url(#clip-path);}.cls-4{clip-path:url(#clip-path-2);}.cls-5{fill:#fff;}.cls-6{mix-blend-mode:multiply;}.cls-7{clip-path:url(#clip-path-3);}.cls-8{fill:#5f8ac7;}.cls-9{fill:#231f20;}.cls-10{fill:#00c0f3;}.cls-11{clip-path:url(#clip-path-5);}.cls-12{fill:#e33e7b;}.cls-13{clip-path:url(#clip-path-6);}.cls-14{fill:#a1cd41;}.cls-15{clip-path:url(#clip-path-7);}.cls-16{clip-path:url(#clip-path-8);}.cls-17{fill:#19b790;}.cls-18{clip-path:url(#clip-path-9);}.cls-19{fill:#5481c1;}.cls-20{clip-path:url(#clip-path-11);}.cls-21{fill:#fec140;}</style><clipPath id="clip-path" transform="translate(-0.38 0.17)"><rect class="cls-1" width="305.49" height="87.39"/></clipPath><clipPath id="clip-path-2" transform="translate(-0.38 0.17)"><rect class="cls-1" width="305.49" height="87.4"/></clipPath><clipPath id="clip-path-3" transform="translate(-0.38 0.17)"><rect class="cls-1" x="274.56" y="16.9" width="13.87" height="53.5"/></clipPath><clipPath id="clip-path-5" transform="translate(-0.38 0.17)"><rect class="cls-1" x="69.9" y="37.8" width="11.34" height="32.23"/></clipPath><clipPath id="clip-path-6" transform="translate(-0.38 0.17)"><rect class="cls-1" x="69.9" y="16.86" width="11.33" height="32.24"/></clipPath><clipPath id="clip-path-7" transform="translate(-0.38 0.17)"><path class="cls-1" d="M91.73,32.57v.15c-.22,11.06,9.37,13.3,18.39,16.19a5.26,5.26,0,0,0,.6.18h0a1.4,1.4,0,0,0,.24.06,5.57,5.57,0,0,0,1.16.12,5.69,5.69,0,0,0,5.68-5.66,5.57,5.57,0,0,0-3-5h0l-.19-.09a6.45,6.45,0,0,0-.83-.32l-4.1-1.15c-5.08-1.57-6.48-2.69-6.48-5.41v-.15c0-2.54,2.31-4.55,6.72-4.55,3.58,0,7.16,1.27,11,3.51a5.54,5.54,0,0,0,2.91.82c4.64,0,7.16-5.95,3.74-9.19-2-1.92-5.35-3.12-8-3.93A32.26,32.26,0,0,0,110,16.82c-10.67,0-18.29,6.27-18.29,15.75"/></clipPath><clipPath id="clip-path-8" transform="translate(-0.38 0.17)"><rect class="cls-1" x="85.4" y="11.49" width="50.44" height="43.22"/></clipPath><clipPath id="clip-path-9" transform="translate(-0.38 0.17)"><path class="cls-1" d="M17.32,43.39h0Zm0,0C17.32,57.86,27,70,43.22,70c7.44,0,12.48-2,16.6-5A5.43,5.43,0,0,0,62,60.65a5.34,5.34,0,0,0-5.39-5.33,5.73,5.73,0,0,0-3.27,1.08,16.32,16.32,0,0,1-10.14,3.54c-8.38,0-14.41-7.53-14.41-15.47l0-1.09a5.7,5.7,0,0,0-11.4,0"/></clipPath><clipPath id="clip-path-11" transform="translate(-0.38 0.17)"><rect class="cls-1" x="17.32" y="16.89" width="44.63" height="32.21"/></clipPath></defs><title>CIS_Accredited_icon-2</title><g class="cls-2"><g id="Layer_1" data-name="Layer 1"><g class="cls-3"><g class="cls-4"><rect class="cls-5" width="305.11" height="87.57" rx="43.65"/><g class="cls-6"><g class="cls-7"><g class="cls-6"><g class="cls-7"><path class="cls-8" d="M288.43,43.66a38.57,38.57,0,0,1-1.63,11.39,48.41,48.41,0,0,1-4.95,10.72,14.27,14.27,0,0,1-3,3.84,4.94,4.94,0,0,1-2.95.78c-.93,0-1.39-.25-1.39-.75A17.77,17.77,0,0,1,275.73,67c.78-1.62,1.59-3.56,2.44-5.8a53.46,53.46,0,0,0,2.19-7.92,49.13,49.13,0,0,0,0-19.18,53.42,53.42,0,0,0-2.2-7.91q-1.25-3.34-2.42-5.8a20,20,0,0,1-1.17-2.69c0-.5.46-.75,1.39-.75a5.17,5.17,0,0,1,3,.74,13.55,13.55,0,0,1,2.89,3.83,53.24,53.24,0,0,1,2.87,5.37,42.66,42.66,0,0,1,2,5.29A35.93,35.93,0,0,1,288,37.64a41.63,41.63,0,0,1,.42,6" transform="translate(-0.38 0.17)"/></g></g></g></g><path class="cls-9" d="M142.66,67l.6-.69a6,6,0,0,0,4.43,1.83c1.85,0,3.12-1,3.12-2.45v0c0-1.31-.69-2.07-3.49-2.63-3-.6-4.17-1.61-4.17-3.48v0c0-1.84,1.68-3.25,4-3.25a6.21,6.21,0,0,1,4.24,1.5l-.59.72a5.31,5.31,0,0,0-3.68-1.39c-1.82,0-3,1-3,2.33v0c0,1.31.67,2.1,3.6,2.7s4.06,1.61,4.06,3.41v0c0,2-1.71,3.37-4.1,3.37a7,7,0,0,1-5-2" transform="translate(-0.38 0.17)"/><path class="cls-9" d="M154.2,62.67v0a6.2,6.2,0,0,1,6.17-6.38,6.52,6.52,0,0,1,4.8,2l-.65.67a5.67,5.67,0,0,0-4.16-1.82,5.28,5.28,0,0,0-5.21,5.53v0a5.33,5.33,0,0,0,5.22,5.56,5.69,5.69,0,0,0,4.26-1.92l.61.6a6.52,6.52,0,0,1-4.9,2.15,6.14,6.14,0,0,1-6.14-6.35" transform="translate(-0.38 0.17)"/><polygon class="cls-9" points="167.38 56.63 168.3 56.63 168.3 62.35 176.21 62.35 176.21 56.63 177.12 56.63 177.12 68.98 176.21 68.98 176.21 63.19 168.3 63.19 168.3 68.98 167.38 68.98 167.38 56.63"/><path class="cls-9" d="M180.63,62.67v0a6.21,6.21,0,1,1,12.42,0v0A6.22,6.22,0,0,1,186.83,69a6.16,6.16,0,0,1-6.2-6.35m11.47,0v0a5.34,5.34,0,0,0-5.27-5.56,5.29,5.29,0,0,0-5.25,5.53v0a5.35,5.35,0,0,0,5.28,5.56,5.29,5.29,0,0,0,5.24-5.52" transform="translate(-0.38 0.17)"/><path class="cls-9" d="M195.28,62.67v0a6.21,6.21,0,1,1,12.42,0v0A6.22,6.22,0,0,1,201.47,69a6.15,6.15,0,0,1-6.19-6.35m11.46,0v0a5.34,5.34,0,0,0-5.27-5.56,5.29,5.29,0,0,0-5.24,5.53v0a5.35,5.35,0,0,0,5.28,5.56,5.28,5.28,0,0,0,5.23-5.52" transform="translate(-0.38 0.17)"/><polygon class="cls-9" points="210.44 56.63 211.36 56.63 211.36 68.13 218.61 68.13 218.61 68.98 210.44 68.98 210.44 56.63"/><path class="cls-9" d="M147.34,37.39h2.5l5.29,12.44h-2.84l-1.13-2.77h-5.22l-1.13,2.77H142Zm2.85,7.27-1.64-4-1.64,4Z" transform="translate(-0.38 0.17)"/><path class="cls-9" d="M155.44,43.69v0a6.27,6.27,0,0,1,6.43-6.39,6.36,6.36,0,0,1,4.87,1.91l-1.73,2a4.52,4.52,0,0,0-3.15-1.39,3.66,3.66,0,0,0-3.58,3.84v0a3.67,3.67,0,0,0,3.58,3.88,4.46,4.46,0,0,0,3.24-1.45l1.73,1.75a6.3,6.3,0,0,1-5.06,2.2,6.22,6.22,0,0,1-6.33-6.35" transform="translate(-0.38 0.17)"/><path class="cls-9" d="M168.81,43.69v0a6.28,6.28,0,0,1,6.44-6.39,6.38,6.38,0,0,1,4.87,1.91l-1.73,2a4.52,4.52,0,0,0-3.16-1.39,3.66,3.66,0,0,0-3.58,3.84v0a3.67,3.67,0,0,0,3.58,3.88,4.48,4.48,0,0,0,3.25-1.45l1.73,1.75a6.31,6.31,0,0,1-5.07,2.2,6.23,6.23,0,0,1-6.33-6.35" transform="translate(-0.38 0.17)"/><path class="cls-9" d="M183.09,37.48h5.64a4.89,4.89,0,0,1,3.6,1.26,3.84,3.84,0,0,1,1.06,2.82v0a3.83,3.83,0,0,1-2.65,3.83l3,4.41h-3.18l-2.64-3.95H185.8v3.95h-2.71Zm5.47,6c1.32,0,2.08-.7,2.08-1.75v0c0-1.16-.81-1.76-2.14-1.76h-2.7v3.54Z" transform="translate(-0.38 0.17)"/><polygon class="cls-9" points="196.17 37.66 205.48 37.66 205.48 40.07 198.87 40.07 198.87 42.58 204.69 42.58 204.69 44.99 198.87 44.99 198.87 47.59 205.57 47.59 205.57 50 196.17 50 196.17 37.66"/><path class="cls-9" d="M209.08,37.48h4.81c3.88,0,6.57,2.67,6.57,6.14v0c0,3.47-2.69,6.17-6.57,6.17h-4.81Zm4.81,9.9a3.52,3.52,0,0,0,3.73-3.69v0a3.55,3.55,0,0,0-3.73-3.72H211.8v7.44Z" transform="translate(-0.38 0.17)"/><rect class="cls-9" x="222.79" y="37.66" width="2.71" height="12.35"/><polygon class="cls-9" points="231.38 40.16 227.63 40.16 227.63 37.66 237.86 37.66 237.86 40.16 234.1 40.16 234.1 50 231.38 50 231.38 40.16"/><polygon class="cls-9" points="239.94 37.66 249.26 37.66 249.26 40.07 242.64 40.07 242.64 42.58 248.46 42.58 248.46 44.99 242.64 44.99 242.64 47.59 249.35 47.59 249.35 50 239.94 50 239.94 37.66"/><path class="cls-9" d="M252.86,37.48h4.81c3.88,0,6.57,2.67,6.57,6.14v0c0,3.47-2.69,6.17-6.57,6.17h-4.81Zm4.81,9.9a3.52,3.52,0,0,0,3.73-3.69v0a3.55,3.55,0,0,0-3.73-3.72h-2.1v7.44Z" transform="translate(-0.38 0.17)"/><polygon class="cls-9" points="142.12 19.01 143.14 19.01 147.02 30 150.64 18.97 151.34 18.97 154.96 30 158.84 19.01 159.79 19.01 155.31 31.44 154.57 31.44 150.95 20.72 147.34 31.44 146.6 31.44 142.12 19.01"/><polygon class="cls-9" points="161.81 19.01 170.59 19.01 170.59 19.85 162.73 19.85 162.73 24.7 169.8 24.7 169.8 25.55 162.73 25.55 162.73 30.51 170.68 30.51 170.68 31.35 161.81 31.35 161.81 19.01"/><path class="cls-9" d="M183.29,18.74h.89l5.75,12.44h-1l-1.57-3.46h-7.28l-1.57,3.46h-1ZM187,26.89l-3.24-7.14-3.26,7.14Z" transform="translate(-0.38 0.17)"/><path class="cls-9" d="M191.84,18.83H197a4.88,4.88,0,0,1,3.48,1.22,3.25,3.25,0,0,1,.93,2.29v0c0,2.06-1.53,3.24-3.61,3.53l4.07,5.27h-1.16l-3.93-5.12h-4v5.12h-.92Zm5.08,6.41c2.06,0,3.6-1,3.6-2.83v0c0-1.66-1.31-2.7-3.55-2.7h-4.21v5.56Z" transform="translate(-0.38 0.17)"/><polygon class="cls-9" points="203.86 19.01 212.64 19.01 212.64 19.85 204.78 19.85 204.78 24.7 211.85 24.7 211.85 25.55 204.78 25.55 204.78 30.51 212.73 30.51 212.73 31.35 203.86 31.35 203.86 19.01"/><path class="cls-9" d="M225.35,18.74h.88L232,31.18h-1l-1.57-3.46h-7.28l-1.57,3.46h-1ZM229,26.89l-3.24-7.14-3.26,7.14Z" transform="translate(-0.38 0.17)"/><polygon class="cls-9" points="233.86 19.01 234.72 19.01 243.24 29.75 243.24 19.01 244.12 19.01 244.12 31.35 243.44 31.35 234.74 20.38 234.74 31.35 233.86 31.35 233.86 19.01"/><path class="cls-10" d="M129.25,47.33c-2.06-3.86-5.81-5.87-9.81-7.24-1.92-.68-3.93-1.37-5.8-1.88h0l-.18,0-.12,0-.14,0-.1,0a5.8,5.8,0,0,0-1-.08,5.62,5.62,0,0,0-1.33,11.1s1.93.4,3.68.91c2.51.73,4.87,2,4.87,5.1v.15c0,3-2.83,4.9-7.5,4.9a22,22,0,0,1-13.31-4.66,5.41,5.41,0,0,0-3.26-1A5.3,5.3,0,0,0,92.09,64a33.42,33.42,0,0,0,19.53,6.26c11.21,0,19.09-5.8,19.09-16.13V54a14.54,14.54,0,0,0-1.46-6.68" transform="translate(-0.38 0.17)"/><g class="cls-6"><g class="cls-11"><path class="cls-12" d="M69.9,43.34a5.67,5.67,0,0,1,11.34,0V64.5a5.67,5.67,0,0,1-11.34,0Z" transform="translate(-0.38 0.17)"/></g></g><g class="cls-6"><g class="cls-13"><path class="cls-14" d="M69.9,22.4a5.67,5.67,0,0,1,11.33,0V43.55a5.67,5.67,0,0,1-11.33,0Z" transform="translate(-0.38 0.17)"/></g></g></g><g class="cls-15"><g class="cls-6"><g class="cls-16"><path class="cls-17" d="M85.81,28.85,103.5,11.64c-.76,0-1.52.1-2.26.17L85.4,27.22a4.4,4.4,0,0,1,.41,1.63" transform="translate(-0.38 0.17)"/><path class="cls-17" d="M85.6,33.05l22.16-21.56c-.84,0-1.67,0-2.5,0l-19.49,19c0,.81-.11,1.66-.17,2.54" transform="translate(-0.38 0.17)"/><path class="cls-17" d="M85.45,36.85l26-25.28c-.67,0-1.35-.06-2-.07L85.5,34.77c0,.69,0,1.39,0,2.08" transform="translate(-0.38 0.17)"/><path class="cls-17" d="M85.72,40.43l29.33-28.56c-.63-.08-1.26-.13-1.89-.19L85.51,38.6a18.29,18.29,0,0,0,.21,1.83" transform="translate(-0.38 0.17)"/><path class="cls-17" d="M86.61,43.38l31.81-31c-.58-.12-1.17-.23-1.76-.32L86.05,41.88a10.75,10.75,0,0,0,.56,1.5" transform="translate(-0.38 0.17)"/><path class="cls-17" d="M88.11,45.75l33.46-32.57c-.54-.16-1.09-.3-1.64-.43L87.25,44.56a11.25,11.25,0,0,0,.86,1.19" transform="translate(-0.38 0.17)"/><path class="cls-17" d="M90.06,47.67,124.45,14.2c-.49-.2-1-.39-1.5-.57L89,46.7a12.4,12.4,0,0,0,1.09,1" transform="translate(-0.38 0.17)"/><path class="cls-17" d="M92.4,49.22l34.7-33.77c-.45-.25-.9-.5-1.36-.71L91.12,48.44c.41.27.84.54,1.28.78" transform="translate(-0.38 0.17)"/><path class="cls-17" d="M95.08,50.45l34.43-33.52c-.41-.29-.83-.55-1.26-.81L93.63,49.83c.47.22,1,.43,1.45.62" transform="translate(-0.38 0.17)"/><path class="cls-17" d="M98,51.42l33.66-32.76c-.1-.09-.18-.18-.28-.26-.27-.25-.57-.45-.85-.68L96.42,50.92c.52.18,1,.34,1.58.5" transform="translate(-0.38 0.17)"/><path class="cls-17" d="M99.73,51.88l1.4.33,32.41-31.55c-.31-.37-.63-.74-1-1.1L99.45,51.81l.28.07" transform="translate(-0.38 0.17)"/><path class="cls-17" d="M104.36,52.89,135.12,23c-.25-.43-.52-.84-.81-1.25L102.63,52.54l1.73.35" transform="translate(-0.38 0.17)"/><path class="cls-17" d="M134.67,26.17a5.59,5.59,0,0,1,1.17-1.82,2.14,2.14,0,0,0-.1-.22l-29.84,29,1.78.31,26.1-25.41a19.29,19.29,0,0,0,.89-1.9" transform="translate(-0.38 0.17)"/><path class="cls-17" d="M129.53,35.12c.61-1.12,1.31-2.21,2-3.31L109.06,53.69c.75.12,1.5.22,2.25.33l17.31-16.86a18.23,18.23,0,0,1,.91-2" transform="translate(-0.38 0.17)"/><path class="cls-17" d="M127.52,41.82a22.62,22.62,0,0,1,.44-2.46L112.72,54.2l1.85.23Z" transform="translate(-0.38 0.17)"/><path class="cls-17" d="M119.49,53.46,127.2,46s0-.05,0-.07c0-.71.07-1.4.12-2.09L116.21,54.62l.76.09a22.71,22.71,0,0,0,2.52-1.25" transform="translate(-0.38 0.17)"/></g></g></g><g class="cls-18"><path class="cls-19" d="M15.12,38.4a.89.89,0,1,0,0-1.78.89.89,0,1,0,0,1.78" transform="translate(-0.38 0.17)"/><path class="cls-19" d="M17.54,38.4a.89.89,0,1,0-.92-.89.91.91,0,0,0,.92.89" transform="translate(-0.38 0.17)"/><path class="cls-19" d="M20,38.4a.89.89,0,1,0-.91-.89.91.91,0,0,0,.91.89" transform="translate(-0.38 0.17)"/><path class="cls-19" d="M22.41,38.4a.89.89,0,1,0-.91-.89.9.9,0,0,0,.91.89" transform="translate(-0.38 0.17)"/><path class="cls-19" d="M24.84,38.4a.89.89,0,1,0-.92-.89.91.91,0,0,0,.92.89" transform="translate(-0.38 0.17)"/><path class="cls-19" d="M27.27,38.4a.89.89,0,1,0-.92-.89.91.91,0,0,0,.92.89" transform="translate(-0.38 0.17)"/><path class="cls-19" d="M29.7,38.4a.89.89,0,1,0-.91-.89.91.91,0,0,0,.91.89" transform="translate(-0.38 0.17)"/><path class="cls-19" d="M32.13,38.4a.89.89,0,1,0-.91-.89.91.91,0,0,0,.91.89" transform="translate(-0.38 0.17)"/><path class="cls-19" d="M34.57,38.4a.89.89,0,1,0-.92-.89.9.9,0,0,0,.92.89" transform="translate(-0.38 0.17)"/><path class="cls-19" d="M16.33,40.75a.89.89,0,1,0-.92-.89.9.9,0,0,0,.92.89" transform="translate(-0.38 0.17)"/><path class="cls-19" d="M18.75,40.75a.89.89,0,1,0-.91-.89.9.9,0,0,0,.91.89" transform="translate(-0.38 0.17)"/><path class="cls-19" d="M21.19,40.75a.89.89,0,1,0,0-1.77.89.89,0,1,0,0,1.77" transform="translate(-0.38 0.17)"/><path class="cls-19" d="M23.62,40.75a.89.89,0,1,0-.91-.89.9.9,0,0,0,.91.89" transform="translate(-0.38 0.17)"/><path class="cls-19" d="M26.06,40.75a.89.89,0,1,0-.92-.89.9.9,0,0,0,.92.89" transform="translate(-0.38 0.17)"/><path class="cls-19" d="M28.48,40.75a.89.89,0,1,0-.91-.89.9.9,0,0,0,.91.89" transform="translate(-0.38 0.17)"/><path class="cls-19" d="M30.92,40.75a.89.89,0,1,0-.92-.89.9.9,0,0,0,.92.89" transform="translate(-0.38 0.17)"/><path class="cls-19" d="M33.35,40.75a.89.89,0,1,0-.91-.89.9.9,0,0,0,.91.89" transform="translate(-0.38 0.17)"/><path class="cls-19" d="M35.78,40.75a.89.89,0,1,0-.91-.89.91.91,0,0,0,.91.89" transform="translate(-0.38 0.17)"/><path class="cls-19" d="M15.12,41.34a.91.91,0,0,0-.92.89.89.89,0,0,0,.92.88.9.9,0,0,0,.91-.88.92.92,0,0,0-.91-.89" transform="translate(-0.38 0.17)"/><path class="cls-19" d="M17.54,41.34a.92.92,0,0,0-.92.89.92.92,0,1,0,.92-.89" transform="translate(-0.38 0.17)"/><path class="cls-19" d="M20,41.34a.91.91,0,0,0-.91.89.92.92,0,0,0,1.83,0,.91.91,0,0,0-.92-.89" transform="translate(-0.38 0.17)"/><path class="cls-19" d="M22.41,41.34a.9.9,0,0,0-.91.89.91.91,0,0,0,1.82,0,.91.91,0,0,0-.91-.89" transform="translate(-0.38 0.17)"/><path class="cls-19" d="M24.84,41.34a.92.92,0,0,0-.92.89.92.92,0,0,0,1.84,0,.92.92,0,0,0-.92-.89" transform="translate(-0.38 0.17)"/><path class="cls-19" d="M27.27,41.34a.92.92,0,0,0-.92.89.92.92,0,1,0,.92-.89" transform="translate(-0.38 0.17)"/><path class="cls-19" d="M29.7,41.34a.91.91,0,0,0-.91.89.92.92,0,0,0,1.83,0,.92.92,0,0,0-.92-.89" transform="translate(-0.38 0.17)"/><path class="cls-19" d="M32.13,41.34a.91.91,0,0,0-.91.89.92.92,0,0,0,1.83,0,.91.91,0,0,0-.92-.89" transform="translate(-0.38 0.17)"/><path class="cls-19" d="M34.57,41.34a.91.91,0,0,0-.92.89.92.92,0,0,0,1.83,0,.91.91,0,0,0-.91-.89" transform="translate(-0.38 0.17)"/><path class="cls-19" d="M15.41,44.59a.92.92,0,1,0,.92-.89.91.91,0,0,0-.92.89" transform="translate(-0.38 0.17)"/><path class="cls-19" d="M17.84,44.59a.92.92,0,1,0,.91-.89.9.9,0,0,0-.91.89" transform="translate(-0.38 0.17)"/><path class="cls-19" d="M20.28,44.59a.91.91,0,1,0,.91-.89.9.9,0,0,0-.91.89" transform="translate(-0.38 0.17)"/><path class="cls-19" d="M22.71,44.59a.92.92,0,1,0,.91-.89.9.9,0,0,0-.91.89" transform="translate(-0.38 0.17)"/><path class="cls-19" d="M25.14,44.59a.92.92,0,1,0,.92-.89.91.91,0,0,0-.92.89" transform="translate(-0.38 0.17)"/><path class="cls-19" d="M27.57,44.59a.92.92,0,1,0,.91-.89.9.9,0,0,0-.91.89" transform="translate(-0.38 0.17)"/><path class="cls-19" d="M30,44.59a.92.92,0,1,0,.92-.89.91.91,0,0,0-.92.89" transform="translate(-0.38 0.17)"/><path class="cls-19" d="M32.44,44.59a.91.91,0,1,0,.91-.89.9.9,0,0,0-.91.89" transform="translate(-0.38 0.17)"/><path class="cls-19" d="M34.87,44.59a.92.92,0,1,0,.91-.89.9.9,0,0,0-.91.89" transform="translate(-0.38 0.17)"/><path class="cls-19" d="M15.12,46.07a.89.89,0,1,0,0,1.77.89.89,0,1,0,0-1.77" transform="translate(-0.38 0.17)"/><path class="cls-19" d="M17.54,46.07a.89.89,0,1,0,.92.89.91.91,0,0,0-.92-.89" transform="translate(-0.38 0.17)"/><path class="cls-19" d="M20,46.07a.89.89,0,1,0,.92.89.9.9,0,0,0-.92-.89" transform="translate(-0.38 0.17)"/><path class="cls-19" d="M22.41,46.07a.89.89,0,1,0,0,1.77.89.89,0,1,0,0-1.77" transform="translate(-0.38 0.17)"/><path class="cls-19" d="M24.84,46.07a.89.89,0,1,0,.92.89.91.91,0,0,0-.92-.89" transform="translate(-0.38 0.17)"/><path class="cls-19" d="M27.27,46.07a.89.89,0,1,0,.92.89.91.91,0,0,0-.92-.89" transform="translate(-0.38 0.17)"/><path class="cls-19" d="M29.7,46.07a.89.89,0,1,0,0,1.77.89.89,0,1,0,0-1.77" transform="translate(-0.38 0.17)"/><path class="cls-19" d="M32.13,46.07a.89.89,0,1,0,.92.89.9.9,0,0,0-.92-.89" transform="translate(-0.38 0.17)"/><path class="cls-19" d="M34.57,46.07a.89.89,0,1,0,.91.89.9.9,0,0,0-.91-.89" transform="translate(-0.38 0.17)"/><path class="cls-19" d="M37,46.07a.89.89,0,1,0,.91.89.9.9,0,0,0-.91-.89" transform="translate(-0.38 0.17)"/><path class="cls-19" d="M15.41,49.32a.92.92,0,1,0,.92-.89.91.91,0,0,0-.92.89" transform="translate(-0.38 0.17)"/><path class="cls-19" d="M17.84,49.32a.92.92,0,1,0,.91-.89.91.91,0,0,0-.91.89" transform="translate(-0.38 0.17)"/><path class="cls-19" d="M20.28,49.32a.91.91,0,0,0,1.82,0,.91.91,0,0,0-1.82,0" transform="translate(-0.38 0.17)"/><path class="cls-19" d="M22.71,49.32a.92.92,0,1,0,.91-.89.9.9,0,0,0-.91.89" transform="translate(-0.38 0.17)"/><path class="cls-19" d="M25.14,49.32a.92.92,0,1,0,.92-.89.91.91,0,0,0-.92.89" transform="translate(-0.38 0.17)"/><path class="cls-19" d="M27.57,49.32a.92.92,0,1,0,.91-.89.91.91,0,0,0-.91.89" transform="translate(-0.38 0.17)"/><path class="cls-19" d="M30,49.32a.92.92,0,1,0,.92-.89.91.91,0,0,0-.92.89" transform="translate(-0.38 0.17)"/><path class="cls-19" d="M32.44,49.32a.91.91,0,1,0,.91-.89.9.9,0,0,0-.91.89" transform="translate(-0.38 0.17)"/><path class="cls-19" d="M34.87,49.32a.92.92,0,1,0,.91-.89.91.91,0,0,0-.91.89" transform="translate(-0.38 0.17)"/><path class="cls-19" d="M37.3,49.32a.92.92,0,1,0,.91-.89.91.91,0,0,0-.91.89" transform="translate(-0.38 0.17)"/><path class="cls-19" d="M15.12,50.78a.91.91,0,0,0-.92.89.89.89,0,0,0,.92.89.9.9,0,0,0,.91-.89.92.92,0,0,0-.91-.89" transform="translate(-0.38 0.17)"/><path class="cls-19" d="M17.54,50.78a.92.92,0,0,0-.92.89.92.92,0,1,0,.92-.89" transform="translate(-0.38 0.17)"/><path class="cls-19" d="M20,50.78a.91.91,0,0,0-.91.89.92.92,0,0,0,1.83,0,.91.91,0,0,0-.92-.89" transform="translate(-0.38 0.17)"/><path class="cls-19" d="M22.41,50.78a.9.9,0,0,0-.91.89.91.91,0,0,0,1.82,0,.91.91,0,0,0-.91-.89" transform="translate(-0.38 0.17)"/><path class="cls-19" d="M24.84,50.78a.92.92,0,0,0-.92.89.92.92,0,0,0,1.84,0,.92.92,0,0,0-.92-.89" transform="translate(-0.38 0.17)"/><path class="cls-19" d="M27.27,50.78a.92.92,0,0,0-.92.89.92.92,0,1,0,.92-.89" transform="translate(-0.38 0.17)"/><path class="cls-19" d="M29.7,50.78a.91.91,0,0,0-.91.89.92.92,0,0,0,1.83,0,.92.92,0,0,0-.92-.89" transform="translate(-0.38 0.17)"/><path class="cls-19" d="M32.13,50.78a.91.91,0,0,0-.91.89.92.92,0,0,0,1.83,0,.91.91,0,0,0-.92-.89" transform="translate(-0.38 0.17)"/><path class="cls-19" d="M34.57,50.78a.91.91,0,0,0-.92.89.92.92,0,0,0,1.83,0,.91.91,0,0,0-.91-.89" transform="translate(-0.38 0.17)"/><path class="cls-19" d="M37,50.78a.91.91,0,0,0-.92.89.92.92,0,0,0,1.83,0,.91.91,0,0,0-.91-.89" transform="translate(-0.38 0.17)"/><path class="cls-19" d="M39.43,50.78a.9.9,0,0,0-.91.89.89.89,0,0,0,.91.89.91.91,0,0,0,.92-.89.92.92,0,0,0-.92-.89" transform="translate(-0.38 0.17)"/><path class="cls-19" d="M41.86,50.78a.92.92,0,0,0-.92.89.92.92,0,1,0,.92-.89" transform="translate(-0.38 0.17)"/><path class="cls-19" d="M44.29,50.78a.91.91,0,0,0-.91.89.92.92,0,0,0,1.83,0,.91.91,0,0,0-.92-.89" transform="translate(-0.38 0.17)"/><path class="cls-19" d="M46.73,50.78a.91.91,0,0,0-.92.89.92.92,0,0,0,1.83,0,.91.91,0,0,0-.91-.89" transform="translate(-0.38 0.17)"/><path class="cls-19" d="M49.16,50.78a.91.91,0,0,0-.92.89.92.92,0,0,0,1.83,0,.91.91,0,0,0-.91-.89" transform="translate(-0.38 0.17)"/><path class="cls-19" d="M51.59,50.78a.91.91,0,0,0-.92.89.92.92,0,0,0,1.84,0,.91.91,0,0,0-.92-.89" transform="translate(-0.38 0.17)"/><path class="cls-19" d="M54,50.78a.91.91,0,0,0-.91.89.91.91,0,0,0,1.82,0,.91.91,0,0,0-.91-.89" transform="translate(-0.38 0.17)"/><path class="cls-19" d="M56.45,50.78a.9.9,0,0,0-.91.89.92.92,0,0,0,1.83,0,.91.91,0,0,0-.92-.89" transform="translate(-0.38 0.17)"/><path class="cls-19" d="M58.89,50.78a.91.91,0,0,0-.92.89.92.92,0,0,0,1.83,0,.91.91,0,0,0-.91-.89" transform="translate(-0.38 0.17)"/><path class="cls-19" d="M61.32,50.78a.91.91,0,0,0-.92.89.92.92,0,0,0,1.83,0,.91.91,0,0,0-.91-.89" transform="translate(-0.38 0.17)"/><path class="cls-19" d="M63.75,50.78a.9.9,0,0,0-.91.89.91.91,0,0,0,1.82,0,.91.91,0,0,0-.91-.89" transform="translate(-0.38 0.17)"/><path class="cls-19" d="M15.41,54a.92.92,0,1,0,.92-.88.9.9,0,0,0-.92.88" transform="translate(-0.38 0.17)"/><path class="cls-19" d="M17.84,54a.92.92,0,1,0,.91-.88.9.9,0,0,0-.91.88" transform="translate(-0.38 0.17)"/><path class="cls-19" d="M20.28,54a.91.91,0,1,0,.91-.88.9.9,0,0,0-.91.88" transform="translate(-0.38 0.17)"/><path class="cls-19" d="M22.71,54a.92.92,0,0,0,1.83,0,.92.92,0,0,0-1.83,0" transform="translate(-0.38 0.17)"/><path class="cls-19" d="M25.14,54a.92.92,0,1,0,.92-.88.9.9,0,0,0-.92.88" transform="translate(-0.38 0.17)"/><path class="cls-19" d="M27.57,54a.92.92,0,1,0,.91-.88.9.9,0,0,0-.91.88" transform="translate(-0.38 0.17)"/><path class="cls-19" d="M30,54a.92.92,0,1,0,.92-.88A.9.9,0,0,0,30,54" transform="translate(-0.38 0.17)"/><path class="cls-19" d="M32.44,54a.91.91,0,0,0,1.82,0,.91.91,0,0,0-1.82,0" transform="translate(-0.38 0.17)"/><path class="cls-19" d="M34.87,54a.92.92,0,0,0,1.83,0,.92.92,0,0,0-1.83,0" transform="translate(-0.38 0.17)"/><path class="cls-19" d="M37.3,54a.92.92,0,1,0,.91-.88.9.9,0,0,0-.91.88" transform="translate(-0.38 0.17)"/><path class="cls-19" d="M39.73,54a.92.92,0,1,0,.91-.88.9.9,0,0,0-.91.88" transform="translate(-0.38 0.17)"/><path class="cls-19" d="M42.17,54a.91.91,0,1,0,.91-.88.9.9,0,0,0-.91.88" transform="translate(-0.38 0.17)"/><path class="cls-19" d="M44.6,54a.89.89,0,0,0,.91.89.89.89,0,1,0,0-1.77.89.89,0,0,0-.91.88" transform="translate(-0.38 0.17)"/><path class="cls-19" d="M47,54a.91.91,0,1,0,.91-.88A.9.9,0,0,0,47,54" transform="translate(-0.38 0.17)"/><path class="cls-19" d="M49.46,54a.92.92,0,1,0,.91-.88.9.9,0,0,0-.91.88" transform="translate(-0.38 0.17)"/><path class="cls-19" d="M51.89,54a.92.92,0,1,0,.92-.88.9.9,0,0,0-.92.88" transform="translate(-0.38 0.17)"/><path class="cls-19" d="M54.32,54a.92.92,0,1,0,.92-.88.9.9,0,0,0-.92.88" transform="translate(-0.38 0.17)"/><path class="cls-19" d="M56.75,54a.92.92,0,1,0,.92-.88.91.91,0,0,0-.92.88" transform="translate(-0.38 0.17)"/><path class="cls-19" d="M60.1,53.15A.89.89,0,1,0,61,54a.9.9,0,0,0-.92-.88" transform="translate(-0.38 0.17)"/><path class="cls-19" d="M62.53,53.15a.89.89,0,1,0,0,1.77.89.89,0,1,0,0-1.77" transform="translate(-0.38 0.17)"/><path class="cls-19" d="M65,53.15a.89.89,0,1,0,.92.88.9.9,0,0,0-.92-.88" transform="translate(-0.38 0.17)"/><path class="cls-19" d="M17.54,55.52a.88.88,0,1,0,.92.88.9.9,0,0,0-.92-.88" transform="translate(-0.38 0.17)"/><path class="cls-19" d="M20,55.52a.88.88,0,1,0,.92.88.89.89,0,0,0-.92-.88" transform="translate(-0.38 0.17)"/><path class="cls-19" d="M22.41,55.52a.88.88,0,1,0,0,1.76.88.88,0,1,0,0-1.76" transform="translate(-0.38 0.17)"/><path class="cls-19" d="M24.84,55.52a.88.88,0,1,0,.92.88.9.9,0,0,0-.92-.88" transform="translate(-0.38 0.17)"/><path class="cls-19" d="M27.27,55.52a.88.88,0,1,0,.92.88.9.9,0,0,0-.92-.88" transform="translate(-0.38 0.17)"/><path class="cls-19" d="M29.7,55.52a.88.88,0,1,0,0,1.76.88.88,0,1,0,0-1.76" transform="translate(-0.38 0.17)"/><path class="cls-19" d="M32.13,55.52a.88.88,0,1,0,.92.88.89.89,0,0,0-.92-.88" transform="translate(-0.38 0.17)"/><path class="cls-19" d="M34.57,55.52a.88.88,0,1,0,.91.88.9.9,0,0,0-.91-.88" transform="translate(-0.38 0.17)"/><path class="cls-19" d="M37,55.52a.88.88,0,1,0,.91.88.9.9,0,0,0-.91-.88" transform="translate(-0.38 0.17)"/><path class="cls-19" d="M39.43,55.52a.88.88,0,1,0,0,1.76.88.88,0,1,0,0-1.76" transform="translate(-0.38 0.17)"/><path class="cls-19" d="M41.86,55.52a.88.88,0,1,0,.92.88.9.9,0,0,0-.92-.88" transform="translate(-0.38 0.17)"/><path class="cls-19" d="M44.29,55.52a.88.88,0,1,0,.92.88.89.89,0,0,0-.92-.88" transform="translate(-0.38 0.17)"/><path class="cls-19" d="M46.73,55.52a.88.88,0,1,0,.91.88.9.9,0,0,0-.91-.88" transform="translate(-0.38 0.17)"/><path class="cls-19" d="M49.16,55.52a.88.88,0,1,0,.91.88.9.9,0,0,0-.91-.88" transform="translate(-0.38 0.17)"/><path class="cls-19" d="M51.59,55.52a.88.88,0,1,0,.92.88.9.9,0,0,0-.92-.88" transform="translate(-0.38 0.17)"/><path class="cls-19" d="M54,55.52a.88.88,0,1,0,.91.88.89.89,0,0,0-.91-.88" transform="translate(-0.38 0.17)"/><path class="cls-19" d="M56.45,55.52a.88.88,0,1,0,0,1.76.88.88,0,1,0,0-1.76" transform="translate(-0.38 0.17)"/><path class="cls-19" d="M58.89,55.52a.88.88,0,1,0,.91.88.9.9,0,0,0-.91-.88" transform="translate(-0.38 0.17)"/><path class="cls-19" d="M61.32,55.52a.88.88,0,1,0,.91.88.9.9,0,0,0-.91-.88" transform="translate(-0.38 0.17)"/><path class="cls-19" d="M63.75,55.52a.88.88,0,1,0,0,1.76.88.88,0,1,0,0-1.76" transform="translate(-0.38 0.17)"/><path class="cls-19" d="M17.84,58.77a.92.92,0,0,0,1.83,0,.92.92,0,0,0-1.83,0" transform="translate(-0.38 0.17)"/><path class="cls-19" d="M20.28,58.77a.91.91,0,0,0,1.82,0,.91.91,0,0,0-1.82,0" transform="translate(-0.38 0.17)"/><path class="cls-19" d="M22.71,58.77a.92.92,0,1,0,.91-.89.88.88,0,0,0-.91.89" transform="translate(-0.38 0.17)"/><path class="cls-19" d="M25.14,58.77a.92.92,0,0,0,1.83,0,.92.92,0,0,0-1.83,0" transform="translate(-0.38 0.17)"/><path class="cls-19" d="M27.57,58.77a.92.92,0,0,0,1.83,0,.92.92,0,0,0-1.83,0" transform="translate(-0.38 0.17)"/><path class="cls-19" d="M30,58.77a.92.92,0,0,0,1.83,0,.92.92,0,0,0-1.83,0" transform="translate(-0.38 0.17)"/><path class="cls-19" d="M32.44,58.77a.91.91,0,0,0,1.82,0,.91.91,0,0,0-1.82,0" transform="translate(-0.38 0.17)"/><path class="cls-19" d="M34.87,58.77a.92.92,0,1,0,.91-.89.89.89,0,0,0-.91.89" transform="translate(-0.38 0.17)"/><path class="cls-19" d="M37.3,58.77a.92.92,0,0,0,1.83,0,.92.92,0,0,0-1.83,0" transform="translate(-0.38 0.17)"/><path class="cls-19" d="M39.73,58.77a.92.92,0,0,0,1.83,0,.92.92,0,0,0-1.83,0" transform="translate(-0.38 0.17)"/><path class="cls-19" d="M42.17,58.77a.91.91,0,0,0,1.82,0,.91.91,0,0,0-1.82,0" transform="translate(-0.38 0.17)"/><path class="cls-19" d="M44.6,58.77a.9.9,0,0,0,.91.88.92.92,0,0,0,.92-.88.9.9,0,0,0-.92-.89.88.88,0,0,0-.91.89" transform="translate(-0.38 0.17)"/><path class="cls-19" d="M47,58.77a.91.91,0,0,0,1.82,0,.91.91,0,0,0-1.82,0" transform="translate(-0.38 0.17)"/><path class="cls-19" d="M49.46,58.77a.92.92,0,0,0,1.83,0,.92.92,0,0,0-1.83,0" transform="translate(-0.38 0.17)"/><path class="cls-19" d="M51.89,58.77a.92.92,0,0,0,1.83,0,.92.92,0,0,0-1.83,0" transform="translate(-0.38 0.17)"/><path class="cls-19" d="M54.32,58.77a.92.92,0,0,0,1.83,0,.92.92,0,0,0-1.83,0" transform="translate(-0.38 0.17)"/><path class="cls-19" d="M56.75,58.77a.92.92,0,0,0,1.84,0,.92.92,0,0,0-1.84,0" transform="translate(-0.38 0.17)"/><path class="cls-19" d="M60.1,57.88a.89.89,0,0,0-.91.89.92.92,0,0,0,1.83,0,.89.89,0,0,0-.92-.89" transform="translate(-0.38 0.17)"/><path class="cls-19" d="M62.53,57.88a.89.89,0,0,0-.91.89.91.91,0,0,0,1.82,0,.88.88,0,0,0-.91-.89" transform="translate(-0.38 0.17)"/><path class="cls-19" d="M65,57.88a.89.89,0,0,0-.91.89.92.92,0,1,0,.91-.89" transform="translate(-0.38 0.17)"/><path class="cls-19" d="M20,60.23a.9.9,0,0,0-.91.89.92.92,0,0,0,1.83,0,.91.91,0,0,0-.92-.89" transform="translate(-0.38 0.17)"/><path class="cls-19" d="M22.41,60.23a.9.9,0,0,0-.91.89.91.91,0,1,0,.91-.89" transform="translate(-0.38 0.17)"/><path class="cls-19" d="M24.84,60.23a.91.91,0,0,0-.92.89.92.92,0,0,0,1.84,0,.91.91,0,0,0-.92-.89" transform="translate(-0.38 0.17)"/><path class="cls-19" d="M27.27,60.23a.91.91,0,0,0-.92.89.92.92,0,0,0,1.84,0,.91.91,0,0,0-.92-.89" transform="translate(-0.38 0.17)"/><path class="cls-19" d="M29.7,60.23a.9.9,0,0,0-.91.89.92.92,0,1,0,.91-.89" transform="translate(-0.38 0.17)"/><path class="cls-19" d="M32.13,60.23a.9.9,0,0,0-.91.89.92.92,0,0,0,1.83,0,.91.91,0,0,0-.92-.89" transform="translate(-0.38 0.17)"/><path class="cls-19" d="M34.57,60.23a.91.91,0,0,0-.92.89.92.92,0,0,0,1.83,0,.9.9,0,0,0-.91-.89" transform="translate(-0.38 0.17)"/><path class="cls-19" d="M37,60.23a.91.91,0,0,0-.92.89.92.92,0,0,0,1.83,0,.9.9,0,0,0-.91-.89" transform="translate(-0.38 0.17)"/><path class="cls-19" d="M39.43,60.23a.9.9,0,0,0-.91.89.91.91,0,0,0,.91.9.93.93,0,0,0,.92-.9.91.91,0,0,0-.92-.89" transform="translate(-0.38 0.17)"/><path class="cls-19" d="M41.86,60.23a.91.91,0,0,0-.92.89.92.92,0,0,0,1.84,0,.91.91,0,0,0-.92-.89" transform="translate(-0.38 0.17)"/><path class="cls-19" d="M44.29,60.23a.9.9,0,0,0-.91.89.92.92,0,0,0,1.83,0,.91.91,0,0,0-.92-.89" transform="translate(-0.38 0.17)"/><path class="cls-19" d="M46.73,60.23a.91.91,0,0,0-.92.89.92.92,0,0,0,1.83,0,.9.9,0,0,0-.91-.89" transform="translate(-0.38 0.17)"/><path class="cls-19" d="M49.16,60.23a.91.91,0,0,0-.92.89.92.92,0,0,0,1.83,0,.9.9,0,0,0-.91-.89" transform="translate(-0.38 0.17)"/><path class="cls-19" d="M51.59,60.23a.91.91,0,0,0-.92.89.92.92,0,0,0,1.84,0,.91.91,0,0,0-.92-.89" transform="translate(-0.38 0.17)"/><path class="cls-19" d="M54,60.23a.9.9,0,0,0-.91.89.91.91,0,0,0,1.82,0,.9.9,0,0,0-.91-.89" transform="translate(-0.38 0.17)"/><path class="cls-19" d="M56.45,60.23a.9.9,0,0,0-.91.89.92.92,0,1,0,.91-.89" transform="translate(-0.38 0.17)"/><path class="cls-19" d="M58.89,60.23a.91.91,0,0,0-.92.89.92.92,0,0,0,1.83,0,.9.9,0,0,0-.91-.89" transform="translate(-0.38 0.17)"/><path class="cls-19" d="M61.32,60.23a.91.91,0,0,0-.92.89.92.92,0,0,0,1.83,0,.9.9,0,0,0-.91-.89" transform="translate(-0.38 0.17)"/><path class="cls-19" d="M63.75,60.23a.9.9,0,0,0-.91.89.91.91,0,1,0,.91-.89" transform="translate(-0.38 0.17)"/><path class="cls-19" d="M20.28,63.48a.91.91,0,1,0,.91-.89.91.91,0,0,0-.91.89" transform="translate(-0.38 0.17)"/><path class="cls-19" d="M22.71,63.48a.92.92,0,0,0,1.83,0,.92.92,0,0,0-1.83,0" transform="translate(-0.38 0.17)"/><path class="cls-19" d="M25.14,63.48a.92.92,0,0,0,1.83,0,.92.92,0,0,0-1.83,0" transform="translate(-0.38 0.17)"/><path class="cls-19" d="M27.57,63.48a.92.92,0,0,0,1.83,0,.92.92,0,0,0-1.83,0" transform="translate(-0.38 0.17)"/><path class="cls-19" d="M30,63.48a.92.92,0,0,0,1.83,0,.92.92,0,0,0-1.83,0" transform="translate(-0.38 0.17)"/><path class="cls-19" d="M32.44,63.48a.91.91,0,0,0,1.82,0,.91.91,0,0,0-1.82,0" transform="translate(-0.38 0.17)"/><path class="cls-19" d="M34.87,63.48a.92.92,0,0,0,1.83,0,.92.92,0,0,0-1.83,0" transform="translate(-0.38 0.17)"/><path class="cls-19" d="M37.3,63.48a.92.92,0,0,0,1.83,0,.92.92,0,0,0-1.83,0" transform="translate(-0.38 0.17)"/><path class="cls-19" d="M39.73,63.48a.92.92,0,0,0,1.83,0,.92.92,0,0,0-1.83,0" transform="translate(-0.38 0.17)"/><path class="cls-19" d="M42.17,63.48a.91.91,0,0,0,1.82,0,.91.91,0,0,0-1.82,0" transform="translate(-0.38 0.17)"/><path class="cls-19" d="M44.6,63.48a.89.89,0,0,0,.91.89.91.91,0,0,0,.92-.89.92.92,0,0,0-.92-.89.9.9,0,0,0-.91.89" transform="translate(-0.38 0.17)"/><path class="cls-19" d="M47,63.48a.91.91,0,0,0,1.82,0,.91.91,0,0,0-1.82,0" transform="translate(-0.38 0.17)"/><path class="cls-19" d="M49.46,63.48a.92.92,0,0,0,1.83,0,.92.92,0,0,0-1.83,0" transform="translate(-0.38 0.17)"/><path class="cls-19" d="M51.89,63.48a.92.92,0,0,0,1.83,0,.92.92,0,0,0-1.83,0" transform="translate(-0.38 0.17)"/><path class="cls-19" d="M54.32,63.48a.92.92,0,0,0,1.83,0,.92.92,0,0,0-1.83,0" transform="translate(-0.38 0.17)"/><path class="cls-19" d="M57.67,62.59a.92.92,0,0,0-.92.89.92.92,0,0,0,1.84,0,.92.92,0,0,0-.92-.89" transform="translate(-0.38 0.17)"/><path class="cls-19" d="M60.1,62.59a.91.91,0,0,0-.91.89.92.92,0,0,0,1.83,0,.91.91,0,0,0-.92-.89" transform="translate(-0.38 0.17)"/><path class="cls-19" d="M62.53,62.59a.91.91,0,0,0-.91.89.91.91,0,1,0,.91-.89" transform="translate(-0.38 0.17)"/><path class="cls-19" d="M65,62.59a.91.91,0,0,0-.91.89.92.92,0,0,0,1.83,0,.92.92,0,0,0-.92-.89" transform="translate(-0.38 0.17)"/><path class="cls-19" d="M24.84,65a.88.88,0,1,0,.92.87.91.91,0,0,0-.92-.87" transform="translate(-0.38 0.17)"/><path class="cls-19" d="M27.27,65a.88.88,0,1,0,0,1.76.88.88,0,1,0,0-1.76" transform="translate(-0.38 0.17)"/><path class="cls-19" d="M29.7,65a.88.88,0,1,0,.92.87A.91.91,0,0,0,29.7,65" transform="translate(-0.38 0.17)"/><path class="cls-19" d="M32.13,65a.88.88,0,1,0,.92.87.9.9,0,0,0-.92-.87" transform="translate(-0.38 0.17)"/><path class="cls-19" d="M34.57,65a.88.88,0,1,0,.91.87.9.9,0,0,0-.91-.87" transform="translate(-0.38 0.17)"/><path class="cls-19" d="M37,65a.88.88,0,1,0,.91.87A.9.9,0,0,0,37,65" transform="translate(-0.38 0.17)"/><path class="cls-19" d="M39.43,65a.88.88,0,1,0,0,1.76.88.88,0,1,0,0-1.76" transform="translate(-0.38 0.17)"/><path class="cls-19" d="M41.86,65a.88.88,0,1,0,0,1.76.88.88,0,1,0,0-1.76" transform="translate(-0.38 0.17)"/><path class="cls-19" d="M44.29,65a.88.88,0,1,0,.92.87.9.9,0,0,0-.92-.87" transform="translate(-0.38 0.17)"/><path class="cls-19" d="M46.73,65a.88.88,0,1,0,.91.87.9.9,0,0,0-.91-.87" transform="translate(-0.38 0.17)"/><path class="cls-19" d="M49.16,65a.88.88,0,1,0,.91.87.9.9,0,0,0-.91-.87" transform="translate(-0.38 0.17)"/><path class="cls-19" d="M51.59,65a.88.88,0,1,0,.92.87.9.9,0,0,0-.92-.87" transform="translate(-0.38 0.17)"/><path class="cls-19" d="M54,65a.88.88,0,1,0,.91.87A.9.9,0,0,0,54,65" transform="translate(-0.38 0.17)"/><path class="cls-19" d="M56.45,65a.88.88,0,1,0,.92.87.9.9,0,0,0-.92-.87" transform="translate(-0.38 0.17)"/><path class="cls-19" d="M58.89,65a.88.88,0,1,0,.91.87.9.9,0,0,0-.91-.87" transform="translate(-0.38 0.17)"/><path class="cls-19" d="M61.32,65a.88.88,0,1,0,.91.87.9.9,0,0,0-.91-.87" transform="translate(-0.38 0.17)"/><path class="cls-19" d="M63.75,65a.88.88,0,1,0,.91.87.89.89,0,0,0-.91-.87" transform="translate(-0.38 0.17)"/><path class="cls-19" d="M25.14,68.21a.92.92,0,1,0,.92-.89.9.9,0,0,0-.92.89" transform="translate(-0.38 0.17)"/><path class="cls-19" d="M27.57,68.21a.92.92,0,1,0,.91-.89.89.89,0,0,0-.91.89" transform="translate(-0.38 0.17)"/><path class="cls-19" d="M30,68.21a.92.92,0,1,0,.92-.89.9.9,0,0,0-.92.89" transform="translate(-0.38 0.17)"/><path class="cls-19" d="M32.44,68.21a.91.91,0,0,0,1.82,0,.91.91,0,0,0-1.82,0" transform="translate(-0.38 0.17)"/><path class="cls-19" d="M34.87,68.21a.92.92,0,0,0,1.83,0,.92.92,0,0,0-1.83,0" transform="translate(-0.38 0.17)"/><path class="cls-19" d="M37.3,68.21a.92.92,0,1,0,.91-.89.89.89,0,0,0-.91.89" transform="translate(-0.38 0.17)"/><path class="cls-19" d="M39.73,68.21a.92.92,0,1,0,.91-.89.89.89,0,0,0-.91.89" transform="translate(-0.38 0.17)"/><path class="cls-19" d="M42.17,68.21a.91.91,0,1,0,.91-.89.89.89,0,0,0-.91.89" transform="translate(-0.38 0.17)"/><path class="cls-19" d="M44.6,68.21a.89.89,0,0,0,.91.87.88.88,0,1,0,0-1.76.89.89,0,0,0-.91.89" transform="translate(-0.38 0.17)"/><path class="cls-19" d="M47,68.21a.91.91,0,1,0,.91-.89.89.89,0,0,0-.91.89" transform="translate(-0.38 0.17)"/><path class="cls-19" d="M49.46,68.21a.92.92,0,1,0,.91-.89.89.89,0,0,0-.91.89" transform="translate(-0.38 0.17)"/><path class="cls-19" d="M51.89,68.21a.92.92,0,1,0,.92-.89.9.9,0,0,0-.92.89" transform="translate(-0.38 0.17)"/><path class="cls-19" d="M54.32,68.21a.92.92,0,1,0,.92-.89.9.9,0,0,0-.92.89" transform="translate(-0.38 0.17)"/><path class="cls-19" d="M57.67,67.32a.88.88,0,1,0,.92.89.91.91,0,0,0-.92-.89" transform="translate(-0.38 0.17)"/><path class="cls-19" d="M60.1,67.32a.88.88,0,1,0,.92.89.9.9,0,0,0-.92-.89" transform="translate(-0.38 0.17)"/><path class="cls-19" d="M62.53,67.32a.88.88,0,1,0,0,1.76.88.88,0,1,0,0-1.76" transform="translate(-0.38 0.17)"/><path class="cls-19" d="M65,67.32a.88.88,0,1,0,.92.89.9.9,0,0,0-.92-.89" transform="translate(-0.38 0.17)"/><path class="cls-19" d="M32.13,69.68a.9.9,0,0,0-.91.89.92.92,0,0,0,1.83,0,.9.9,0,0,0-.92-.89" transform="translate(-0.38 0.17)"/><path class="cls-19" d="M34.57,69.68a.9.9,0,0,0-.92.89.92.92,0,0,0,1.83,0,.9.9,0,0,0-.91-.89" transform="translate(-0.38 0.17)"/><path class="cls-19" d="M37,69.68a.9.9,0,0,0-.92.89.92.92,0,0,0,1.83,0,.9.9,0,0,0-.91-.89" transform="translate(-0.38 0.17)"/><path class="cls-19" d="M39.43,69.68a.89.89,0,0,0-.91.89.9.9,0,0,0,.91.89.92.92,0,0,0,.92-.89.91.91,0,0,0-.92-.89" transform="translate(-0.38 0.17)"/><path class="cls-19" d="M41.86,69.68a.91.91,0,0,0-.92.89.92.92,0,0,0,1.84,0,.9.9,0,0,0-.92-.89" transform="translate(-0.38 0.17)"/><path class="cls-19" d="M44.29,69.68a.9.9,0,0,0-.91.89.92.92,0,0,0,1.83,0,.9.9,0,0,0-.92-.89" transform="translate(-0.38 0.17)"/><path class="cls-19" d="M46.73,69.68a.9.9,0,0,0-.92.89.92.92,0,0,0,1.83,0,.9.9,0,0,0-.91-.89" transform="translate(-0.38 0.17)"/><path class="cls-19" d="M49.16,69.68a.9.9,0,0,0-.92.89.92.92,0,0,0,1.83,0,.9.9,0,0,0-.91-.89" transform="translate(-0.38 0.17)"/><path class="cls-19" d="M51.59,69.68a.9.9,0,0,0-.92.89.92.92,0,0,0,1.84,0,.9.9,0,0,0-.92-.89" transform="translate(-0.38 0.17)"/><path class="cls-19" d="M54,69.68a.9.9,0,0,0-.91.89.91.91,0,0,0,1.82,0,.9.9,0,0,0-.91-.89" transform="translate(-0.38 0.17)"/><path class="cls-19" d="M56.45,69.68a.89.89,0,0,0-.91.89.92.92,0,1,0,.91-.89" transform="translate(-0.38 0.17)"/><path class="cls-19" d="M58.89,69.68a.9.9,0,0,0-.92.89.92.92,0,0,0,1.83,0,.9.9,0,0,0-.91-.89" transform="translate(-0.38 0.17)"/><path class="cls-19" d="M61.32,69.68a.9.9,0,0,0-.92.89.92.92,0,0,0,1.83,0,.9.9,0,0,0-.91-.89" transform="translate(-0.38 0.17)"/><path class="cls-19" d="M63.75,69.68a.89.89,0,0,0-.91.89.91.91,0,1,0,.91-.89" transform="translate(-0.38 0.17)"/><path class="cls-19" d="M32.44,72.93a.91.91,0,1,0,.91-.89.9.9,0,0,0-.91.89" transform="translate(-0.38 0.17)"/><path class="cls-19" d="M34.87,72.93a.92.92,0,1,0,.91-.89.9.9,0,0,0-.91.89" transform="translate(-0.38 0.17)"/><path class="cls-19" d="M37.3,72.93a.92.92,0,0,0,1.83,0,.92.92,0,0,0-1.83,0" transform="translate(-0.38 0.17)"/><path class="cls-19" d="M39.73,72.93a.92.92,0,0,0,1.83,0,.92.92,0,0,0-1.83,0" transform="translate(-0.38 0.17)"/><path class="cls-19" d="M42.17,72.93a.91.91,0,0,0,1.82,0,.91.91,0,0,0-1.82,0" transform="translate(-0.38 0.17)"/><path class="cls-19" d="M44.6,72.93a.91.91,0,0,0,.91.89.93.93,0,0,0,.92-.89.91.91,0,0,0-.92-.89.9.9,0,0,0-.91.89" transform="translate(-0.38 0.17)"/><path class="cls-19" d="M47,72.93a.91.91,0,0,0,1.82,0,.91.91,0,0,0-1.82,0" transform="translate(-0.38 0.17)"/><path class="cls-19" d="M49.46,72.93a.92.92,0,0,0,1.83,0,.92.92,0,0,0-1.83,0" transform="translate(-0.38 0.17)"/><path class="cls-19" d="M51.89,72.93a.92.92,0,0,0,1.83,0,.92.92,0,0,0-1.83,0" transform="translate(-0.38 0.17)"/><path class="cls-19" d="M55.24,73.82a.92.92,0,0,0,.91-.89.92.92,0,0,0-1.83,0,.92.92,0,0,0,.92.89" transform="translate(-0.38 0.17)"/><path class="cls-19" d="M57.67,72a.91.91,0,0,0-.92.89.92.92,0,0,0,1.84,0,.91.91,0,0,0-.92-.89" transform="translate(-0.38 0.17)"/><path class="cls-19" d="M60.1,72a.9.9,0,0,0-.91.89.92.92,0,0,0,1.83,0A.91.91,0,0,0,60.1,72" transform="translate(-0.38 0.17)"/><path class="cls-19" d="M62.53,72a.9.9,0,0,0-.91.89.91.91,0,0,0,1.82,0,.9.9,0,0,0-.91-.89" transform="translate(-0.38 0.17)"/><path class="cls-19" d="M65,72a.9.9,0,0,0-.91.89A.92.92,0,1,0,65,72" transform="translate(-0.38 0.17)"/></g><g class="cls-4"><g class="cls-6"><g class="cls-20"><path class="cls-21" d="M59.82,21.93c-4.12-3.05-9.16-5-16.6-5-15.65,0-25.9,11.93-25.9,26.49a5.7,5.7,0,1,0,11.4,0l0-1c0-7.94,6-15.47,14.41-15.47a16.33,16.33,0,0,1,10.14,3.55,5.73,5.73,0,0,0,3.27,1.07A5.33,5.33,0,0,0,62,26.26a5.45,5.45,0,0,0-2.13-4.33" transform="translate(-0.38 0.17)"/></g></g></g></g></g></g></svg>