<?xml version="1.0" encoding="UTF-8"?>
<svg width="142px" height="16px" viewBox="0 0 142 16" version="1.1" xmlns="http://www.w3.org/2000/svg" xmlns:xlink="http://www.w3.org/1999/xlink">
    <!-- Generator: Sketch 47.1 (45422) - http://www.bohemiancoding.com/sketch -->
    <title>Grammar School</title>
    <desc>Created with Sketch.</desc>
    <defs></defs>
    <g id="Page-1" stroke="none" stroke-width="1" fill="none" fill-rule="evenodd">
        <g id="CCGS_Video-page_concept" transform="translate(-207.000000, -68.000000)" fill="#FFFFFF">
            <g id="Group-2" transform="translate(46.000000, 0.000000)">
                <g id="Logo" transform="translate(95.000000, 21.000000)">
                    <g id="Logo-type" transform="translate(66.060086, 22.315789)">
                        <path d="M11.2653844,25.8905566 L11.2235833,29.7973819 L10.4920648,29.7973819 C10.3457604,29.7973819 10.2308087,29.7310468 10.1472061,29.5983747 C10.0636036,29.4657026 9.95910201,29.196871 9.83369822,28.7918719 C9.60379127,28.0796321 9.34950406,27.5175297 9.07082897,27.1055478 C8.79215387,26.693566 8.45600708,26.3950582 8.06237851,26.2100155 C7.66874994,26.0249728 7.18978431,25.9324528 6.62546724,25.9324528 C5.73370694,25.9324528 4.97781208,26.1977931 4.35776,26.7284816 C3.73074104,27.2521873 3.25525879,28.0220232 2.93129899,29.0380123 C2.60733919,30.0540015 2.44536173,31.2777089 2.44536173,32.7091712 C2.44536173,34.9576146 2.84595116,36.668361 3.64714206,37.8414618 C4.44833296,39.0145627 5.62571757,39.6011043 7.17933122,39.6011043 C7.83421769,39.6011043 8.35672566,39.4963648 8.74687079,39.2868825 C9.13701592,39.0774002 9.41742853,38.7457248 9.58811702,38.2918465 C9.75880552,37.8379682 9.84414849,37.2304787 9.84414849,36.4693597 C9.84414849,35.6733269 9.79363938,35.1234442 9.69261966,34.8196948 C9.59159994,34.5159455 9.37388829,34.308212 9.03947817,34.1964881 C8.79563747,34.091747 8.64236846,34.009701 8.57966657,33.9503476 C8.51696467,33.8909943 8.48561419,33.7845091 8.48561419,33.6308887 L8.48561419,33.0967115 L12.164107,33.0967115 C11.9899351,33.3969695 11.9028505,33.763558 11.9028505,34.1964881 L11.9028505,37.7995656 C11.9028505,37.9601687 11.9254925,38.0614169 11.9707772,38.1033134 C12.0160619,38.1452099 12.111855,38.190597 12.2581594,38.2394762 C12.3835632,38.2674072 12.4741313,38.3127943 12.5298663,38.375639 C12.5298663,38.7666727 12.5037409,38.9970997 12.4514893,39.0669272 C12.3992377,39.1367546 12.261644,39.2484768 12.0387039,39.4020972 C11.4952874,39.7163206 10.8020935,39.9711869 9.95910139,40.1667037 C9.11610923,40.3622205 8.29751342,40.4599775 7.5032894,40.4599775 C6.332854,40.4599775 5.28261299,40.2941398 4.35253487,39.9624595 C3.42245674,39.6307792 2.63346971,39.1402488 1.98555012,38.4908537 C1.33763052,37.8414586 0.842989652,37.0524205 0.501612662,36.1237156 C0.167202549,35.2019935 0,34.1511064 0,32.9710228 C0,32.014387 0.15152731,31.0630025 0.454586475,30.1168408 C0.75764564,29.1706791 1.19481064,28.3170515 1.76609458,27.5559325 C2.33737852,26.7878308 3.02883073,26.1785955 3.84047194,25.7282086 C4.65211315,25.2778217 5.55605193,25.0526316 6.55231539,25.0526316 C7.64611514,25.0526316 8.61797995,25.3459024 9.46793899,25.9324528 C9.73268033,26.1070214 9.95213367,26.1943044 10.1263056,26.1943044 C10.3144113,26.1943044 10.4084627,26.0930561 10.4084627,25.8905566 L11.2653844,25.8905566 Z M16.1038565,29.9440187 L16.1038565,33.180504 C16.8214449,30.925078 17.7933097,29.7973819 19.0194801,29.7973819 C19.3956915,29.7973819 19.6952627,29.919578 19.9182028,30.1639741 C20.1481097,30.4153528 20.2630615,30.6946584 20.2630615,31.0018991 C20.2630615,31.2881915 20.16901,31.5308382 19.9809044,31.7298464 C19.7927987,31.9288546 19.5280613,32.0283572 19.1866843,32.0283572 C19.0403799,32.0283572 18.8453102,31.977733 18.6014695,31.8764833 C18.3576288,31.7752335 18.169526,31.7246094 18.0371553,31.7246094 C17.6679108,31.7246094 17.246421,32.2273593 16.7726734,33.2328744 C16.2989257,34.5316646 16.0620554,35.8094874 16.0620554,37.0663812 L16.0620554,38.4594315 C16.1038567,38.8574479 16.3128599,39.1018402 16.6890713,39.1926159 L17.0548305,39.1926159 C17.2777706,39.2484778 17.3892389,39.3986046 17.3892389,39.6430006 L17.3892389,40.0305409 L13.0105784,40.0305409 L13.0105784,39.6430006 C13.0105784,39.3776563 13.1081132,39.2275296 13.3031858,39.1926159 C13.630629,39.1926159 13.8622742,39.1192982 13.9981283,38.9726606 C14.1339824,38.826023 14.2019085,38.6549483 14.2019085,38.4594315 L14.2019085,31.6198687 C14.2019085,31.3265935 14.1287574,31.1310796 13.9824529,31.0333212 C13.8361485,30.9355628 13.6097284,30.8866844 13.3031858,30.8866844 C13.1081132,30.8517707 13.0105784,30.7086266 13.0105784,30.4572478 L13.0105784,30.0278112 L16.1038565,29.9440187 Z M26.6377224,33.8089478 C26.5123186,32.4682611 26.2963486,31.5989226 25.989806,31.2009062 C25.6902303,30.8098726 25.209523,30.6143587 24.5476696,30.6143587 C24.2550608,30.6143587 24.0512827,30.6929134 23.9363292,30.8500252 C23.8213757,31.0071369 23.7081657,31.2497836 23.5966956,31.5779725 C23.4921925,31.9131442 23.3667906,32.1645192 23.2204861,32.332105 C23.0741817,32.4996908 22.8373114,32.5834825 22.5098682,32.5834825 C22.1963587,32.5834825 21.9420715,32.4927082 21.7469989,32.3111569 C21.5379926,32.1296055 21.433491,31.8852132 21.433491,31.5779725 C21.433491,31.0961632 21.740029,30.6789506 22.3531142,30.326322 C22.9661994,29.9736935 23.6977106,29.7973819 24.5476696,29.7973819 C25.3000924,29.7973819 26.0037364,29.9457629 26.6586229,30.2425295 C27.3135094,30.5392961 27.7872499,30.9250869 28.0798588,31.3999134 C28.2540307,31.6652577 28.400333,32.084216 28.5187699,32.6568009 C28.623273,33.2293859 28.6755238,33.864806 28.6755238,34.5630803 L28.6755238,37.2444403 C28.6755238,37.9496974 28.7417082,38.4664126 28.8740788,38.7946015 C29.0134164,39.1158077 29.2328697,39.2764084 29.5324455,39.2764084 C29.727518,39.2764084 29.9400046,39.1751601 30.1699115,38.9726606 L30.4102676,39.4963637 C30.4102676,39.6918805 30.1873309,39.8873944 29.7414507,40.0829112 C29.3025375,40.278428 28.9890327,40.376185 28.800927,40.376185 C28.4874175,40.376185 28.2157134,40.3307978 27.9858064,40.2400221 C27.7558995,40.1422637 27.5521214,39.9886457 27.374466,39.7791634 C27.1968106,39.5696811 27.0383165,39.2938669 26.898979,38.9517125 C26.3416288,39.5103319 25.8574381,39.8873944 25.4463923,40.0829112 C25.0353466,40.278428 24.5198054,40.376185 23.8997533,40.376185 C23.2448668,40.376185 22.6526911,40.2539888 22.1232084,40.0095928 C21.6006926,39.7651968 21.1913947,39.4213018 20.8953024,38.9778976 C20.5992101,38.5344934 20.4511662,38.0265065 20.4511662,37.4539215 C20.4511662,36.2528897 21.1931275,35.3346727 22.6770724,34.6992431 C23.666369,34.2732958 24.9865725,33.9765336 26.6377224,33.8089478 Z M26.7317748,34.5630803 C25.8330476,34.653856 25.0806361,34.8284219 24.4745178,35.0867834 C23.8683995,35.3451449 23.4051091,35.6803116 23.0846327,36.0922934 C22.7711232,36.5042753 22.6143708,36.9860773 22.6143708,37.537714 C22.6143708,38.1033162 22.7728649,38.5624247 23.0898578,38.9150532 C23.4068508,39.2676818 23.8056985,39.4439934 24.286413,39.4439934 C25.9166623,39.4439934 26.7317748,38.1172921 26.7317748,35.4638497 L26.7317748,34.5630803 Z M33.1691373,29.9440187 L33.1691373,31.1485359 C33.4547792,30.8692262 33.7752508,30.6265795 34.1305615,30.4205886 C34.4858723,30.2145977 34.862078,30.0557426 35.25919,29.9440187 C35.6632689,29.8322949 36.0568916,29.7764337 36.4400698,29.7764337 C37.6035383,29.7764337 38.4674182,30.2477618 39.0317352,31.1904322 C39.6099861,30.6737092 40.132494,30.3123576 40.5992748,30.1063667 C41.0660556,29.9003758 41.6059805,29.7973819 42.2190657,29.7973819 C44.302162,29.7973819 45.3436946,30.8133558 45.3436946,32.8453341 L45.3436946,38.4594315 C45.3645952,38.6758966 45.416846,38.8364973 45.5004485,38.9412384 C45.6397861,39.1088242 45.8592394,39.1926159 46.1588151,39.1926159 C46.3469208,39.2345124 46.4409723,39.3846391 46.4409723,39.6430006 L46.4409723,40.0305409 L42.3340186,40.0305409 L42.3340186,39.6430006 C42.3340186,39.3776563 42.4315534,39.2275296 42.626626,39.1926159 C42.8565329,39.1926159 43.0690195,39.094859 43.2640921,38.8993422 C43.3476946,38.8015837 43.3894952,38.6549483 43.3894952,38.4594315 L43.3894952,32.9291266 C43.3894952,32.2657659 43.2153259,31.7647616 42.866982,31.4260986 C42.5186382,31.0874355 42.0762481,30.9181066 41.5397985,30.9181066 C41.1287528,30.9181066 40.7281633,31.0141178 40.3380182,31.2061433 C39.9478731,31.3981687 39.6065012,31.6722373 39.3138924,32.0283572 L39.3138924,38.4594315 C39.334793,38.6758966 39.3940106,38.8364973 39.4915468,38.9412384 C39.6378513,39.1088242 39.8642714,39.1926159 40.170814,39.1926159 C40.3519528,39.2414951 40.4425208,39.3916218 40.4425208,39.6430006 L40.4425208,40.0305409 L36.3564677,40.0305409 L36.3564677,39.6430006 C36.3564677,39.3776563 36.4574859,39.2275296 36.6595254,39.1926159 C36.8963992,39.1926159 37.0984356,39.094859 37.2656407,38.8993422 C37.3422763,38.8015837 37.3805936,38.6549483 37.3805936,38.4594315 L37.3805936,32.9291266 C37.3805936,32.3216279 37.2273246,31.8171323 36.920782,31.4156245 C36.6142393,31.0141168 36.1683659,30.8133659 35.5831482,30.8133659 C35.2139037,30.8133659 34.8150559,30.9303251 34.386593,31.164247 C33.95813,31.3981689 33.5871494,31.7141333 33.2736399,32.1121497 L33.2736399,38.4594315 C33.322408,38.9482236 33.6080457,39.1926159 34.1305615,39.1926159 C34.332601,39.2414951 34.4336192,39.3916218 34.4336192,39.6430006 L34.4336192,40.0305409 L30.2535137,40.0305409 L30.2535137,39.6430006 C30.2535137,39.4474838 30.2918309,39.3235419 30.3684666,39.2711714 C30.4451022,39.2188008 30.5565706,39.1926159 30.702875,39.1926159 C30.9397488,39.0948575 31.1017263,38.9971006 31.1888123,38.8993422 C31.2758982,38.8015837 31.3194406,38.6549483 31.3194406,38.4594315 L31.3194406,31.6198687 C31.3194406,31.4034037 31.2741565,31.242803 31.1835871,31.1380619 C31.0163821,30.970476 30.8073789,30.8866844 30.5565713,30.8866844 C30.3545319,30.8517707 30.2535137,30.7086266 30.2535137,30.4572478 L30.2535137,30.0278112 L33.1691373,29.9440187 Z M49.5028995,29.9440187 L49.5028995,31.1485359 C49.7885415,30.8692262 50.1090131,30.6265795 50.4643238,30.4205886 C50.8196346,30.2145977 51.1958403,30.0557426 51.5929523,29.9440187 C51.9970312,29.8322949 52.3906539,29.7764337 52.7738321,29.7764337 C53.9373006,29.7764337 54.8011805,30.2477618 55.3654975,31.1904322 C55.9437484,30.6737092 56.4662563,30.3123576 56.9330371,30.1063667 C57.3998179,29.9003758 57.9397428,29.7973819 58.552828,29.7973819 C60.6359243,29.7973819 61.6774569,30.8133558 61.6774569,32.8453341 L61.6774569,38.4594315 C61.6983575,38.6758966 61.7506083,38.8364973 61.8342108,38.9412384 C61.9735484,39.1088242 62.1930017,39.1926159 62.4925774,39.1926159 C62.6806831,39.2345124 62.7747346,39.3846391 62.7747346,39.6430006 L62.7747346,40.0305409 L58.6677809,40.0305409 L58.6677809,39.6430006 C58.6677809,39.3776563 58.7653157,39.2275296 58.9603883,39.1926159 C59.1902952,39.1926159 59.4027818,39.094859 59.5978544,38.8993422 C59.6814569,38.8015837 59.7232575,38.6549483 59.7232575,38.4594315 L59.7232575,32.9291266 C59.7232575,32.2657659 59.5490882,31.7647616 59.2007443,31.4260986 C58.8524005,31.0874355 58.4100104,30.9181066 57.8735608,30.9181066 C57.4625151,30.9181066 57.0619256,31.0141178 56.6717805,31.2061433 C56.2816354,31.3981687 55.9402635,31.6722373 55.6476547,32.0283572 L55.6476547,38.4594315 C55.6685553,38.6758966 55.7277729,38.8364973 55.8253091,38.9412384 C55.9716136,39.1088242 56.1980337,39.1926159 56.5045763,39.1926159 C56.6857151,39.2414951 56.7762831,39.3916218 56.7762831,39.6430006 L56.7762831,40.0305409 L52.69023,40.0305409 L52.69023,39.6430006 C52.69023,39.3776563 52.7912482,39.2275296 52.9932877,39.1926159 C53.2301615,39.1926159 53.4321979,39.094859 53.599403,38.8993422 C53.6760386,38.8015837 53.7143559,38.6549483 53.7143559,38.4594315 L53.7143559,32.9291266 C53.7143559,32.3216279 53.5610868,31.8171323 53.2545442,31.4156245 C52.9480016,31.0141168 52.5021282,30.8133659 51.9169105,30.8133659 C51.547666,30.8133659 51.1488182,30.9303251 50.7203553,31.164247 C50.2918923,31.3981689 49.9209117,31.7141333 49.6074022,32.1121497 L49.6074022,38.4594315 C49.6561703,38.9482236 49.941808,39.1926159 50.4643238,39.1926159 C50.6663633,39.2414951 50.7673815,39.3916218 50.7673815,39.6430006 L50.7673815,40.0305409 L46.587276,40.0305409 L46.587276,39.6430006 C46.587276,39.4474838 46.6255932,39.3235419 46.7022289,39.2711714 C46.7788645,39.2188008 46.8903329,39.1926159 47.0366373,39.1926159 C47.2735111,39.0948575 47.4354886,38.9971006 47.5225746,38.8993422 C47.6096605,38.8015837 47.6532029,38.6549483 47.6532029,38.4594315 L47.6532029,31.6198687 C47.6532029,31.4034037 47.6079188,31.242803 47.5173494,31.1380619 C47.3501444,30.970476 47.1411412,30.8866844 46.8903336,30.8866844 C46.6882942,30.8517707 46.587276,30.7086266 46.587276,30.4572478 L46.587276,30.0278112 L49.5028995,29.9440187 Z M69.1493955,33.8089478 C69.0239917,32.4682611 68.8080217,31.5989226 68.5014791,31.2009062 C68.2019034,30.8098726 67.7211961,30.6143587 67.0593427,30.6143587 C66.7667339,30.6143587 66.5629558,30.6929134 66.4480023,30.8500252 C66.3330488,31.0071369 66.2198387,31.2497836 66.1083687,31.5779725 C66.0038655,31.9131442 65.8784636,32.1645192 65.7321592,32.332105 C65.5858548,32.4996908 65.3489845,32.5834825 65.0215413,32.5834825 C64.7080318,32.5834825 64.4537446,32.4927082 64.258672,32.3111569 C64.0496657,32.1296055 63.9451641,31.8852132 63.9451641,31.5779725 C63.9451641,31.0961632 64.2517021,30.6789506 64.8647873,30.326322 C65.4778725,29.9736935 66.2093837,29.7973819 67.0593427,29.7973819 C67.8117655,29.7973819 68.5154095,29.9457629 69.170296,30.2425295 C69.8251825,30.5392961 70.298923,30.9250869 70.5915319,31.3999134 C70.7657038,31.6652577 70.912006,32.084216 71.0304429,32.6568009 C71.1349461,33.2293859 71.1871969,33.864806 71.1871969,34.5630803 L71.1871969,37.2444403 C71.1871969,37.9496974 71.2533812,38.4664126 71.3857519,38.7946015 C71.5250895,39.1158077 71.7445428,39.2764084 72.0441185,39.2764084 C72.2391911,39.2764084 72.4516777,39.1751601 72.6815846,38.9726606 L72.9219407,39.4963637 C72.9219407,39.6918805 72.699004,39.8873944 72.2531238,40.0829112 C71.8142105,40.278428 71.5007058,40.376185 71.3126001,40.376185 C70.9990906,40.376185 70.7273864,40.3307978 70.4974795,40.2400221 C70.2675725,40.1422637 70.0637944,39.9886457 69.8861391,39.7791634 C69.7084837,39.5696811 69.5499896,39.2938669 69.4106521,38.9517125 C68.8533019,39.5103319 68.3691112,39.8873944 67.9580654,40.0829112 C67.5470196,40.278428 67.0314784,40.376185 66.4114264,40.376185 C65.7565399,40.376185 65.1643642,40.2539888 64.6348815,40.0095928 C64.1123657,39.7651968 63.7030678,39.4213018 63.4069755,38.9778976 C63.1108832,38.5344934 62.9628393,38.0265065 62.9628393,37.4539215 C62.9628393,36.2528897 63.7048006,35.3346727 65.1887455,34.6992431 C66.1780421,34.2732958 67.4982455,33.9765336 69.1493955,33.8089478 Z M69.2434478,34.5630803 C68.3447207,34.653856 67.5923092,34.8284219 66.9861909,35.0867834 C66.3800725,35.3451449 65.9167821,35.6803116 65.5963058,36.0922934 C65.2827963,36.5042753 65.1260439,36.9860773 65.1260439,37.537714 C65.1260439,38.1033162 65.284538,38.5624247 65.6015309,38.9150532 C65.9185238,39.2676818 66.3173716,39.4439934 66.7980861,39.4439934 C68.4283354,39.4439934 69.2434478,38.1172921 69.2434478,35.4638497 L69.2434478,34.5630803 Z M75.9107161,29.9440187 L75.9107161,33.180504 C76.6283045,30.925078 77.6001693,29.7973819 78.8263397,29.7973819 C79.2025511,29.7973819 79.5021223,29.919578 79.7250624,30.1639741 C79.9549694,30.4153528 80.0699211,30.6946584 80.0699211,31.0018991 C80.0699211,31.2881915 79.9758697,31.5308382 79.787764,31.7298464 C79.5996583,31.9288546 79.3349209,32.0283572 78.9935439,32.0283572 C78.8472395,32.0283572 78.6521699,31.977733 78.4083292,31.8764833 C78.1644885,31.7752335 77.9763856,31.7246094 77.8440149,31.7246094 C77.4747704,31.7246094 77.0532807,32.2273593 76.579533,33.2328744 C76.1057854,34.5316646 75.8689151,35.8094874 75.8689151,37.0663812 L75.8689151,38.4594315 C75.9107163,38.8574479 76.1197195,39.1018402 76.4959309,39.1926159 L76.8616901,39.1926159 C77.0846302,39.2484778 77.1960986,39.3986046 77.1960986,39.6430006 L77.1960986,40.0305409 L72.8174381,40.0305409 L72.8174381,39.6430006 C72.8174381,39.3776563 72.9149729,39.2275296 73.1100454,39.1926159 C73.4374887,39.1926159 73.6691339,39.1192982 73.804988,38.9726606 C73.9408421,38.826023 74.0087681,38.6549483 74.0087681,38.4594315 L74.0087681,31.6198687 C74.0087681,31.3265935 73.935617,31.1310796 73.7893126,31.0333212 C73.6430082,30.9355628 73.416588,30.8866844 73.1100454,30.8866844 C72.9149729,30.8517707 72.8174381,30.7086266 72.8174381,30.4572478 L72.8174381,30.0278112 L75.9107161,29.9440187 Z M93.8956201,25.5868088 L93.0804995,25.5868088 C92.941162,25.7893083 92.8053099,25.8905566 92.6729392,25.8905566 C92.5684361,25.8905566 92.4186505,25.8207302 92.2235779,25.6810753 C91.5408239,25.2900417 90.8302131,25.0945278 90.0917241,25.0945278 C89.3880695,25.0945278 88.721001,25.2533829 88.0904986,25.5710977 C87.4599962,25.8888125 86.9531634,26.3409383 86.5699852,26.9274888 C86.1868069,27.5140392 85.9952207,28.1913551 85.9952207,28.9594569 C85.9952207,29.6577312 86.1450063,30.2826773 86.444582,30.8343141 C86.7371909,31.378968 87.2039647,31.8625157 87.8449174,32.2849717 C88.4858701,32.7074277 89.3114327,33.0862358 90.3216299,33.4214075 C91.0461851,33.6937345 91.5652097,33.9206702 91.8787192,34.1022215 C92.1922287,34.2837729 92.4708996,34.5141999 92.7147403,34.7935097 C93.1466867,35.3032499 93.3626567,35.8758263 93.3626567,36.5112559 C93.3626567,37.0279789 93.2215795,37.5185093 92.939421,37.9828617 C92.6572624,38.4472141 92.2758316,38.8225309 91.7951171,39.1088234 C91.3144025,39.3951159 90.795378,39.53826 90.2380278,39.53826 C89.374135,39.53826 88.6861662,39.3165612 88.1741007,38.873157 C87.6620352,38.4297528 87.2353204,37.7786218 86.8939434,36.9197443 C86.7964071,36.6893138 86.705839,36.5269675 86.6222365,36.4327004 C86.538634,36.3384334 86.4236822,36.2913006 86.2773778,36.2913006 L85.7130636,36.2913006 L85.7130636,40.2086 L86.6535873,40.2086 C86.8207924,39.9153247 86.9949617,39.7686893 87.1761005,39.7686893 C87.4965768,39.7686893 88.0034096,39.8839029 88.6966139,40.1143334 C89.3898182,40.3447639 89.9105844,40.4599775 90.2589283,40.4599775 C91.1158542,40.4599775 91.9065829,40.247007 92.6311382,39.8210597 C93.3556934,39.3951123 93.9252271,38.8155533 94.3397563,38.0823653 C94.7542855,37.3491772 94.961547,36.5461738 94.961547,35.6733309 C94.961547,34.7446261 94.7420937,33.9730445 94.3031804,33.3585631 C93.8642671,32.7440817 93.3208588,32.2587883 92.6729392,31.9026684 C92.0319865,31.5465485 91.2029406,31.1659947 90.1857765,30.7609956 C89.2313143,30.3769447 88.5607624,29.991154 88.1741007,29.6036117 C87.787439,29.2160695 87.594111,28.7360131 87.594111,28.1634281 C87.594111,27.7095498 87.7160296,27.3115394 87.9598703,26.969385 C88.1897772,26.6272306 88.4963152,26.3653816 88.8794935,26.1838303 C89.2626717,26.002279 89.6667446,25.9115047 90.0917241,25.9115047 C90.9068487,25.9115047 91.5547586,26.2047755 92.0354732,26.7913259 C92.1051419,26.9030498 92.2113852,27.1753727 92.3542062,27.6083028 C92.4970272,28.0412329 92.6381043,28.3746539 92.7774419,28.6085758 C92.9167794,28.8424977 93.1048823,28.9594569 93.3417561,28.9594569 L93.8956201,28.9594569 L93.8956201,25.5868088 Z M104.21003,38.208054 L104.805695,38.7841275 C104.276213,39.3357642 103.727579,39.7302833 103.159779,39.9676965 C102.591978,40.2051098 101.921427,40.3238146 101.148103,40.3238146 C100.096105,40.3238146 99.152107,40.0951332 98.3160817,39.6377636 C97.4800564,39.1803939 96.8251798,38.5432281 96.3514321,37.7262472 C95.8776844,36.9092662 95.6408142,35.9875579 95.6408142,34.9610947 C95.6408142,33.9695451 95.8776844,33.0722761 96.3514321,32.2692606 C96.811246,31.4732279 97.4521891,30.8482817 98.2742806,30.3944034 C99.0963722,29.9405251 100.012503,29.7135894 101.0227,29.7135894 C101.69152,29.7135894 102.287179,29.802618 102.809695,29.980678 C103.332211,30.1587379 103.736284,30.4066216 104.021926,30.7243364 C104.307568,31.0420512 104.450387,31.4034028 104.450387,31.8084019 C104.450387,32.1715045 104.335435,32.4490644 104.105528,32.6410898 C103.875621,32.8331153 103.59695,32.9291266 103.269507,32.9291266 C102.962964,32.9291266 102.696485,32.8418436 102.470062,32.667275 C102.243638,32.4927064 102.130428,32.2657707 102.130428,31.9864609 C102.151329,31.8328406 102.161779,31.6966791 102.161779,31.5779725 C102.161779,31.2148698 102.046827,30.9425469 101.81692,30.7609956 C101.573079,30.5724616 101.266541,30.4781959 100.897297,30.4781959 C100.026437,30.4781959 99.3158263,30.8762063 98.765443,31.6722391 C98.2150597,32.4682718 97.9398722,33.4947196 97.9398722,34.7516134 C97.9398722,35.6314391 98.0948829,36.4239685 98.4049089,37.1292256 C98.714935,37.8344827 99.1538417,38.3826198 99.7216422,38.7736534 C100.289443,39.164687 100.935611,39.3602009 101.660166,39.3602009 C102.440456,39.3602009 103.290403,38.9761558 104.21003,38.208054 Z M107.700419,31.9445647 L107.700419,38.1137875 C107.700419,38.3651662 107.709127,38.5379865 107.726544,38.6322536 C107.743961,38.7265206 107.787504,38.8190406 107.857173,38.9098162 C108.010444,39.0983503 108.22293,39.1926159 108.494639,39.1926159 C108.682744,39.2414951 108.776796,39.3916218 108.776796,39.6430006 L108.776796,40.0305409 L104.638491,40.0305409 L104.638491,39.6430006 C104.638491,39.3776563 104.739509,39.2275296 104.941549,39.1926159 C105.164489,39.1926159 105.354334,39.1332635 105.511088,39.0145568 C105.667843,38.8958502 105.746219,38.7108103 105.746219,38.4594315 L105.746219,26.9170147 C105.746219,26.4352054 105.477998,26.1943044 104.941549,26.1943044 C104.739509,26.1524079 104.638491,25.9952986 104.638491,25.7229716 L104.638491,25.3563794 L107.700419,25.2725869 L107.700419,30.8133659 C108.278669,30.4502633 108.809886,30.19016 109.294084,30.0330483 C109.778282,29.8759366 110.302531,29.7973819 110.866848,29.7973819 C111.939748,29.7973819 112.789694,30.0574852 113.416713,30.5776995 C114.043732,31.0979139 114.357237,31.8083974 114.357237,32.7091712 L114.357237,38.4594315 C114.357237,38.6549483 114.399037,38.8015837 114.48264,38.8993422 C114.621977,39.094859 114.824014,39.1926159 115.088755,39.1926159 C115.283828,39.2275296 115.381362,39.3776563 115.381362,39.6430006 L115.381362,40.0305409 L111.31621,40.0305409 L111.31621,39.6430006 C111.31621,39.4265355 111.406778,39.2764088 111.587917,39.1926159 C111.901426,39.0599438 112.096496,38.9552042 112.173131,38.878394 C112.249767,38.8015839 112.288084,38.6619311 112.288084,38.4594315 L112.288084,32.9710228 C112.288084,32.2727485 112.082565,31.7385766 111.671519,31.3684912 C111.260473,31.0123713 110.744932,30.8343141 110.12488,30.8343141 C109.665066,30.8343141 109.217451,30.9303253 108.782021,31.1223508 C108.346591,31.3143762 107.986061,31.5884448 107.700419,31.9445647 Z M120.752798,29.7135894 C121.735128,29.7135894 122.619908,29.9370338 123.407165,30.3839294 C124.201389,30.8308249 124.824915,31.4557711 125.277762,32.2587866 C125.730609,33.061802 125.957029,33.9625624 125.957029,34.9610947 C125.957029,35.9526442 125.730609,36.8568959 125.277762,37.6738768 C124.831882,38.4978405 124.215323,39.1472259 123.428066,39.6220525 C122.647775,40.096879 121.783895,40.3342887 120.8364,40.3342887 C119.85407,40.3342887 118.95884,40.1038616 118.150682,39.6430006 C117.349491,39.1891223 116.715515,38.5659218 116.248734,37.7733804 C115.781954,36.9808391 115.548567,36.1027723 115.548567,35.1391537 C115.548567,34.0917422 115.771503,33.154323 116.217384,32.326868 C116.663264,31.4994129 117.279823,30.8552645 118.06708,30.3944034 C118.861304,29.9405251 119.756535,29.7135894 120.752798,29.7135894 Z M120.794599,30.4572478 C119.874971,30.4572478 119.159135,30.8325646 118.64707,31.5832095 C118.135004,32.3338544 117.878975,33.3899785 117.878975,34.7516134 C117.878975,35.7710939 117.995669,36.6439237 118.229059,37.370129 C118.46245,38.0963343 118.798597,38.6444715 119.23751,39.0145568 C119.68339,39.391625 120.216348,39.5801562 120.8364,39.5801562 C121.742094,39.5801562 122.438771,39.1751632 122.926453,38.365165 C123.421101,37.5621495 123.668422,36.4135055 123.668422,34.9191984 C123.668422,33.4737706 123.421101,32.368768 122.926453,31.6041576 C122.431805,30.8395473 121.721194,30.4572478 120.794599,30.4572478 Z M131.495669,29.7135894 C132.477999,29.7135894 133.362779,29.9370338 134.150036,30.3839294 C134.94426,30.8308249 135.567786,31.4557711 136.020633,32.2587866 C136.47348,33.061802 136.699901,33.9625624 136.699901,34.9610947 C136.699901,35.9526442 136.47348,36.8568959 136.020633,37.6738768 C135.574753,38.4978405 134.958194,39.1472259 134.170937,39.6220525 C133.390646,40.096879 132.526767,40.3342887 131.579271,40.3342887 C130.596942,40.3342887 129.701711,40.1038616 128.893554,39.6430006 C128.092363,39.1891223 127.458386,38.5659218 126.991606,37.7733804 C126.524825,36.9808391 126.291438,36.1027723 126.291438,35.1391537 C126.291438,34.0917422 126.514375,33.154323 126.960255,32.326868 C127.406135,31.4994129 128.022694,30.8552645 128.809951,30.3944034 C129.604175,29.9405251 130.499406,29.7135894 131.495669,29.7135894 Z M131.53747,30.4572478 C130.617842,30.4572478 129.902007,30.8325646 129.389941,31.5832095 C128.877876,32.3338544 128.621847,33.3899785 128.621847,34.7516134 C128.621847,35.7710939 128.73854,36.6439237 128.97193,37.370129 C129.205321,38.0963343 129.541468,38.6444715 129.980381,39.0145568 C130.426261,39.391625 130.959219,39.5801562 131.579271,39.5801562 C132.484965,39.5801562 133.181643,39.1751632 133.669324,38.365165 C134.163972,37.5621495 134.411293,36.4135055 134.411293,34.9191984 C134.411293,33.4737706 134.163972,32.368768 133.669324,31.6041576 C133.174676,30.8395473 132.464065,30.4572478 131.53747,30.4572478 Z M140.012634,25.2725869 L140.012634,38.4594315 C140.012634,38.6619311 140.054435,38.8120578 140.138037,38.9098162 C140.291309,39.0983503 140.500312,39.1926159 140.765053,39.1926159 C140.953159,39.2764088 141.04721,39.4265355 141.04721,39.6430006 L141.04721,40.0305409 L136.950707,40.0305409 L136.950707,39.6430006 C136.950707,39.3776563 137.051725,39.2275296 137.253765,39.1926159 C137.497605,39.1926159 137.706608,39.1053329 137.88078,38.9307643 C137.978317,38.8260232 138.037534,38.6689138 138.058435,38.4594315 L138.058435,26.9170147 C138.037534,26.6796014 137.978317,26.5085268 137.88078,26.4037856 C137.76931,26.2641308 137.560307,26.1943044 137.253765,26.1943044 C137.051725,26.1524079 136.950707,25.9952986 136.950707,25.7229716 L136.950707,25.3563794 L140.012634,25.2725869 Z" id="Grammar-School"></path>
                    </g>
                </g>
            </g>
        </g>
    </g>
</svg>