<?xml version="1.0" encoding="UTF-8"?>
<svg width="110px" height="41px" viewBox="0 0 110 41" version="1.1" xmlns="http://www.w3.org/2000/svg" xmlns:xlink="http://www.w3.org/1999/xlink">
    <!-- Generator: Sketch 48.2 (47327) - http://www.bohemiancoding.com/sketch -->
    <title>Group</title>
    <desc>Created with Sketch.</desc>
    <defs>
        <polygon id="path-1" points="0.450521212 0.565333333 5.2854303 0.565333333 5.2854303 5.40014545 0.450521212 5.40014545"></polygon>
        <polygon id="path-3" points="0.244266667 0.565333333 2.95844848 0.565333333 2.95844848 16.1377939 0.244266667 16.1377939"></polygon>
        <polygon id="path-5" points="0.0493575758 0.565333333 2.76353939 0.565333333 2.76353939 16.1377939 0.0493575758 16.1377939"></polygon>
        <polygon id="path-7" points="0 0.622642424 14.5948121 0.622642424 14.5948121 3.51912727 0 3.51912727"></polygon>
    </defs>
    <g id="Page-1" stroke="none" stroke-width="1" fill="none" fill-rule="evenodd">
        <g id="Group">
            <rect id="Rectangle" fill="#FFFFFF" x="0" y="0" width="110" height="41" rx="20.5"></rect>
            <g id="Page-1" transform="translate(7.000000, 3.000000)">
                <path d="M39.9641212,34.2754909 L39.0390303,34.2754909 L39.0390303,32.2459152 C39.0390303,31.9559758 38.9895758,31.7445818 38.8906667,31.6117333 C38.7917576,31.4779152 38.6550303,31.4110061 38.4804848,31.4110061 C38.2962424,31.4110061 38.1236364,31.4808242 37.9626667,31.6214303 C37.801697,31.7610667 37.686303,31.9453091 37.6174545,32.1702788 L37.6174545,34.2754909 L36.6923636,34.2754909 L36.6923636,32.2459152 C36.6923636,31.9559758 36.6429091,31.7445818 36.5449697,31.6117333 C36.4460606,31.4779152 36.3083636,31.4110061 36.1338182,31.4110061 C35.9544242,31.4110061 35.7827879,31.4798545 35.6198788,31.6185212 C35.456,31.7562182 35.3396364,31.9375515 35.2707879,32.1625212 L35.2707879,34.2754909 L34.3466667,34.2754909 L34.3466667,30.6594909 L35.1815758,30.6594909 L35.1815758,31.3285818 C35.3153939,31.0939152 35.497697,30.9125818 35.7294545,30.7865212 C35.9621818,30.6594909 36.2278788,30.5964606 36.5275152,30.5964606 C36.8310303,30.5964606 37.065697,30.6701576 37.2315152,30.8175515 C37.3973333,30.9649455 37.5020606,31.1462788 37.5486061,31.3625212 C37.696,31.1142788 37.8821818,30.9242182 38.1071515,30.7933091 C38.3330909,30.6614303 38.5900606,30.5964606 38.88,30.5964606 C39.1010909,30.5964606 39.2833939,30.6381576 39.4259394,30.7205818 C39.5684848,30.8039758 39.6790303,30.9116121 39.7575758,31.0454303 C39.8351515,31.1792485 39.8894545,31.3305212 39.9195152,31.5011879 C39.9486061,31.6708848 39.9641212,31.8434909 39.9641212,32.0180364 L39.9641212,34.2754909 Z" id="Fill-1" fill="#1C1C1A"></path>
                <path d="M43.3145212,32.1628121 C43.2912485,31.8922667 43.1913697,31.6740848 43.0139152,31.5111758 C42.8364606,31.347297 42.6221576,31.2658424 42.3690667,31.2658424 C42.2439758,31.2658424 42.1285818,31.2881455 42.0199758,31.3327515 C41.9123394,31.3754182 41.8173091,31.4365091 41.7339152,31.5150545 C41.6505212,31.5926303 41.5826424,31.6876606 41.5302788,31.7972364 C41.4769455,31.9077818 41.4459152,32.0299636 41.4371879,32.1628121 L43.3145212,32.1628121 Z M42.3758545,34.3436606 C42.0859152,34.3436606 41.8231273,34.2942061 41.5884606,34.1962667 C41.3547636,34.0963879 41.1540364,33.9616 40.9882182,33.7928727 C40.8224,33.6222061 40.6953697,33.4243879 40.6061576,33.1984485 C40.5159758,32.9734788 40.4704,32.735903 40.4704,32.4876606 C40.4704,32.2297212 40.5150061,31.987297 40.6022788,31.7594182 C40.6885818,31.5325091 40.8156121,31.3327515 40.9814303,31.1591758 C41.1472485,30.9865697 41.3479758,30.8498424 41.5855515,30.7489939 C41.8221576,30.6481455 42.0878545,30.5967515 42.3826424,30.5967515 C42.6774303,30.5967515 42.9402182,30.6481455 43.1729455,30.7489939 C43.4056727,30.8498424 43.6025212,30.9856 43.7664,31.155297 C43.9293091,31.3259636 44.0544,31.5237818 44.1387636,31.7487515 C44.224097,31.9746909 44.2667636,32.2093576 44.2667636,32.4537212 C44.2667636,32.5128727 44.2657939,32.5710545 44.2638545,32.6263273 C44.2609455,32.6806303 44.2551273,32.7271758 44.2464,32.7630545 L41.4507636,32.7630545 C41.4643394,32.9065697 41.4992485,33.0326303 41.5545212,33.1431758 C41.6097939,33.2537212 41.6805818,33.3487515 41.7678545,33.4263273 C41.856097,33.5048727 41.9550061,33.5640242 42.0645818,33.6057212 C42.176097,33.6474182 42.2905212,33.6677818 42.4097939,33.6677818 C42.5940364,33.6677818 42.7676121,33.6231758 42.9305212,33.5329939 C43.0944,33.4428121 43.2059152,33.3245091 43.2660364,33.1780848 L44.0602182,33.3982061 C43.9264,33.6755394 43.7130667,33.9014788 43.4211879,34.0789333 C43.1293091,34.2554182 42.7802182,34.3436606 42.3758545,34.3436606 Z" id="Fill-3" fill="#1C1C1A"></path>
                <path d="M50.3812848,34.2754909 L49.4571636,34.2754909 L49.4571636,32.2459152 C49.4571636,31.9559758 49.4077091,31.7445818 49.3088,31.6117333 C49.2098909,31.4779152 49.0721939,31.4110061 48.8976485,31.4110061 C48.7134061,31.4110061 48.5408,31.4808242 48.3798303,31.6214303 C48.2188606,31.7610667 48.1034667,31.9453091 48.0355879,32.1702788 L48.0355879,34.2754909 L47.1095273,34.2754909 L47.1095273,32.2459152 C47.1095273,31.9559758 47.0610424,31.7445818 46.9621333,31.6117333 C46.8632242,31.4779152 46.7255273,31.4110061 46.5509818,31.4110061 C46.3715879,31.4110061 46.1999515,31.4798545 46.0370424,31.6185212 C45.8741333,31.7562182 45.7577697,31.9375515 45.6889212,32.1625212 L45.6889212,34.2754909 L44.7638303,34.2754909 L44.7638303,30.6594909 L45.5987394,30.6594909 L45.5987394,31.3285818 C45.7325576,31.0939152 45.9148606,30.9125818 46.1475879,30.7865212 C46.3793455,30.6594909 46.6450424,30.5964606 46.9446788,30.5964606 C47.2481939,30.5964606 47.4828606,30.6701576 47.6486788,30.8175515 C47.814497,30.9649455 47.9201939,31.1462788 47.9657697,31.3625212 C48.1131636,31.1142788 48.2993455,30.9242182 48.5252848,30.7933091 C48.7502545,30.6614303 49.0081939,30.5964606 49.2981333,30.5964606 C49.5192242,30.5964606 49.7005576,30.6381576 49.843103,30.7205818 C49.9856485,30.8039758 50.0961939,30.9116121 50.1747394,31.0454303 C50.2523152,31.1792485 50.3066182,31.3305212 50.3366788,31.5011879 C50.3667394,31.6708848 50.3812848,31.8434909 50.3812848,32.0180364 L50.3812848,34.2754909 Z" id="Fill-5" fill="#1C1C1A"></path>
                <path d="M52.9096727,33.5577212 C53.056097,33.5577212 53.1928242,33.5296 53.3169455,33.4714182 C53.4410667,33.4142061 53.5467636,33.3356606 53.6340364,33.2396606 C53.7213091,33.1426909 53.7891879,33.0311758 53.8376727,32.9012364 C53.8861576,32.7732364 53.9104,32.6355394 53.9104,32.4871758 C53.9104,32.3397818 53.8871273,32.2001455 53.8415515,32.067297 C53.7950061,31.9334788 53.7300364,31.8161455 53.644703,31.715297 C53.5593697,31.6134788 53.4594909,31.5329939 53.344097,31.4738424 C53.2296727,31.4137212 53.1026424,31.3836606 52.9649455,31.3836606 C52.7574303,31.3836606 52.5722182,31.4515394 52.4093091,31.587297 C52.2454303,31.7220848 52.1203394,31.8898424 52.0330667,32.0866909 L52.0330667,32.9506909 C52.0650667,33.0418424 52.1125818,33.1252364 52.1746424,33.1989333 C52.236703,33.2726303 52.3065212,33.3356606 52.3850667,33.3880242 C52.4636121,33.4413576 52.5479758,33.4830545 52.640097,33.5131152 C52.7322182,33.5422061 52.8224,33.5577212 52.9096727,33.5577212 M53.164703,34.3441455 C52.8893091,34.3441455 52.6430061,34.2820848 52.4257939,34.1579636 C52.2105212,34.0338424 52.0398545,33.8631758 51.9157333,33.647903 L51.9157333,34.275297 L51.1079758,34.275297 L51.1079758,29.2367515 L52.0330667,29.2367515 L52.0330667,31.2934788 C52.1620364,31.0723879 52.3307636,30.9017212 52.5402182,30.7795394 C52.7496727,30.6583273 52.9950061,30.5962667 53.2752485,30.5962667 C53.5099152,30.5962667 53.7242182,30.6476606 53.9171879,30.7494788 C54.1101576,30.8503273 54.2769455,30.9860848 54.4175515,31.1548121 C54.5581576,31.3254788 54.6657939,31.5262061 54.7424,31.7569939 C54.8180364,31.9858424 54.8558545,32.2282667 54.8558545,32.4813576 C54.8558545,32.7431758 54.8131879,32.9865697 54.7278545,33.2134788 C54.6434909,33.4374788 54.5251879,33.6343273 54.3729455,33.8020848 C54.220703,33.9708121 54.0413091,34.1026909 53.8347636,34.1986909 C53.6272485,34.2966303 53.4042182,34.3441455 53.164703,34.3441455" id="Fill-7" fill="#1C1C1A"></path>
                <path d="M58.0304485,32.1628121 C58.0071758,31.8922667 57.907297,31.6740848 57.7298424,31.5111758 C57.5533576,31.347297 57.3380848,31.2658424 57.0849939,31.2658424 C56.9608727,31.2658424 56.8445091,31.2881455 56.7368727,31.3327515 C56.6282667,31.3754182 56.5332364,31.4365091 56.4498424,31.5150545 C56.3674182,31.5926303 56.2995394,31.6876606 56.2462061,31.7972364 C56.1938424,31.9077818 56.1628121,32.0299636 56.1531152,32.1628121 L58.0304485,32.1628121 Z M57.0917818,34.3436606 C56.8018424,34.3436606 56.5400242,34.2942061 56.3053576,34.1962667 C56.0706909,34.0963879 55.8699636,33.9616 55.7051152,33.7928727 C55.539297,33.6222061 55.411297,33.4243879 55.3220848,33.1984485 C55.231903,32.9734788 55.187297,32.735903 55.187297,32.4876606 C55.187297,32.2297212 55.2309333,31.987297 55.3182061,31.7594182 C55.4054788,31.5325091 55.5325091,31.3327515 55.6973576,31.1591758 C55.8641455,30.9865697 56.0648727,30.8498424 56.3014788,30.7489939 C56.5380848,30.6481455 56.8047515,30.5967515 57.0985697,30.5967515 C57.3933576,30.5967515 57.6571152,30.6481455 57.8888727,30.7489939 C58.1216,30.8498424 58.3194182,30.9856 58.4823273,31.155297 C58.6462061,31.3259636 58.7703273,31.5237818 58.8556606,31.7487515 C58.9400242,31.9746909 58.9826909,32.2093576 58.9826909,32.4537212 C58.9826909,32.5128727 58.9817212,32.5710545 58.9797818,32.6263273 C58.9768727,32.6806303 58.9710545,32.7271758 58.9623273,32.7630545 L56.1676606,32.7630545 C56.1812364,32.9065697 56.2151758,33.0326303 56.2704485,33.1431758 C56.3257212,33.2537212 56.3965091,33.3487515 56.4847515,33.4263273 C56.5720242,33.5048727 56.6709333,33.5640242 56.7814788,33.6057212 C56.8920242,33.6474182 57.0064485,33.6677818 57.1266909,33.6677818 C57.3099636,33.6677818 57.4845091,33.6231758 57.6474182,33.5329939 C57.8103273,33.4428121 57.9228121,33.3245091 57.9819636,33.1780848 L58.7761455,33.3982061 C58.6423273,33.6755394 58.4299636,33.9014788 58.1371152,34.0789333 C57.8452364,34.2554182 57.4971152,34.3436606 57.0917818,34.3436606 Z" id="Fill-9" fill="#1C1C1A"></path>
                <path d="M61.6331636,31.4592 C61.3519515,31.4640485 61.1017697,31.5183515 60.8806788,31.6211394 C60.6605576,31.724897 60.5015273,31.8800485 60.4045576,32.0865939 L60.4045576,34.2752 L59.4794667,34.2752 L59.4794667,30.6592 L60.3289212,30.6592 L60.3289212,31.4320485 C60.3929212,31.3079273 60.4685576,31.1964121 60.5568,31.0965333 C60.6440727,30.9976242 60.7381333,30.9122909 60.8399515,30.8376242 C60.9408,30.7639273 61.0435879,30.7086545 61.1473455,30.6698667 C61.2501333,30.6310788 61.3500121,30.6107152 61.4469818,30.6107152 L61.5604364,30.6107152 C61.5856485,30.6107152 61.6098909,30.6126545 61.6331636,30.617503 L61.6331636,31.4592 Z" id="Fill-11" fill="#1C1C1A"></path>
                <path d="M39.1667394,14.2726788 C36.7832242,18.0603152 35.2229818,22.1970424 34.4801939,26.675103 L39.1667394,26.675103 L39.1667394,14.2726788 Z" id="Fill-13" fill="#0006A3"></path>
                <path d="M46.5890909,15.1988364 C47.0341818,14.1893818 47.6751515,13.3379879 48.5081212,12.6456242 C49.3410909,11.9532606 50.2865455,11.6070788 51.3425455,11.6070788 C52.0465455,11.6070788 52.6923636,11.7593212 53.2790303,12.0647758 C53.865697,12.3702303 54.3767273,12.7813818 54.8111515,13.2972606 C55.2455758,13.8131394 55.5801212,14.4114424 55.8147879,15.0931394 C56.0494545,15.7748364 56.1667879,16.489503 56.1667879,17.2400485 C56.1667879,17.9925333 56.0436364,18.6965333 55.7973333,19.3539879 C55.5510303,20.0114424 55.2038788,20.5864727 54.7587879,21.0790788 C54.3117576,21.5716848 53.7726061,21.9663515 53.1384242,22.2582303 C52.5052121,22.5530182 51.8118788,22.6984727 51.0613333,22.6984727 C50.6152727,22.6984727 50.1575758,22.6228364 49.6882424,22.4696242 C49.2179394,22.3173818 48.7835152,22.1059879 48.3849697,21.8364121 C47.9854545,21.5658667 47.6276364,21.2429576 47.3115152,20.8676848 C46.9934545,20.4924121 46.7529697,20.0696242 46.5890909,19.6002909 L46.5890909,15.1988364 Z M45.9907879,26.6752 L45.9907879,23.1561697 C46.624,24.2606545 47.4928485,25.1285333 48.5963636,25.7627152 C49.6998788,26.396897 50.9556364,26.7130182 52.3646061,26.7130182 C53.5844848,26.7130182 54.7238788,26.4667152 55.7798788,25.9731394 C56.8358788,25.481503 57.7512727,24.8056242 58.5260606,23.9484121 C59.3008485,23.0931394 59.9049697,22.0885333 60.3403636,20.9384727 C60.7738182,19.7874424 60.9910303,18.5433212 60.9910303,17.2051394 C60.9910303,15.9144727 60.7970909,14.6829576 60.4101818,13.5086545 C60.0232727,12.3353212 59.4715152,11.3132606 58.7549091,10.4453818 C58.0392727,9.57653333 57.1878788,8.8832 56.2026667,8.36732121 C55.2164848,7.85144242 54.1246061,7.59253333 52.928,7.59253333 C51.4957576,7.59253333 50.2458182,7.90477576 49.1772121,8.52538182 C48.1086061,9.14792727 47.2455758,10.0225939 46.5890909,11.1484121 L46.5890909,5.85289697 C44.8804848,7.24829091 43.3076364,8.81241212 41.8705455,10.5462303 L41.8705455,26.6752 L45.9907879,26.6752 Z" id="Fill-15" fill="#0006A3"></path>
                <path d="M67.0436848,11.3957818 C67.5838061,11.0670545 68.252897,10.9022061 69.0509576,10.9022061 C69.9188364,10.9022061 70.7944727,11.0670545 71.6739879,11.3957818 C72.5544727,11.7245091 73.4640485,12.2403879 74.4036848,12.9453576 L76.3052606,10.0925091 C75.2948364,9.20038788 74.1864727,8.55553939 72.9772606,8.15602424 C71.7680485,7.75747879 70.4715636,7.55772121 69.0858667,7.55772121 C68.1724121,7.55772121 67.3190788,7.66729697 66.524897,7.88838788 C66.5549576,9.05493333 66.6383515,10.291297 66.7954424,11.5819636 C66.8720485,11.5150545 66.9525333,11.4520242 67.0436848,11.3957818" id="Fill-17" fill="#00AEDB"></path>
                <path d="M77.0090667,20.8673939 C77.0090667,20.0926061 76.8733091,19.430303 76.604703,18.8775758 C76.3341576,18.3267879 75.9113697,17.84 75.3363394,17.4162424 C74.7613091,16.9944242 74.0214303,16.6191515 73.1176727,16.2904242 C72.2139152,15.961697 71.1288242,15.6339394 69.8604606,15.3042424 C69.1797333,15.1403636 68.6105212,14.982303 68.1528242,14.8281212 C67.8066424,14.7127273 67.5108848,14.5944242 67.2655515,14.4722424 C67.5516121,15.878303 67.9356121,17.328 68.4369455,18.7951515 C69.8575515,19.1927273 70.8854303,19.5437576 71.5157333,19.846303 C72.1499152,20.1527273 72.4670061,20.633697 72.4670061,21.2911515 C72.4670061,21.9476364 72.1964606,22.4528485 71.6563394,22.8048485 C71.3024,23.0346667 70.8611879,23.1898182 70.3365818,23.2693333 C70.8796121,24.3272727 71.4953697,25.3852121 72.1916121,26.4344242 C73.2902788,26.1803636 74.2270061,25.7507879 75.0017939,25.145697 C76.3399758,24.102303 77.0090667,22.6758788 77.0090667,20.8673939" id="Fill-19" fill="#00AEDB"></path>
                <path d="M67.2387879,23.0359273 C66.9100606,22.9476848 66.5813333,22.8439273 66.2516364,22.716897 C65.1830303,22.3057455 64.086303,21.7016242 62.9595152,20.9035636 L61.1985455,23.8611394 C62.2545455,24.7765333 63.5229091,25.4805333 65.001697,25.9731394 C66.3854545,26.4356848 67.8012121,26.6781091 69.2470303,26.7072 C69.1646061,26.5753212 69.0812121,26.4453818 68.9997576,26.3125333 C68.3500606,25.2400485 67.7653333,24.1472 67.2387879,23.0359273" id="Fill-21" fill="#0006A3"></path>
                <path d="M62.3784727,11.1136 C62.0138667,11.8651152 61.8325333,12.7097212 61.8325333,13.6493576 C61.8325333,14.3533576 61.9498667,14.9584485 62.1845333,15.4626909 C62.4192,15.967903 62.7944727,16.4139636 63.3113212,16.8008727 C63.804897,17.1703273 64.4507152,17.503903 65.2439273,17.7986909 C64.5748364,15.4976 64.137503,13.1228121 63.9309576,10.6723879 C63.8902303,10.1991758 63.8640485,9.72499394 63.8427152,9.25178182 C63.2182303,9.7686303 62.729503,10.3892364 62.3784727,11.1136" id="Fill-23" fill="#0006A3"></path>
                <path d="M92.1426424,8.8777697 C91.8769455,8.71486061 91.5986424,8.57037576 91.3116121,8.43752727 C91.5889455,10.0724364 91.7634909,11.715103 91.8245818,13.3635879 L95.3300364,12.2930424 C94.6260364,10.8850424 93.5632485,9.74661818 92.1426424,8.8777697" id="Fill-25" fill="#0006A3"></path>
                <path d="M95.4002424,21.9062303 L91.3304242,20.6640485 C90.9968485,22.601503 90.5071515,24.5001697 89.8593939,26.3619879 C90.7350303,26.1389576 91.5379394,25.8044121 92.2671515,25.3583515 C93.721697,24.4662303 94.7670303,23.3152 95.4002424,21.9062303" id="Fill-27" fill="#0006A3"></path>
                <path d="M87.033697,26.6949818 C87.5573333,25.3946182 88.0402424,23.9720727 88.4407273,22.4389818 C87.9684848,22.5999515 87.4710303,22.6814061 86.9493333,22.6814061 C86.2909091,22.6814061 85.6693333,22.5466182 85.0826667,22.2760727 C84.496,22.006497 83.9849697,21.6244364 83.5515152,21.1318303 C83.1161212,20.6392242 82.7709091,20.0515879 82.512,19.3708606 C82.2540606,18.6901333 82.1250909,17.9395879 82.1250909,17.1172848 C82.1250909,16.2959515 82.2482424,15.5454061 82.4945455,14.8637091 C82.7408485,14.1839515 83.0812121,13.6021333 83.5166061,13.1211636 C83.9500606,12.6401939 84.4610909,12.2639515 85.0477576,11.9943758 C85.6344242,11.7248 86.2676364,11.5890424 86.9493333,11.5890424 C87.7464242,11.5890424 88.4746667,11.7713455 89.1321212,12.1349818 C89.2669091,12.2096485 89.3939394,12.291103 89.5170909,12.3783758 C89.4521212,10.8850424 89.2872727,9.33643636 89.0012121,7.73740606 C88.3660606,7.6297697 87.6950303,7.57449697 86.9842424,7.57449697 C85.4821818,7.57449697 84.1323636,7.83340606 82.9347879,8.34928485 C81.7381818,8.86613333 80.7161212,9.55849697 79.8715152,10.4273455 C79.0259394,11.2961939 78.3801212,12.3056485 77.9350303,13.4557091 C77.488,14.6057697 77.2659394,15.8266182 77.2659394,17.1172848 C77.2659394,18.3856485 77.4947879,19.6006788 77.9524848,20.7623758 C78.4101818,21.9240727 79.0618182,22.9451636 79.9064242,23.8256485 C80.7510303,24.7061333 81.7730909,25.4052848 82.9706667,25.9211636 C84.1672727,26.4370424 85.5170909,26.6959515 87.0191515,26.6959515 C87.024,26.6959515 87.0288485,26.6949818 87.033697,26.6949818" id="Fill-29" fill="#00AEDB"></path>
                <path d="M39.1667394,8.22341818 L34.4481939,8.22341818 L34.4481939,17.9572364 C35.6913455,15.0277818 37.2661333,12.3436606 39.1667394,9.90293333 L39.1667394,8.22341818 Z" id="Fill-31" fill="#00AEDB"></path>
                <path d="M46.5890909,1.01459394 L41.8705455,1.01459394 L41.8705455,6.8201697 C43.3047273,5.36077576 44.8775758,4.00610909 46.5890909,2.75713939 L46.5890909,1.01459394 Z" id="Fill-33" fill="#00AEDB"></path>
                <g id="Group-37" transform="translate(33.939394, 0.404752)">
                    <mask id="mask-2" fill="white">
                        <use xlink:href="#path-1"></use>
                    </mask>
                    <g id="Clip-36"></g>
                    <path d="M2.86797576,5.40014545 C4.20324848,5.40014545 5.2854303,4.31796364 5.2854303,2.98269091 C5.2854303,1.64741818 4.20324848,0.565236364 2.86797576,0.565236364 C1.53270303,0.565236364 0.450521212,1.64741818 0.450521212,2.98269091 C0.450521212,4.31796364 1.53270303,5.40014545 2.86797576,5.40014545" id="Fill-35" fill="#00AEDB" mask="url(#mask-2)"></path>
                </g>
                <path d="M14.5948121,3.80819394 C7.57226667,3.80819394 1.88014545,9.50128485 1.88014545,16.5228606 C1.88014545,23.5444364 7.57226667,29.2375273 14.5948121,29.2375273 C21.6163879,29.2375273 27.3094788,23.5444364 27.3094788,16.5228606 C27.3094788,9.50128485 21.6163879,3.80819394 14.5948121,3.80819394 M14.5948121,8.37643636 C19.0864485,8.37643636 22.7412364,12.0312242 22.7412364,16.5228606 C22.7412364,21.0154667 19.0864485,24.6692848 14.5948121,24.6692848 C10.1031758,24.6692848 6.44838788,21.0154667 6.44838788,16.5228606 C6.44838788,12.0312242 10.1031758,8.37643636 14.5948121,8.37643636" id="Fill-38" fill="#0006A3"></path>
                <polygon id="Fill-42" fill="#0006A3" points="19.4030545 22.1202424 16.9943273 19.5495758 16.8149333 20.3854545"></polygon>
                <polygon id="Fill-44" fill="#0006A3" points="9.34904242 21.6533333 11.7577697 19.0826667 10.9742545 18.8916364"></polygon>
                <polygon id="Fill-46" fill="#0006A3" points="9.7865697 10.9251879 12.195297 13.4958545 12.3746909 12.6599758"></polygon>
                <polygon id="Fill-48" fill="#0006A3" points="19.8405818 11.392 17.4308848 13.9626667 18.2153697 14.1546667"></polygon>
                <polygon id="Fill-50" fill="#0006A3" points="21.5607273 9.08993939 16.7413333 12.3190303 17.0749091 13.8763636"></polygon>
                <path d="M21.5607273,9.0889697 L21.5607273,9.08993939 L21.5607273,9.0889697 Z" id="Fill-52" fill="#0006A3"></path>
                <polygon id="Fill-54" fill="#0006A3" points="17.4309818 13.9630545 19.8406788 11.3923879 18.2154667 14.1540848 18.534497 14.2316606 21.5609212 9.09032727 17.075103 13.8757818"></polygon>
                <path d="M21.5607273,9.0889697 L21.5607273,9.08993939 L21.5607273,9.0889697 Z" id="Fill-56" fill="#0006A3"></path>
                <path d="M17.0749091,13.8758788 L21.5607273,9.08945455 L17.0749091,13.8758788 Z" id="Fill-58" fill="#0006A3"></path>
                <polygon id="Fill-60" fill="#0006A3" points="7.62841212 9.0889697 10.6548364 14.2322424 12.1142303 13.8763636"></polygon>
                <polygon id="Fill-62" fill="#0006A3" points="12.1956848 13.4961455 9.78695758 10.9254788 12.3750788 12.6602667 12.4478061 12.3189333 7.62841212 9.08887273 12.1142303 13.8762667"></polygon>
                <polygon id="Fill-66" fill="#0006A3" points="7.62841212 23.9563636 12.4478061 20.726303 12.1142303 19.1689697"></polygon>
                <polygon id="Fill-68" fill="#0006A3" points="12.1142303 19.1694545 11.7583515 19.0821818 9.34865455 21.6538182 10.9748364 18.8921212 10.6548364 18.8135758 7.62841212 23.9568485"></polygon>
                <path d="M12.1142303,19.1694545 L7.62841212,23.9568485 L12.1142303,19.1694545 Z" id="Fill-72" fill="#0006A3"></path>
                <polygon id="Fill-74" fill="#0006A3" points="21.5607273 23.9563636 18.534303 18.8130909 17.0749091 19.1689697"></polygon>
                <polygon id="Fill-76" fill="#0006A3" points="17.0749091 19.1694545 16.9944242 19.5495758 19.4031515 22.1202424 16.8140606 20.3854545 16.7413333 20.7258182 21.5607273 23.9568485"></polygon>
                <g id="Group-82" transform="translate(11.636364, 0.404752)">
                    <mask id="mask-4" fill="white">
                        <use xlink:href="#path-3"></use>
                    </mask>
                    <g id="Clip-81"></g>
                    <polygon id="Fill-80" fill="#0006A3" mask="url(#mask-4)" points="2.95844848 16.1377939 0.244266667 13.2422788 2.95844848 0.564460606"></polygon>
                </g>
                <g id="Group-85" transform="translate(14.545455, 0.404752)">
                    <mask id="mask-6" fill="white">
                        <use xlink:href="#path-5"></use>
                    </mask>
                    <g id="Clip-84"></g>
                    <polyline id="Fill-83" fill="#00AEDB" mask="url(#mask-6)" points="0.0493575758 16.1377939 2.76353939 13.2422788 0.0493575758 0.564460606"></polyline>
                </g>
                <g id="Group-88" transform="translate(0.000000, 15.919903)">
                    <mask id="mask-8" fill="white">
                        <use xlink:href="#path-7"></use>
                    </mask>
                    <g id="Clip-87"></g>
                    <polygon id="Fill-86" fill="#0006A3" mask="url(#mask-8)" points="14.5948121 0.622642424 11.8806303 3.51912727 -9.6969697e-05 0.622642424"></polygon>
                </g>
                <polygon id="Fill-89" fill="#00AEDB" points="9.6969697e-05 16.5425455 14.5950061 16.5425455 11.8798545 13.6470303"></polygon>
                <polygon id="Fill-91" fill="#0006A3" points="14.5948121 16.5425455 17.3089939 19.4390303 14.5948121 32.1168485"></polygon>
                <polygon id="Fill-93" fill="#00AEDB" points="14.5948121 32.1164606 14.5948121 16.5421576 11.8806303 19.4396121"></polygon>
                <polygon id="Fill-95" fill="#0006A3" points="14.5948121 16.5425455 17.3089939 13.6470303 29.1897212 16.5425455"></polygon>
                <polygon id="Fill-97" fill="#00AEDB" points="29.1895273 16.5425455 14.5946182 16.5425455 17.3097697 19.4390303"></polygon>
            </g>
        </g>
    </g>
</svg>