<?xml version="1.0" encoding="UTF-8"?>
<svg width="142px" height="10px" viewBox="0 0 142 10" version="1.1" xmlns="http://www.w3.org/2000/svg" xmlns:xlink="http://www.w3.org/1999/xlink">
    <!-- Generator: Sketch 47.1 (45422) - http://www.bohemiancoding.com/sketch -->
    <title>Perth, Western Austr</title>
    <desc>Created with Sketch.</desc>
    <defs></defs>
    <g id="Page-1" stroke="none" stroke-width="1" fill="none" fill-rule="evenodd">
        <g id="CCGS_Video-page_concept" transform="translate(-207.000000, -95.000000)" fill="#FFFFFF">
            <g id="Group-2" transform="translate(46.000000, 0.000000)">
                <g id="Logo" transform="translate(95.000000, 21.000000)">
                    <g id="Logo-type" transform="translate(66.060086, 22.315789)">
                        <path d="M1.75669301,56.3159106 L1.75669301,59.0430417 C1.75669301,59.1911554 1.77516489,59.3003877 1.81210919,59.3707417 C1.85644236,59.4447986 1.91555236,59.4929349 1.98944098,59.5151519 C2.06332959,59.537369 2.1224396,59.5558829 2.16677276,59.5706943 C2.25174467,59.5818029 2.3071603,59.6030939 2.33302131,59.6345681 C2.35888233,59.6660422 2.37181264,59.7243612 2.37181264,59.8095266 L2.37181264,59.9705995 L0,59.9705995 L0,59.7873096 C0,59.6651158 0.0554156291,59.5929114 0.16624855,59.5706943 C0.181026272,59.5669915 0.21427565,59.5577345 0.26599768,59.5429231 C0.317719709,59.5281118 0.373135338,59.505895 0.432246229,59.4762723 C0.49135712,59.4466495 0.533842436,59.4096216 0.559703451,59.3651875 C0.589258896,59.305942 0.604036397,59.2004125 0.604036397,59.0485959 L0.604036397,53.1111151 C0.604036397,52.9148643 0.583717333,52.7889695 0.543078596,52.7334268 C0.51352315,52.6963984 0.454413146,52.6658504 0.365746809,52.6417819 C0.277080473,52.6177134 0.210581718,52.6001252 0.16624855,52.5890166 C0.0554156291,52.5667996 0,52.4908924 0,52.3612929 L0,52.1891115 L3.36930394,52.1891115 C3.8458855,52.1891115 4.26334991,52.2696471 4.62170968,52.4307208 C4.98006946,52.5917946 5.2580712,52.8222932 5.45572324,53.1222235 C5.65337528,53.4221539 5.75219982,53.7739188 5.75219982,54.1775288 C5.75219982,54.6070587 5.64506294,54.9838175 5.43078596,55.3078163 C5.21650898,55.6318152 4.90987583,55.8808277 4.51087732,56.0548614 C4.1118788,56.2288951 3.6482347,56.3159106 3.11993112,56.3159106 L1.75669301,56.3159106 Z M1.75669301,55.8604631 L2.87055829,55.8604631 C3.21783478,55.8604631 3.51707917,55.7975157 3.76830046,55.671619 C4.01952175,55.5457223 4.20978207,55.3633599 4.33908715,55.1245265 C4.46839222,54.885693 4.53304379,54.601504 4.53304379,54.2719509 C4.53304379,53.9535063 4.47301019,53.670243 4.35294119,53.4221524 C4.2328722,53.1740618 4.06385453,52.9824425 3.84588312,52.8472887 C3.62791171,52.7121349 3.37854138,52.644559 3.09776464,52.644559 L1.75669301,52.644559 L1.75669301,55.8604631 Z M7.56430901,52.644559 L7.56430901,55.6605105 L8.26809454,55.6605105 C8.50823253,55.6605105 8.6920277,55.6456993 8.81948556,55.6160766 C8.94694342,55.5864538 9.04207358,55.530912 9.10487891,55.4494494 C9.16768423,55.3679869 9.21571111,55.2439434 9.24896098,55.0773154 C9.28959972,54.9773387 9.34501535,54.927351 9.41520953,54.927351 L9.71999854,54.927351 L9.72554016,56.954648 L9.43737601,56.954648 C9.37087625,56.954648 9.319155,56.9361341 9.28221069,56.8991056 C9.24896082,56.8620772 9.21386425,56.7787645 9.17691994,56.6491649 C9.08825361,56.4344 8.98758188,56.2955454 8.87490175,56.232597 C8.76222161,56.1696487 8.55995456,56.138175 8.26809454,56.138175 L7.56430901,56.138175 L7.56430901,59.4818265 L9.15475347,59.4818265 C9.4835578,59.4818265 9.74770563,59.4633126 9.94720489,59.4262841 C10.1503986,59.3892557 10.3129511,59.3263083 10.4348673,59.23744 C10.5567835,59.1485718 10.6565316,59.0226769 10.7341147,58.8597518 C10.8116977,58.6968267 10.8800437,58.4820649 10.9391546,58.2154601 C11.020432,58.0340208 11.118333,57.9433025 11.2328603,57.9433025 L11.4822332,57.9433025 L11.4822332,59.9705995 L5.86857381,59.9705995 L5.86857381,59.7873096 C5.86857381,59.6873328 5.899976,59.622534 5.96278132,59.5929113 C6.0810031,59.5632885 6.18075123,59.5299634 6.26202871,59.492935 C6.34330618,59.4559065 6.39318025,59.4170273 6.4116524,59.376296 L6.46152697,53.1111151 C6.46152697,52.9333785 6.44490228,52.8130379 6.4116524,52.7500896 C6.39687468,52.7130611 6.36454889,52.6834388 6.31467408,52.6612217 C6.26479927,52.6390047 6.14750285,52.607531 5.96278132,52.5667997 C5.899976,52.5445826 5.86857381,52.476081 5.86857381,52.3612929 L5.86857381,52.1891115 L10.2409107,52.1891115 C10.4921319,52.1891115 10.7618213,52.135421 11.0499869,52.0280386 L11.0499869,53.9164796 L10.7341147,53.9164796 C10.6750038,53.9164796 10.6315949,53.8988914 10.6038867,53.8637144 C10.5761784,53.8285373 10.5364639,53.7480017 10.4847419,53.622105 C10.3628257,53.3147689 10.252918,53.094453 10.1550156,52.9611506 C10.0571132,52.8278482 9.93519878,52.7417584 9.78926877,52.7028785 C9.64333876,52.6639987 9.41705827,52.644559 9.11042052,52.644559 L7.56430901,52.644559 Z M13.3331337,56.2048258 L13.3331337,59.0485959 C13.3331337,59.1967097 13.3516056,59.3040905 13.3885499,59.3707417 C13.4144109,59.4151759 13.450431,59.4512781 13.4966114,59.4790494 C13.5427918,59.5068207 13.5935895,59.5281118 13.6490059,59.5429231 C13.7044224,59.5577345 13.7358246,59.5669915 13.7432134,59.5706943 C13.8318798,59.5818029 13.8872954,59.6040196 13.909462,59.6373452 C13.9316286,59.6706708 13.9427117,59.7206584 13.9427117,59.7873096 L13.9427117,59.9705995 L11.5930655,59.9705995 L11.5930655,59.7873096 C11.5930655,59.6651158 11.6540227,59.5929114 11.7759389,59.5706943 C11.7833278,59.5706943 11.8415142,59.5484776 11.9504999,59.5040435 C12.0594856,59.4596093 12.1250608,59.4225814 12.1472274,59.3929587 L12.2081852,53.1111151 C12.2081852,52.9333785 12.1915605,52.8130379 12.1583106,52.7500896 C12.136144,52.7130611 12.1010475,52.6843645 12.0530199,52.6639989 C12.0049923,52.6436332 11.9551182,52.6297478 11.9033962,52.6223421 C11.8516741,52.6149364 11.8091888,52.603828 11.7759389,52.5890166 C11.6540227,52.5667996 11.5930655,52.4908924 11.5930655,52.3612929 L11.5930655,52.1891115 L14.8958701,52.1891115 C15.2911741,52.1891115 15.6421398,52.2307678 15.9487775,52.3140818 C16.2554153,52.3973958 16.5167923,52.5205136 16.7329165,52.6834387 C16.9490407,52.8463638 17.1152876,53.0472401 17.2316622,53.2860736 C17.3480367,53.524907 17.4062232,53.7961363 17.4062232,54.0997695 C17.4062232,54.4663511 17.3129402,54.7931221 17.1263714,55.0800926 C16.9398027,55.367063 16.6710369,55.5938588 16.320066,55.7604868 C15.969095,55.9271148 15.5590194,56.0215359 15.0898267,56.0437529 C15.3077981,56.0770785 15.4758922,56.1391002 15.594114,56.2298199 C15.7123357,56.3205396 15.8397917,56.4825366 15.9764856,56.7158158 L17.3729734,58.981945 C17.4875008,59.1596816 17.5872489,59.2800222 17.6722208,59.3429705 C17.7350262,59.3874047 17.8356979,59.4318381 17.974239,59.4762723 C18.1127802,59.5207064 18.19498,59.5558829 18.220841,59.5818028 C18.2540909,59.6151284 18.2707156,59.744726 18.2707156,59.9705995 L16.6137717,59.9705995 L14.6298724,56.626948 C14.5375116,56.5121598 14.4303747,56.4131102 14.3084585,56.3297962 C14.1865423,56.2464822 14.0572392,56.2048258 13.9205452,56.2048258 L13.3331337,56.2048258 Z M13.3331337,55.7049444 L14.4414574,55.7049444 C14.7998171,55.7049444 15.1101447,55.6429227 15.3724492,55.5188774 C15.6347538,55.3948321 15.8342501,55.2143212 15.970944,54.9773392 C16.1076379,54.7403571 16.1759839,54.4589452 16.1759839,54.1330949 C16.1759839,53.8368674 16.1159503,53.5767465 15.9958813,53.3527244 C15.8758123,53.1287024 15.7077182,52.9546713 15.491594,52.830626 C15.2754698,52.7065807 15.0251759,52.644559 14.7407047,52.644559 L13.3331337,52.644559 L13.3331337,55.7049444 Z M22.0722658,52.644559 L22.0722658,59.0485959 C22.0722658,59.2115211 22.0999736,59.3263075 22.1553901,59.3929587 C22.1849455,59.43369 22.229278,59.4670151 22.2883889,59.492935 C22.3474998,59.5188549 22.4019918,59.5364431 22.4518666,59.5457002 C22.5017415,59.5549574 22.541456,59.5632886 22.5710114,59.5706943 C22.6855388,59.5706943 22.7428016,59.6428987 22.7428016,59.7873096 L22.7428016,59.9705995 L20.2712398,59.9705995 L20.2712398,59.7873096 C20.2712398,59.6428987 20.3266555,59.5706943 20.4374884,59.5706943 C20.5741823,59.5373687 20.6665417,59.5095978 20.7145693,59.4873807 C20.7625969,59.4651637 20.803235,59.43369 20.8364849,59.3929587 C20.8845125,59.3226047 20.9085259,59.2078182 20.9085259,59.0485959 L20.9085259,52.644559 L20.2047404,52.644559 C19.9276581,52.644559 19.7041484,52.6723299 19.5342046,52.7278726 C19.3679552,52.7871181 19.2386521,52.8861677 19.1462913,53.0250244 C19.0539305,53.163881 18.9818902,53.3629059 18.9301682,53.622105 C18.8636684,53.8479785 18.7657675,53.9609135 18.6364624,53.9609135 L18.2928821,53.9609135 L18.2928821,52.0280386 C18.5367145,52.135421 18.8544308,52.1891115 19.2460404,52.1891115 L23.7624594,52.1891115 C24.1171247,52.1891115 24.4200635,52.135421 24.6712848,52.0280386 L24.6712848,53.9609135 L24.421912,53.9609135 C24.3184679,53.9609135 24.2473512,53.9386968 24.2085596,53.8942627 C24.1697681,53.8498285 24.124512,53.762813 24.07279,53.6332135 C23.9360961,53.311066 23.8215704,53.0851959 23.7292097,52.9555964 C23.6331545,52.822294 23.5186288,52.7371299 23.3856293,52.7001014 C23.2526298,52.663073 23.0309673,52.644559 22.7206351,52.644559 L22.0722658,52.644559 Z M26.4612275,55.6327393 L29.9413638,55.6327393 L29.9413638,53.1055608 C29.9413638,52.93523 29.9228919,52.8167408 29.8859476,52.7500896 C29.863781,52.716764 29.8277609,52.6899187 29.7778861,52.6695531 C29.7280113,52.6491875 29.6707484,52.6315992 29.6060959,52.6167878 C29.5414434,52.6019765 29.5054232,52.5927195 29.4980343,52.5890166 C29.3872014,52.5667996 29.3317858,52.4908924 29.3317858,52.3612929 L29.3317858,52.1891115 L31.6315574,52.1891115 L31.6315574,52.3612929 C31.6315574,52.4279441 31.6158563,52.4779317 31.5844536,52.5112573 C31.553051,52.5445829 31.518878,52.5677253 31.4819337,52.5806853 C31.4449894,52.5936452 31.4154344,52.6038279 31.3932678,52.6112336 C31.2417961,52.6371535 31.1457424,52.6788099 31.1051037,52.736204 C31.0644649,52.793598 31.0441459,52.9185672 31.0441459,53.1111151 L31.0441459,59.0485959 C31.0441459,59.2041154 31.0607705,59.3133476 31.0940204,59.376296 C31.1198814,59.4244329 31.1568252,59.4614608 31.2048528,59.4873807 C31.2528804,59.5133007 31.2990601,59.5318146 31.3433932,59.5429231 L31.4542256,59.5706943 C31.5724474,59.5929114 31.6315574,59.6651158 31.6315574,59.7873096 L31.6315574,59.9705995 L29.3096193,59.9705995 L29.3096193,59.7873096 C29.3096193,59.6651158 29.3650349,59.5929114 29.4758679,59.5706943 C29.5091177,59.5595858 29.5552974,59.5438489 29.6144083,59.5234833 C29.6735192,59.5031177 29.7243169,59.4846037 29.7668028,59.4679409 C29.8092888,59.4512781 29.8434618,59.4262843 29.8693228,59.3929587 C29.9173504,59.3337132 29.9413638,59.2189267 29.9413638,59.0485959 L29.9413638,56.2270428 L26.4612275,56.2270428 L26.4612275,59.0485959 C26.4612275,59.1967097 26.4815466,59.3040905 26.5221853,59.3707417 C26.5443519,59.411473 26.5748305,59.4438724 26.613622,59.4679409 C26.6524135,59.4920094 26.6985932,59.5133004 26.7521625,59.5318147 C26.8057317,59.5503289 26.8435991,59.5632886 26.8657656,59.5706943 C27.0024596,59.5892085 27.0708055,59.6614129 27.0708055,59.7873096 L27.0708055,59.9705995 L24.7433258,59.9705995 L24.7433258,59.7873096 C24.7433258,59.7243613 24.7571797,59.676225 24.784888,59.6428994 C24.8125962,59.6095738 24.8439984,59.5873571 24.8790955,59.5762486 C24.9141926,59.56514 24.9409768,59.5558831 24.9594489,59.5484774 C25.1330872,59.5151518 25.2457656,59.4522044 25.2974876,59.3596333 C25.334432,59.3003878 25.3529038,59.1967097 25.3529038,59.0485959 L25.3529038,53.1111151 C25.3529038,52.9407842 25.334432,52.822295 25.2974876,52.7556438 C25.2679322,52.7149125 25.2226761,52.6834388 25.161718,52.6612217 C25.1007599,52.6390047 25.0000882,52.607531 24.8596998,52.5667997 C24.7821168,52.5371769 24.7433258,52.4686753 24.7433258,52.3612929 L24.7433258,52.1891115 L27.0708055,52.1891115 L27.0708055,52.3612929 C27.0708055,52.4612697 27.0449449,52.5242171 26.9932229,52.550137 C26.9415008,52.5760569 26.8509886,52.6038278 26.7216836,52.6334506 C26.6256284,52.6593705 26.558206,52.7038039 26.5194145,52.7667523 C26.480623,52.8297006 26.4612275,52.9444871 26.4612275,53.1111151 L26.4612275,55.6327393 Z M32.2522186,61.7035219 C32.555162,61.4072943 32.7934492,61.0777462 32.9670874,60.7148674 C33.1407257,60.3482859 33.2275435,59.9891154 33.2275435,59.6373452 C33.2275435,59.3929575 33.1555032,59.1856013 33.0114204,59.0152705 C32.871032,58.8486425 32.7010907,58.7653298 32.5015915,58.7653298 C32.2947034,58.7653298 32.1367688,58.8273515 32.0277831,58.9513967 C31.9187974,59.075442 31.8643054,59.2244793 31.8643054,59.3985129 C31.8643054,59.5799523 31.9178738,59.7419493 32.0250123,59.8845088 C32.1321508,60.0270683 32.272537,60.098347 32.4461753,60.098347 C32.5052862,60.098347 32.5699377,60.0872386 32.6401319,60.0650215 C32.6179653,60.3094092 32.5588553,60.5297252 32.4628001,60.7259759 C32.3667449,60.9185238 32.2060396,61.1443939 31.9806793,61.403593 L32.2522186,61.7035219 Z M41.1742241,54.9551222 L39.506197,60.0872385 L39.0739508,60.0872385 L36.7908041,53.133332 C36.7206099,52.9370813 36.6614999,52.8074837 36.6134723,52.7445353 C36.5876113,52.7075069 36.5645214,52.6834388 36.544202,52.6723302 C36.5238827,52.6612217 36.4472244,52.6334508 36.3142249,52.5890166 C36.2218641,52.5408797 36.1756844,52.4871892 36.1756844,52.4279437 L36.1756844,52.1891115 L38.4809976,52.1891115 L38.4809976,52.4279437 C38.4809976,52.5279205 38.4163461,52.5890165 38.287041,52.6112336 C38.0321253,52.6112336 37.9046693,52.7130603 37.9046693,52.9167167 C37.9046693,52.9833679 37.9231412,53.0666806 37.9600855,53.1666574 L39.55053,58.0599415 L40.8749768,53.9886847 L40.5923542,53.0666811 C40.5517155,52.8963503 40.5055358,52.7815639 40.4538138,52.7223184 C40.387314,52.6482615 40.2894131,52.6112336 40.160108,52.6112336 C40.0234141,52.5890165 39.9550681,52.5279205 39.9550681,52.4279437 L39.9606097,52.1891115 L42.3102559,52.1891115 L42.3102559,52.4279437 C42.3102559,52.4945949 42.2862425,52.5427312 42.2382149,52.5723539 C42.204965,52.5908681 42.1283067,52.6223419 42.0082377,52.666776 C41.8881687,52.7112101 41.8096632,52.7500894 41.7727189,52.783415 C41.7209969,52.8241463 41.6951363,52.8870937 41.6951363,52.9722591 C41.6951363,53.0648302 41.7191497,53.1592513 41.7671773,53.2555253 L43.3742466,58.1710262 L44.9480662,53.1111151 C44.9591495,53.0481667 44.9646911,52.9907735 44.9646911,52.9389337 C44.9646911,52.7204659 44.8483183,52.6112336 44.6155691,52.6112336 C44.4936529,52.5853137 44.4326957,52.5242177 44.4326957,52.4279437 L44.4326957,52.1891115 L46.2115552,52.1891115 L46.2115552,52.4279437 C46.2115552,52.5020006 46.1783058,52.5482855 46.1118061,52.5667997 C45.9381678,52.6038281 45.8125591,52.6723297 45.734976,52.7723065 L43.3299137,60.0872385 L42.8533345,60.0872385 L41.1742241,54.9551222 Z M47.8906656,52.644559 L47.8906656,55.6605105 L48.5944511,55.6605105 C48.8345891,55.6605105 49.0183842,55.6456993 49.1458421,55.6160766 C49.2733,55.5864538 49.3684301,55.530912 49.4312355,55.4494494 C49.4940408,55.3679869 49.5420677,55.2439434 49.5753175,55.0773154 C49.6159563,54.9773387 49.6713719,54.927351 49.7415661,54.927351 L50.0463551,54.927351 L50.0518967,56.954648 L49.7637326,56.954648 C49.6972328,56.954648 49.6455115,56.9361341 49.6085672,56.8991056 C49.5753174,56.8620772 49.5402208,56.7787645 49.5032765,56.6491649 C49.4146102,56.4344 49.3139384,56.2955454 49.2012583,56.232597 C49.0885782,56.1696487 48.8863111,56.138175 48.5944511,56.138175 L47.8906656,56.138175 L47.8906656,59.4818265 L49.48111,59.4818265 C49.8099143,59.4818265 50.0740622,59.4633126 50.2735614,59.4262841 C50.4767551,59.3892557 50.6393076,59.3263083 50.7612238,59.23744 C50.8831401,59.1485718 50.9828882,59.0226769 51.0604712,58.8597518 C51.1380543,58.6968267 51.2064002,58.4820649 51.2655111,58.2154601 C51.3467886,58.0340208 51.4446895,57.9433025 51.5592169,57.9433025 L51.8085897,57.9433025 L51.8085897,59.9705995 L46.1949303,59.9705995 L46.1949303,59.7873096 C46.1949303,59.6873328 46.2263325,59.622534 46.2891379,59.5929113 C46.4073596,59.5632885 46.5071078,59.5299634 46.5883853,59.492935 C46.6696627,59.4559065 46.7195368,59.4170273 46.7380089,59.376296 L46.7878835,53.1111151 C46.7878835,52.9333785 46.7712588,52.8130379 46.7380089,52.7500896 C46.7232312,52.7130611 46.6909054,52.6834388 46.6410306,52.6612217 C46.5911558,52.6390047 46.4738594,52.607531 46.2891379,52.5667997 C46.2263325,52.5445826 46.1949303,52.476081 46.1949303,52.3612929 L46.1949303,52.1891115 L50.5672672,52.1891115 C50.8184885,52.1891115 51.0881779,52.135421 51.3763435,52.0280386 L51.3763435,53.9164796 L51.0604712,53.9164796 C51.0013603,53.9164796 50.9579514,53.8988914 50.9302432,53.8637144 C50.902535,53.8285373 50.8628204,53.7480017 50.8110984,53.622105 C50.6891822,53.3147689 50.5792745,53.094453 50.4813721,52.9611506 C50.3834697,52.8278482 50.2615553,52.7417584 50.1156253,52.7028785 C49.9696953,52.6639987 49.7434148,52.644559 49.4367771,52.644559 L47.8906656,52.644559 Z M56.3250086,52.3113047 L55.8927624,52.3113047 C55.8188738,52.4186872 55.7468335,52.4723776 55.6766393,52.4723776 C55.6212228,52.4723776 55.5417938,52.4353498 55.4383497,52.3612929 C55.0762955,52.1539336 54.6994692,52.0502555 54.3078596,52.0502555 C53.9347221,52.0502555 53.5809856,52.134494 53.2466397,52.3029734 C52.9122937,52.4714528 52.6435279,52.7112083 52.4403342,53.0222472 C52.2371405,53.3332861 52.1355452,53.6924566 52.1355452,54.0997695 C52.1355452,54.4700539 52.2149743,54.8014535 52.3738348,55.0939782 C52.5290009,55.3828 52.776524,55.6392181 53.1164116,55.8632402 C53.4562993,56.0872623 53.8940827,56.2881385 54.4297752,56.4658751 C54.813996,56.610286 55.0892269,56.7306266 55.2554763,56.8269005 C55.4217257,56.9231745 55.5695007,57.0453665 55.6988058,57.1934803 C55.9278605,57.4637879 56.0423861,57.7674166 56.0423861,58.1043754 C56.0423861,58.3783858 55.967575,58.6385067 55.8179506,58.8847459 C55.6683261,59.130985 55.4660591,59.3300099 55.2111434,59.4818265 C54.9562276,59.6336431 54.6809967,59.7095503 54.3854422,59.7095503 C53.9273328,59.7095503 53.5625133,59.5919867 53.2909726,59.3568561 C53.019432,59.1217255 52.7931515,58.7764405 52.6121244,58.3209907 C52.5604023,58.1987968 52.5123755,58.112707 52.4680423,58.0627186 C52.4237091,58.0127302 52.3627519,57.9877364 52.2851689,57.9877364 L51.9859215,57.9877364 L51.9859215,60.0650215 L52.4846671,60.0650215 C52.5733335,59.9095021 52.6656929,59.8317435 52.7617481,59.8317435 C52.9316919,59.8317435 53.2004577,59.8928395 53.5680535,60.0150334 C53.9356494,60.1372272 54.2118039,60.1983233 54.3965255,60.1983233 C54.8509404,60.1983233 55.270252,60.0853882 55.6544728,59.8595147 C56.0386936,59.6336412 56.3407088,59.3263098 56.5605274,58.9375111 C56.7803461,58.5487125 56.8902537,58.1228918 56.8902537,57.6600363 C56.8902537,57.167558 56.7738809,56.7583999 56.5411318,56.4325496 C56.3083826,56.1066993 56.0202214,55.8493555 55.6766393,55.6605105 C55.3367517,55.4716654 54.897121,55.2698635 54.3577341,55.0550985 C53.8515971,54.8514421 53.4960135,54.646863 53.2909726,54.4413552 C53.0859317,54.2358473 52.9834128,53.9812806 52.9834128,53.6776474 C52.9834128,53.4369625 53.0480644,53.2259036 53.1773694,53.0444642 C53.2992857,52.8630248 53.4618382,52.7241703 53.6650319,52.6278963 C53.8682255,52.5316224 54.0824993,52.4834861 54.3078596,52.4834861 C54.740108,52.4834861 55.0836849,52.6390032 55.3386006,52.9500421 C55.3755449,53.0092876 55.4318841,53.1536964 55.5076199,53.3832727 C55.5833558,53.6128491 55.6581669,53.7896572 55.7320555,53.9137025 C55.8059441,54.0377478 55.9056922,54.0997695 56.0313029,54.0997695 L56.3250086,54.0997695 L56.3250086,52.3113047 Z M60.8968438,52.644559 L60.8968438,59.0485959 C60.8968438,59.2115211 60.9245516,59.3263075 60.979968,59.3929587 C61.0095235,59.43369 61.053856,59.4670151 61.1129669,59.492935 C61.1720778,59.5188549 61.2265698,59.5364431 61.2764446,59.5457002 C61.3263194,59.5549574 61.366034,59.5632886 61.3955894,59.5706943 C61.5101168,59.5706943 61.5673796,59.6428987 61.5673796,59.7873096 L61.5673796,59.9705995 L59.0958178,59.9705995 L59.0958178,59.7873096 C59.0958178,59.6428987 59.1512334,59.5706943 59.2620664,59.5706943 C59.3987603,59.5373687 59.4911197,59.5095978 59.5391473,59.4873807 C59.5871749,59.4651637 59.627813,59.43369 59.6610629,59.3929587 C59.7090905,59.3226047 59.7331039,59.2078182 59.7331039,59.0485959 L59.7331039,52.644559 L59.0293184,52.644559 C58.7522361,52.644559 58.5287264,52.6723299 58.3587826,52.7278726 C58.1925332,52.7871181 58.0632301,52.8861677 57.9708693,53.0250244 C57.8785085,53.163881 57.8064682,53.3629059 57.7547462,53.622105 C57.6882464,53.8479785 57.5903455,53.9609135 57.4610404,53.9609135 L57.1174601,53.9609135 L57.1174601,52.0280386 C57.3612925,52.135421 57.6790088,52.1891115 58.0706184,52.1891115 L62.5870374,52.1891115 C62.9417027,52.1891115 63.2446415,52.135421 63.4958628,52.0280386 L63.4958628,53.9609135 L63.2464899,53.9609135 C63.1430459,53.9609135 63.0719291,53.9386968 63.0331376,53.8942627 C62.9943461,53.8498285 62.94909,53.762813 62.897368,53.6332135 C62.760674,53.311066 62.6461484,53.0851959 62.5537876,52.9555964 C62.4577324,52.822294 62.3432068,52.7371299 62.2102073,52.7001014 C62.0772078,52.663073 61.8555453,52.644559 61.5452131,52.644559 L60.8968438,52.644559 Z M65.2580974,52.644559 L65.2580974,55.6605105 L65.9618829,55.6605105 C66.2020209,55.6605105 66.3858161,55.6456993 66.5132739,55.6160766 C66.6407318,55.5864538 66.735862,55.530912 66.7986673,55.4494494 C66.8614726,55.3679869 66.9094995,55.2439434 66.9427494,55.0773154 C66.9833881,54.9773387 67.0388037,54.927351 67.1089979,54.927351 L67.4137869,54.927351 L67.4193285,56.954648 L67.1311644,56.954648 C67.0646646,56.954648 67.0129434,56.9361341 66.9759991,56.8991056 C66.9427492,56.8620772 66.9076526,56.7787645 66.8707083,56.6491649 C66.782042,56.4344 66.6813703,56.2955454 66.5686901,56.232597 C66.45601,56.1696487 66.2537429,56.138175 65.9618829,56.138175 L65.2580974,56.138175 L65.2580974,59.4818265 L66.8485418,59.4818265 C67.1773462,59.4818265 67.441494,59.4633126 67.6409933,59.4262841 C67.844187,59.3892557 68.0067395,59.3263083 68.1286557,59.23744 C68.2505719,59.1485718 68.35032,59.0226769 68.4279031,58.8597518 C68.5054861,58.6968267 68.5738321,58.4820649 68.6329429,58.2154601 C68.7142204,58.0340208 68.8121214,57.9433025 68.9266487,57.9433025 L69.1760215,57.9433025 L69.1760215,59.9705995 L63.5623622,59.9705995 L63.5623622,59.7873096 C63.5623622,59.6873328 63.5937644,59.622534 63.6565697,59.5929113 C63.7747915,59.5632885 63.8745396,59.5299634 63.9558171,59.492935 C64.0370946,59.4559065 64.0869686,59.4170273 64.1054408,59.376296 L64.1553153,53.1111151 C64.1553153,52.9333785 64.1386906,52.8130379 64.1054408,52.7500896 C64.0906631,52.7130611 64.0583373,52.6834388 64.0084625,52.6612217 C63.9585876,52.6390047 63.8412912,52.607531 63.6565697,52.5667997 C63.5937644,52.5445826 63.5623622,52.476081 63.5623622,52.3612929 L63.5623622,52.1891115 L67.934699,52.1891115 C68.1859203,52.1891115 68.4556097,52.135421 68.7437753,52.0280386 L68.7437753,53.9164796 L68.4279031,53.9164796 C68.3687922,53.9164796 68.3253833,53.8988914 68.297675,53.8637144 C68.2699668,53.8285373 68.2302523,53.7480017 68.1785302,53.622105 C68.056614,53.3147689 67.9467064,53.094453 67.848804,52.9611506 C67.7509015,52.8278482 67.6289872,52.7417584 67.4830571,52.7028785 C67.3371271,52.6639987 67.1108466,52.644559 66.8042089,52.644559 L65.2580974,52.644559 Z M71.0269221,56.2048258 L71.0269221,59.0485959 C71.0269221,59.1967097 71.0453939,59.3040905 71.0823382,59.3707417 C71.1081993,59.4151759 71.1442194,59.4512781 71.1903998,59.4790494 C71.2365802,59.5068207 71.2873778,59.5281118 71.3427943,59.5429231 C71.3982108,59.5577345 71.429613,59.5669915 71.4370018,59.5706943 C71.5256682,59.5818029 71.5810838,59.6040196 71.6032504,59.6373452 C71.6254169,59.6706708 71.6365001,59.7206584 71.6365001,59.7873096 L71.6365001,59.9705995 L69.2868539,59.9705995 L69.2868539,59.7873096 C69.2868539,59.6651158 69.3478111,59.5929114 69.4697273,59.5706943 C69.4771162,59.5706943 69.5353026,59.5484776 69.6442883,59.5040435 C69.753274,59.4596093 69.8188492,59.4225814 69.8410157,59.3929587 L69.9019735,53.1111151 C69.9019735,52.9333785 69.8853489,52.8130379 69.852099,52.7500896 C69.8299324,52.7130611 69.7948358,52.6843645 69.7468082,52.6639989 C69.6987806,52.6436332 69.6489066,52.6297478 69.5971845,52.6223421 C69.5454625,52.6149364 69.5029772,52.603828 69.4697273,52.5890166 C69.3478111,52.5667996 69.2868539,52.4908924 69.2868539,52.3612929 L69.2868539,52.1891115 L72.5896584,52.1891115 C72.9849625,52.1891115 73.3359282,52.2307678 73.6425659,52.3140818 C73.9492037,52.3973958 74.2105807,52.5205136 74.4267049,52.6834387 C74.6428291,52.8463638 74.809076,53.0472401 74.9254506,53.2860736 C75.0418251,53.524907 75.1000115,53.7961363 75.1000115,54.0997695 C75.1000115,54.4663511 75.0067286,54.7931221 74.8201598,55.0800926 C74.6335911,55.367063 74.3648253,55.5938588 74.0138543,55.7604868 C73.6628834,55.9271148 73.2528078,56.0215359 72.7836151,56.0437529 C73.0015865,56.0770785 73.1696806,56.1391002 73.2879023,56.2298199 C73.4061241,56.3205396 73.5335801,56.4825366 73.670274,56.7158158 L75.0667618,58.981945 C75.1812892,59.1596816 75.2810373,59.2800222 75.3660092,59.3429705 C75.4288145,59.3874047 75.5294863,59.4318381 75.6680274,59.4762723 C75.8065686,59.5207064 75.8887684,59.5558829 75.9146294,59.5818028 C75.9478793,59.6151284 75.964504,59.744726 75.964504,59.9705995 L74.3075601,59.9705995 L72.3236607,56.626948 C72.2313,56.5121598 72.1241631,56.4131102 72.0022469,56.3297962 C71.8803307,56.2464822 71.7510275,56.2048258 71.6143336,56.2048258 L71.0269221,56.2048258 Z M71.0269221,55.7049444 L72.1352457,55.7049444 C72.4936055,55.7049444 72.803933,55.6429227 73.0662376,55.5188774 C73.3285422,55.3948321 73.5280384,55.2143212 73.6647324,54.9773392 C73.8014263,54.7403571 73.8697723,54.4589452 73.8697723,54.1330949 C73.8697723,53.8368674 73.8097387,53.5767465 73.6896697,53.3527244 C73.5696007,53.1287024 73.4015066,52.9546713 73.1853824,52.830626 C72.9692582,52.7065807 72.7189643,52.644559 72.4344931,52.644559 L71.0269221,52.644559 L71.0269221,55.7049444 Z M81.8940356,59.9705995 L77.3942415,53.0666811 L77.3942415,58.1488093 C77.3942415,58.4746596 77.4080954,58.7227464 77.4358037,58.8930772 C77.4635119,59.0634081 77.5106152,59.1893029 77.5771149,59.2707654 C77.6436147,59.352228 77.74521,59.4151754 77.8819039,59.4596096 C77.9927368,59.5040437 78.0620064,59.5484771 78.0897146,59.5929113 C78.1174228,59.6373454 78.1312768,59.7021442 78.1312768,59.7873096 L78.1312768,59.9705995 L76.080878,59.9705995 L76.080878,59.7095503 C76.080878,59.6614133 76.0919611,59.6234597 76.1141277,59.5956884 C76.1362943,59.5679171 76.1806268,59.5299635 76.2471265,59.4818265 C76.4761812,59.3966611 76.6202619,59.2976115 76.6793728,59.1846748 C76.7384836,59.071738 76.7680386,58.848645 76.7680386,58.515389 L76.7680386,53.1111151 C76.7680386,52.9296757 76.7458724,52.8074837 76.7015392,52.7445353 C76.6572061,52.6889927 76.5260557,52.6371536 76.3080843,52.5890166 C76.2009458,52.5667996 76.1473774,52.4908924 76.1473774,52.3612929 L76.1473774,52.1891115 L78.1811513,52.1891115 L81.7887448,57.7044702 L81.7887448,53.4165982 C81.7887448,53.1611019 81.7554955,52.980591 81.6889957,52.8750599 C81.622496,52.7695289 81.4931928,52.6889932 81.3010824,52.6334506 C81.2087217,52.6149363 81.162542,52.5390292 81.162542,52.4057268 L81.162542,52.1891115 L83.0910252,52.1891115 L83.0910252,52.4945946 C83.0910252,52.5501373 83.0042073,52.6001249 82.8305691,52.644559 C82.6790974,52.692696 82.5738077,52.7926713 82.5146968,52.9444879 C82.4481971,53.0963045 82.4149477,53.3258774 82.4149477,53.6332135 L82.4149477,59.9705995 L81.8940356,59.9705995 Z M89.1424724,53.3055134 C88.9614453,52.8130351 88.8709331,52.5575427 88.8709331,52.5390285 C88.8709331,52.4723773 88.9226543,52.4057271 89.0260984,52.3390759 L89.757592,51.8947368 L92.6724832,59.026379 C92.764844,59.2818752 92.9237021,59.4559063 93.1490624,59.5484774 C93.2377287,59.5706944 93.2959152,59.5947626 93.3236234,59.6206825 C93.3513316,59.6466024 93.3651855,59.687333 93.3651855,59.7428757 L93.3651855,59.9705995 L90.8991654,59.9705995 L90.8991654,59.7428757 C90.8991654,59.6762245 90.9222552,59.6308654 90.9684356,59.6067969 C91.014616,59.5827284 91.0875799,59.5540318 91.1873295,59.5207062 C91.3166346,59.4799749 91.399758,59.4401699 91.4367023,59.40129 C91.4736467,59.3624102 91.4921185,59.3133482 91.4921185,59.2541027 C91.4921185,59.1356117 91.4459388,58.9800946 91.3535781,58.7875467 L90.9490399,57.8211092 L87.9399412,57.8211092 L87.6074441,58.6486907 C87.5150833,58.8486443 87.4689036,59.011567 87.4689036,59.1374637 C87.4689036,59.3263088 87.5945124,59.463312 87.8457337,59.5484774 C87.960261,59.5892087 88.0175238,59.6540075 88.0175238,59.7428757 L88.0230655,59.9705995 L86.0613326,59.9705995 L86.0613326,59.7428757 C86.0613326,59.6466018 86.1222898,59.5743974 86.244206,59.5262604 C86.2294283,59.5373689 86.2220395,59.5447745 86.2220395,59.5484774 C86.2220395,59.5521802 86.2257339,59.5540316 86.2331227,59.5540316 C86.2552893,59.5540316 86.3162465,59.5244093 86.4159961,59.4651638 C86.5157458,59.4059183 86.6164175,59.3170514 86.7180143,59.1985603 C86.8196112,59.0800693 86.8981167,58.9430662 86.9535331,58.7875467 L89.1424724,53.3055134 Z M90.7440001,57.2601311 L89.4417198,54.0109017 L88.1228146,57.2601311 L90.7440001,57.2601311 Z M99.7602131,53.6332135 L99.7602131,57.6378194 C99.7602131,58.0229151 99.6955615,58.3700516 99.5662564,58.6792391 C99.4369514,58.9884265 99.2485382,59.2531759 99.0010114,59.4734951 C98.7534845,59.6938144 98.4542401,59.8632169 98.1032692,59.981708 C97.7522983,60.0964961 97.3588473,60.1538894 96.9229045,60.1538894 C96.33549,60.1538894 95.8293606,60.0529884 95.4045011,59.8511834 C94.9796415,59.6493784 94.6563837,59.354081 94.4347179,58.9652823 C94.2056632,58.5764837 94.0911375,58.1117837 94.0911375,57.5711685 L94.0911375,53.0666811 C94.0911375,52.903756 94.0671241,52.7945237 94.0190965,52.7389811 C93.9784577,52.6871413 93.9184242,52.6519648 93.8389939,52.6334506 C93.7595636,52.6149363 93.7013772,52.6001252 93.6644329,52.5890166 C93.5425167,52.5667996 93.4815595,52.4908924 93.4815595,52.3612929 L93.4815595,52.1891115 L95.8533722,52.1891115 L95.8533722,52.3612929 C95.8533722,52.4279441 95.8367475,52.4779317 95.8034976,52.5112573 C95.7702477,52.5445829 95.7314568,52.5677253 95.6871236,52.5806853 C95.6427904,52.5936452 95.6076939,52.6038279 95.5818329,52.6112336 C95.4229723,52.6445592 95.3269186,52.6963982 95.2936687,52.7667523 C95.2604188,52.8259978 95.2437941,52.9407842 95.2437941,53.1111151 L95.2437941,57.8211092 C95.2437941,58.1839879 95.3195288,58.5042792 95.4710005,58.7819925 C95.6224721,59.0560029 95.8385931,59.2670619 96.1193698,59.4151756 C96.4001466,59.5632894 96.728946,59.6373452 97.1057779,59.6373452 C97.4899987,59.6373452 97.8409643,59.5558838 98.1586854,59.3929587 C98.4764064,59.2263307 98.7257767,59.0004606 98.9068038,58.7153416 C99.087831,58.396897 99.1783431,57.9358998 99.1783431,57.3323362 L99.1783431,53.5554541 C99.1783431,53.2184953 99.1497117,52.987071 99.0924481,52.8611743 C99.0351844,52.7352776 98.9252767,52.6593705 98.7627218,52.6334506 C98.6445,52.622342 98.5669181,52.6019767 98.5299738,52.5723539 C98.5041128,52.546434 98.4884117,52.5168117 98.48287,52.4834861 C98.4773284,52.4501605 98.4745576,52.3520366 98.4745576,52.1891115 L100.397499,52.1891115 L100.397499,52.3835098 C100.386416,52.4723781 100.367944,52.5353255 100.342083,52.5723539 C100.323611,52.594571 100.252494,52.6278961 100.128731,52.6723302 C100.004967,52.7167643 99.9264618,52.7537922 99.8932119,52.783415 C99.8377955,52.8352548 99.8017753,52.923196 99.7851504,53.0472413 C99.7685254,53.1712866 99.7602131,53.3666087 99.7602131,53.6332135 Z M104.847419,52.3113047 L104.415172,52.3113047 C104.341284,52.4186872 104.269244,52.4723776 104.199049,52.4723776 C104.143633,52.4723776 104.064204,52.4353498 103.96076,52.3612929 C103.598706,52.1539336 103.221879,52.0502555 102.83027,52.0502555 C102.457132,52.0502555 102.103396,52.134494 101.76905,52.3029734 C101.434704,52.4714528 101.165938,52.7112083 100.962744,53.0222472 C100.759551,53.3332861 100.657955,53.6924566 100.657955,54.0997695 C100.657955,54.4700539 100.737384,54.8014535 100.896245,55.0939782 C101.051411,55.3828 101.298934,55.6392181 101.638822,55.8632402 C101.978709,56.0872623 102.416493,56.2881385 102.952185,56.4658751 C103.336406,56.610286 103.611637,56.7306266 103.777886,56.8269005 C103.944136,56.9231745 104.091911,57.0453665 104.221216,57.1934803 C104.450271,57.4637879 104.564796,57.7674166 104.564796,58.1043754 C104.564796,58.3783858 104.489985,58.6385067 104.340361,58.8847459 C104.190736,59.130985 103.988469,59.3300099 103.733553,59.4818265 C103.478638,59.6336431 103.203407,59.7095503 102.907852,59.7095503 C102.449743,59.7095503 102.084923,59.5919867 101.813383,59.3568561 C101.541842,59.1217255 101.315562,58.7764405 101.134534,58.3209907 C101.082812,58.1987968 101.034786,58.112707 100.990452,58.0627186 C100.946119,58.0127302 100.885162,57.9877364 100.807579,57.9877364 L100.508332,57.9877364 L100.508332,60.0650215 L101.007077,60.0650215 C101.095744,59.9095021 101.188103,59.8317435 101.284158,59.8317435 C101.454102,59.8317435 101.722868,59.8928395 102.090464,60.0150334 C102.458059,60.1372272 102.734214,60.1983233 102.918936,60.1983233 C103.37335,60.1983233 103.792662,60.0853882 104.176883,59.8595147 C104.561104,59.6336412 104.863119,59.3263098 105.082937,58.9375111 C105.302756,58.5487125 105.412664,58.1228918 105.412664,57.6600363 C105.412664,57.167558 105.296291,56.7583999 105.063542,56.4325496 C104.830793,56.1066993 104.542631,55.8493555 104.199049,55.6605105 C103.859162,55.4716654 103.419531,55.2698635 102.880144,55.0550985 C102.374007,54.8514421 102.018424,54.646863 101.813383,54.4413552 C101.608342,54.2358473 101.505823,53.9812806 101.505823,53.6776474 C101.505823,53.4369625 101.570474,53.2259036 101.699779,53.0444642 C101.821696,52.8630248 101.984248,52.7241703 102.187442,52.6278963 C102.390636,52.5316224 102.604909,52.4834861 102.83027,52.4834861 C103.262518,52.4834861 103.606095,52.6390032 103.861011,52.9500421 C103.897955,53.0092876 103.954294,53.1536964 104.03003,53.3832727 C104.105766,53.6128491 104.180577,53.7896572 104.254466,53.9137025 C104.328354,54.0377478 104.428102,54.0997695 104.553713,54.0997695 L104.847419,54.0997695 L104.847419,52.3113047 Z M109.419254,52.644559 L109.419254,59.0485959 C109.419254,59.2115211 109.446962,59.3263075 109.502378,59.3929587 C109.531934,59.43369 109.576266,59.4670151 109.635377,59.492935 C109.694488,59.5188549 109.74898,59.5364431 109.798855,59.5457002 C109.848729,59.5549574 109.888444,59.5632886 109.917999,59.5706943 C110.032527,59.5706943 110.08979,59.6428987 110.08979,59.7873096 L110.08979,59.9705995 L107.618228,59.9705995 L107.618228,59.7873096 C107.618228,59.6428987 107.673643,59.5706943 107.784476,59.5706943 C107.92117,59.5373687 108.01353,59.5095978 108.061557,59.4873807 C108.109585,59.4651637 108.150223,59.43369 108.183473,59.3929587 C108.231501,59.3226047 108.255514,59.2078182 108.255514,59.0485959 L108.255514,52.644559 L107.551728,52.644559 C107.274646,52.644559 107.051136,52.6723299 106.881193,52.7278726 C106.714943,52.7871181 106.58564,52.8861677 106.493279,53.0250244 C106.400919,53.163881 106.328878,53.3629059 106.277156,53.622105 C106.210656,53.8479785 106.112756,53.9609135 105.98345,53.9609135 L105.63987,53.9609135 L105.63987,52.0280386 C105.883703,52.135421 106.201419,52.1891115 106.593028,52.1891115 L111.109447,52.1891115 C111.464113,52.1891115 111.767052,52.135421 112.018273,52.0280386 L112.018273,53.9609135 L111.7689,53.9609135 C111.665456,53.9609135 111.594339,53.9386968 111.555548,53.8942627 C111.516756,53.8498285 111.4715,53.762813 111.419778,53.6332135 C111.283084,53.311066 111.168558,53.0851959 111.076198,52.9555964 C110.980142,52.822294 110.865617,52.7371299 110.732617,52.7001014 C110.599618,52.663073 110.377955,52.644559 110.067623,52.644559 L109.419254,52.644559 Z M113.852548,56.2048258 L113.852548,59.0485959 C113.852548,59.1967097 113.87102,59.3040905 113.907965,59.3707417 C113.933826,59.4151759 113.969846,59.4512781 114.016026,59.4790494 C114.062207,59.5068207 114.113004,59.5281118 114.168421,59.5429231 C114.223837,59.5577345 114.255239,59.5669915 114.262628,59.5706943 C114.351295,59.5818029 114.40671,59.6040196 114.428877,59.6373452 C114.451043,59.6706708 114.462126,59.7206584 114.462126,59.7873096 L114.462126,59.9705995 L112.11248,59.9705995 L112.11248,59.7873096 C112.11248,59.6651158 112.173438,59.5929114 112.295354,59.5706943 C112.302743,59.5706943 112.360929,59.5484776 112.469915,59.5040435 C112.5789,59.4596093 112.644476,59.4225814 112.666642,59.3929587 L112.7276,53.1111151 C112.7276,52.9333785 112.710975,52.8130379 112.677725,52.7500896 C112.655559,52.7130611 112.620462,52.6843645 112.572435,52.6639989 C112.524407,52.6436332 112.474533,52.6297478 112.422811,52.6223421 C112.371089,52.6149364 112.328604,52.603828 112.295354,52.5890166 C112.173438,52.5667996 112.11248,52.4908924 112.11248,52.3612929 L112.11248,52.1891115 L115.415285,52.1891115 C115.810589,52.1891115 116.161555,52.2307678 116.468192,52.3140818 C116.77483,52.3973958 117.036207,52.5205136 117.252331,52.6834387 C117.468456,52.8463638 117.634702,53.0472401 117.751077,53.2860736 C117.867452,53.524907 117.925638,53.7961363 117.925638,54.0997695 C117.925638,54.4663511 117.832355,54.7931221 117.645786,55.0800926 C117.459217,55.367063 117.190452,55.5938588 116.839481,55.7604868 C116.48851,55.9271148 116.078434,56.0215359 115.609241,56.0437529 C115.827213,56.0770785 115.995307,56.1391002 116.113529,56.2298199 C116.231751,56.3205396 116.359206,56.4825366 116.4959,56.7158158 L117.892388,58.981945 C118.006916,59.1596816 118.106664,59.2800222 118.191636,59.3429705 C118.254441,59.3874047 118.355113,59.4318381 118.493654,59.4762723 C118.632195,59.5207064 118.714395,59.5558829 118.740256,59.5818028 C118.773506,59.6151284 118.79013,59.744726 118.79013,59.9705995 L117.133187,59.9705995 L115.149287,56.626948 C115.056926,56.5121598 114.94979,56.4131102 114.827873,56.3297962 C114.705957,56.2464822 114.576654,56.2048258 114.43996,56.2048258 L113.852548,56.2048258 Z M113.852548,55.7049444 L114.960872,55.7049444 C115.319232,55.7049444 115.629559,55.6429227 115.891864,55.5188774 C116.154169,55.3948321 116.353665,55.2143212 116.490359,54.9773392 C116.627053,54.7403571 116.695399,54.4589452 116.695399,54.1330949 C116.695399,53.8368674 116.635365,53.5767465 116.515296,53.3527244 C116.395227,53.1287024 116.227133,52.9546713 116.011009,52.830626 C115.794885,52.7065807 115.544591,52.644559 115.26012,52.644559 L113.852548,52.644559 L113.852548,55.7049444 Z M121.910062,53.3055134 C121.729034,52.8130351 121.638522,52.5575427 121.638522,52.5390285 C121.638522,52.4723773 121.690243,52.4057271 121.793688,52.3390759 L122.525181,51.8947368 L125.440072,59.026379 C125.532433,59.2818752 125.691291,59.4559063 125.916652,59.5484774 C126.005318,59.5706944 126.063504,59.5947626 126.091213,59.6206825 C126.118921,59.6466024 126.132775,59.687333 126.132775,59.7428757 L126.132775,59.9705995 L123.666755,59.9705995 L123.666755,59.7428757 C123.666755,59.6762245 123.689844,59.6308654 123.736025,59.6067969 C123.782205,59.5827284 123.855169,59.5540318 123.954919,59.5207062 C124.084224,59.4799749 124.167347,59.4401699 124.204291,59.40129 C124.241236,59.3624102 124.259708,59.3133482 124.259708,59.2541027 C124.259708,59.1356117 124.213528,58.9800946 124.121167,58.7875467 L123.716629,57.8211092 L120.70753,57.8211092 L120.375033,58.6486907 C120.282672,58.8486443 120.236493,59.011567 120.236493,59.1374637 C120.236493,59.3263088 120.362102,59.463312 120.613323,59.5484774 C120.72785,59.5892087 120.785113,59.6540075 120.785113,59.7428757 L120.790655,59.9705995 L118.828922,59.9705995 L118.828922,59.7428757 C118.828922,59.6466018 118.889879,59.5743974 119.011795,59.5262604 C118.997017,59.5373689 118.989629,59.5447745 118.989629,59.5484774 C118.989629,59.5521802 118.993323,59.5540316 119.000712,59.5540316 C119.022878,59.5540316 119.083836,59.5244093 119.183585,59.4651638 C119.283335,59.4059183 119.384007,59.3170514 119.485603,59.1985603 C119.5872,59.0800693 119.665706,58.9430662 119.721122,58.7875467 L121.910062,53.3055134 Z M123.511589,57.2601311 L122.209309,54.0109017 L120.890404,57.2601311 L123.511589,57.2601311 Z M128.055716,59.4596096 L129.535328,59.4596096 C129.893688,59.4596096 130.188315,59.4281358 130.419216,59.3651875 C130.650118,59.3022391 130.829296,59.1994868 130.956753,59.0569273 C131.084211,58.9143678 131.171953,58.7171943 131.21998,58.4654009 L131.269855,58.2654483 C131.310494,58.0951175 131.4047,58.0099533 131.552477,58.0099533 L131.8351,58.0099533 L131.8351,59.9705995 L126.32119,59.9705995 L126.32119,59.7873096 C126.32119,59.6651158 126.376605,59.5929114 126.487438,59.5706943 C126.502216,59.5706943 126.564097,59.5484776 126.673082,59.5040435 C126.782068,59.4596093 126.847643,59.4225814 126.86981,59.3929587 C126.910449,59.337416 126.930768,59.2226296 126.930768,59.0485959 L126.930768,53.1111151 C126.930768,52.9333785 126.914143,52.8130379 126.880893,52.7500896 C126.862421,52.7130611 126.830095,52.6843645 126.783915,52.6639989 C126.737734,52.6436332 126.688784,52.6288221 126.637062,52.619565 C126.58534,52.6103078 126.535466,52.6001252 126.487438,52.5890166 C126.376605,52.5667996 126.32119,52.4908924 126.32119,52.3612929 L126.32119,52.1891115 L128.670836,52.1891115 L128.670836,52.3612929 C128.670836,52.4945953 128.60249,52.5705024 128.465796,52.5890166 C128.329102,52.6260451 128.240437,52.6547417 128.199798,52.6751073 C128.15916,52.695473 128.127757,52.726021 128.105591,52.7667523 C128.072341,52.8259978 128.055716,52.9407842 128.055716,53.1111151 L128.055716,59.4596096 Z M132.583218,59.0485959 L132.583218,53.1111151 C132.583218,52.9148643 132.562899,52.7889695 132.522261,52.7334268 C132.492705,52.6963984 132.433595,52.6658504 132.344929,52.6417819 C132.256262,52.6177134 132.191611,52.6001252 132.150972,52.5890166 C132.029056,52.5667996 131.968099,52.4908924 131.968099,52.3612929 L131.968099,52.1891115 L134.317745,52.1891115 L134.317745,52.3612929 C134.317745,52.4353498 134.306662,52.4890402 134.284495,52.5223658 C134.266023,52.5482857 134.238315,52.5658739 134.201371,52.575131 C134.164427,52.5843882 134.120094,52.5964222 134.068372,52.6112336 C133.902123,52.648262 133.800527,52.7001011 133.763583,52.7667523 C133.726639,52.8297006 133.708167,52.9444871 133.708167,53.1111151 L133.708167,59.0485959 C133.708167,59.1967097 133.728486,59.3040905 133.769125,59.3707417 C133.802375,59.4373929 133.868873,59.489232 133.968623,59.5262604 L134.101622,59.5595858 C134.17551,59.5781001 134.219843,59.5901341 134.234621,59.5956884 C134.249398,59.6012427 134.266023,59.6132767 134.284495,59.6317909 C134.306662,59.6651165 134.317745,59.7169556 134.317745,59.7873096 L134.317745,59.9705995 L131.968099,59.9705995 L131.968099,59.7873096 C131.968099,59.7243613 131.980105,59.6799278 132.004119,59.6540079 C132.028133,59.628088 132.095555,59.5929115 132.206388,59.5484774 C132.372638,59.5040432 132.477004,59.4531299 132.51949,59.3957358 C132.561976,59.3383417 132.583218,59.2226296 132.583218,59.0485959 Z M137.509717,53.3055134 C137.32869,52.8130351 137.238178,52.5575427 137.238178,52.5390285 C137.238178,52.4723773 137.289899,52.4057271 137.393343,52.3390759 L138.124837,51.8947368 L141.039728,59.026379 C141.132089,59.2818752 141.290947,59.4559063 141.516307,59.5484774 C141.604973,59.5706944 141.66316,59.5947626 141.690868,59.6206825 C141.718576,59.6466024 141.73243,59.687333 141.73243,59.7428757 L141.73243,59.9705995 L139.26641,59.9705995 L139.26641,59.7428757 C139.26641,59.6762245 139.2895,59.6308654 139.33568,59.6067969 C139.381861,59.5827284 139.454825,59.5540318 139.554574,59.5207062 C139.683879,59.4799749 139.767003,59.4401699 139.803947,59.40129 C139.840891,59.3624102 139.859363,59.3133482 139.859363,59.2541027 C139.859363,59.1356117 139.813184,58.9800946 139.720823,58.7875467 L139.316285,57.8211092 L136.307186,57.8211092 L135.974689,58.6486907 C135.882328,58.8486443 135.836148,59.011567 135.836148,59.1374637 C135.836148,59.3263088 135.961757,59.463312 136.212978,59.5484774 C136.327506,59.5892087 136.384769,59.6540075 136.384769,59.7428757 L136.39031,59.9705995 L134.428577,59.9705995 L134.428577,59.7428757 C134.428577,59.6466018 134.489534,59.5743974 134.611451,59.5262604 C134.596673,59.5373689 134.589284,59.5447745 134.589284,59.5484774 C134.589284,59.5521802 134.592979,59.5540316 134.600367,59.5540316 C134.622534,59.5540316 134.683491,59.5244093 134.783241,59.4651638 C134.882991,59.4059183 134.983662,59.3170514 135.085259,59.1985603 C135.186856,59.0800693 135.265361,58.9430662 135.320778,58.7875467 L137.509717,53.3055134 Z M139.111245,57.2601311 L137.808964,54.0109017 L136.490059,57.2601311 L139.111245,57.2601311 Z" id="Perth,-Western-Austr"></path>
                    </g>
                </g>
            </g>
        </g>
    </g>
</svg>