<?xml version="1.0" encoding="UTF-8"?>
<svg width="64px" height="54px" viewBox="0 0 64 54" version="1.1" xmlns="http://www.w3.org/2000/svg" xmlns:xlink="http://www.w3.org/1999/xlink">
    <!-- Generator: Sketch 46.1 (44463) - http://www.bohemiancoding.com/sketch -->
    <title>Group 30</title>
    <desc>Created with Sketch.</desc>
    <defs></defs>
    <g id="Page-1" stroke="none" stroke-width="1" fill="none" fill-rule="evenodd">
        <g id="CCGS_Homepage_Update_03_08_2017" transform="translate(-368.000000, -1291.000000)">
            <g id="Group-4" transform="translate(100.000000, 693.000000)">
                <g id="Group-22" transform="translate(244.000000, 569.000000)">
                    <g id="Group-30" transform="translate(24.248403, 29.098084)">
                        <g id="Group-28">
                            <path d="M31.2509376,52.0596616 C29.3647774,49.4752053 27.4124615,48.1798794 25.3939899,48.173684 C23.3755183,48.1674885 15.281469,48.1674885 1.11184188,48.173684 L1.11184188,1.09474956 L25.0292888,1.09474956 C29.3320617,2.01934028 31.4834482,3.54892125 31.4834482,5.68349248 C31.4834482,7.8180637 31.5276324,22.7297999 31.6160009,50.418701 L31.2509376,52.0596616 Z" id="Path-2" fill="#E4E3E3"></path>
                            <path d="M61.6899791,52.0596616 C59.8038189,49.4752053 57.8515029,48.1798794 55.8330314,48.173684 C53.8145598,48.1674885 45.7205105,48.1674885 31.5508834,48.173684 L31.5508834,1.09474956 L55.4683303,1.09474956 C59.7711032,2.01934028 61.9224897,3.54892125 61.9224897,5.68349248 C61.9224897,7.8180637 61.9666739,22.7297999 62.0550424,50.418701 L61.6899791,52.0596616 Z" id="Path-2" fill="#E4E3E3" transform="translate(46.802963, 26.577206) scale(-1, 1) translate(-46.802963, -26.577206) "></path>
                            <path d="M2.16776557,2.21507905 L2.16776557,47.1045251 C5.96836243,47.1045251 6.33872683,47.1045251 10.5096881,47.1045251 L24.24194,47.1045251 C27.1511653,47.1045251 29.627515,48.3294102 31.5332461,50.6671391 C33.4556995,48.3287943 35.9444,47.1045251 38.8633037,47.1045251 L50.2771494,47.1045251 C55.5776162,47.1045251 55.9551238,47.1045251 60.5543487,47.1045251 L60.878083,2.21507905 C55.952061,2.21507905 55.5745378,2.21507905 50.2709926,2.21507905 L38.8509901,2.21507905 C36.0478699,2.21507905 34.3039871,3.00024264 33.3450954,4.50539881 L31.5465215,7.32858979 L29.7225845,4.52244035 C28.7352548,3.00342149 26.98206,2.21507905 24.1963071,2.21507905 C13.1820363,2.21507905 12.7900458,2.21507905 2.53185475,2.21507905 L2.16776557,2.21507905 Z M31.5283568,3.29693319 C31.8176907,2.84277061 33.0208489,-2.91365041e-13 38.8509901,-2.96611402e-13 L61.6909951,-2.96611402e-13 C62.43926,-2.91322781e-13 63.0458485,0.619827921 63.0458485,1.38442441 L63.0458485,47.9351798 C63.0458485,48.6997763 62.43926,49.3196042 61.6909951,49.3196042 L38.8633037,49.3196042 C36.3865947,49.3196042 34.3556847,50.4274611 32.7705736,52.643175 C32.2701126,53.3427339 31.3094174,53.4952797 30.624801,52.9838956 C30.4951929,52.887083 30.3812452,52.7700995 30.2871109,52.6372088 C28.7204084,50.4254724 26.7053514,49.3196042 24.24194,49.3196042 L1.35485348,49.3196042 C0.606588564,49.3196042 5.74067439e-15,48.6997763 0,47.9351798 L0,1.38442441 C-2.52082906e-16,0.619827921 0.606588564,-2.95490965e-13 1.35485348,-2.95631419e-13 L24.1963071,-2.96611402e-13 C30.3356633,-2.91365041e-13 31.2357362,2.8467329 31.5283568,3.29693319 Z" id="Rectangle-2" fill="#063F76" fill-rule="nonzero"></path>
                            <polygon id="Line" fill="#063F76" fill-rule="nonzero" points="31.9293803 52.7087481 31.9293803 5.93433189 31.1164682 5.93433189 31.1164682 52.7087481"></polygon>
                            <polygon id="Line" fill="#5494D2" fill-rule="nonzero" points="7.94860657 14.7437235 24.9653142 14.7437235 24.9653142 13.0824142 7.94860657 13.0824142"></polygon>
                            <polygon id="Line" fill="#5494D2" fill-rule="nonzero" points="7.94860657 22.0638874 24.9653142 22.0638874 24.9653142 20.4025781 7.94860657 20.4025781"></polygon>
                            <polygon id="Line" fill="#5494D2" fill-rule="nonzero" points="7.94860657 29.3840513 24.9653142 29.3840513 24.9653142 27.722742 7.94860657 27.722742"></polygon>
                            <polygon id="Line" fill="#5494D2" fill-rule="nonzero" points="7.94860657 36.7042152 24.9653142 36.7042152 24.9653142 35.0429059 7.94860657 35.0429059"></polygon>
                            <polygon id="Line" fill="#5494D2" fill-rule="nonzero" points="38.0808136 14.7437235 55.0975212 14.7437235 55.0975212 13.0824142 38.0808136 13.0824142"></polygon>
                            <polygon id="Line" fill="#5494D2" fill-rule="nonzero" points="38.0808136 22.0638874 55.0975212 22.0638874 55.0975212 20.4025781 38.0808136 20.4025781"></polygon>
                            <polygon id="Line" fill="#5494D2" fill-rule="nonzero" points="38.0808136 29.3840513 55.0975212 29.3840513 55.0975212 27.722742 38.0808136 27.722742"></polygon>
                            <polygon id="Line" fill="#5494D2" fill-rule="nonzero" points="38.0808136 36.7042152 55.0975212 36.7042152 55.0975212 35.0429059 38.0808136 35.0429059"></polygon>
                        </g>
                    </g>
                </g>
            </g>
        </g>
    </g>
</svg>