<?xml version="1.0" encoding="UTF-8"?>
<svg width="60px" height="54px" viewBox="0 0 60 54" version="1.1" xmlns="http://www.w3.org/2000/svg" xmlns:xlink="http://www.w3.org/1999/xlink">
    <!-- Generator: Sketch 46.1 (44463) - http://www.bohemiancoding.com/sketch -->
    <title>Group 37</title>
    <desc>Created with Sketch.</desc>
    <defs>
        <linearGradient x1="50%" y1="100%" x2="50%" y2="0%" id="linearGradient-1">
            <stop stop-color="#00305E" offset="0%"></stop>
            <stop stop-color="#074077" offset="100%"></stop>
        </linearGradient>
    </defs>
    <g id="Page-1" stroke="none" stroke-width="1" fill="none" fill-rule="evenodd">
        <g id="CCGS_Homepage_Update_03_08_2017" transform="translate(-770.000000, -1289.000000)">
            <g id="Group-4" transform="translate(100.000000, 693.000000)">
                <g id="Group-23" transform="translate(645.000000, 569.000000)">
                    <g id="Group-37" transform="translate(25.864964, 27.481524)">
                        <path d="M3.57192624,51.2494693 C1.67091924,52.0650517 0.762456193,51.4351628 0.846537117,49.3598027 C0.930618041,47.2844425 1.00237862,34.6222828 1.06181887,11.3733235 L1.92327008,10.0138395 L20.1333826,2.89882829 L39.2646027,10.2701808 L56.620721,3.805259 L57.7866143,4.69905088 L57.8089855,43.9763107 L55.7962308,45.4686645 L39.2646027,52.2330292 L19.7919794,44.7932974 L3.57192624,51.2494693 Z" id="Path-5" fill="#E4E3E3"></path>
                        <ellipse id="Oval-3" fill="#00305E" cx="38.6657924" cy="7.81495507" rx="4.80749026" ry="4.80920312"></ellipse>
                        <g id="Group-36" transform="translate(0.000000, 1.908139)" fill-rule="nonzero" fill="#063F76">
                            <path d="M2.03026252,48.4399655 C2.09775705,48.658883 2.24227253,48.721874 2.37027624,48.6716316 L19.8347611,41.8166953 L38.7515285,49.1617443 C38.8097744,49.1843602 38.8743984,49.1842599 38.9325738,49.1614633 L56.5232323,42.2684135 C56.6186078,42.2310398 56.6813501,42.1390928 56.6813501,42.0366963 L56.6813501,3.1694628 C56.6179418,2.9539954 56.4746368,2.8882994 56.3457106,2.93612705 L38.8339163,9.43246145 L20.1014608,2.08689525 C20.0419565,2.06356181 19.9757539,2.06399483 19.9165602,2.08810463 L2.18529992,9.31011238 C2.0915514,9.3482965 2.03026252,9.43941164 2.03026252,9.54059881 L2.03026252,48.4399655 Z M3.0983814,50.5249605 C1.94634805,50.9771419 0.645708735,50.4102233 0.193322186,49.2587124 C0.0908559333,48.9978934 0.0382579011,48.7201732 0.0382579011,48.4399655 L0.0382579011,9.54059881 C0.0382579011,8.6299143 0.589857818,7.809878 1.43359451,7.46622093 L19.1648548,0.244213175 C19.6975978,0.0272249845 20.293422,0.0233278816 20.8289603,0.233328772 L38.8536153,7.30134485 L55.6525993,1.06944104 C56.8129355,0.638992183 58.1026799,1.23025621 58.533324,2.3900662 C58.625937,2.63949139 58.6733547,2.90341334 58.6733547,3.1694628 L58.6733547,42.0366963 C58.6733547,42.9582645 58.1086743,43.785788 57.2502946,44.1221514 L39.6596361,51.0152012 C39.1360572,51.2203701 38.5544416,51.2212726 38.0302279,51.0177296 L19.8386824,43.9542716 L3.0983814,50.5249605 Z" id="Path-4"></path>
                            <polygon id="Line" points="20.2520469 43.2234904 20.2520469 0.744601339 19.5050452 0.744601339 19.5050452 43.2234904"></polygon>
                            <polygon id="Line" points="39.259091 50.6071576 39.259091 8.1282686 38.5120892 8.1282686 38.5120892 50.6071576"></polygon>
                        </g>
                        <g id="Group-35" transform="translate(31.042072, 0.000000)">
                            <path d="M11.7788069,7.81495507 C11.7788069,6.73632306 11.397357,5.81542936 10.6344458,5.05224634 C9.87153457,4.28906332 8.95096886,3.90747753 7.87272102,3.90747753 C6.79447319,3.90747753 5.87390747,4.28906332 5.11099627,5.05224634 C4.34808506,5.81542936 3.96663518,6.73632306 3.96663518,7.81495507 C3.96663518,8.89358707 4.34808506,9.81448077 5.11099627,10.5776638 C5.87390747,11.3408468 6.79447319,11.7224326 7.87272102,11.7224326 C8.95096886,11.7224326 9.87153457,11.3408468 10.6344458,10.5776638 C11.397357,9.81448077 11.7788069,8.89358707 11.7788069,7.81495507 Z M15.6848927,7.81495507 C15.6848927,8.92411439 15.5170548,9.83483247 15.1813738,10.5471366 L9.62740802,22.3611507 C9.46465363,22.6969513 9.22306871,22.9615174 8.902646,23.1548571 C8.58222329,23.3481968 8.2389184,23.4448652 7.87272102,23.4448652 C7.50652364,23.4448652 7.16321875,23.3481968 6.84279605,23.1548571 C6.52237334,22.9615174 6.28587441,22.6969513 6.13329217,22.3611507 L0.564068223,10.5471366 C0.228387293,9.83483247 0.060549345,8.92411439 0.060549345,7.81495507 C0.060549345,5.65769106 0.823449106,3.81590366 2.34927152,2.28953762 C3.87509393,0.763171574 5.71622535,0 7.87272102,0 C10.0292167,0 11.8703481,0.763171574 13.3961705,2.28953762 C14.9219929,3.81590366 15.6848927,5.65769106 15.6848927,7.81495507 Z" id="ï" fill="url(#linearGradient-1)"></path>
                            <ellipse id="Oval-3" fill="#FFFFFF" cx="7.87272102" cy="7.81495507" rx="4.20655398" ry="4.20805273"></ellipse>
                        </g>
                    </g>
                </g>
            </g>
        </g>
    </g>
</svg>