<?xml version="1.0" standalone="no"?>
<!DOCTYPE svg PUBLIC "-//W3C//DTD SVG 1.1//EN" "http://www.w3.org/Graphics/SVG/1.1/DTD/svg11.dtd" >
<svg xmlns="http://www.w3.org/2000/svg">
<metadata></metadata>
<defs>
<font id="CheltenhamFSRegular" horiz-adv-x="956" >
<font-face units-per-em="2048" ascent="1597" descent="-451" />
<missing-glyph horiz-adv-x="512" />
<glyph unicode="&#xfb01;" horiz-adv-x="1060" d="M72 0v45q2 14 8 21.5t22 11.5q29 8 40 11.5t20 16.5t9.5 28t0.5 52v639h-100v45q0 17 8.5 22.5t50.5 16.5q31 7 38 25.5t13 103.5q10 174 102.5 263.5t260.5 89.5q137 0 228 -43t91 -107q0 -35 -25.5 -59.5t-62.5 -24.5q-32 0 -52.5 17t-39.5 57q-34 72 -137 72 q-68 0 -117.5 -32.5t-62.5 -86.5q-11 -45 -11 -191v-65h537v-729q0 -73 8 -88.5t55 -30.5q20 -6 26.5 -13t6.5 -24v-43h-375v49q3 17 10.5 22t39.5 13q24 10 31.5 18.5t10.5 27t3 69.5v542q0 59 -17 71.5t-96 12.5h-240v-626q0 -72 16 -93t77 -28q10 -1 17 -11t7 -22v-45 h-401z" />
<glyph unicode="&#xfb02;" horiz-adv-x="1067" d="M72 0v43q3 21 12 27.5t45 15.5q29 11 36 25.5t7 68.5v645h-100v47q0 15 9.5 21t51.5 18q31 9 38.5 30t10.5 101q4 161 94.5 255t239.5 94q49 0 85 -9.5t89 -35.5l205 45v-1196l2 -54q2 -25 13.5 -36.5t47.5 -20.5q25 -6 31 -12.5t6 -26.5v-45h-385v49q2 14 12 20t46 15 q31 12 37 27.5t6 85.5v821q0 111 -2.5 137t-14.5 53q-20 45 -61 70t-96 25q-63 0 -107 -31t-61 -88q-8 -27 -10.5 -57t-2.5 -130v-69h158v-103h-158v-663q0 -39 13.5 -57.5t46.5 -22.5q38 -5 47.5 -10t9.5 -25v-47h-401z" />
<glyph unicode="&#xfb03;" horiz-adv-x="1677" d="M72 0v43q0 35 43 41q27 4 42 21t15 42v678h-100v43q0 29 26 39q50 8 62.5 28.5t17.5 96.5q8 128 78 209q60 69 152 110.5t186 41.5q71 0 136 -22t165 -79q87 59 152 80t163 21q118 0 190.5 -41t72.5 -109q0 -38 -25.5 -63t-63.5 -25q-65 0 -86 70q-14 47 -35.5 63.5 t-72.5 16.5q-71 0 -130.5 -31.5t-90.5 -85.5q-22 -40 -29.5 -92t-7.5 -168h209q179 0 246 2.5t116 11.5v-795q0 -48 47 -59q8 -4 11 -4q23 -8 33 -16.5t10 -24.5v-43h-379v43q0 12 6 20.5t12.5 12t18.5 8.5q1 1 4.5 2t5.5 2q47 9 47 59v678h-387v-678q0 -25 15.5 -43.5 t39.5 -19.5l29 -2q12 -1 21.5 -13t9.5 -26v-43h-400v43q0 19 10.5 28t32.5 13q58 11 58 63v678h-398v-678q0 -6 10.5 -24t16.5 -23q3 -3 17.5 -9.5t17.5 -6.5l26 -2q13 -1 23 -13t10 -26v-43h-399zM352 928h355q31 0 41 26q2 4 4 70q3 72 14 105.5t49 87.5q-58 49 -104 68.5 t-103 19.5q-118 0 -187 -80t-69 -217v-80z" />
<glyph unicode="&#xfb04;" horiz-adv-x="1681" d="M72 0v43q0 34 43 41q57 9 57 63v678h-100v43q0 34 39 41q44 13 53 30.5t14 92.5q8 127 82 213q60 69 151 108.5t187 39.5q75 0 141.5 -22t159.5 -79q81 54 137 72t140 18q58 0 157 -16h176v-1219q0 -28 14.5 -42t51.5 -23q35 -8 35 -39v-43h-387v43q0 34 45 41 q57 9 57 63v902q0 90 -4 127.5t-16 60.5q-15 26 -49 41.5t-74 15.5q-50 0 -99 -21.5t-82 -55.5q-67 -76 -67 -226q0 -36 2 -63h151v-103h-155v-678q0 -25 15.5 -43.5t39.5 -19.5l27 -2q12 -1 21 -13t9 -26v-43h-397v43q0 19 10.5 28t32.5 13q58 11 58 63v678h-392v-678 q0 -25 16 -43.5t40 -19.5l26 -2q13 -1 23 -13t10 -26v-43h-399zM354 1006l2 -78h353q35 0 41 28q2 7 8 72q4 53 9.5 77.5t15.5 47t38 66.5q-72 51 -115 68.5t-96 17.5q-68 0 -125 -29t-86 -78q-25 -41 -38.5 -96.5t-6.5 -95.5z" />
<glyph horiz-adv-x="0" />
<glyph horiz-adv-x="2048" />
<glyph unicode=" "  horiz-adv-x="512" />
<glyph unicode="&#x09;" horiz-adv-x="512" />
<glyph unicode="&#xa0;" horiz-adv-x="512" />
<glyph unicode="!" horiz-adv-x="532" d="M150 98q0 48 34.5 82.5t83.5 34.5q47 0 82 -35t35 -82q0 -49 -34.5 -83.5t-84.5 -34.5q-48 0 -82 34.5t-34 83.5zM154 1237q0 77 28.5 120.5t79.5 43.5q28 0 49 -11.5t35 -33.5t21.5 -54.5t7.5 -74.5q0 -67 -19 -189q-33 -229 -47 -489l-8 -156h-74l-10 187 q-5 97 -11 163t-13 122.5t-11 105.5q-8 69 -24 198q-4 46 -4 68z" />
<glyph unicode="&#x22;" horiz-adv-x="681" d="M82 1319q0 41 19.5 57.5t70.5 16.5q53 0 70.5 -16.5t17.5 -65.5q0 -40 -22 -193t-43 -256h-50q-25 132 -44 271t-19 186zM424 1319q0 41 19.5 57.5t70.5 16.5q53 0 70.5 -16.5t17.5 -65.5q0 -40 -22 -194t-43 -255h-50q-26 132 -44.5 269t-18.5 188z" />
<glyph unicode="#" d="M-72 510l17 59h278l66 226h-277l19 59h272l88 305h119l-86 -305h213l86 305h117l-84 -305h272l-16 -59h-271l-65 -226h266l-16 -59h-269l-90 -305h-121l91 305h-209l-84 -305h-121l84 305h-279zM346 569h209l63 226h-208z" />
<glyph unicode="$" d="M82 362q0 51 30 84t76 33q43 0 72 -29.5t29 -72.5q0 -41 -35 -76q-16 -19 -16 -37q0 -46 59 -83t137 -38v506q-76 32 -117.5 56t-76.5 55q-107 98 -107 241q0 121 81.5 208.5t219.5 113.5v182h92v-178q121 -17 183 -55q55 -32 86.5 -78t31.5 -92q0 -43 -27 -72t-67 -29 q-39 0 -64.5 24.5t-25.5 61.5q0 10 8 40t8 42q0 37 -37.5 61.5t-95.5 24.5v-434q114 -45 154.5 -65.5t73.5 -50.5q54 -49 83 -118t29 -145q0 -141 -93 -242.5t-247 -127.5v-148h-92v146q-149 16 -241 88q-53 41 -82 95t-29 109zM258 1042q0 -128 176 -190l2 397 q-81 -15 -129.5 -72t-48.5 -135zM526 145q95 10 155 73t60 151q0 86 -56.5 150t-158.5 93v-467z" />
<glyph unicode="%" horiz-adv-x="1398" d="M72 1075q0 135 91.5 226.5t227.5 91.5q135 0 223 -88.5t88 -223.5q0 -137 -89 -229t-222 -92q-141 0 -230 88.5t-89 226.5zM137 0l1008 1366h104l-1005 -1366h-107zM215 1085q0 -135 45.5 -206.5t130.5 -71.5q82 0 127 72t45 202q0 128 -44.5 197.5t-127.5 69.5 t-129.5 -69.5t-46.5 -193.5zM696 276q0 135 92 226.5t228 91.5q135 0 223 -88t88 -223q0 -138 -89 -231t-222 -93q-141 0 -230.5 88.5t-89.5 228.5zM840 287q0 -135 45.5 -208t130.5 -73q82 0 127 72t45 203q0 129 -44.5 198.5t-127.5 69.5t-129.5 -69t-46.5 -193z" />
<glyph unicode="&#x26;" horiz-adv-x="1488" d="M61 381q0 160 140 276q43 36 93.5 62.5t147.5 64.5q-50 104 -69 168t-19 127q0 143 98 235.5t250 92.5q132 0 220 -76.5t88 -191.5q0 -117 -89 -209t-253 -144q160 -268 303 -450q92 119 92 211q0 39 -20.5 61t-71.5 35q-16 5 -20.5 11t-4.5 24v45h402v-45 q0 -20 -7.5 -29.5t-29.5 -15.5q-64 -17 -93 -50.5t-88 -156.5q-30 -62 -75 -127l-25 -35q67 -91 137 -141.5t127 -50.5q64 0 113 49l47 -58q-97 -90 -231 -90q-88 0 -165 35.5t-157 112.5q-161 -148 -375 -148q-196 0 -330.5 118t-134.5 290zM266 430q0 -152 95.5 -253 t238.5 -101q146 0 240 94q-20 33 -44.5 67.5t-55.5 75.5t-48 64q-17 21 -160 250l-51 82q-111 -41 -163 -108.5t-52 -170.5zM532 1149q0 -41 19 -107t47 -118l35 -68q129 54 182 116t53 158q0 91 -49 147t-127 56q-71 0 -115.5 -51t-44.5 -133z" />
<glyph unicode="'" horiz-adv-x="342" d="M82 1319q0 41 19.5 57.5t70.5 16.5q53 0 70.5 -16.5t17.5 -65.5q0 -40 -22 -193t-43 -256h-50q-25 132 -44 271t-19 186z" />
<glyph unicode="(" horiz-adv-x="763" d="M61 504q0 276 122.5 510.5t326.5 353.5q107 61 233 66v-68q-144 -11 -237 -84q-126 -98 -200.5 -304.5t-74.5 -455.5q0 -303 102 -521.5t279 -293.5q68 -26 131 -35v-67q-151 14 -294 110q-183 122 -285.5 329.5t-102.5 459.5z" />
<glyph unicode=")" horiz-adv-x="763" d="M20 -328q65 9 132 35q177 75 278.5 293.5t101.5 521.5q0 264 -83 478t-220 303q-84 55 -209 63v68q82 -5 143 -24.5t128 -63.5q192 -127 301.5 -352.5t109.5 -489.5q0 -267 -114 -482.5t-316 -330.5q-131 -75 -252 -86v67z" />
<glyph unicode="*" d="M137 1112q0 38 19 66t45 28q58 0 250 -125q-17 62 -32.5 139t-15.5 103q0 38 17.5 54t58.5 16t58.5 -16t17.5 -54q0 -26 -15 -103.5t-32 -138.5q192 125 250 125q26 0 44.5 -28.5t18.5 -65.5q0 -19 -6 -28.5t-24 -18.5q-23 -12 -99.5 -23.5t-167.5 -15.5 q96 -74 148.5 -130t52.5 -83q0 -23 -32 -50.5t-60 -27.5q-57 0 -154 258q-94 -260 -153 -260q-28 0 -60.5 27.5t-32.5 50.5q0 54 199 215q-90 3 -169 15t-101 26q-25 17 -25 45z" />
<glyph unicode="+" d="M76 602v137h334v353h137v-353h334v-137h-334v-344h-137v344h-334z" />
<glyph unicode="," horiz-adv-x="477" d="M123 98q0 49 35 85t82 36q51 0 83.5 -37t32.5 -94q0 -227 -168 -389l-45 55q111 120 117 228q-12 -2 -27 -2q-43 0 -76.5 36t-33.5 82z" />
<glyph unicode="-" horiz-adv-x="436" d="M0 385v158h436v-158h-436z" />
<glyph unicode="." horiz-adv-x="477" d="M123 98q0 48 35 82.5t84 34.5q47 0 81.5 -35t34.5 -82q0 -50 -34 -84t-84 -34q-48 0 -82.5 34.5t-34.5 83.5z" />
<glyph unicode="/" horiz-adv-x="780" d="M-14 -395l579 1761h105l-574 -1761h-110z" />
<glyph unicode="0" d="M47 676q0 327 116 521t312 194q204 0 318 -189.5t114 -527.5q0 -209 -53.5 -370.5t-151 -251t-223.5 -89.5q-128 0 -226 88.5t-152 250.5t-54 374zM254 707q0 -365 51.5 -521.5t171.5 -156.5q90 0 141 80q40 62 64.5 213t24.5 337q0 112 -11.5 253.5t-25.5 205.5 q-25 107 -71 158t-118 51q-121 0 -174 -145t-53 -475z" />
<glyph unicode="1" d="M205 1190v57l280 119h111v-1176q0 -58 18.5 -75.5t90.5 -24.5q32 -4 46.5 -14t14.5 -37v-39h-520v39q0 26 13.5 36.5t43.5 14.5l27 4q51 8 66.5 26t15.5 70v1000h-207z" />
<glyph unicode="2" d="M51 0v121q48 77 168 217l238 274q107 122 153.5 222.5t46.5 205.5q0 128 -63.5 205.5t-167.5 77.5q-74 0 -131 -41.5t-57 -95.5q0 -19 6.5 -30t31.5 -36q27 -24 27 -67q0 -40 -29.5 -67.5t-70.5 -27.5q-54 0 -89.5 42t-35.5 104q0 117 113.5 202t267.5 85 q184 0 298.5 -102.5t114.5 -266.5t-129 -305q-51 -56 -89 -90t-148 -123q-82 -64 -170 -156.5t-148 -175.5h424q68 0 100.5 19.5t57.5 74.5q13 31 41 31h45l-12 -297h-793z" />
<glyph unicode="3" d="M31 221q0 50 36.5 84.5t88.5 34.5q51 0 81.5 -28t30.5 -74q0 -37 -24 -70q-15 -18 -15 -31q0 -40 52 -70t122 -30q123 0 201 89.5t78 229.5q0 167 -86 256q-78 84 -246 84h-39v72q94 9 131 17t70 26q123 63 123 236q0 124 -64.5 201t-167.5 77q-63 0 -108 -27t-45 -65 q0 -12 4.5 -22t24.5 -40q14 -25 14 -51q0 -38 -33.5 -67t-77.5 -29q-50 0 -85.5 38.5t-35.5 92.5q0 101 108 171.5t263 70.5q177 0 294.5 -95.5t117.5 -240.5q0 -90 -45.5 -164.5t-124.5 -114.5q-52 -28 -193 -47q195 -12 305.5 -106.5t110.5 -249.5q0 -114 -64 -208 t-177 -148t-250 -54q-157 0 -266 73t-109 179z" />
<glyph unicode="4" d="M27 381v88l608 920h123v-920h172v-88h-172v-191q0 -66 8.5 -81t54.5 -27q28 -6 35.5 -13.5t7.5 -29.5v-39h-418v39q0 20 9.5 28.5t36.5 14.5q51 10 63 28t12 80v191h-540zM141 469h426v641z" />
<glyph unicode="5" d="M43 221q0 51 35 86t86 35q44 0 76 -31t32 -75q0 -24 -6.5 -37.5t-27.5 -34.5q-15 -15 -15 -33q0 -40 50.5 -70t117.5 -30q131 0 207 101.5t76 277.5q0 163 -74.5 259.5t-200.5 96.5q-61 0 -120 -29t-103 -82l-65 35l24 676h512q36 0 54.5 10t33.5 37q6 12 13 16.5t22 4.5 h37l-10 -246h-570l-16 -412q115 88 248 88q183 0 305.5 -120t122.5 -300q0 -209 -139 -345t-351 -136q-150 0 -252 74.5t-102 183.5z" />
<glyph unicode="6" d="M59 608q0 224 70.5 403t197 279.5t285.5 100.5q107 0 178.5 -52.5t71.5 -130.5q0 -51 -31 -82.5t-81 -31.5q-46 0 -76.5 27t-30.5 67q0 12 8 43q2 6 2 16q0 31 -24.5 50.5t-61.5 19.5q-106 0 -178.5 -103t-103.5 -299q-19 -114 -19 -194q73 61 134 85.5t137 24.5 q163 0 267.5 -115.5t104.5 -295.5q0 -194 -117 -325.5t-290 -131.5q-204 0 -323.5 173t-119.5 472zM260 535q-7 -240 55.5 -370t178.5 -130q103 0 160 93.5t57 262.5q0 177 -53.5 262.5t-163.5 85.5q-72 0 -137.5 -37.5t-94.5 -97.5z" />
<glyph unicode="7" d="M109 1085l14 306q97 -25 199 -25h565v-131l-115 -207q-129 -232 -178 -396t-49 -368q0 -68 4 -119q1 -14 2 -27t1.5 -20t0.5 -10q0 -58 -30 -91.5t-83 -33.5q-121 0 -121 170q0 133 80 335.5t250 504.5l127 225h-416q-53 0 -71.5 -3.5t-40.5 -16.5q-10 -6 -15.5 -13 t-27.5 -47q-18 -33 -43 -33h-53z" />
<glyph unicode="8" d="M31 328q0 107 64.5 180t244.5 170q-250 127 -250 348q0 158 115.5 261.5t292.5 103.5q160 0 265 -91t105 -229q0 -141 -110 -231q-35 -28 -144 -92q104 -52 138 -73t65 -50q107 -104 107 -246q0 -183 -129 -299.5t-330 -116.5q-189 0 -311.5 103.5t-122.5 261.5zM184 311 q0 -127 75 -200.5t206 -73.5q135 0 211 68t76 188q0 95 -52.5 160t-177.5 125l-110 53q-126 -72 -177 -144t-51 -176zM254 1098q0 -168 209 -273l69 -34q101 64 141 124.5t40 153.5q0 114 -63 182t-169 68q-103 0 -165 -60.5t-62 -160.5z" />
<glyph unicode="9" d="M41 940q0 195 118 323t298 128q214 0 330 -167.5t116 -475.5q0 -219 -58 -390t-167 -272q-132 -123 -297 -123q-121 0 -204 57t-83 140q0 46 33 78t80 32q43 0 71.5 -26.5t28.5 -67.5q0 -16 -14 -49q-2 -4 -2 -16q0 -34 30.5 -56t77.5 -22q77 0 137 55t93.5 142.5 t50 181.5t16.5 186v35q-74 -62 -136 -87.5t-140 -25.5q-163 0 -271 119.5t-108 300.5zM233 952q0 -167 59 -255.5t169 -88.5q114 0 237 123q0 318 -56.5 455t-188.5 137q-105 0 -162.5 -96.5t-57.5 -274.5z" />
<glyph unicode=":" horiz-adv-x="477" d="M123 98q0 48 35 82.5t84 34.5q47 0 81.5 -35t34.5 -82q0 -50 -34 -84t-84 -34q-48 0 -82.5 34.5t-34.5 83.5zM123 807q0 48 35 82.5t84 34.5q47 0 81.5 -35t34.5 -82q0 -50 -34.5 -84.5t-83.5 -34.5q-48 0 -82.5 35t-34.5 84z" />
<glyph unicode=";" horiz-adv-x="477" d="M123 98q0 49 35 85t82 36q51 0 83.5 -37t32.5 -94q0 -227 -168 -389l-45 55q111 120 117 228q-12 -2 -27 -2q-43 0 -76.5 36t-33.5 82zM123 807q0 48 35 82.5t84 34.5q47 0 81.5 -35t34.5 -82q0 -50 -34.5 -84.5t-83.5 -34.5q-48 0 -82.5 35t-34.5 84z" />
<glyph unicode="&#x3c;" horiz-adv-x="1024" d="M86 711v14l852 545v-94l-598 -388l598 -403v-248z" />
<glyph unicode="=" d="M47 481v137h860v-137h-860zM47 729v137h860v-137h-860z" />
<glyph unicode="&#x3e;" horiz-adv-x="1024" d="M86 137v94l598 387l-598 402v250l852 -576v-14z" />
<glyph unicode="?" horiz-adv-x="800" d="M55 1161q0 101 93 170.5t229 69.5q156 0 262 -92t106 -226q0 -106 -65 -192q-26 -32 -47.5 -53.5t-100.5 -92.5q-75 -68 -110 -138.5t-35 -157.5v-68h-76v68q0 96 20.5 154t88.5 155q67 96 93 164t26 145q0 114 -57.5 188t-145.5 74q-52 0 -92.5 -24.5t-40.5 -55.5 q0 -19 24 -28q56 -26 56 -84q0 -44 -32.5 -74.5t-78.5 -30.5q-51 0 -84 36t-33 93zM244 84q0 48 34.5 82.5t83.5 34.5q47 0 82 -35t35 -82q0 -50 -34.5 -84.5t-84.5 -34.5q-47 0 -81.5 35t-34.5 84z" />
<glyph unicode="@" horiz-adv-x="1527" d="M76 508q0 146 58.5 280t157 231t234 154.5t283.5 57.5q173 0 322 -80t236 -216.5t87 -295.5q0 -135 -70.5 -260t-187 -201t-242.5 -76q-66 0 -103 29t-40 84q-76 -63 -126 -86t-107 -23q-100 0 -161 69t-61 181q0 88 32 186t87 181q64 95 151 147t181 52q57 0 96 -17.5 t82 -62.5l19 43h184l-221 -574q-23 -61 -23 -82q0 -15 13 -25.5t32 -10.5q63 0 132 40.5t126 110.5q103 128 103 283q0 134 -73.5 249t-199 182.5t-270.5 67.5q-125 0 -240.5 -50t-199 -134t-133.5 -199.5t-50 -242.5q0 -254 195 -434q177 -162 403 -162q242 0 422 157 q63 55 131 154h92q-45 -95 -83 -147.5t-97 -104.5q-193 -168 -461 -168q-144 0 -275.5 57t-226.5 152.5t-151.5 227.5t-56.5 276zM526 289q0 -42 19 -65t53 -23q103 0 193 161q37 70 86 198t55 173q5 35 -18.5 63.5t-57.5 28.5q-40 0 -88 -38t-94 -105q-62 -90 -105 -204 t-43 -189z" />
<glyph unicode="A" horiz-adv-x="1333" d="M20 0v39q0 18 10 27.5t36 15.5q36 9 60.5 36.5t51.5 92.5l389 952l-47 119q-4 16 -4 18q0 16 29 35l104 64q16 10 21 10t10 -14l510 -1227q22 -53 38 -67.5t62 -28.5q23 -9 23 -33v-39h-436v39q0 15 9 23t32 14q35 10 48 21t13 30q0 27 -23 84l-69 170h-539l-57 -150 q-25 -65 -25 -90q0 -26 14.5 -39.5t53.5 -25.5q19 -6 26 -14t7 -23v-39h-347zM387 473h459l-230 567z" />
<glyph unicode="B" horiz-adv-x="1253" d="M88 0v35q0 20 9.5 27t35.5 16q25 8 38.5 19t19.5 27.5t6 43.5v1028q0 42 -6.5 54t-34.5 24l-23 14q-19 6 -26 9t-13 11.5t-6 22.5v35h612q91 0 147 -14t107 -49q66 -46 103 -112.5t37 -141.5q0 -130 -94 -217t-265 -115q186 -16 275 -66q168 -94 168 -274 q0 -87 -47.5 -165t-135.5 -138q-110 -74 -293 -74h-614zM397 92h271q132 0 208 79t76 216q0 41 -8.5 78t-25.5 67.5t-42 55t-57 41.5q-21 10 -53 18t-73.5 12.5t-84.5 4.5h-211v-572zM397 756h199q132 0 209.5 72.5t77.5 195.5q0 114 -65.5 182t-174.5 68h-246v-518z" />
<glyph unicode="C" horiz-adv-x="1212" d="M76 678q0 151 46 285.5t125 230.5t189.5 151.5t235.5 55.5q136 0 266 -78q43 -27 61 -27q21 0 31 29h76v-356h-57q-14 0 -23 5.5t-16.5 20t-16.5 43.5q-51 151 -122.5 217t-186.5 66q-180 0 -281.5 -167.5t-101.5 -463.5q0 -288 115 -456t313 -168q49 0 93 11.5t76.5 28 t68 47.5t60 57t60.5 69l64 -50q-95 -140 -203 -202t-256 -62q-176 0 -316.5 91.5t-220 254.5t-79.5 367z" />
<glyph unicode="D" horiz-adv-x="1359" d="M88 0v35q0 15 6 23t27 18l49 26q17 9 22 22t5 46v1028q0 49 -15 64q-32 21 -63 30q-21 8 -26 14t-5 25v35h578q182 0 321 -92q299 -202 299 -569q0 -206 -94.5 -375t-263.5 -264q-73 -40 -141 -53t-212 -13h-487zM397 92h156q139 0 214.5 24t137.5 87q73 73 114.5 205 t41.5 292q0 260 -114.5 417t-303.5 157h-246v-1182z" />
<glyph unicode="E" horiz-adv-x="1155" d="M88 0v35q0 32 45 41q43 17 53.5 32t10.5 58v1032q0 41 -6.5 53.5t-34.5 24.5l-23 12q-23 9 -34 18.5t-11 24.5v35h776q86 0 142 27v-330h-52q-17 0 -26 9t-21 38q-25 59 -41.5 87.5t-44.5 48t-61.5 24t-95.5 4.5h-267v-512h119q92 0 127 18.5t47 77.5q9 27 33 27h53v-357 h-53q-17 0 -27 10.5t-20 41.5q-20 57 -49 73.5t-111 16.5h-119v-578h277q115 0 172.5 17t89.5 60.5t55 137.5q6 26 17.5 36.5t33.5 10.5h43v-354h-997z" />
<glyph unicode="F" horiz-adv-x="1071" d="M88 0v35q0 13 5.5 21t15 12.5t24.5 7.5q28 5 41.5 13.5t18 24.5t4.5 48v1042q0 48 -14 63.5t-60 24.5q-35 11 -35 39v35h719q139 0 209 27v-344h-62h-1q-23 0 -31.5 13t-36.5 93q-1 4 -2 6q-20 60 -61.5 86.5t-116.5 26.5h-308v-514h127q34 0 54 1t39.5 5t29.5 9.5 t21.5 18.5t20 27.5t20.5 40.5q13 23 36 23h56v-355h-53q-23 0 -31.5 10t-30.5 62q-10 25 -26.5 39t-43 20.5t-69.5 6.5h-150v-506q0 -49 13.5 -64t60.5 -24q33 -5 33 -39v-35h-416z" />
<glyph unicode="G" horiz-adv-x="1329" d="M76 662q0 360 231 571q177 160 383 160q152 0 273 -86q39 -25 53 -25q20 0 33 18q0 1 4 9h73v-355h-65q-22 0 -34.5 18.5t-29.5 74.5q-26 85 -51 129t-65 75q-72 60 -185 60q-188 0 -291.5 -166.5t-103.5 -468.5q0 -312 114.5 -474.5t334.5 -162.5q146 0 206 82 q25 34 35 81.5t10 133.5q0 117 -17.5 153.5t-86.5 65.5q-25 9 -25 35v53h345q-16 -29 -20.5 -47t-4.5 -53v-334q0 -27 13.5 -37t47.5 -16v-41q0 -18 -8 -27.5t-39 -28.5q-77 -44 -194.5 -72t-231.5 -28q-245 0 -418 104q-140 82 -213 235t-73 364z" />
<glyph unicode="H" horiz-adv-x="1406" d="M88 0v35q0 32 45 41q28 5 41.5 13.5t18 24.5t4.5 48v1040q0 49 -13 63.5t-59 26.5q-20 6 -25 13q-12 18 -12 26v35h414v-35q0 -21 -9 -28.5t-32 -12.5q-41 -7 -52.5 -23.5t-11.5 -64.5v-454h611v454q0 50 -13.5 65.5t-60.5 24.5q-18 3 -25.5 12t-7.5 27v35h416v-35 q0 -21 -10 -29t-35 -12q-39 -6 -51.5 -23.5t-12.5 -64.5v-1040q0 -49 13.5 -64t60.5 -24q35 -6 35 -39v-35h-416v35q0 21 9.5 28.5t33.5 12.5q21 4 33 9t19.5 15t9.5 24t2 38v493h-611v-493q0 -49 13.5 -64t60.5 -24q31 -5 31 -39v-35h-414z" />
<glyph unicode="I" horiz-adv-x="593" d="M88 0v35q0 21 10 29t35 12q27 4 40.5 12.5t18.5 25t5 48.5v1042q0 35 -7.5 52t-21.5 24t-47 12q-18 3 -25.5 12t-7.5 27v35h418v-35q0 -33 -45 -41q-41 -11 -52.5 -25.5t-11.5 -60.5v-1042q0 -48 14.5 -64t61.5 -24q33 -9 33 -39v-35h-418z" />
<glyph unicode="J" horiz-adv-x="833" d="M27 129q0 51 32.5 85t81.5 34q43 0 75 -26.5t32 -61.5q0 -10 -12 -45q-3 -9 -3 -19q0 -26 23 -41.5t61 -15.5q62 0 99 43q22 26 28.5 58t6.5 106v958q0 41 -10 56t-42 26l-37 12q-18 3 -18 33v35h416v-35q0 -15 -6 -23t-23 -12l-35 -10q-26 -7 -35.5 -24.5t-9.5 -57.5 v-911q0 -101 -26.5 -160.5t-92.5 -105.5q-96 -68 -245 -68q-114 0 -187 48t-73 122z" />
<glyph unicode="K" horiz-adv-x="1337" d="M88 0v35q0 13 5.5 21t15 12.5t24.5 7.5q28 5 41.5 13.5t18 24.5t4.5 48v1042q0 47 -14 64t-58 24q-17 6 -21 13l-16 26v35h412v-35q0 -20 -8.5 -27.5t-32.5 -13.5q-40 -11 -51 -26t-11 -60v-434l451 410q14 14 27.5 35.5t13.5 31.5q0 26 -66 39q-43 8 -43 35v45h437v-45 q0 -14 -9.5 -19t-64.5 -20q-60 -20 -144 -98l-419 -385l577 -633q49 -54 66 -66.5t51 -21.5q24 -6 30.5 -13.5t6.5 -29.5v-35h-492v35q0 19 7 27.5t26 11.5q37 8 52.5 18t15.5 29q0 22 -23 45l-500 545v-549q0 -47 13 -62t57 -26q20 -4 26.5 -12.5t6.5 -26.5v-35h-412z" />
<glyph unicode="L" horiz-adv-x="1093" d="M88 0v35q0 13 5 21.5t14 12.5t26 7q19 5 31 12t19.5 17.5t10.5 25t3 35.5v1038q0 25 -3 39.5t-12 24.5t-22.5 15t-38.5 9q-33 9 -33 39v35h416v-35q0 -14 -5 -22.5t-13.5 -12t-24.5 -6.5q-41 -7 -52.5 -23.5t-11.5 -62.5v-1112h260q162 0 232 51q32 23 47.5 53t32.5 103 q6 26 16 35.5t31 9.5h51v-344h-979z" />
<glyph unicode="M" horiz-adv-x="1675" d="M88 0v33q0 29 6.5 37t40.5 22t48 49.5t14 108.5v954q0 50 -16 66t-64 22q-29 6 -29 39v35h375l383 -1047l381 1047h360v-35q0 -15 -6 -24t-14.5 -12t-24.5 -5q-36 -4 -49.5 -22.5t-13.5 -63.5v-1042q0 -45 13.5 -64t49.5 -22l21 -2q24 -3 24 -39v-35h-418v35 q0 19 10.5 27.5t34.5 13.5q41 7 52.5 23.5t11.5 62.5v1046l-434 -1208h-107l-436 1208v-929q0 -67 10 -119q6 -31 18 -46.5t40 -27.5q30 -12 35.5 -19t5.5 -34v-33h-322z" />
<glyph unicode="N" horiz-adv-x="1392" d="M88 0v33q0 24 5 32.5t22 16.5q37 18 53 35.5t22.5 46.5t6.5 88v952q0 50 -16 66t-64 22q-29 6 -29 39v35h361l641 -967v748q0 66 -15.5 92t-64.5 45q-25 11 -29 41v41h322v-41q-3 -19 -9 -25t-26 -12q-42 -17 -58 -55.5t-16 -122.5v-1110h-90l-803 1212v-893 q0 -107 12 -169q6 -25 18.5 -38.5t41.5 -25.5q25 -9 31 -18t6 -35v-33h-322z" />
<glyph unicode="O" horiz-adv-x="1415" d="M76 690q0 186 73 343t203 249q169 119 365 119q181 0 323.5 -90.5t221.5 -253t79 -369.5q0 -202 -83.5 -368t-229.5 -260.5t-323 -94.5q-132 0 -249 55.5t-200 151.5t-131.5 230.5t-48.5 287.5zM301 684q0 -326 115 -500q93 -139 295 -139q405 0 405 631 q0 315 -102.5 480t-300.5 165t-305 -165t-107 -472z" />
<glyph unicode="P" horiz-adv-x="1161" d="M88 0v35q0 19 11 27.5t34 13.5q41 7 52.5 23.5t11.5 62.5v1036q0 49 -15 64q-34 21 -61 30q-20 6 -26.5 14t-6.5 25v35h594q96 0 151 -13.5t107 -49.5q168 -117 168 -287q0 -98 -51.5 -182t-145.5 -136q-104 -59 -266 -59h-248v-477q0 -48 14 -63t64 -25q20 -6 25.5 -13 t5.5 -26v-35h-418zM397 731h199q141 0 219 70.5t78 197.5q0 123 -70 199t-184 76h-242v-543z" />
<glyph unicode="Q" horiz-adv-x="1417" d="M76 682q0 203 83 365.5t231 254t333 91.5q174 0 315.5 -91.5t222 -252.5t80.5 -359q0 -195 -78 -364t-210 -258q-69 -47 -138 -70.5t-165 -30.5q82 -15 251 -106q130 -72 207 -72q43 0 95 39l24 -43q4 -8 4 -12q0 -9 -22 -28.5t-56 -39.5q-74 -45 -166 -45 q-108 0 -202 61q-41 25 -59.5 41.5t-100.5 98.5q-60 60 -85 76t-99 43q-44 16 -104.5 47.5t-94.5 58.5q-126 93 -196 251t-70 345zM301 696q0 -326 105 -494.5t307 -168.5q200 0 302.5 155t102.5 457q0 333 -102 498q-109 170 -309 170q-196 0 -301 -159.5t-105 -457.5z" />
<glyph unicode="R" horiz-adv-x="1292" d="M88 0v35q0 22 10 29.5t35 11.5q39 6 51.5 23t12.5 63v1034q0 48 -15 66q-46 25 -61 30q-20 6 -26.5 14t-6.5 25v35h584q179 0 282 -66q164 -105 164 -274q0 -141 -111 -233t-298 -105q52 -7 87.5 -33t69.5 -82l244 -399q30 -50 52.5 -68t60.5 -24q29 -4 38 -12.5t9 -28.5 v-41h-291l-264 446q-72 124 -129 177q-34 34 -88 34h-101v-495q0 -48 14.5 -64t61.5 -24q20 -6 26.5 -14t6.5 -25v-35h-418zM397 750h197q140 0 219.5 71.5t79.5 198.5q0 114 -67.5 184t-176.5 70h-252v-524z" />
<glyph unicode="S" horiz-adv-x="1011" d="M76 -14v356h57q17 0 28 -12.5t25 -46.5q30 -69 49 -100.5t46 -57.5q87 -84 219 -84q128 0 212.5 77.5t84.5 194.5q0 93 -62 168q-36 40 -80.5 65t-144.5 60q-216 75 -311 173t-95 247q0 155 111 261t272 106q109 0 201 -60q29 -20 43 -20q18 0 41 26h74v-309h-51 q-20 0 -33.5 12.5t-26.5 44.5q-45 111 -67 142q-63 84 -189 84q-98 0 -161.5 -59.5t-63.5 -151.5q0 -81 53.5 -134t186.5 -106q245 -96 303 -141q70 -55 109.5 -138t39.5 -175q0 -187 -129.5 -318t-314.5 -131q-49 0 -94 9.5t-129 37.5q-55 17 -64 17q-31 0 -49 -37h-90z " />
<glyph unicode="T" horiz-adv-x="1183" d="M27 1051v342q35 -15 69.5 -21t98.5 -6h798q90 0 162 27v-342h-47q-25 0 -36 14.5t-50 101.5q-31 65 -73 86t-140 21h-117v-1112q0 -44 14.5 -63.5t51.5 -22.5l22 -2q33 -7 33 -39v-35h-442v35q0 23 13.5 30.5t43.5 10.5q36 3 50 22t14 64v1112h-130q-107 0 -156.5 -35 t-72.5 -129q-14 -59 -43 -59h-63z" />
<glyph unicode="U" horiz-adv-x="1372" d="M76 1331v35h418v-35q0 -21 -9.5 -28.5t-33.5 -12.5q-42 -9 -54 -24.5t-12 -61.5v-823q0 -146 89.5 -230.5t242.5 -84.5q106 0 190.5 42.5t130.5 118.5q26 45 36.5 95t10.5 139v665q0 85 -15.5 118t-59.5 40q-29 4 -36 13.5t-7 37.5v31h331v-37q0 -26 -11 -35.5t-52 -21.5 q-26 -8 -35.5 -41.5t-9.5 -122.5v-696q0 -194 -131 -322q-131 -125 -375 -125q-237 0 -368.5 119t-131.5 334v794q0 42 -15.5 57.5t-59.5 22.5q-33 5 -33 39z" />
<glyph unicode="V" horiz-adv-x="1302" d="M20 1325v41h408v-41q0 -25 -37 -33q-32 -9 -44.5 -20.5t-12.5 -30.5q0 -18 10 -45l348 -928l332 879q20 54 20 84q0 45 -53 59q-24 7 -31.5 14t-7.5 21v41h330v-41q0 -22 -37 -33t-55 -32t-41 -82l-459 -1198h-96l-465 1243q-17 43 -28.5 54t-43.5 15q-21 3 -29 10.5 t-8 22.5z" />
<glyph unicode="W" horiz-adv-x="1804" d="M14 1323v43h410v-43q0 -15 -11 -22t-46 -13q-23 -3 -36.5 -17.5t-13.5 -37.5q0 -4 1.5 -9t4.5 -14t5 -18q53 -166 153 -469.5t127 -384.5l238 713l-51 161q-14 43 -28 57.5t-50 20.5q-33 7 -33 33v43h412v-43q0 -26 -35 -37q-48 -14 -61 -24t-13 -35q0 -14 12 -53 l285 -857l260 805q27 89 27 121q0 20 -14.5 30.5t-51.5 16.5q-32 6 -32 33v43h317v-43q0 -22 -21 -25q-38 -13 -51.5 -22t-26.5 -33t-32 -84l-383 -1179h-80l-299 901l-299 -901h-78l-399 1218q-17 51 -31.5 67.5t-54.5 28.5q-21 9 -21 29z" />
<glyph unicode="X" horiz-adv-x="1265" d="M20 0v39q0 18 11 27t45 20q31 9 44 20t54 62l348 522l-358 539q-21 31 -37.5 41t-50.5 16q-39 5 -39 37v39h444v-39q0 -17 -10 -25t-47 -20q-27 -7 -27 -31q0 -9 0.5 -12.5t6.5 -14t20 -30.5l233 -346l181 266q63 95 63 129q0 33 -33 43l-39 8q-24 5 -24 33v39h375v-39 q0 -17 -8 -24.5t-35 -16.5q-49 -17 -79.5 -39t-68.5 -78l-278 -401l409 -619q21 -33 41 -46.5t58 -24.5q26 -9 26 -35v-39h-461v39q0 17 13 25.5t53 17.5q41 9 41 39q0 13 -25 51l-288 430l-263 -393q-34 -50 -34 -78q0 -20 15 -32t52 -23q26 -7 34.5 -14.5t8.5 -22.5v-39 h-371z" />
<glyph unicode="Y" horiz-adv-x="1265" d="M14 1327v39h439v-39q0 -15 -11 -22.5t-47 -14.5q-35 -9 -35 -39q0 -14 29 -67l299 -500l277 479q36 63 36 90q0 26 -55 39q-25 7 -34 14.5t-9 20.5v39h350v-39q0 -21 -30 -29q-40 -11 -61 -30.5t-60 -83.5l-369 -609v-413q0 -11 1 -19.5t1.5 -15t3.5 -12t4 -9.5t6.5 -8 t7 -5.5t10 -5t10.5 -4.5t13.5 -4.5t14.5 -4.5q20 -6 28.5 -14.5t8.5 -24.5v-35h-418v35q0 21 10 29t35 12q39 6 51 23t12 63v397l-358 604q-24 39 -49 72q-17 28 -35 41t-53 22q-23 3 -23 29z" />
<glyph unicode="Z" horiz-adv-x="1142" d="M55 0v92l787 1182h-277q-64 0 -131.5 -9t-93.5 -20q-37 -17 -57 -47t-29 -82q-8 -40 -15 -52.5t-24 -12.5h-63v342q61 -27 231 -27h692v-92l-782 -1182h342q176 0 245 38t95 149q8 32 15 41.5t26 9.5h59v-330h-1020z" />
<glyph unicode="[" horiz-adv-x="763" d="M287 -395v1761h381v-53q0 -20 -17.5 -27.5t-77.5 -15.5q-95 -12 -117 -31t-22 -90v-1346q0 -54 31.5 -73.5t132.5 -30.5q41 -5 55.5 -14.5t14.5 -32.5v-47h-381z" />
<glyph unicode="\" horiz-adv-x="780" d="M109 1366h106l578 -1761h-109z" />
<glyph unicode="]" horiz-adv-x="763" d="M98 -348q0 28 17.5 35.5t93.5 15.5q66 6 94.5 29.5t28.5 70.5v1346q0 71 -22 90t-117 31q-61 8 -78 15.5t-17 27.5v53h381v-1761h-381v47z" />
<glyph unicode="^" horiz-adv-x="1024" d="M-53 582l573 852h15l544 -852h-94l-387 598l-403 -598h-248z" />
<glyph unicode="_" horiz-adv-x="1024" d="M0 -182h1024v-109h-1024v109z" />
<glyph unicode="`" horiz-adv-x="1024" d="M279 1262q0 32 22 54.5t53 22.5q23 0 42.5 -12t68.5 -53l182 -156l-35 -49l-245 102q-48 20 -68 41t-20 50z" />
<glyph unicode="a" horiz-adv-x="985" d="M51 240q0 138 146 223.5t432 114.5q-6 105 -15.5 148.5t-33.5 76.5q-57 78 -142 78q-42 0 -60.5 -19t-23.5 -65q-5 -47 -35.5 -77t-74.5 -30t-73.5 26t-29.5 66q0 69 87 119.5t208 50.5q106 0 198.5 -41.5t133.5 -107.5q53 -88 53 -293v-254q0 -96 21 -141t65 -45 q23 0 54 24l16 -24q4 -8 4 -15q0 -32 -48 -61t-99 -29q-65 0 -106.5 31.5t-72.5 103.5q-79 -79 -136.5 -107t-143.5 -28q-141 0 -232.5 77.5t-91.5 197.5zM262 231q0 -79 43.5 -128.5t112.5 -49.5q62 0 114 35.5t78 95.5q27 61 27 238v88q-183 -22 -279 -93t-96 -186z" />
<glyph unicode="b" horiz-adv-x="1130" d="M72 1329v37l284 6v-491q124 77 267 77q131 0 231.5 -59.5t155.5 -167.5t55 -248q0 -147 -56 -261.5t-157 -178t-231 -63.5q-76 0 -156.5 26.5t-140.5 71.5l-115 -98h-37v1208q0 22 -1 36t-5.5 24.5t-8 16t-14.5 10.5t-19 7t-28 6q-24 3 -24 41zM356 145q95 -77 207 -77 q46 0 93.5 17.5t80.5 47.5q61 52 89 134.5t28 207.5q0 244 -115 334q-35 29 -82.5 45t-97.5 16q-55 0 -110 -20t-93 -55v-650z" />
<glyph unicode="c" horiz-adv-x="970" d="M66 471q0 206 145 346.5t360 140.5q143 0 232.5 -54t89.5 -142q0 -44 -32 -74.5t-79 -30.5q-46 0 -76 25.5t-30 65.5q0 6 3 33t3 30q0 34 -35.5 55t-93.5 21q-123 0 -200 -110t-77 -285q0 -189 97.5 -310t251.5 -121q66 0 123 26t120 83l62 -53q-77 -77 -157 -110.5 t-187 -33.5q-226 0 -373 140.5t-147 357.5z" />
<glyph unicode="d" horiz-adv-x="1144" d="M61 451q0 221 133.5 361t342.5 140q112 0 251 -71v307q0 60 -12.5 74.5t-64.5 25.5q-29 3 -29 41v37l291 6v-1194q0 -56 9.5 -70t49.5 -27q2 -1 4 -1t4 -2q19 -6 26 -14.5t7 -26.5v-37h-280v80q-107 -107 -289 -107q-194 0 -318.5 134.5t-124.5 343.5zM276 475 q0 -189 76 -290t219 -101q65 0 131 31q41 19 54.5 29t31.5 36v604q-37 34 -99 57t-120 23q-135 0 -214 -104.5t-79 -284.5z" />
<glyph unicode="e" horiz-adv-x="1019" d="M66 467q0 211 130.5 348t331.5 137q185 0 297.5 -120t112.5 -322v-18h-672v-37q0 -175 95 -288.5t241 -113.5q82 0 148 38t139 128l65 -49q-83 -109 -174 -157t-215 -48q-217 0 -358 142t-141 360zM274 584h457v22q0 125 -55.5 191.5t-159.5 66.5q-101 0 -165.5 -74 t-76.5 -206z" />
<glyph unicode="f" horiz-adv-x="528" d="M72 0v37q0 14 2 22t10 12.5t12 6t19 4.5q38 9 47.5 25.5t9.5 70.5v647h-100v39q0 20 7 27.5t32 13.5q40 10 51 21q11 13 13.5 27t8.5 110q9 171 88 256q31 32 73.5 52t80.5 20q55 0 90 -28t35 -71q0 -35 -24.5 -59.5t-59.5 -24.5q-50 0 -74 41q-14 25 -28 25 q-9 0 -17 -12t-8 -29q0 -3 8 -106.5t8 -108.5v-90h154v-103h-154v-647q0 -55 9.5 -70t46.5 -26l34 -4q12 0 19.5 -11t7.5 -30v-37h-401z" />
<glyph unicode="g" horiz-adv-x="925" d="M35 -211q0 46 31.5 75.5t80.5 29.5q46 0 76.5 -26.5t30.5 -64.5l-4 -25q-4 -25 -4 -40q0 -35 59 -56.5t156 -21.5q121 0 205 52.5t84 129.5q0 82 -94 128t-261 46q-123 0 -293 -32l-32 -7q-6 0 -10 4.5t-3 10.5v2l172 358q-163 99 -163 275q0 149 116.5 250.5 t288.5 101.5q101 0 219 -59q37 139 150 139q46 0 78 -27t32 -67q0 -37 -24 -60.5t-62 -23.5q-44 0 -67 30q-10 15 -17 15q-9 0 -16.5 -11t-7.5 -24q0 -11 4.5 -17.5t30.5 -37.5q73 -89 73 -195q0 -146 -114 -249t-277 -103q-90 0 -164 26l-80 -165q115 28 238 28 q204 0 326 -76.5t122 -205.5q0 -135 -131.5 -221.5t-337.5 -86.5q-180 0 -295.5 56.5t-115.5 144.5zM260 629q0 -123 55.5 -196t147.5 -73q94 0 149.5 76t55.5 205q0 121 -54.5 193.5t-144.5 72.5q-95 0 -152 -76t-57 -202z" />
<glyph unicode="h" horiz-adv-x="1150" d="M72 0v37q0 14 2 22t10 12.5t12 6t19 4.5q38 9 47.5 25t9.5 71v1010q0 22 -1 36t-5.5 24.5t-8 16t-14.5 10.5t-19 7t-28 6q-24 3 -24 41v37l284 6v-516q154 96 295 96q150 0 244 -75q82 -65 82 -197v-502q0 -43 7 -61.5t19 -24t48 -14.5q26 -3 26 -41v-37h-383v37 q0 15 6 24t11 11.5t22 9.5q41 10 50.5 25t9.5 71v477q0 61 -11 94t-39 60q-55 55 -147 55q-69 0 -136 -31.5t-104 -82.5v-572q0 -32 2 -48t13 -27t19.5 -14t37.5 -11q29 -9 29 -41v-37h-385z" />
<glyph unicode="i" horiz-adv-x="528" d="M72 0v37q7 27 13 32.5t30 12.5q39 12 48 26.5t9 69.5v572q0 25 -2 40t-4.5 24.5t-13.5 16t-19 9.5t-31 10q-15 4 -19.5 10.5t-10.5 30.5v37l284 6v-756q0 -18 0.5 -30.5t4 -22.5t4.5 -14.5t10 -10.5t11.5 -7.5t17 -7t20.5 -7.5q12 -2 22 -12q0 -2 2 -7.5t5 -12.5t4 -9 v-37h-385zM111 1196q0 47 35.5 82t84.5 35t84 -34.5t35 -84.5q0 -51 -34.5 -86t-84.5 -35q-51 0 -85.5 36t-34.5 87z" />
<glyph unicode="j" horiz-adv-x="514" d="M8 -303q0 36 26 62t62 26q25 0 54 -23q26 -18 36 -18q12 0 21.5 15t9.5 36q0 16 -10 53q-20 74 -27.5 137.5t-7.5 168.5v596q0 56 -9.5 72.5t-47.5 23.5l-21 4q-22 3 -22 41v37l284 6v-825q0 -148 -10 -222t-39 -141q-26 -63 -80.5 -105t-109.5 -42q-47 0 -78 27.5 t-31 70.5zM104 1196q0 47 36 82t85 35t84 -34.5t35 -84.5q0 -51 -34.5 -86t-84.5 -35q-51 0 -86 36t-35 87z" />
<glyph unicode="k" horiz-adv-x="1026" d="M72 0v37q0 15 5.5 24t13 12.5t24.5 8.5q39 12 48 26.5t9 69.5v1010q0 25 -2 40t-4.5 24.5t-13.5 16t-19 9.5t-31 10q-18 6 -24 14.5t-6 26.5v37l284 6v-883l213 199q99 94 99 123q0 30 -56 41q-23 4 -31 12t-8 25v39h406v-39q0 -18 -8.5 -26.5t-32.5 -14.5 q-52 -15 -102 -48.5t-136 -111.5l-139 -125l291 -379q20 -26 51 -57q21 -27 76 -47q20 -7 26.5 -14.5t6.5 -22.5v-43h-426v43q0 15 7 22t36 17q23 7 31 15.5t8 23.5q0 13 -27 47l-209 270l-76 -67v-193q0 -55 10 -70t50 -26q3 -1 9.5 -4.5t8.5 -4.5t6.5 -4t6 -5t3.5 -6 t2.5 -9t0.5 -12v-37h-381z" />
<glyph unicode="l" horiz-adv-x="528" d="M72 0v37q0 22 10.5 31t32.5 14q38 9 47.5 25t9.5 71v1010q0 22 -1 36t-5.5 24.5t-8 16t-14.5 10.5t-19 7t-28 6q-24 7 -24 41v37l284 6v-1194q0 -32 2 -48t13 -27t19.5 -14t37.5 -11q29 -9 29 -41v-37h-385z" />
<glyph unicode="m" horiz-adv-x="1658" d="M72 0v37q0 13 2 21.5t10 13t12 6t19 4.5q38 9 47.5 25t9.5 71v572q0 22 -0.5 36t-5.5 24.5t-7.5 15.5t-14.5 10.5t-19 7t-27 6.5q-26 3 -26 41v37l272 6v-111q69 67 138 98t149 31q32 0 60.5 -3.5t53.5 -10.5t46.5 -18t40.5 -25.5t35 -33.5t30 -42q57 52 103 80.5 t90.5 40.5t101.5 12q72 0 138.5 -25.5t101.5 -66.5q21 -25 32.5 -51.5t17 -60t5.5 -82.5v-488q0 -22 1 -36t5.5 -24.5t8 -16t14.5 -10.5t19 -7t28 -6q24 -3 24 -41v-37h-383v37q0 17 6 26t13 12t24 7q37 9 46.5 25t9.5 71v479q0 107 -43 150q-21 21 -56 34t-69 13 q-56 0 -113.5 -31t-95.5 -82v-563q0 -60 12 -74t61 -26q29 -3 29 -41v-37h-387v37q0 22 9.5 30t33.5 15q39 11 48 26t9 70v479q0 69 -12.5 104.5t-46.5 61.5q-50 41 -109 41q-55 0 -115 -34.5t-102 -90.5v-561q0 -55 9.5 -70t48.5 -26l22 -4q29 -6 29 -41v-37h-393z" />
<glyph unicode="n" horiz-adv-x="1126" d="M72 0v37q0 5 0.5 9.5t2 8t2.5 6t4 5.5t4.5 4t6.5 3t6.5 3t8 3t8.5 3q39 11 48 26t9 70v572v25t-2 19t-2.5 14.5t-5 11t-6 8t-9.5 6.5t-11 5l-15 5t-17 6q-19 4 -25.5 13t-6.5 28v37l272 6v-96q86 68 147.5 91t159.5 23q160 0 242 -82q35 -35 48 -76t13 -112v-504 q0 -60 13 -74.5t63 -25.5q25 -3 25 -41v-37h-396v37q0 35 29 41l23 4q39 7 49 23.5t10 72.5v455q0 76 -9 114.5t-34 63.5q-56 53 -152 53q-62 0 -124 -32t-95 -84v-570q0 -60 13 -74.5t63 -25.5q29 -3 29 -41v-37h-389z" />
<glyph unicode="o" horiz-adv-x="1105" d="M66 469q0 201 133 340q143 149 354 149t349 -138t138 -349q0 -138 -63 -252.5t-173 -180t-243 -65.5q-215 0 -355 140.5t-140 355.5zM276 492q0 -217 72.5 -332t210.5 -115q130 0 200 110t70 314q0 201 -71 309.5t-203 108.5q-130 0 -204.5 -105t-74.5 -290z" />
<glyph unicode="p" horiz-adv-x="1136" d="M72 -358q0 38 22 41l21 4q38 7 47.5 23.5t9.5 72.5v967v25t-2 19t-2.5 14.5t-5 11t-6 8t-9.5 6.5t-11 5l-15 5t-17 6q-19 4 -25.5 13t-6.5 28v37l276 6v-88q69 57 131 81.5t137 24.5q195 0 325 -133t130 -332q0 -139 -61.5 -255.5t-169 -184t-236.5 -67.5 q-70 0 -123.5 15t-124.5 54v-266q0 -55 10 -70t50 -26l28 -4q29 -3 29 -41v-37h-401v37zM356 145q83 -77 203 -77q103 0 182 69q117 105 117 332q0 233 -121 336q-68 59 -164 59q-128 0 -217 -100v-619z" />
<glyph unicode="q" horiz-adv-x="1144" d="M66 455q0 137 61.5 251.5t167.5 180t233 65.5q70 0 126.5 -18t125.5 -62q22 -14 35 -14q5 0 9 1t10 5t11.5 8t19.5 15.5t28 21.5l41 31h39l-2 -684q0 -201 -1 -308t2 -160t5 -63.5t8 -17.5q12 -12 45 -20l21 -4q20 -3 20 -41v-37h-401v37q0 38 28 41l31 4q39 11 48 26 t9 70v266q-76 -39 -132 -54t-126 -15q-203 0 -332.5 133t-129.5 342zM281 471q0 -198 74 -300.5t218 -102.5q120 0 213 75v615q-91 123 -223 123q-47 0 -97.5 -20.5t-84.5 -53.5q-100 -97 -100 -336z" />
<glyph unicode="r" horiz-adv-x="763" d="M72 0v37q0 19 7.5 27t29.5 14l26 10q27 10 32 23.5t5 66.5v572q0 53 -6.5 68t-34.5 22l-43 12q-16 3 -16 39v37l286 6v-297q26 83 48.5 129.5t56.5 87.5q79 98 166 98q54 0 88.5 -31.5t34.5 -78.5q0 -43 -31.5 -72t-77.5 -29q-27 0 -70 17q-24 12 -34 12 q-26 0 -58.5 -38.5t-58.5 -100.5q-66 -160 -66 -359v-94q0 -55 9 -70t47 -26l32 -4q33 -3 33 -41v-37h-405z" />
<glyph unicode="s" horiz-adv-x="870" d="M55 162q0 41 34 70.5t81 29.5q43 0 78 -26.5t35 -59.5q0 -4 -8.5 -27t-8.5 -28q0 -34 39 -55t101 -21q95 0 160 48.5t65 119.5q0 61 -45.5 100t-159.5 76q-127 40 -160.5 55t-77.5 50q-42 33 -66 80t-24 98q0 121 111 203.5t274 82.5q126 0 206.5 -46t80.5 -119 q0 -40 -32.5 -67.5t-78.5 -27.5q-43 0 -76.5 25t-33.5 59q0 4 4.5 24t5.5 28q0 23 -29.5 38t-74.5 15q-72 0 -126.5 -43t-54.5 -101q0 -75 82 -120q31 -15 215 -76q246 -83 246 -271q0 -128 -116.5 -215.5t-286.5 -87.5q-149 0 -254 55.5t-105 133.5z" />
<glyph unicode="t" horiz-adv-x="579" d="M35 821v39q0 28 8.5 34.5t60.5 18.5q68 14 68 115v113q0 27 9 38.5t32 12.5l143 10v-289h226v-92h-226v-596q0 -69 33 -108t92 -39q65 0 111 35l37 -60q-31 -34 -96 -57t-130 -23q-61 0 -113 23t-83 63q-35 46 -35 140v622h-137z" />
<glyph unicode="u" horiz-adv-x="1140" d="M72 891v37l284 6v-631q0 -50 3.5 -79t11.5 -48t24 -37q25 -26 69 -41.5t95 -15.5q56 0 100.5 19t118.5 75v574q0 19 -1.5 32t-2.5 22.5t-6.5 16.5t-9 11t-14.5 7.5t-18 5t-24 5.5q-28 3 -28 41v37l295 6v-756q0 -32 2 -48t12.5 -27t19.5 -14t37 -11q29 -9 29 -41v-37 h-289v86q-58 -52 -138.5 -82.5t-158.5 -30.5q-143 0 -227 78t-84 211v488q0 43 -7 61.5t-19 24t-48 14.5q-26 3 -26 41z" />
<glyph unicode="v" horiz-adv-x="1099" d="M20 887v41h449v-41q0 -23 -8 -30.5t-43 -16.5q-36 -9 -47 -18.5t-11 -30.5q0 -14 17 -54l215 -524l172 399q55 131 55 168q0 28 -17 41.5t-63 24.5q-17 4 -23.5 13t-6.5 28v41h370v-41q0 -20 -7.5 -27t-41.5 -16q-36 -10 -55 -31.5t-43 -75.5l-328 -753h-108l-344 774 q-23 51 -36 64.5t-42 19.5q-34 7 -44 16t-10 29z" />
<glyph unicode="w" horiz-adv-x="1501" d="M35 889v39h391v-39q0 -25 -9.5 -34t-41.5 -13q-45 -9 -45 -43q0 -16 20 -78l168 -475l240 682h76l237 -678l156 450q16 49 16 76q0 31 -15.5 48t-51.5 24q-27 4 -34 11.5t-7 29.5v39h340v-39q0 -29 -35 -39q-36 -11 -52.5 -27t-29.5 -55l-283 -782h-104l-217 622 l-226 -622h-106l-283 786q-12 35 -26.5 50.5t-46.5 25.5q-20 6 -25.5 14t-5.5 27z" />
<glyph unicode="x" horiz-adv-x="1032" d="M20 0v39q0 21 10 29t46 16q36 9 59.5 25.5t61.5 58.5l243 281l-237 299q-44 56 -65 71t-68 31q-21 7 -27 14t-6 21v43h438v-43q0 -20 -8.5 -26t-52.5 -15q-33 -6 -33 -25q0 -13 25 -45l147 -196l143 167q31 40 31 62q0 12 -12 24t-29 15q-2 0 -7 1l-15 3t-21 4 q-16 6 -16 31v43h362v-43q0 -16 -6 -23.5t-25 -13.5q-41 -14 -70 -34t-65 -60l-217 -240l266 -354q36 -47 52 -59.5t51 -18.5q37 -6 37 -43v-39h-451v39q0 24 9 30.5t61 20.5q33 10 33 33q0 30 -37 80l-135 180l-136 -160q-59 -69 -59 -104q0 -27 43 -35q28 -6 36.5 -14.5 t8.5 -30.5v-39h-365z" />
<glyph unicode="y" horiz-adv-x="1091" d="M20 885v43h443v-43q0 -20 -10.5 -27t-55.5 -14q-43 -9 -43 -37q0 -16 21 -62l237 -505l140 325q23 52 47 128.5t24 97.5q0 48 -63 61q-21 4 -29 11.5t-8 21.5v43h348v-43q0 -15 -9.5 -23.5t-35.5 -17.5q-31 -9 -44 -22.5t-32 -55.5l-381 -875q-66 -150 -152.5 -221 t-203.5 -71q-72 0 -116 29.5t-44 78.5q0 43 32 70.5t81 27.5q46 0 68 -16t32 -57q4 -21 29 -21q96 0 215 289l-354 766q-23 49 -41.5 63.5t-63.5 20.5q-31 6 -31 35z" />
<glyph unicode="z" horiz-adv-x="899" d="M66 0v92l555 744h-205q-112 0 -154 -22t-65 -93q-11 -31 -37 -31h-43v238h717v-99l-543 -737h266q88 0 130 24.5t65 90.5q12 29 39 29h43v-236h-768z" />
<glyph unicode="{" horiz-adv-x="804" d="M143 469v31q0 18 39 30q13 3 17 7l34 16q23 10 32 26t9 44v626q0 117 95 117h274q20 0 26.5 -5t6.5 -20v-36q0 -24 -98 -35l-64.5 -7.5t-42.5 -10t-28 -13.5t-13.5 -22.5t-7 -33t-0.5 -48.5v-502q0 -52 -24.5 -86t-80.5 -62q56 -25 80.5 -59t24.5 -88v-502 q0 -32 0.5 -48.5t7 -33t13.5 -22.5t28 -13.5t42.5 -10l64.5 -7.5q98 -11 98 -35v-37q0 -15 -6.5 -19.5t-26.5 -4.5h-274q-95 0 -95 116v627q0 29 -8.5 44.5t-32.5 25.5l-36 16q-1 2 -15 6q-39 14 -39 29z" />
<glyph unicode="|" horiz-adv-x="1024" d="M442 -342v1708h140v-1708h-140z" />
<glyph unicode="}" horiz-adv-x="804" d="M131 -334q0 24 98 35l64.5 7.5t42.5 10t28 13.5t13.5 22.5t7 33t0.5 48.5v502q0 54 24 88t80 59q-56 28 -80 62t-24 86v502q0 32 -0.5 48.5t-7 33t-13.5 22.5t-28 13.5t-42.5 10l-64.5 7.5q-98 11 -98 35v36q0 15 6.5 20t26.5 5h274q94 0 94 -117v-626q0 -28 9 -44 t32 -26l35 -16q4 -4 17 -7q39 -12 39 -30v-31q0 -15 -39 -29q-13 -4 -15 -6l-37 -16q-24 -10 -32.5 -25.5t-8.5 -44.5v-627q0 -116 -94 -116h-274q-20 0 -26.5 4.5t-6.5 19.5v37z" />
<glyph unicode="~" horiz-adv-x="1366" d="M262 1272q123 207 279 207q52 0 180 -43q107 -37 162 -37q103 0 188 104l35 -22q-51 -92 -127 -148.5t-150 -56.5q-32 0 -61 7.5t-178 55.5q-67 21 -117 21q-49 0 -83.5 -19t-76.5 -71l-16 -21z" />
<glyph unicode="&#xa1;" horiz-adv-x="532" d="M150 807q0 48 34.5 82.5t83.5 34.5q47 0 82 -35t35 -82q0 -49 -34.5 -84t-84.5 -35q-47 0 -81.5 35t-34.5 84zM156 -223q0 70 18 188q21 135 41 395q7 91 8 95l8 86h72l10 -117q32 -370 60 -588q4 -46 4 -67q0 -77 -29 -120.5t-80 -43.5q-112 0 -112 172z" />
<glyph unicode="&#xa2;" d="M145 705q0 147 94 256t238 129v114h92v-112q110 -6 174 -46.5t64 -103.5q0 -37 -25.5 -62.5t-62.5 -25.5q-35 0 -59.5 20.5t-24.5 49.5q0 7 3 26t3 21q0 26 -20 42.5t-52 16.5v-643q16 -2 35 -2q49 0 91 19.5t96 66.5l47 -41q-44 -55 -115 -87.5t-154 -35.5v-157h-92v161 q-157 35 -244.5 139t-87.5 255zM322 723q0 -109 41 -191t114 -120v610q-36 -12 -57.5 -29.5t-42.5 -50.5q-55 -93 -55 -219z" />
<glyph unicode="&#xa3;" d="M2 129q0 61 64 104t155 43q71 0 137 -26t168 -96q64 89 64 182q0 51 -29 97.5t-100 109.5h-346v86h245q-127 105 -186 204t-59 205q0 153 109.5 253t277.5 100q127 0 217 -66t90 -160q0 -46 -31.5 -77t-77.5 -31q-44 0 -74 27t-30 67q0 34 20 57q20 32 21 39 q0 31 -41.5 53.5t-95.5 22.5q-97 0 -159 -65t-62 -166q0 -123 141 -267q151 -157 295 -188q30 -6 143 -8l70 -2v-84h-215q30 -57 39.5 -89.5t9.5 -74.5q0 -75 -31 -140t-106 -147q67 -45 127 -45q75 0 139 100l61 -30q-40 -82 -87.5 -118t-114.5 -36q-88 0 -199 78 q-136 -78 -270 -78q-118 0 -198.5 47.5t-80.5 118.5zM154 123q0 -32 44 -56t105 -24q79 0 152 49q-73 48 -121 68t-92 20q-37 0 -62.5 -17t-25.5 -40z" />
<glyph unicode="&#xa4;" horiz-adv-x="1302" d="M68 1206q0 26 28.5 52t57.5 26q10 0 18 -8l172 -172q10 -10 21 -10q7 0 21.5 7.5t92.5 51.5q59 35 162 35q68 0 122.5 -16t139.5 -60q21 -12 35 -12q11 0 23 8l159 162q16 18 39 18q28 0 51 -22.5t23 -48.5q0 -22 -21 -43l-159 -160q-9 -14 -9 -19q0 -8 66 -139 q27 -59 27 -149q0 -71 -16.5 -123t-65.5 -138q-13 -20 -13 -30q0 -14 11 -21l161 -164q17 -14 17 -34q0 -29 -23 -51.5t-51 -22.5q-21 0 -37 16l-164 164q-8 8 -20 8t-33 -12q-78 -43 -130.5 -59.5t-119.5 -16.5q-70 0 -118 15t-132 63q-24 12 -32 12q-9 0 -21 -8l-166 -166 q-9 -12 -32 -12q-28 0 -51 23t-23 51q0 18 14 32l164 162q8 12 8 19q0 10 -10 30q-46 78 -64 135t-18 126q0 66 16.5 121t59.5 128q12 21 12 37q0 7 -8 19l-174 174q-10 10 -10 22zM326 709q0 -146 94 -240q44 -46 111 -76.5t122 -30.5t121.5 30.5t112.5 76.5q96 96 96 233 q0 67 -26 131.5t-70 108.5q-48 46 -114 76.5t-120 30.5q-56 0 -122.5 -30t-110.5 -77q-44 -46 -69 -108t-25 -125z" />
<glyph unicode="&#xa5;" d="M41 1346q0 12 2 20h332q2 -20 2 -35q0 -22 -5.5 -28t-37.5 -15q-9 -3 -16 -14.5t-7 -22.5q0 -25 37 -127l168 -432l174 443q7 17 12 30.5t8.5 23t6 17.5t4 12t2 9.5t0.5 6.5v5.5v5.5q0 18 -9.5 27.5t-41.5 23.5q-12 5 -16.5 11.5t-4.5 23.5q0 8 2 35h262q0 -19 -4 -51 q0 -12 -10 -17l-33 -16q-19 -7 -38.5 -45.5t-63.5 -146.5l-113 -275h213v-84h-245l-48 -117h265v-84h-271v-342l8 -49q3 -35 13.5 -44.5t62.5 -24.5q11 -6 15 -16.5t4 -35.5v-18h-389v35q0 23 9.5 30t57.5 19q19 8 26 17t10 29t3 67v333h-276v84h264l-45 117h-246v84h211 l-100 256q-38 98 -76 186q-9 17 -18 23t-44 20q-16 5 -16 46z" />
<glyph unicode="&#xa6;" horiz-adv-x="1024" d="M442 313h140v-655h-140v655zM442 668v698h140v-698h-140z" />
<glyph unicode="&#xa7;" horiz-adv-x="1009" d="M31 -133q0 58 34 96.5t85 38.5q41 0 65.5 -24t24.5 -64q0 -37 -29 -76q-25 -31 -30 -40t-5 -23q0 -38 71.5 -68.5t162.5 -30.5q151 0 244.5 74t93.5 193q0 55 -25 102.5t-68 77.5q-36 24 -72.5 37.5t-156.5 48.5q-198 58 -270 100q-58 34 -89.5 91.5t-31.5 129.5 q0 85 41 154.5t135 144.5q-86 86 -86 209q0 154 117 254.5t297 100.5q138 0 230.5 -57t92.5 -142q0 -46 -26.5 -75t-69.5 -29q-38 0 -62 21.5t-24 55.5q0 11 7 41t7 37q0 34 -46.5 56t-115.5 22q-107 0 -181.5 -64.5t-74.5 -158.5q0 -106 97 -160q31 -17 68 -29t145 -43 q127 -35 182.5 -55t97.5 -47q53 -34 83 -93t30 -128q0 -172 -168 -303q51 -55 72.5 -109t21.5 -123q0 -175 -135.5 -290t-339.5 -115q-164 0 -281.5 77.5t-117.5 184.5zM205 588q0 -86 80 -127q27 -13 49 -20t151 -46q179 -53 256 -94q44 51 62 90.5t18 85.5q0 94 -82 137 q-50 24 -190 60q-111 30 -152.5 45t-107.5 49q-45 -50 -64.5 -91.5t-19.5 -88.5z" />
<glyph unicode="&#xa8;" horiz-adv-x="1024" d="M240 1198q0 44 33 77.5t79 33.5t79.5 -33.5t33.5 -79.5t-33.5 -79.5t-79.5 -33.5t-79 34t-33 81zM561 1198q0 44 33.5 77.5t79.5 33.5t79 -33.5t33 -79.5t-33 -79.5t-79 -33.5t-79.5 34t-33.5 81z" />
<glyph unicode="&#xa9;" horiz-adv-x="1579" d="M82 682q0 146 57 281.5t160 230.5q104 98 240 152.5t274 54.5q182 0 340.5 -98.5t252 -264.5t93.5 -356q0 -145 -56 -278t-150.5 -229t-225.5 -153t-274 -57q-144 0 -275.5 57t-227 153t-152 229t-56.5 278zM182 680q0 -171 82 -317t222.5 -231t304.5 -85q165 0 305 85 t221.5 231.5t81.5 318.5q0 126 -48 243t-128 203t-189.5 137.5t-226.5 51.5q-170 0 -314 -85t-227.5 -231.5t-83.5 -320.5zM422 682q0 183 107.5 306.5t267.5 123.5q91 0 170 -47q23 -14 34 -14q10 0 13 16h59v-221h-43q-14 0 -22 9t-17 36q-31 85 -74 122.5t-112 37.5 q-107 0 -168.5 -96.5t-61.5 -266.5q0 -167 70 -264.5t189 -97.5q63 0 107 25.5t114 103.5l49 -37q-61 -87 -130 -125.5t-165 -38.5q-167 0 -277 121t-110 307z" />
<glyph unicode="&#xaa;" horiz-adv-x="641" d="M47 598v88h547v-88h-547zM47 963q0 82 85.5 133.5t246.5 66.5q-2 87 -27 121q-30 43 -76 43q-22 0 -31 -9t-12 -34q-3 -29 -22 -47t-47 -18t-46 16.5t-18 42.5q0 41 52 71.5t122 30.5q63 0 117.5 -25t79.5 -65q31 -53 31 -170v-147q0 -101 43 -101q12 0 33 15l12 -19 q4 -8 4 -12q0 -20 -29 -37.5t-61 -17.5q-71 0 -105 73q-41 -41 -75.5 -57t-83.5 -16q-85 0 -139 45.5t-54 116.5zM180 961q0 -44 23.5 -71.5t60.5 -27.5q34 0 62.5 20t42.5 52q16 36 16 135v45q-99 -12 -152 -51.5t-53 -101.5z" />
<glyph unicode="&#xab;" horiz-adv-x="737" d="M82 465l217 356l51 -28l-123 -328l115 -328l-55 -28zM360 465l218 356l51 -28l-123 -328l115 -328l-56 -28z" />
<glyph unicode="&#xac;" horiz-adv-x="1024" d="M70 444v103h884v-547h-235v444h-649z" />
<glyph unicode="&#xad;" horiz-adv-x="436" d="M0 385v158h436v-158h-436z" />
<glyph unicode="&#xae;" horiz-adv-x="1579" d="M82 682q0 146 57 281.5t160 230.5q104 98 240 152.5t274 54.5q182 0 340.5 -98.5t252 -264.5t93.5 -356q0 -145 -56 -278t-150.5 -229t-225.5 -153t-274 -57q-144 0 -275.5 57t-227 153t-152 229t-56.5 278zM182 680q0 -171 82 -317t222.5 -231t304.5 -85q165 0 305 85 t221.5 231.5t81.5 318.5q0 126 -48 243t-128 203t-189.5 137.5t-226.5 51.5q-170 0 -314 -85t-227.5 -231.5t-83.5 -320.5zM438 272v27q0 7 1.5 12t4 8t7 5.5t9 4t11.5 3.5q12 2 17.5 4.5t9.5 7t5 11.5t1 20v610q0 21 -3.5 27.5t-17.5 13.5q-5 0 -20 10q-25 6 -25 29v27h367 q115 0 180 -39q105 -66 105 -168q0 -78 -58 -130t-164 -71q21 -11 34 -23t30 -38l151 -236q19 -29 31.5 -39.5t34.5 -13.5q20 -3 27.5 -9.5t7.5 -21.5v-31h-191l-168 269q-42 67 -70 94t-57 27h-57v-287q0 -10 1 -16.5t2 -10t5.5 -6.5t7 -4t11.5 -3.5t14 -4.5q27 -8 27 -31 v-27h-271zM641 729h115q84 0 132 40.5t48 111.5q0 65 -39.5 104t-105.5 39h-150v-295z" />
<glyph unicode="&#xaf;" horiz-adv-x="1024" d="M248 1128v121h526v-121h-526z" />
<glyph unicode="&#xb0;" d="M193 1118q0 114 84 195.5t202 81.5t201.5 -83t83.5 -200t-84 -201t-201 -84q-120 0 -203 84.5t-83 206.5zM311 1114q0 -71 49 -120.5t119 -49.5q67 0 116.5 49t49.5 117q0 69 -49 117.5t-117 48.5q-69 0 -118.5 -48t-49.5 -114z" />
<glyph unicode="&#xb1;" d="M76 0v137h805v-137h-805zM76 602v137h334v353h137v-353h334v-137h-334v-344h-137v344h-334z" />
<glyph unicode="&#xb2;" horiz-adv-x="626" d="M41 545v80q30 49 106 133l148 162q64 70 92.5 128.5t28.5 118.5q0 72 -37.5 116t-99.5 44q-41 0 -75 -23t-34 -51q0 -14 23 -32q18 -18 18 -45q0 -26 -20.5 -45t-49.5 -19q-35 0 -59.5 27t-24.5 65q0 72 72 124t172 52q117 0 189.5 -62t72.5 -161q0 -80 -45.5 -142 t-183.5 -169q-108 -83 -187 -184h248q40 0 58.5 10t33.5 41q11 22 31 22h35l-6 -190h-506z" />
<glyph unicode="&#xb3;" horiz-adv-x="626" d="M31 682q0 32 24.5 55t59.5 23q33 0 54 -19t21 -49q0 -29 -16 -45q-6 -12 -6 -14q2 -22 31.5 -37.5t70.5 -15.5q71 0 117.5 51.5t46.5 130.5q0 194 -198 194h-31v56q65 6 86.5 10t40.5 14q74 38 74 133q0 71 -38 115.5t-98 44.5q-36 0 -62 -14.5t-26 -34.5 q0 -2 12.5 -28.5t12.5 -39.5q0 -26 -22 -44.5t-52 -18.5q-34 0 -58 25t-24 59q0 64 68.5 107.5t167.5 43.5q113 0 187.5 -58t74.5 -146q0 -75 -45 -124.5t-131 -68.5q102 -20 155.5 -74.5t53.5 -138.5q0 -105 -90.5 -176.5t-223.5 -71.5q-99 0 -168 45.5t-69 110.5z" />
<glyph unicode="&#xb4;" horiz-adv-x="1024" d="M377 1118l182 156q49 41 68.5 53t42.5 12q31 0 53 -22.5t22 -54.5q0 -29 -20 -50t-68 -41l-247 -102z" />
<glyph unicode="&#xb5;" horiz-adv-x="933" d="M-6 -289q0 47 16 125q25 135 41.5 338t16.5 373v389h184v-588q0 -93 9.5 -141t35.5 -80q43 -53 119 -53q63 0 114.5 34t108.5 113v715h184v-686q0 -95 16.5 -128.5t63.5 -33.5q27 0 62 18v-34l-197 -92q-3 -3 -8 -3q-75 0 -101 123l-10 39q-106 -104 -163.5 -137 t-133.5 -33q-86 0 -138.5 42t-84.5 136q-2 -23 -2 -51q0 -100 39 -280q14 -68 14 -103q0 -44 -26 -74t-66 -30q-41 0 -67.5 29t-26.5 73z" />
<glyph unicode="&#xb6;" horiz-adv-x="1005" d="M20 987q0 107 44 193.5t122 130.5q60 34 137 44.5t257 10.5h405v-25q0 -27 -20 -34l-54 -17q-19 -6 -30 -38t-11 -81v-1407q0 -36 5.5 -52t15 -21.5t35.5 -12.5q24 -6 30.5 -14.5t6.5 -30.5v-28h-240v1671h-107v-1671h-239v28q0 23 6 31t31 14q25 8 34 13t15 22t6 51v869 h-47q-176 0 -264 59q-66 46 -102 122.5t-36 172.5z" />
<glyph unicode="&#xb7;" horiz-adv-x="477" d="M123 463q0 48 35 82.5t84 34.5q47 0 81.5 -35t34.5 -82q0 -50 -34.5 -84.5t-83.5 -34.5q-48 0 -82.5 35t-34.5 84z" />
<glyph unicode="&#xb8;" horiz-adv-x="1024" d="M348 -348q0 10 4 18l23 41q49 -27 78.5 -37t62.5 -10q40 0 68 21.5t28 52.5q0 32 -30 57t-70 25q-22 0 -78 -21l-39 49l99 152h90l-68 -113q25 2 47 2q80 0 131 -40t51 -103q0 -69 -63.5 -115.5t-157.5 -46.5q-57 0 -116.5 23t-59.5 45z" />
<glyph unicode="&#xb9;" horiz-adv-x="626" d="M137 1247v47l180 72h76v-700q0 -30 11 -37.5t52 -14.5q3 -1 5.5 -1.5t5.5 -0.5q33 -7 33 -34v-31h-338v31q0 14 9 22t20 11t30 5q29 3 37 12.5t8 37.5v581h-129z" />
<glyph unicode="&#xba;" horiz-adv-x="641" d="M35 598v88h573v-88h-573zM35 1096q0 121 82.5 203.5t204.5 82.5q123 0 204.5 -81t81.5 -205q0 -123 -81 -207t-201 -84q-126 0 -208.5 82.5t-82.5 208.5zM168 1108q0 -121 40.5 -185.5t117.5 -64.5q72 0 110.5 61.5t38.5 176.5q0 113 -39 173t-112 60q-72 0 -114 -59 t-42 -162z" />
<glyph unicode="&#xbb;" horiz-adv-x="737" d="M109 135l122 328l-114 328l55 30l205 -358l-219 -354zM387 135l123 328l-115 328l56 30l204 -358l-219 -354z" />
<glyph unicode="&#xbc;" horiz-adv-x="1570" d="M147 1247v47l181 72h75v-700q0 -30 11 -37.5t52 -14.5q3 -1 5.5 -1.5t5.5 -0.5q33 -7 33 -34v-31h-338v31q0 14 9 22t20 11t30 5q29 3 37 12.5t8 37.5v581h-129zM365 0l737 1366h104l-735 -1366h-106zM961 225v62l378 547h86v-543h109v-66h-109v-106l2 -37q3 -14 33 -21 q19 -3 25 -9t6 -21v-31h-270v31q0 25 30 30q31 7 37 15.5t6 42.5v106h-333zM1051 291h243v350z" />
<glyph unicode="&#xbd;" horiz-adv-x="1570" d="M147 1247v47l181 72h75v-700q0 -30 11 -37.5t52 -14.5q3 -1 5.5 -1.5t5.5 -0.5q33 -7 33 -34v-31h-338v31q0 14 9 22t20 11t30 5q29 3 37 12.5t8 37.5v581h-129zM365 0l737 1366h104l-735 -1366h-106zM975 0v80q26 43 106 131l148 162q121 133 121 248q0 72 -38 115.5 t-100 43.5q-41 0 -74.5 -22.5t-33.5 -50.5q0 -9 4 -15t18 -18q19 -19 19 -45t-20.5 -45t-49.5 -19q-35 0 -59.5 27t-24.5 65q0 72 72 124.5t172 52.5q117 0 189.5 -62.5t72.5 -161.5q0 -80 -46.5 -142.5t-182.5 -168.5q-106 -81 -187 -182h248q40 0 58.5 10t33.5 39 q11 22 31 22h35l-6 -188h-506z" />
<glyph unicode="&#xbe;" horiz-adv-x="1570" d="M41 682q0 32 24.5 55t59.5 23q34 0 55 -19.5t21 -48.5q0 -28 -17 -45q-6 -12 -6 -14q2 -22 32 -37.5t71 -15.5q71 0 117 51.5t46 130.5q0 194 -198 194h-31v56q65 6 86.5 10t40.5 14q74 38 74 133q0 71 -37.5 115.5t-97.5 44.5q-36 0 -62 -14.5t-26 -34.5q0 -2 12 -29 t12 -39q0 -26 -22 -44.5t-52 -18.5q-34 0 -58 25t-24 59q0 64 68.5 107.5t167.5 43.5q113 0 187.5 -58t74.5 -146q0 -75 -45 -124.5t-131 -68.5q102 -20 155.5 -74.5t53.5 -138.5q0 -105 -90 -176.5t-223 -71.5q-99 0 -168.5 45.5t-69.5 110.5zM365 0l737 1366h104 l-735 -1366h-106zM961 225v62l380 547h86v-543h107v-66h-107v-106l3 -37q3 -15 32 -21q19 -3 25 -9t6 -21v-31h-270v31q0 25 30 30q31 7 37 15.5t6 42.5v106h-335zM1051 291h245v350z" />
<glyph unicode="&#xbf;" horiz-adv-x="800" d="M55 -78q0 104 66 191q24 32 45 53t102 92q76 69 111 140t35 157v4h75v-4q0 -95 -20 -152.5t-86 -154.5q-68 -99 -94.5 -166.5t-26.5 -144.5q0 -112 58.5 -186.5t146.5 -74.5q52 0 92.5 24.5t40.5 55.5q0 20 -25 29q-57 25 -57 84q0 44 32.5 74t78.5 30q53 0 86 -36 t33 -93q0 -101 -93 -170t-229 -69q-157 0 -264 91t-107 226zM326 807q0 48 34.5 82.5t83.5 34.5q47 0 82 -35t35 -82q0 -49 -34.5 -84t-84.5 -35q-47 0 -81.5 35t-34.5 84z" />
<glyph unicode="&#xc0;" horiz-adv-x="1333" d="M20 0v39q0 18 10 27.5t36 15.5q36 9 60.5 36.5t51.5 92.5l389 952l-47 119q-4 16 -4 18q0 16 29 35l104 64q16 10 21 10t10 -14l510 -1227q22 -53 38 -67.5t62 -28.5q23 -9 23 -33v-39h-436v39q0 15 9 23t32 14q35 10 48 21t13 30q0 27 -23 84l-69 170h-539l-57 -150 q-25 -65 -25 -90q0 -26 14.5 -39.5t53.5 -25.5q19 -6 26 -14t7 -23v-39h-347zM381 1667q0 31 22.5 53.5t53.5 22.5q50 0 131 -64l188 -143l-35 -55l-260 92q-100 37 -100 94zM387 473h459l-230 567z" />
<glyph unicode="&#xc1;" horiz-adv-x="1333" d="M20 0v39q0 18 10 27.5t36 15.5q36 9 60.5 36.5t51.5 92.5l389 952l-47 119q-4 16 -4 18q0 16 29 35l104 64q16 10 21 10t10 -14l510 -1227q22 -53 38 -67.5t62 -28.5q23 -9 23 -33v-39h-436v39q0 15 9 23t32 14q35 10 48 21t13 30q0 27 -23 84l-69 170h-539l-57 -150 q-25 -65 -25 -90q0 -26 14.5 -39.5t53.5 -25.5q19 -6 26 -14t7 -23v-39h-347zM387 473h459l-230 567zM510 1536l188 143q81 64 131 64q31 0 53.5 -22.5t22.5 -53.5q0 -58 -100 -94l-262 -92z" />
<glyph unicode="&#xc2;" horiz-adv-x="1333" d="M20 0v39q0 18 10 27.5t36 15.5q36 9 60.5 36.5t51.5 92.5l389 952l-47 119q-4 16 -4 18q0 16 29 35l104 64q16 10 21 10t10 -14l510 -1227q22 -53 38 -67.5t62 -28.5q23 -9 23 -33v-39h-436v39q0 15 9 23t32 14q35 10 48 21t13 30q0 27 -23 84l-69 170h-539l-57 -150 q-25 -65 -25 -90q0 -26 14.5 -39.5t53.5 -25.5q19 -6 26 -14t7 -23v-39h-347zM315 1554l232 144q54 31 100 31q54 0 101 -31l231 -144l-45 -65l-186 74q-58 22 -101 22q-45 0 -100 -22l-187 -74zM387 473h459l-230 567z" />
<glyph unicode="&#xc3;" horiz-adv-x="1333" d="M20 0v39q0 18 10 27.5t36 15.5q36 9 60.5 36.5t51.5 92.5l389 952l-47 119q-4 16 -4 18q0 16 29 35l104 64q16 10 21 10t10 -14l510 -1227q22 -53 38 -67.5t62 -28.5q23 -9 23 -33v-39h-436v39q0 15 9 23t32 14q35 10 48 21t13 30q0 27 -23 84l-69 170h-539l-57 -150 q-25 -65 -25 -90q0 -26 14.5 -39.5t53.5 -25.5q19 -6 26 -14t7 -23v-39h-347zM344 1581q0 41 68.5 85t134.5 44q52 0 160 -39q65 -22 98 -22q37 0 66.5 13.5t70.5 49.5l25 -35q8 -13 8 -20q0 -47 -70 -95.5t-139 -48.5q-47 0 -139 35q-74 29 -115 29q-78 0 -137 -59l-23 41 q-8 16 -8 22zM387 473h459l-230 567z" />
<glyph unicode="&#xc4;" horiz-adv-x="1333" d="M20 0v39q0 18 10 27.5t36 15.5q36 9 60.5 36.5t51.5 92.5l389 952l-47 119q-4 16 -4 18q0 16 29 35l104 64q16 10 21 10t10 -14l510 -1227q22 -53 38 -67.5t62 -28.5q23 -9 23 -33v-39h-436v39q0 15 9 23t32 14q35 10 48 21t13 30q0 27 -23 84l-69 170h-539l-57 -150 q-25 -65 -25 -90q0 -26 14.5 -39.5t53.5 -25.5q19 -6 26 -14t7 -23v-39h-347zM356 1610q0 47 34.5 80.5t82.5 33.5q50 0 83.5 -33.5t33.5 -82.5q0 -47 -35 -82t-82 -35q-49 0 -83 34.5t-34 84.5zM387 473h459l-230 567zM705 1610q0 47 34.5 80.5t81.5 33.5q50 0 83.5 -33.5 t33.5 -82.5q0 -47 -35 -82t-82 -35q-49 0 -82.5 34.5t-33.5 84.5z" />
<glyph unicode="&#xc5;" horiz-adv-x="1333" d="M20 0v39q0 18 10 27.5t36 15.5q36 9 60.5 36.5t51.5 92.5l389 952l-47 119q-4 16 -4 18q0 16 29 35l104 64q16 10 21 10t10 -14l510 -1227q22 -53 38 -67.5t62 -28.5q23 -9 23 -33v-39h-436v39q0 15 9 23t32 14q35 10 48 21t13 30q0 27 -23 84l-69 170h-539l-57 -150 q-25 -65 -25 -90q0 -26 14.5 -39.5t53.5 -25.5q19 -6 26 -14t7 -23v-39h-347zM387 473h459l-230 567zM473 1645q0 69 51.5 118t122.5 49t121.5 -51t50.5 -121t-50.5 -121t-121.5 -51q-72 0 -123 52t-51 125zM561 1642q0 -37 25.5 -63.5t60.5 -26.5q34 0 59 26t25 62 q0 37 -25 63t-59 26q-35 0 -60.5 -26t-25.5 -61z" />
<glyph unicode="&#xc6;" horiz-adv-x="1886" d="M-20 0v31q0 24 5 31t29 14q40 12 67.5 45t88.5 137l530 901q31 53 31 76q0 35 -72 53q-26 6 -31 13.5t-5 35.5v29h882q111 0 146.5 5t77.5 26v-328h-31q-37 0 -45 6q-8 5 -13.5 15.5t-33.5 70.5q-32 69 -70.5 91t-126.5 22h-311v-522h153q49 0 69 4.5t40 21.5 q17 13 22 22.5t23 59.5q4 13 15.5 18t37.5 5h37v-355h-43q-32 0 -44 9.5t-22 44.5q-17 51 -40.5 64t-94.5 13h-153v-567h319q149 0 210 44.5t89 170.5q7 32 19 40.5t47 8.5h37v-356h-1031v31q0 43 37 43h21q12 0 24.5 8.5t18.5 19.5q8 19 8 97v460h-387l-244 -438 q-30 -58 -30 -88q0 -25 13.5 -35.5t63.5 -25.5q14 -5 18.5 -12.5t4.5 -28.5v-31h-356zM565 752h332v501q0 27 -12 27q-8 0 -11 -3.5t-12 -23.5z" />
<glyph unicode="&#xc7;" horiz-adv-x="1212" d="M76 678q0 202 78 368t214.5 260.5t303.5 94.5q136 0 266 -78q43 -27 61 -27q21 0 31 29h76v-356h-57q-21 0 -32 13.5t-24 55.5q-51 151 -122.5 217t-186.5 66q-180 0 -281.5 -167.5t-101.5 -463.5q0 -288 115 -456t313 -168q132 0 244 92q34 29 114 123l64 -52 q-98 -142 -206.5 -203t-262.5 -59l-55 -86q25 4 51 4q77 0 130.5 -44.5t53.5 -108.5q0 -75 -69 -126.5t-170 -51.5q-86 0 -168 40q-23 9 -23 29q0 7 6 19l23 49q56 -28 84.5 -36.5t66.5 -8.5q51 0 79 20.5t28 57.5q0 32 -25 53.5t-63 21.5q-41 0 -94 -20l-52 67l88 131 q-230 52 -363.5 240.5t-133.5 460.5z" />
<glyph unicode="&#xc8;" horiz-adv-x="1155" d="M88 0v35q0 32 45 41q43 17 53.5 32t10.5 58v1032q0 41 -6.5 53.5t-34.5 24.5l-23 12q-23 9 -34 18.5t-11 24.5v35h776q86 0 142 27v-330h-52q-17 0 -26 9t-21 38q-25 59 -41.5 87.5t-44.5 48t-61.5 24t-95.5 4.5h-267v-512h119q92 0 127 18.5t47 77.5q9 27 33 27h53v-357 h-53q-17 0 -27 10.5t-20 41.5q-20 57 -49 73.5t-111 16.5h-119v-578h277q115 0 172.5 17t89.5 60.5t55 137.5q6 26 17.5 36.5t33.5 10.5h43v-354h-997zM322 1667q0 15 6 29t16 24.5t24 16.5t29 6q50 0 131 -64l189 -143l-35 -55l-260 92q-100 37 -100 94z" />
<glyph unicode="&#xc9;" horiz-adv-x="1155" d="M88 0v35q0 32 45 41q43 17 53.5 32t10.5 58v1032q0 41 -6.5 53.5t-34.5 24.5l-23 12q-23 9 -34 18.5t-11 24.5v35h776q86 0 142 27v-330h-52q-17 0 -26 9t-21 38q-25 59 -41.5 87.5t-44.5 48t-61.5 24t-95.5 4.5h-267v-512h119q92 0 127 18.5t47 77.5q9 27 33 27h53v-357 h-53q-17 0 -27 10.5t-20 41.5q-20 57 -49 73.5t-111 16.5h-119v-578h277q115 0 172.5 17t89.5 60.5t55 137.5q6 26 17.5 36.5t33.5 10.5h43v-354h-997zM444 1536l189 143q81 64 131 64q31 0 53.5 -22.5t22.5 -53.5q0 -58 -101 -94l-262 -92z" />
<glyph unicode="&#xca;" horiz-adv-x="1155" d="M88 0v35q0 32 45 41q43 17 53.5 32t10.5 58v1032q0 41 -6.5 53.5t-34.5 24.5l-23 12q-23 9 -34 18.5t-11 24.5v35h776q86 0 142 27v-330h-52q-17 0 -26 9t-21 38q-25 59 -41.5 87.5t-44.5 48t-61.5 24t-95.5 4.5h-267v-512h119q92 0 127 18.5t47 77.5q9 27 33 27h53v-357 h-53q-17 0 -27 10.5t-20 41.5q-20 57 -49 73.5t-111 16.5h-119v-578h277q115 0 172.5 17t89.5 60.5t55 137.5q6 26 17.5 36.5t33.5 10.5h43v-354h-997zM250 1554l231 144q54 31 101 31q53 0 100 -31l231 -144l-45 -65l-186 74q-58 22 -100 22q-46 0 -101 -22l-186 -74z" />
<glyph unicode="&#xcb;" horiz-adv-x="1155" d="M88 0v35q0 32 45 41q43 17 53.5 32t10.5 58v1032q0 41 -6.5 53.5t-34.5 24.5l-23 12q-23 9 -34 18.5t-11 24.5v35h776q86 0 142 27v-330h-52q-17 0 -26 9t-21 38q-25 59 -41.5 87.5t-44.5 48t-61.5 24t-95.5 4.5h-267v-512h119q92 0 127 18.5t47 77.5q9 27 33 27h53v-357 h-53q-17 0 -27 10.5t-20 41.5q-20 57 -49 73.5t-111 16.5h-119v-578h277q115 0 172.5 17t89.5 60.5t55 137.5q6 26 17.5 36.5t33.5 10.5h43v-354h-997zM291 1610q0 23 9.5 44t25.5 36.5t37.5 24.5t44.5 9q50 0 83 -33t33 -83q0 -47 -34.5 -82t-81.5 -35q-49 0 -83 34.5 t-34 84.5zM639 1610q0 23 9.5 44t25.5 36.5t37.5 24.5t44.5 9q50 0 83 -33t33 -83q0 -47 -34.5 -82t-81.5 -35q-49 0 -83 34.5t-34 84.5z" />
<glyph unicode="&#xcc;" horiz-adv-x="593" d="M39 1667q0 31 22.5 53.5t53.5 22.5q50 0 131 -64l188 -143l-35 -55l-260 92q-100 37 -100 94zM88 0v35q0 21 10 29t35 12q27 4 40.5 12.5t18.5 25t5 48.5v1042q0 35 -7.5 52t-21.5 24t-47 12q-18 3 -25.5 12t-7.5 27v35h418v-35q0 -33 -45 -41q-41 -11 -52.5 -25.5 t-11.5 -60.5v-1042q0 -48 14.5 -64t61.5 -24q33 -9 33 -39v-35h-418z" />
<glyph unicode="&#xcd;" horiz-adv-x="593" d="M88 0v35q0 21 10 29t35 12q27 4 40.5 12.5t18.5 25t5 48.5v1042q0 35 -7.5 52t-21.5 24t-47 12q-18 3 -25.5 12t-7.5 27v35h418v-35q0 -33 -45 -41q-41 -11 -52.5 -25.5t-11.5 -60.5v-1042q0 -48 14.5 -64t61.5 -24q33 -9 33 -39v-35h-418zM160 1536l188 143 q81 64 131 64q31 0 53.5 -22.5t22.5 -53.5q0 -58 -100 -94l-262 -92z" />
<glyph unicode="&#xce;" horiz-adv-x="593" d="M14 1554l197 144q42 31 86 31q41 0 86 -31l199 -144l-43 -65l-156 74q-50 22 -86 22q-35 0 -84 -22l-156 -74zM88 0v35q0 21 10 29t35 12q27 4 40.5 12.5t18.5 25t5 48.5v1042q0 35 -7.5 52t-21.5 24t-47 12q-18 3 -25.5 12t-7.5 27v35h418v-35q0 -33 -45 -41 q-41 -11 -52.5 -25.5t-11.5 -60.5v-1042q0 -48 14.5 -64t61.5 -24q33 -9 33 -39v-35h-418z" />
<glyph unicode="&#xcf;" horiz-adv-x="593" d="M37 1610q0 44 33.5 77t79.5 33t79 -33t33 -79t-33 -79.5t-79 -33.5t-79.5 34t-33.5 81zM88 0v35q0 21 10 29t35 12q27 4 40.5 12.5t18.5 25t5 48.5v1042q0 35 -7.5 52t-21.5 24t-47 12q-18 3 -25.5 12t-7.5 27v35h418v-35q0 -33 -45 -41q-41 -11 -52.5 -25.5t-11.5 -60.5 v-1042q0 -48 14.5 -64t61.5 -24q33 -9 33 -39v-35h-418zM330 1610q0 44 33 77t79 33t79.5 -33t33.5 -79t-33.5 -79.5t-79.5 -33.5t-79 34t-33 81z" />
<glyph unicode="&#xd0;" horiz-adv-x="1359" d="M88 1331v35h578q182 0 321 -92q299 -200 299 -569q0 -207 -94 -374.5t-264 -264.5q-73 -40 -141 -53t-212 -13h-485v35q0 10 2 16.5t10 11.5t12 7t19 8q48 25 56 36.5t8 55.5v489h-107v93h107v446q0 49 -15 64q-29 19 -61 30q-20 6 -26.5 14t-6.5 25zM397 92h156 q139 0 215.5 24t138.5 87q72 74 113 205.5t41 291.5q0 171 -51.5 301.5t-146.5 201.5t-220 71h-246v-522h342v-93h-342v-567z" />
<glyph unicode="&#xd1;" horiz-adv-x="1392" d="M88 0v33q0 24 5 32.5t22 16.5q37 18 53 35.5t22.5 46.5t6.5 88v952q0 50 -16 66t-64 22q-29 6 -29 39v35h361l641 -967v748q0 66 -15.5 92t-64.5 45q-25 11 -29 41v41h322v-41q-3 -19 -9 -25t-26 -12q-42 -17 -58 -55.5t-16 -122.5v-1110h-90l-803 1212v-893 q0 -107 12 -169q6 -25 18.5 -38.5t41.5 -25.5q25 -9 31 -18t6 -35v-33h-322zM401 1581q0 27 32 57.5t80 51t91 20.5q52 0 160 -39q65 -22 98 -22q37 0 66.5 13.5t70.5 49.5l25 -35q8 -13 8 -20q0 -23 -20 -49t-50 -46.5t-68 -34.5t-71 -14q-29 0 -55.5 6.5t-83.5 28.5 q-74 29 -115 29q-78 0 -137 -59l-22 41q-9 18 -9 22z" />
<glyph unicode="&#xd2;" horiz-adv-x="1415" d="M76 690q0 186 73 343t203 249q169 119 365 119q181 0 323.5 -90.5t221.5 -253t79 -369.5q0 -202 -83.5 -368t-229.5 -260.5t-323 -94.5q-132 0 -249 55.5t-200 151.5t-131.5 230.5t-48.5 287.5zM301 684q0 -326 115 -500q93 -139 295 -139q405 0 405 631 q0 315 -102.5 480t-300.5 165t-305 -165t-107 -472zM449 1667q0 31 22 53.5t53 22.5q50 0 131 -64l189 -143l-35 -55l-260 92q-100 37 -100 94z" />
<glyph unicode="&#xd3;" horiz-adv-x="1415" d="M76 690q0 186 73 343t203 249q169 119 365 119q181 0 323.5 -90.5t221.5 -253t79 -369.5q0 -202 -83.5 -368t-229.5 -260.5t-323 -94.5q-132 0 -249 55.5t-200 151.5t-131.5 230.5t-48.5 287.5zM301 684q0 -326 115 -500q93 -139 295 -139q405 0 405 631 q0 315 -102.5 480t-300.5 165t-305 -165t-107 -472zM573 1536l189 143q81 64 131 64q31 0 53.5 -22.5t22.5 -53.5q0 -58 -101 -94l-262 -92z" />
<glyph unicode="&#xd4;" horiz-adv-x="1415" d="M76 690q0 186 73 343t203 249q169 119 365 119q181 0 323.5 -90.5t221.5 -253t79 -369.5q0 -202 -83.5 -368t-229.5 -260.5t-323 -94.5q-132 0 -249 55.5t-200 151.5t-131.5 230.5t-48.5 287.5zM301 684q0 -326 115 -500q93 -139 295 -139q405 0 405 631 q0 315 -102.5 480t-300.5 165t-305 -165t-107 -472zM383 1554l231 144q54 31 101 31q53 0 100 -31l232 -144l-46 -65l-186 74q-58 22 -100 22q-46 0 -101 -22l-186 -74z" />
<glyph unicode="&#xd5;" horiz-adv-x="1415" d="M76 690q0 186 73 343t203 249q169 119 365 119q181 0 323.5 -90.5t221.5 -253t79 -369.5q0 -202 -83.5 -368t-229.5 -260.5t-323 -94.5q-132 0 -249 55.5t-200 151.5t-131.5 230.5t-48.5 287.5zM301 684q0 -326 115 -500q93 -139 295 -139q405 0 405 631 q0 315 -102.5 480t-300.5 165t-305 -165t-107 -472zM414 1581q0 41 68 85t134 44q52 0 160 -39q65 -22 98 -22q37 0 67 13.5t71 49.5l24 -35q8 -13 8 -20q0 -47 -69.5 -95.5t-138.5 -48.5q-48 0 -140 35q-74 29 -114 29q-79 0 -138 -59l-22 41q-8 16 -8 22z" />
<glyph unicode="&#xd6;" horiz-adv-x="1415" d="M76 690q0 186 73 343t203 249q169 119 365 119q181 0 323.5 -90.5t221.5 -253t79 -369.5q0 -202 -83.5 -368t-229.5 -260.5t-323 -94.5q-132 0 -249 55.5t-200 151.5t-131.5 230.5t-48.5 287.5zM301 684q0 -326 115 -500q93 -139 295 -139q405 0 405 631 q0 315 -102.5 480t-300.5 165t-305 -165t-107 -472zM424 1610q0 47 34.5 80.5t82.5 33.5q49 0 82.5 -33t33.5 -83q0 -47 -34.5 -82t-81.5 -35q-49 0 -83 34.5t-34 84.5zM772 1610q0 47 34.5 80.5t82.5 33.5q50 0 83.5 -33.5t33.5 -82.5q0 -47 -35 -82t-82 -35 q-49 0 -83 34.5t-34 84.5z" />
<glyph unicode="&#xd7;" d="M94 389l287 287l-285 285l99 96l282 -285l287 287l96 -96l-287 -287l287 -287l-96 -96l-287 287l-287 -287z" />
<glyph unicode="&#xd8;" horiz-adv-x="1415" d="M76 692q0 201 83.5 363.5t231.5 254t332 91.5q103 0 200 -35t171 -98l125 159h104l-166 -215q184 -208 184 -516q0 -206 -83 -373.5t-228.5 -262.5t-324.5 -95q-109 0 -198 32t-177 103l-119 -161h-107l166 223q-194 206 -194 530zM301 686q0 -248 66 -401l643 872 q-52 84 -124.5 124t-172.5 40q-198 0 -305 -164.5t-107 -470.5zM403 199q74 -89 138 -121.5t170 -32.5q405 0 405 631q0 127 -13.5 215t-47.5 180z" />
<glyph unicode="&#xd9;" horiz-adv-x="1372" d="M76 1331v35h418v-35q0 -21 -9.5 -28.5t-33.5 -12.5q-42 -9 -54 -24.5t-12 -61.5v-823q0 -146 89.5 -230.5t242.5 -84.5q106 0 190.5 42.5t130.5 118.5q26 45 36.5 95t10.5 139v665q0 85 -15.5 118t-59.5 40q-29 4 -36 13.5t-7 37.5v31h331v-37q0 -26 -11 -35.5t-52 -21.5 q-26 -8 -35.5 -41.5t-9.5 -122.5v-696q0 -194 -131 -322q-131 -125 -375 -125q-237 0 -368.5 119t-131.5 334v794q0 42 -15.5 57.5t-59.5 22.5q-33 5 -33 39zM449 1667q0 15 6 29t16 24.5t24 16.5t29 6q50 0 131 -64l189 -143l-35 -55l-260 92q-100 37 -100 94z" />
<glyph unicode="&#xda;" horiz-adv-x="1372" d="M76 1331v35h418v-35q0 -21 -9.5 -28.5t-33.5 -12.5q-42 -9 -54 -24.5t-12 -61.5v-823q0 -146 89.5 -230.5t242.5 -84.5q106 0 190.5 42.5t130.5 118.5q26 45 36.5 95t10.5 139v665q0 85 -15.5 118t-59.5 40q-29 4 -36 13.5t-7 37.5v31h331v-37q0 -26 -11 -35.5t-52 -21.5 q-26 -8 -35.5 -41.5t-9.5 -122.5v-696q0 -194 -131 -322q-131 -125 -375 -125q-237 0 -368.5 119t-131.5 334v794q0 42 -15.5 57.5t-59.5 22.5q-33 5 -33 39zM571 1536l189 143q81 64 131 64q31 0 53.5 -22.5t22.5 -53.5q0 -58 -101 -94l-262 -92z" />
<glyph unicode="&#xdb;" horiz-adv-x="1372" d="M76 1331v35h418v-35q0 -21 -9.5 -28.5t-33.5 -12.5q-42 -9 -54 -24.5t-12 -61.5v-823q0 -146 89.5 -230.5t242.5 -84.5q106 0 190.5 42.5t130.5 118.5q26 45 36.5 95t10.5 139v665q0 85 -15.5 118t-59.5 40q-29 4 -36 13.5t-7 37.5v31h331v-37q0 -26 -11 -35.5t-52 -21.5 q-26 -8 -35.5 -41.5t-9.5 -122.5v-696q0 -194 -131 -322q-131 -125 -375 -125q-237 0 -368.5 119t-131.5 334v794q0 42 -15.5 57.5t-59.5 22.5q-33 5 -33 39zM375 1554l231 144q54 31 101 31q53 0 100 -31l231 -144l-45 -65l-186 74q-58 22 -100 22q-46 0 -101 -22l-186 -74 z" />
<glyph unicode="&#xdc;" horiz-adv-x="1372" d="M76 1331v35h418v-35q0 -21 -9.5 -28.5t-33.5 -12.5q-42 -9 -54 -24.5t-12 -61.5v-823q0 -146 89.5 -230.5t242.5 -84.5q106 0 190.5 42.5t130.5 118.5q26 45 36.5 95t10.5 139v665q0 85 -15.5 118t-59.5 40q-29 4 -36 13.5t-7 37.5v31h331v-37q0 -26 -11 -35.5t-52 -21.5 q-26 -8 -35.5 -41.5t-9.5 -122.5v-696q0 -194 -131 -322q-131 -125 -375 -125q-237 0 -368.5 119t-131.5 334v794q0 42 -15.5 57.5t-59.5 22.5q-33 5 -33 39zM416 1610q0 47 34.5 80.5t81.5 33.5q50 0 83.5 -33.5t33.5 -82.5q0 -47 -35 -82t-82 -35q-49 0 -82.5 34.5 t-33.5 84.5zM764 1610q0 23 9.5 44t25.5 36.5t37.5 24.5t44.5 9q49 0 82.5 -33.5t33.5 -82.5q0 -47 -34.5 -82t-81.5 -35q-49 0 -83 34.5t-34 84.5z" />
<glyph unicode="&#xdd;" horiz-adv-x="1265" d="M14 1327v39h439v-39q0 -15 -11 -22.5t-47 -14.5q-35 -9 -35 -39q0 -14 29 -67l299 -500l277 479q36 63 36 90q0 26 -55 39q-25 7 -34 14.5t-9 20.5v39h350v-39q0 -21 -30 -29q-40 -11 -61 -30.5t-60 -83.5l-369 -609v-413q0 -11 1 -19.5t1.5 -15t3.5 -12t4 -9.5t6.5 -8 t7 -5.5t10 -5t10.5 -4.5t13.5 -4.5t14.5 -4.5q20 -6 28.5 -14.5t8.5 -24.5v-35h-418v35q0 21 10 29t35 12q39 6 51 23t12 63v397l-358 604q-24 39 -49 72q-17 28 -35 41t-53 22q-23 3 -23 29zM512 1536l188 143q81 64 131 64q31 0 53.5 -22.5t22.5 -53.5q0 -58 -100 -94 l-262 -92z" />
<glyph unicode="&#xde;" horiz-adv-x="1148" d="M88 1331v35h420v-35q0 -14 -5 -22.5t-13.5 -12t-24.5 -6.5q-44 -9 -56 -23t-12 -57v-82h285q90 0 146.5 -14t111.5 -51q168 -110 168 -289q0 -99 -51.5 -183t-145.5 -136q-105 -60 -266 -60h-248v-233q0 -47 13.5 -61.5t62.5 -26.5q20 -4 26.5 -12.5t6.5 -26.5v-35h-416 v35q0 19 9.5 27.5t33.5 13.5q41 7 52.5 23.5t11.5 62.5v1048q0 46 -14 60t-62 22q-33 5 -33 39zM397 487h199q141 0 219 71t78 200q0 125 -70 201.5t-184 76.5h-242v-549z" />
<glyph unicode="&#xdf;" horiz-adv-x="1198" d="M45 848v45q0 15 10 23t39 12q47 7 65.5 35t33.5 112q26 151 137 234.5t284 83.5q172 0 278.5 -77.5t106.5 -203.5q0 -81 -51 -141q-27 -31 -59 -51.5t-119 -59.5q-55 -25 -77.5 -50t-22.5 -62q0 -52 49 -82q29 -19 176 -82q74 -32 115.5 -60t74.5 -67q68 -77 68 -174 q0 -127 -108 -218.5t-259 -91.5q-116 0 -198 55t-82 132q0 46 30.5 78t73.5 32q40 0 68.5 -25.5t28.5 -60.5q0 -4 -5.5 -27.5t-7.5 -37.5q0 -34 33.5 -54t87.5 -20q76 0 130 52t54 126q0 34 -15 70.5t-40 62.5q-43 43 -164 99q-104 48 -130 62.5t-58 43.5q-68 59 -68 146 q0 58 26.5 93t94.5 64q97 41 137.5 91t40.5 128q0 103 -68.5 170.5t-174.5 67.5q-54 0 -104 -22.5t-83 -63.5q-23 -26 -30 -63t-7 -128v-866q0 -18 0.5 -30.5t4 -22.5t4.5 -14.5t10 -10.5t11.5 -7.5t17 -7t20.5 -7.5q29 -9 29 -41v-37h-390v37q0 35 29 41l23 4q39 11 48 26 t9 70v670h-127z" />
<glyph unicode="&#xe0;" horiz-adv-x="985" d="M51 240q0 138 146 223.5t432 114.5q-6 105 -15.5 148.5t-33.5 76.5q-57 78 -142 78q-42 0 -60.5 -19t-23.5 -65q-5 -47 -35.5 -77t-74.5 -30t-73.5 26t-29.5 66q0 69 87 119.5t208 50.5q106 0 198.5 -41.5t133.5 -107.5q53 -88 53 -293v-254q0 -96 21 -141t65 -45 q23 0 54 24l16 -24q4 -8 4 -15q0 -32 -48 -61t-99 -29q-65 0 -106.5 31.5t-72.5 103.5q-79 -79 -136.5 -107t-143.5 -28q-141 0 -232.5 77.5t-91.5 197.5zM236 1262q0 32 22 54.5t53 22.5q23 0 42.5 -12t68.5 -53l182 -156l-35 -49l-245 102q-48 20 -68 41t-20 50zM262 231 q0 -79 43.5 -128.5t112.5 -49.5q62 0 114 35.5t78 95.5q27 61 27 238v88q-183 -22 -279 -93t-96 -186z" />
<glyph unicode="&#xe1;" horiz-adv-x="985" d="M51 240q0 138 146 223.5t432 114.5q-6 105 -15.5 148.5t-33.5 76.5q-57 78 -142 78q-42 0 -60.5 -19t-23.5 -65q-5 -47 -35.5 -77t-74.5 -30t-73.5 26t-29.5 66q0 69 87 119.5t208 50.5q106 0 198.5 -41.5t133.5 -107.5q53 -88 53 -293v-254q0 -96 21 -141t65 -45 q23 0 54 24l16 -24q4 -8 4 -15q0 -32 -48 -61t-99 -29q-65 0 -106.5 31.5t-72.5 103.5q-79 -79 -136.5 -107t-143.5 -28q-141 0 -232.5 77.5t-91.5 197.5zM262 231q0 -79 43.5 -128.5t112.5 -49.5q62 0 114 35.5t78 95.5q27 61 27 238v88q-183 -22 -279 -93t-96 -186z M358 1118l183 156q50 42 69 53.5t41 11.5q31 0 53.5 -22.5t22.5 -54.5q0 -29 -20 -50t-68 -41l-248 -102z" />
<glyph unicode="&#xe2;" horiz-adv-x="985" d="M51 240q0 138 146 223.5t432 114.5q-6 105 -15.5 148.5t-33.5 76.5q-57 78 -142 78q-42 0 -60.5 -19t-23.5 -65q-5 -47 -35.5 -77t-74.5 -30t-73.5 26t-29.5 66q0 69 87 119.5t208 50.5q106 0 198.5 -41.5t133.5 -107.5q53 -88 53 -293v-254q0 -96 21 -141t65 -45 q23 0 54 24l16 -24q4 -8 4 -15q0 -32 -48 -61t-99 -29q-65 0 -106.5 31.5t-72.5 103.5q-79 -79 -136.5 -107t-143.5 -28q-141 0 -232.5 77.5t-91.5 197.5zM180 1139l207 145q53 37 94 37q44 0 97 -37l206 -145l-45 -64l-157 74q-66 29 -101 29q-32 0 -98 -29l-158 -74z M262 231q0 -79 43.5 -128.5t112.5 -49.5q62 0 114 35.5t78 95.5q27 61 27 238v88q-183 -22 -279 -93t-96 -186z" />
<glyph unicode="&#xe3;" horiz-adv-x="985" d="M51 240q0 138 146 223.5t432 114.5q-6 105 -15.5 148.5t-33.5 76.5q-57 78 -142 78q-42 0 -60.5 -19t-23.5 -65q-5 -47 -35.5 -77t-74.5 -30t-73.5 26t-29.5 66q0 69 87 119.5t208 50.5q106 0 198.5 -41.5t133.5 -107.5q53 -88 53 -293v-254q0 -96 21 -141t65 -45 q23 0 54 24l16 -24q4 -8 4 -15q0 -32 -48 -61t-99 -29q-65 0 -106.5 31.5t-72.5 103.5q-79 -79 -136.5 -107t-143.5 -28q-141 0 -232.5 77.5t-91.5 197.5zM201 1163q0 37 62.5 79t117.5 42q46 0 143 -39q56 -22 88 -22t58 14t65 51l21 -26q8 -16 8 -25q0 -33 -45 -78 q-64 -61 -144 -61q-42 0 -122 35q-66 28 -105 28q-70 0 -123 -59l-16 31q-8 24 -8 30zM262 231q0 -79 43.5 -128.5t112.5 -49.5q62 0 114 35.5t78 95.5q27 61 27 238v88q-183 -22 -279 -93t-96 -186z" />
<glyph unicode="&#xe4;" horiz-adv-x="985" d="M51 240q0 138 146 223.5t432 114.5q-6 105 -15.5 148.5t-33.5 76.5q-57 78 -142 78q-42 0 -60.5 -19t-23.5 -65q-5 -47 -35.5 -77t-74.5 -30t-73.5 26t-29.5 66q0 69 87 119.5t208 50.5q106 0 198.5 -41.5t133.5 -107.5q53 -88 53 -293v-254q0 -96 21 -141t65 -45 q23 0 54 24l16 -24q4 -8 4 -15q0 -32 -48 -61t-99 -29q-65 0 -106.5 31.5t-72.5 103.5q-79 -79 -136.5 -107t-143.5 -28q-141 0 -232.5 77.5t-91.5 197.5zM209 1198q0 44 33.5 77.5t79.5 33.5t79 -33.5t33 -79.5t-33 -79.5t-79 -33.5t-79.5 34t-33.5 81zM262 231 q0 -79 43.5 -128.5t112.5 -49.5q62 0 114 35.5t78 95.5q27 61 27 238v88q-183 -22 -279 -93t-96 -186zM530 1198q0 44 33.5 77.5t79.5 33.5t79.5 -33.5t33.5 -79.5t-33.5 -79.5t-79.5 -33.5t-79.5 34t-33.5 81z" />
<glyph unicode="&#xe5;" horiz-adv-x="985" d="M51 240q0 138 146 223.5t432 114.5q-6 105 -15.5 148.5t-33.5 76.5q-57 78 -142 78q-42 0 -60.5 -19t-23.5 -65q-5 -47 -35.5 -77t-74.5 -30t-73.5 26t-29.5 66q0 69 87 119.5t208 50.5q106 0 198.5 -41.5t133.5 -107.5q53 -88 53 -293v-254q0 -96 21 -141t65 -45 q23 0 54 24l16 -24q4 -8 4 -15q0 -32 -48 -61t-99 -29q-65 0 -106.5 31.5t-72.5 103.5q-79 -79 -136.5 -107t-143.5 -28q-141 0 -232.5 77.5t-91.5 197.5zM262 231q0 -79 43.5 -128.5t112.5 -49.5q62 0 114 35.5t78 95.5q27 61 27 238v88q-183 -22 -279 -93t-96 -186z M311 1227q0 68 51 117t121 49t120 -49.5t50 -118.5q0 -71 -50 -121.5t-120 -50.5q-72 0 -122 51t-50 123zM395 1225q0 -37 25.5 -63.5t62.5 -26.5q35 0 60.5 26.5t25.5 61.5q0 37 -25.5 62.5t-60.5 25.5q-37 0 -62.5 -25.5t-25.5 -60.5z" />
<glyph unicode="&#xe6;" horiz-adv-x="1540" d="M51 242q0 146 151 230t439 101q-6 297 -213 297q-40 0 -60 -14.5t-24 -48.5q-6 -45 -9.5 -57t-15.5 -29q-30 -37 -90 -37q-38 0 -64 24.5t-26 61.5q0 74 82 123t205 49q121 0 213 -45q39 -20 64 -47.5t47 -73.5q34 69 84 103q100 65 233 65q178 0 282.5 -121.5 t106.5 -328.5h-637q-2 -18 -2 -41q0 -83 31 -168t82 -140q81 -84 211 -84q76 0 133 31.5t145 122.5l56 -43q-74 -105 -162.5 -152t-212.5 -47q-122 0 -207 43t-148 136q-123 -179 -366 -179q-145 0 -236.5 75t-91.5 194zM250 233q0 -78 44 -125t116 -47q60 0 116.5 32 t85.5 83q35 59 35 219v92q-20 2 -51 2q-154 0 -250 -71t-96 -185zM821 586h439v14q0 130 -53 201t-150 71t-161.5 -78t-74.5 -208z" />
<glyph unicode="&#xe7;" horiz-adv-x="970" d="M66 471q0 206 145 346.5t360 140.5q143 0 232.5 -54t89.5 -142q0 -44 -32 -74.5t-79 -30.5q-46 0 -76 25.5t-30 65.5q0 6 3 33t3 30q0 34 -35.5 55t-93.5 21q-123 0 -200 -110t-77 -285q0 -189 97.5 -310t251.5 -121q66 0 123 26t120 83l62 -53q-75 -78 -163 -112.5 t-206 -31.5l-53 -86q25 2 47 2q80 0 131 -40t51 -103q0 -69 -63.5 -115.5t-157.5 -46.5q-57 0 -116.5 23t-59.5 45q0 10 4 18l23 41q49 -27 78.5 -37t62.5 -10q40 0 68 21.5t28 52.5q0 32 -30 57t-70 25q-22 0 -78 -21l-39 49l86 134q-185 37 -296 170t-111 319z" />
<glyph unicode="&#xe8;" horiz-adv-x="1019" d="M66 467q0 211 130.5 348t331.5 137q185 0 297.5 -120t112.5 -322v-18h-672v-37q0 -175 95 -288.5t241 -113.5q82 0 148 38t139 128l65 -49q-83 -109 -174 -157t-215 -48q-217 0 -358 142t-141 360zM274 584h457v22q0 125 -55.5 191.5t-159.5 66.5q-101 0 -165.5 -74 t-76.5 -206zM293 1262q0 32 22.5 54.5t53.5 22.5q22 0 41 -11.5t69 -53.5l183 -156l-35 -49l-246 102q-48 20 -68 41t-20 50z" />
<glyph unicode="&#xe9;" horiz-adv-x="1019" d="M66 467q0 211 130.5 348t331.5 137q185 0 297.5 -120t112.5 -322v-18h-672v-37q0 -175 95 -288.5t241 -113.5q82 0 148 38t139 128l65 -49q-83 -109 -174 -157t-215 -48q-217 0 -358 142t-141 360zM274 584h457v22q0 125 -55.5 191.5t-159.5 66.5q-101 0 -165.5 -74 t-76.5 -206zM416 1118l182 156q49 41 68.5 53t42.5 12q31 0 53 -22.5t22 -54.5q0 -29 -20 -50t-68 -41l-247 -102z" />
<glyph unicode="&#xea;" horiz-adv-x="1019" d="M66 467q0 211 130.5 348t331.5 137q185 0 297.5 -120t112.5 -322v-18h-672v-37q0 -175 95 -288.5t241 -113.5q82 0 148 38t139 128l65 -49q-83 -109 -174 -157t-215 -48q-217 0 -358 142t-141 360zM236 1139l206 145q53 37 95 37q43 0 96 -37l207 -145l-45 -64l-158 74 q-66 29 -100 29q-33 0 -99 -29l-157 -74zM274 584h457v22q0 125 -55.5 191.5t-159.5 66.5q-101 0 -165.5 -74t-76.5 -206z" />
<glyph unicode="&#xeb;" horiz-adv-x="1019" d="M66 467q0 211 130.5 348t331.5 137q185 0 297.5 -120t112.5 -322v-18h-672v-37q0 -175 95 -288.5t241 -113.5q82 0 148 38t139 128l65 -49q-83 -109 -174 -157t-215 -48q-217 0 -358 142t-141 360zM264 1198q0 44 33.5 77.5t79.5 33.5t79 -33.5t33 -79.5t-33 -79.5 t-79 -33.5t-79.5 34t-33.5 81zM274 584h457v22q0 125 -55.5 191.5t-159.5 66.5q-101 0 -165.5 -74t-76.5 -206zM586 1198q0 44 33 77.5t79 33.5t79.5 -33.5t33.5 -79.5t-33.5 -79.5t-79.5 -33.5t-79 34t-33 81z" />
<glyph unicode="&#xec;" horiz-adv-x="528" d="M25 1262q0 31 22 54t53 23q21 0 40.5 -12.5t64.5 -52.5l174 -156l-33 -49l-233 102q-51 22 -69.5 41t-18.5 50zM72 0v37q7 27 13 32.5t30 12.5q39 12 48 26.5t9 69.5v572q0 25 -2 40t-4.5 24.5t-13.5 16t-19 9.5t-31 10q-15 4 -19.5 10.5t-10.5 30.5v37l284 6v-756 q0 -18 0.5 -30.5t4 -22.5t4.5 -14.5t10 -10.5t11.5 -7.5t17 -7t20.5 -7.5q12 -2 22 -12q0 -2 2 -7.5t5 -12.5t4 -9v-37h-385z" />
<glyph unicode="&#xed;" horiz-adv-x="528" d="M72 0v37q7 27 13 32.5t30 12.5q39 12 48 26.5t9 69.5v572q0 25 -2 40t-4.5 24.5t-13.5 16t-19 9.5t-31 10q-15 4 -19.5 10.5t-10.5 30.5v37l284 6v-756q0 -18 0.5 -30.5t4 -22.5t4.5 -14.5t10 -10.5t11.5 -7.5t17 -7t20.5 -7.5q12 -2 22 -12q0 -2 2 -7.5t5 -12.5t4 -9 v-37h-385zM113 1118l168 156q48 43 65 54t39 11q31 0 53.5 -22.5t22.5 -54.5q0 -31 -17.5 -49.5t-68.5 -41.5l-228 -102z" />
<glyph unicode="&#xee;" horiz-adv-x="528" d="M-35 1139l185 145q50 37 88 37q41 0 88 -37l184 -145l-45 -64l-139 74q-53 29 -88 29q-38 0 -91 -29l-137 -74zM72 0v37q7 27 13 32.5t30 12.5q39 12 48 26.5t9 69.5v572q0 25 -2 40t-4.5 24.5t-13.5 16t-19 9.5t-31 10q-15 4 -19.5 10.5t-10.5 30.5v37l284 6v-756 q0 -18 0.5 -30.5t4 -22.5t4.5 -14.5t10 -10.5t11.5 -7.5t17 -7t20.5 -7.5q12 -2 22 -12q0 -2 2 -7.5t5 -12.5t4 -9v-37h-385z" />
<glyph unicode="&#xef;" horiz-adv-x="528" d="M-16 1198q0 43 32.5 75t77.5 32q44 0 76.5 -32.5t32.5 -76.5q0 -46 -32.5 -78.5t-76.5 -32.5q-45 0 -77.5 33.5t-32.5 79.5zM72 0v37q7 27 13 32.5t30 12.5q39 12 48 26.5t9 69.5v572q0 25 -2 40t-4.5 24.5t-13.5 16t-19 9.5t-31 10q-15 4 -19.5 10.5t-10.5 30.5v37 l284 6v-756q0 -18 0.5 -30.5t4 -22.5t4.5 -14.5t10 -10.5t11.5 -7.5t17 -7t20.5 -7.5q12 -2 22 -12q0 -2 2 -7.5t5 -12.5t4 -9v-37h-385zM270 1198q0 43 33 75t78 32q44 0 76 -32.5t32 -76.5q0 -46 -32 -78.5t-76 -32.5q-46 0 -78.5 33.5t-32.5 79.5z" />
<glyph unicode="&#xf0;" horiz-adv-x="1105" d="M66 465q0 206 137.5 349.5t333.5 143.5q73 0 122.5 -19t102.5 -67q-58 204 -184 308l-189 -113l-57 68l170 106q-32 23 -96.5 47t-120.5 35l18 63q62 -4 153 -32.5t140 -57.5l197 121l55 -67l-172 -109q79 -64 128.5 -120t92.5 -130q145 -247 145 -499q0 -225 -136 -372 t-345 -147q-214 0 -354.5 140t-140.5 352zM276 492q0 -217 72.5 -332t210.5 -115q130 0 200 110t70 314q0 202 -71 310t-203 108q-130 0 -204.5 -105t-74.5 -290z" />
<glyph unicode="&#xf1;" horiz-adv-x="1126" d="M72 0v37q0 5 0.5 9.5t2 8t2.5 6t4 5.5t4.5 4t6.5 3t6.5 3t8 3t8.5 3q39 11 48 26t9 70v572v25t-2 19t-2.5 14.5t-5 11t-6 8t-9.5 6.5t-11 5l-15 5t-17 6q-19 4 -25.5 13t-6.5 28v37l272 6v-96q86 68 147.5 91t159.5 23q160 0 242 -82q35 -35 48 -76t13 -112v-504 q0 -60 13 -74.5t63 -25.5q25 -3 25 -41v-37h-396v37q0 35 29 41l23 4q39 7 49 23.5t10 72.5v455q0 76 -9 114.5t-34 63.5q-56 53 -152 53q-62 0 -124 -32t-95 -84v-570q0 -60 13 -74.5t63 -25.5q29 -3 29 -41v-37h-389zM260 1163q0 37 62.5 79t117.5 42q47 0 144 -39 q56 -22 88 -22t58 14t65 51l20 -26q8 -16 8 -25q0 -33 -45 -78q-64 -61 -143 -61q-43 0 -123 35q-66 28 -104 28q-70 0 -123 -59l-17 31q-8 24 -8 30z" />
<glyph unicode="&#xf2;" horiz-adv-x="1105" d="M66 469q0 201 133 340q143 149 354 149t349 -138t138 -349q0 -138 -63 -252.5t-173 -180t-243 -65.5q-215 0 -355 140.5t-140 355.5zM276 492q0 -217 72.5 -332t210.5 -115q130 0 200 110t70 314q0 201 -71 309.5t-203 108.5q-130 0 -204.5 -105t-74.5 -290zM322 1262 q0 32 22 54.5t53 22.5q23 0 42.5 -12t68.5 -53l182 -156l-35 -49l-245 102q-48 20 -68 41t-20 50z" />
<glyph unicode="&#xf3;" horiz-adv-x="1105" d="M66 469q0 201 133 340q143 149 354 149t349 -138t138 -349q0 -138 -63 -252.5t-173 -180t-243 -65.5q-215 0 -355 140.5t-140 355.5zM276 492q0 -217 72.5 -332t210.5 -115q130 0 200 110t70 314q0 201 -71 309.5t-203 108.5q-130 0 -204.5 -105t-74.5 -290zM424 1118 l182 156q49 41 68.5 53t42.5 12q31 0 53.5 -22.5t22.5 -54.5q0 -29 -20 -50t-68 -41l-248 -102z" />
<glyph unicode="&#xf4;" horiz-adv-x="1105" d="M66 469q0 201 133 340q143 149 354 149t349 -138t138 -349q0 -138 -63 -252.5t-173 -180t-243 -65.5q-215 0 -355 140.5t-140 355.5zM258 1139l207 145q53 37 94 37q43 0 96 -37l207 -145l-45 -64l-158 74q-66 29 -100 29q-32 0 -98 -29l-158 -74zM276 492 q0 -217 72.5 -332t210.5 -115q130 0 200 110t70 314q0 201 -71 309.5t-203 108.5q-130 0 -204.5 -105t-74.5 -290z" />
<glyph unicode="&#xf5;" horiz-adv-x="1105" d="M66 469q0 201 133 340q143 149 354 149t349 -138t138 -349q0 -138 -63 -252.5t-173 -180t-243 -65.5q-215 0 -355 140.5t-140 355.5zM276 492q0 -217 72.5 -332t210.5 -115q130 0 200 110t70 314q0 201 -71 309.5t-203 108.5q-130 0 -204.5 -105t-74.5 -290zM293 1163 q0 37 62.5 79t117.5 42q46 0 143 -39q56 -22 89 -22q32 0 57.5 14t64.5 51l21 -26q8 -16 8 -25q0 -33 -45 -78q-64 -61 -143 -61q-43 0 -123 35q-66 28 -105 28q-70 0 -123 -59l-16 31q-8 24 -8 30z" />
<glyph unicode="&#xf6;" horiz-adv-x="1105" d="M66 469q0 201 133 340q143 149 354 149t349 -138t138 -349q0 -138 -63 -252.5t-173 -180t-243 -65.5q-215 0 -355 140.5t-140 355.5zM276 492q0 -217 72.5 -332t210.5 -115q130 0 200 110t70 314q0 201 -71 309.5t-203 108.5q-130 0 -204.5 -105t-74.5 -290zM287 1198 q0 44 33.5 77.5t78.5 33.5q46 0 79.5 -33.5t33.5 -79.5t-33.5 -79.5t-79.5 -33.5t-79 34t-33 81zM608 1198q0 44 33.5 77.5t79.5 33.5t79.5 -33.5t33.5 -79.5t-33.5 -79.5t-79.5 -33.5t-79.5 34t-33.5 81z" />
<glyph unicode="&#xf7;" d="M76 614v138h805v-138h-805zM377 389q0 41 30.5 72t71.5 31t72 -31t31 -72q0 -42 -31 -72t-74 -30q-40 0 -70 30.5t-30 71.5zM377 977q0 41 30.5 71.5t71.5 30.5t72 -30.5t31 -71.5q0 -43 -31 -73t-74 -30q-40 0 -70 31t-30 72z" />
<glyph unicode="&#xf8;" horiz-adv-x="1105" d="M66 463q0 212 139 353.5t348 141.5q154 0 278 -79l89 120h102l-129 -172q147 -132 147 -360q0 -136 -63.5 -249.5t-173 -179t-240.5 -65.5q-155 0 -276 78l-94 -119h-103l131 168q-155 137 -155 363zM276 481q0 -135 41 -254l437 561q-68 99 -201 99q-131 0 -204 -107 t-73 -299zM360 143q71 -98 203 -98q126 0 196 110t70 308q0 114 -32 237z" />
<glyph unicode="&#xf9;" horiz-adv-x="1140" d="M72 891v37l284 6v-631q0 -50 3.5 -79t11.5 -48t24 -37q25 -26 69 -41.5t95 -15.5q56 0 100.5 19t118.5 75v574q0 19 -1.5 32t-2.5 22.5t-6.5 16.5t-9 11t-14.5 7.5t-18 5t-24 5.5q-28 3 -28 41v37l295 6v-756q0 -32 2 -48t12.5 -27t19.5 -14t37 -11q29 -9 29 -41v-37 h-289v86q-58 -52 -138.5 -82.5t-158.5 -30.5q-143 0 -227 78t-84 211v488q0 43 -7 61.5t-19 24t-48 14.5q-26 3 -26 41zM303 1262q0 32 22.5 54.5t53.5 22.5q22 0 41 -11.5t69 -53.5l183 -156l-35 -49l-246 102q-24 10 -40.5 20t-27 21t-15.5 23t-5 27z" />
<glyph unicode="&#xfa;" horiz-adv-x="1140" d="M72 891v37l284 6v-631q0 -50 3.5 -79t11.5 -48t24 -37q25 -26 69 -41.5t95 -15.5q56 0 100.5 19t118.5 75v574q0 19 -1.5 32t-2.5 22.5t-6.5 16.5t-9 11t-14.5 7.5t-18 5t-24 5.5q-28 3 -28 41v37l295 6v-756q0 -32 2 -48t12.5 -27t19.5 -14t37 -11q29 -9 29 -41v-37 h-289v86q-58 -52 -138.5 -82.5t-158.5 -30.5q-143 0 -227 78t-84 211v488q0 43 -7 61.5t-19 24t-48 14.5q-26 3 -26 41zM426 1118l182 156q49 41 68.5 53t42.5 12q31 0 53.5 -22.5t22.5 -54.5q0 -29 -20 -50t-68 -41l-248 -102z" />
<glyph unicode="&#xfb;" horiz-adv-x="1140" d="M72 891v37l284 6v-631q0 -50 3.5 -79t11.5 -48t24 -37q25 -26 69 -41.5t95 -15.5q56 0 100.5 19t118.5 75v574q0 19 -1.5 32t-2.5 22.5t-6.5 16.5t-9 11t-14.5 7.5t-18 5t-24 5.5q-28 3 -28 41v37l295 6v-756q0 -32 2 -48t12.5 -27t19.5 -14t37 -11q29 -9 29 -41v-37 h-289v86q-58 -52 -138.5 -82.5t-158.5 -30.5q-143 0 -227 78t-84 211v488q0 43 -7 61.5t-19 24t-48 14.5q-26 3 -26 41zM248 1139l207 145q53 37 94 37q43 0 96 -37l207 -145l-45 -64l-158 74q-66 29 -100 29q-32 0 -98 -29l-158 -74z" />
<glyph unicode="&#xfc;" horiz-adv-x="1140" d="M72 891v37l284 6v-631q0 -50 3.5 -79t11.5 -48t24 -37q25 -26 69 -41.5t95 -15.5q56 0 100.5 19t118.5 75v574q0 19 -1.5 32t-2.5 22.5t-6.5 16.5t-9 11t-14.5 7.5t-18 5t-24 5.5q-28 3 -28 41v37l295 6v-756q0 -32 2 -48t12.5 -27t19.5 -14t37 -11q29 -9 29 -41v-37 h-289v86q-58 -52 -138.5 -82.5t-158.5 -30.5q-143 0 -227 78t-84 211v488q0 43 -7 61.5t-19 24t-48 14.5q-26 3 -26 41zM276 1198q0 44 33.5 77.5t79.5 33.5t79.5 -33.5t33.5 -79.5t-33.5 -79.5t-79.5 -33.5t-79.5 34t-33.5 81zM598 1198q0 44 33.5 77.5t79.5 33.5t79 -33.5 t33 -79.5t-33 -79.5t-79 -33.5t-79.5 34t-33.5 81z" />
<glyph unicode="&#xfd;" horiz-adv-x="1091" d="M20 885v43h443v-43q0 -20 -10.5 -27t-55.5 -14q-43 -9 -43 -37q0 -16 21 -62l237 -505l140 325q23 52 47 128.5t24 97.5q0 48 -63 61q-21 4 -29 11.5t-8 21.5v43h348v-43q0 -15 -9.5 -23.5t-35.5 -17.5q-31 -9 -44 -22.5t-32 -55.5l-381 -875q-66 -150 -152.5 -221 t-203.5 -71q-72 0 -116 29.5t-44 78.5q0 43 32 70.5t81 27.5q46 0 68 -16t32 -57q4 -21 29 -21q96 0 215 289l-354 766q-23 49 -41.5 63.5t-63.5 20.5q-31 6 -31 35zM436 1118l182 156q49 41 68.5 53t42.5 12q31 0 53.5 -22.5t22.5 -54.5q0 -29 -20 -50t-68 -41l-248 -102z " />
<glyph unicode="&#xfe;" horiz-adv-x="1138" d="M72 -358q0 14 2.5 22t11.5 12.5t13 6t20 4.5q38 9 47.5 25t9.5 71v1405q0 56 -8.5 71t-48.5 25q-28 11 -34 21q-5 10 -5 24v37l274 6v-526q117 106 267 106q195 0 323.5 -132t128.5 -333q0 -141 -61 -257.5t-168 -183t-236 -66.5q-70 0 -123.5 15t-124.5 54v-266 q0 -55 10 -70t50 -26l29 -4q28 -3 28 -41v-37h-405v37zM360 145q40 -37 93 -57t110 -20q31 0 64 8t63.5 24t54.5 37q117 105 117 332q0 80 -13 143t-40 110.5t-68 82.5q-68 59 -163 59q-126 0 -218 -100v-619z" />
<glyph unicode="&#xff;" horiz-adv-x="1091" d="M20 885v43h443v-43q0 -20 -10.5 -27t-55.5 -14q-43 -9 -43 -37q0 -16 21 -62l237 -505l140 325q23 52 47 128.5t24 97.5q0 48 -63 61q-21 4 -29 11.5t-8 21.5v43h348v-43q0 -15 -9.5 -23.5t-35.5 -17.5q-31 -9 -44 -22.5t-32 -55.5l-381 -875q-66 -150 -152.5 -221 t-203.5 -71q-72 0 -116 29.5t-44 78.5q0 43 32 70.5t81 27.5q46 0 68 -16t32 -57q4 -21 29 -21q96 0 215 289l-354 766q-23 49 -41.5 63.5t-63.5 20.5q-31 6 -31 35zM287 1198q0 44 33.5 77.5t78.5 33.5q46 0 79.5 -33.5t33.5 -79.5t-33.5 -79.5t-79.5 -33.5t-79 34t-33 81z M608 1198q0 44 33.5 77.5t79.5 33.5t79.5 -33.5t33.5 -79.5t-33.5 -79.5t-79.5 -33.5t-79.5 34t-33.5 81z" />
<glyph unicode="&#x152;" horiz-adv-x="1935" d="M76 688q0 187 85 345.5t232 250.5t320 92q31 0 104 -5t113 -5h688q95 0 164 27v-330h-56q-18 0 -26.5 11t-32.5 65q-37 83 -77 109t-132 26h-309v-518h172q62 0 89 20t44 78q9 27 35 27h57v-355h-59q-17 0 -25 9t-22 43q-20 49 -50.5 67.5t-89.5 18.5h-151v-572h319 q143 0 203.5 39t91.5 152q14 48 22 59.5t30 11.5h53v-354h-969q-10 0 -31 -1.5t-47 -2.5l-55 -2q-16 0 -34 -1l-17 -1q-128 0 -246 56t-204 149.5t-137.5 222.5t-51.5 268zM301 678q0 -173 40.5 -304.5t115.5 -203.5q46 -43 121 -69.5t153 -26.5q103 0 176 32q41 20 41 66 v1016q0 39 -34.5 65t-77.5 34.5t-91 8.5q-224 0 -334 -153t-110 -465z" />
<glyph unicode="&#x153;" horiz-adv-x="1689" d="M66 465q0 212 129.5 354t324.5 142q112 0 197.5 -44t154.5 -135q69 92 152.5 135.5t192.5 43.5q103 0 184.5 -45t134.5 -130q34 -54 49.5 -119.5t18.5 -162.5h-641v-41q0 -175 91 -288.5t232 -113.5q78 0 142 37.5t137 126.5l59 -45q-92 -116 -175 -161.5t-200 -45.5 q-239 0 -377 193q-129 -193 -350 -193q-195 0 -325.5 140.5t-130.5 351.5zM276 489q0 -217 65 -330.5t189 -113.5q117 0 179.5 108t62.5 312q0 207 -63.5 315.5t-184.5 108.5q-118 0 -183 -104.5t-65 -295.5zM969 596h440q-3 84 -15.5 131.5t-41.5 79.5q-56 65 -152 65 q-95 0 -156.5 -73t-74.5 -203z" />
<glyph unicode="&#x178;" horiz-adv-x="1265" d="M14 1327v39h439v-39q0 -15 -11 -22.5t-47 -14.5q-35 -9 -35 -39q0 -14 29 -67l299 -500l277 479q36 63 36 90q0 26 -55 39q-25 7 -34 14.5t-9 20.5v39h350v-39q0 -21 -30 -29q-40 -11 -61 -30.5t-60 -83.5l-369 -609v-413q0 -11 1 -19.5t1.5 -15t3.5 -12t4 -9.5t6.5 -8 t7 -5.5t10 -5t10.5 -4.5t13.5 -4.5t14.5 -4.5q20 -6 28.5 -14.5t8.5 -24.5v-35h-418v35q0 21 10 29t35 12q39 6 51 23t12 63v397l-358 604q-24 39 -49 72q-17 28 -35 41t-53 22q-23 3 -23 29zM365 1610q0 47 34.5 80.5t81.5 33.5q50 0 83.5 -33.5t33.5 -82.5q0 -47 -35 -82 t-82 -35q-49 0 -82.5 34.5t-33.5 84.5zM713 1610q0 47 34.5 80.5t81.5 33.5q50 0 83.5 -33.5t33.5 -82.5q0 -47 -35 -82t-82 -35q-49 0 -82.5 34.5t-33.5 84.5z" />
<glyph unicode="&#x2c6;" horiz-adv-x="1024" d="M209 1139l207 145q53 37 94 37q43 0 96 -37l207 -145l-45 -64l-158 74q-66 29 -100 29q-32 0 -98 -29l-158 -74z" />
<glyph unicode="&#x2dc;" horiz-adv-x="1024" d="M229 1163q0 37 63 79t118 42q46 0 143 -39q56 -22 88 -22t58 14t65 51l20 -26q9 -18 9 -25q0 -33 -45 -78q-64 -61 -144 -61q-43 0 -123 35q-66 28 -104 28q-70 0 -123 -59l-16 31q-9 27 -9 30z" />
<glyph unicode="&#x2000;" horiz-adv-x="906" />
<glyph unicode="&#x2001;" horiz-adv-x="1812" />
<glyph unicode="&#x2002;" horiz-adv-x="906" />
<glyph unicode="&#x2003;" horiz-adv-x="1812" />
<glyph unicode="&#x2004;" horiz-adv-x="604" />
<glyph unicode="&#x2005;" horiz-adv-x="453" />
<glyph unicode="&#x2006;" horiz-adv-x="302" />
<glyph unicode="&#x2007;" horiz-adv-x="302" />
<glyph unicode="&#x2008;" horiz-adv-x="226" />
<glyph unicode="&#x2009;" horiz-adv-x="362" />
<glyph unicode="&#x200a;" horiz-adv-x="100" />
<glyph unicode="&#x2010;" horiz-adv-x="436" d="M0 385v158h436v-158h-436z" />
<glyph unicode="&#x2011;" horiz-adv-x="436" d="M0 385v158h436v-158h-436z" />
<glyph unicode="&#x2012;" horiz-adv-x="436" d="M0 385v158h436v-158h-436z" />
<glyph unicode="&#x2013;" d="M47 385v160h860v-160h-860z" />
<glyph unicode="&#x2014;" horiz-adv-x="1310" d="M0 385v160h1311v-160h-1311z" />
<glyph unicode="&#x2018;" horiz-adv-x="505" d="M123 1071q0 83 39 160.5t125 165.5l43 -43q-48 -57 -79 -123.5t-30 -112.5q27 6 47 6q47 0 81 -34.5t34 -81.5q0 -49 -35 -83t-86 -34q-61 0 -100 50t-39 130z" />
<glyph unicode="&#x2019;" horiz-adv-x="505" d="M123 1282q0 49 35 83t86 34q62 0 100.5 -50.5t38.5 -131.5q0 -82 -39 -160.5t-125 -165.5l-45 43q49 55 80 122t31 115q-27 -6 -47 -6q-47 0 -81 35t-34 82z" />
<glyph unicode="&#x201a;" horiz-adv-x="505" d="M123 88q0 49 35 83t86 34q61 0 100 -50t39 -130q0 -82 -39 -159.5t-125 -166.5l-45 45q49 53 80 120.5t31 115.5q-41 -9 -47 -9q-44 -2 -79.5 34t-35.5 83z" />
<glyph unicode="&#x201c;" horiz-adv-x="878" d="M123 1073q0 83 39 161t125 167l43 -45q-48 -55 -79 -122t-30 -114q27 6 47 6q47 0 82 -34.5t35 -81.5q0 -51 -35 -85t-88 -34q-62 0 -100.5 50.5t-38.5 131.5zM494 1071q0 84 38.5 161.5t124.5 164.5l45 -43q-49 -55 -79.5 -121.5t-30.5 -114.5q27 6 47 6q47 0 82 -34.5 t35 -81.5q0 -51 -35 -85t-88 -34q-62 0 -100.5 50.5t-38.5 131.5z" />
<glyph unicode="&#x201d;" horiz-adv-x="878" d="M123 1282q0 51 35 85t88 34q62 0 100.5 -50.5t38.5 -131.5q0 -84 -39 -162.5t-125 -165.5l-45 43q49 55 80 122t31 115q-27 -6 -47 -6q-47 0 -82 35t-35 82zM494 1278q0 51 35 85t87 34q62 0 101 -51t39 -132q0 -83 -39 -160t-125 -165l-43 43q48 56 78.5 122t29.5 113 q-27 -6 -47 -6q-47 0 -81.5 35t-34.5 82z" />
<glyph unicode="&#x201e;" horiz-adv-x="878" d="M123 88q0 51 35 85t88 34q62 0 100.5 -50.5t38.5 -131.5q0 -83 -39 -160.5t-125 -165.5l-45 43q49 53 80 120t31 115q-27 -6 -47 -6q-47 0 -82 35t-35 82zM494 84q0 51 35 85t87 34q62 0 101 -51t39 -132q0 -83 -38.5 -159t-125.5 -166l-43 43q48 56 78.5 123t29.5 112 q-27 -6 -47 -6q-47 0 -81.5 35t-34.5 82z" />
<glyph unicode="&#x2022;" horiz-adv-x="1366" d="M401 692q0 120 83.5 202.5t203.5 82.5q115 0 198 -84t83 -201t-83 -199.5t-200 -82.5q-118 0 -201.5 82.5t-83.5 199.5z" />
<glyph unicode="&#x2026;" horiz-adv-x="1433" d="M123 98q0 48 35 82.5t84 34.5q47 0 81.5 -35t34.5 -82q0 -50 -34 -84t-84 -34q-48 0 -82.5 34.5t-34.5 83.5zM600 98q0 48 35 82.5t84 34.5q47 0 82 -35t35 -82q0 -49 -34.5 -83.5t-84.5 -34.5q-48 0 -82.5 34.5t-34.5 83.5zM1079 98q0 48 35 82.5t84 34.5q47 0 82 -35 t35 -82q0 -49 -34.5 -83.5t-84.5 -34.5q-48 0 -82.5 34.5t-34.5 83.5z" />
<glyph unicode="&#x202f;" horiz-adv-x="362" />
<glyph unicode="&#x2039;" horiz-adv-x="464" d="M82 465l223 356l49 -28l-121 -328l113 -328l-53 -28z" />
<glyph unicode="&#x203a;" horiz-adv-x="464" d="M109 135l122 328l-114 328l55 30l209 -358l-223 -354z" />
<glyph unicode="&#x205f;" horiz-adv-x="453" />
<glyph unicode="&#x20ac;" horiz-adv-x="1300" d="M47 553l35 82h96q-2 16 -2 43q0 16 2 39h-131l35 82h102q37 269 199.5 435.5t388.5 166.5q134 0 266 -78q43 -27 62 -27q20 0 30 29h76v-356h-57q-20 0 -31 13t-24 56q-51 151 -123 217t-187 66q-163 0 -260.5 -135t-117.5 -387h497l-35 -82h-467v-39q0 -23 2 -43h431 l-35 -82h-389q29 -235 137 -361t280 -126q134 0 246 92q37 32 115 123l63 -52q-95 -139 -203.5 -201.5t-254.5 -62.5q-238 0 -404.5 160.5t-204.5 427.5h-137z" />
<glyph unicode="&#x2122;" horiz-adv-x="1687" d="M10 1176v208q42 -18 107 -18h471q52 0 102 18v-208h-35q-14 0 -22.5 6.5t-18.5 27.5q-31 63 -51 76.5t-84 13.5h-63v-616q0 -21 7 -29.5t26 -11.5h14q24 -3 24 -29v-26h-274v26q0 23 29 29h10q20 3 26.5 11t6.5 30v616h-70q-62 0 -88.5 -17.5t-38.5 -68.5 q-6 -22 -13.5 -30t-21.5 -8h-43zM745 588v24q0 19 5 24.5t28 14.5q17 8 24 26t7 58v535q0 22 -5.5 29.5t-27.5 11.5h-8q-23 7 -23 28v27h234l219 -573l221 573h223v-27q0 -25 -22 -28h-8q-20 -3 -26.5 -11t-6.5 -30v-586q0 -22 6.5 -30t26.5 -11h10q20 -3 20 -29v-26h-260 v26q0 21 27 29h4q25 6 30 12t5 29v549l-246 -645h-74l-243 645v-481q0 -50 7.5 -73t27.5 -30t24 -13t4 -24v-24h-203z" />
<glyph unicode="&#xe000;" horiz-adv-x="931" d="M0 0v932h932v-932h-932z" />
</font>
</defs>
</svg>
